<?xml version="1.0" encoding="utf-8"?>
<!-- Generator: Adobe Illustrator 21.0.0, SVG Export Plug-In . SVG Version: 6.00 Build 0)  -->
<svg version="1.1" id="Layer_1" xmlns="http://www.w3.org/2000/svg" xmlns:xlink="http://www.w3.org/1999/xlink" x="0px" y="0px"
	 viewBox="0 0 30 30" style="enable-background:new 0 0 30 30;" xml:space="preserve">
<style type="text/css">
	.st0{fill:#FFFFFF;}
</style>
<path class="st0" d="M15.1,28L15.1,28C7.9,28,2,22,1.9,15c0-3.5,1.3-6.8,3.8-9.2C8.1,3.4,11.4,2,14.9,2c0,0,0,0,0.1,0
	c7.1,0,13,5.9,13.1,13c0,3.5-1.3,6.8-3.8,9.2C21.9,26.7,18.6,28,15.1,28z M2.6,14.9c0,6.8,5.6,12.4,12.4,12.4c0,0,0,0,0.1,0
	c3.3,0,6.4-1.3,8.7-3.6s3.6-5.4,3.6-8.7c0-6.8-5.6-12.4-12.4-12.4c0,0,0,0-0.1,0c-3.3,0-6.4,1.3-8.7,3.6C3.9,8.5,2.6,11.7,2.6,14.9z
	 M17.7,15l-3.9-3.9l-0.5,0.5l3.4,3.4l-3.4,3.4l0.5,0.5L17.7,15z"/>
</svg>
