<?xml version="1.0" encoding="utf-8"?>
<!-- Generator: Adobe Illustrator 22.0.1, SVG Export Plug-In . SVG Version: 6.00 Build 0)  -->
<svg version="1.1" id="Layer_1" xmlns="http://www.w3.org/2000/svg" xmlns:xlink="http://www.w3.org/1999/xlink" x="0px" y="0px"
	 viewBox="0 0 30 30" style="enable-background:new 0 0 30 30;" xml:space="preserve">
<style type="text/css">
	.st0{fill:#FFFFFF;}
</style>
<g id="Icons_130_">
	<g>
		<g id="Black_8_" transform="translate(-700.000000, -169.000000)">
			<path id="Behance_8_" class="st0" d="M719.1,177.9h7.8v-2.2h-7.8V177.9L719.1,177.9z M720.9,182.7c-0.5,0.5-0.8,1.2-0.9,2.1h6.1
				c-0.1-0.9-0.4-1.6-0.9-2.1c-0.6-0.5-1.3-0.7-2.1-0.7C722.1,182,721.4,182.2,720.9,182.7L720.9,182.7L720.9,182.7z M726.2,179.7
				c0.9,0.4,1.7,1.1,2.3,2c0.6,0.8,0.9,1.7,1.1,2.7c0.1,0.6,0.1,1.5,0.1,2.6h-9.8c0.1,1.3,0.5,2.3,1.4,2.8c0.5,0.3,1.2,0.5,1.9,0.5
				c0.8,0,1.4-0.2,1.9-0.6c0.3-0.2,0.5-0.5,0.7-0.9h3.6c-0.1,0.8-0.5,1.6-1.3,2.4c-1.2,1.3-2.9,1.9-5.1,1.9c-1.8,0-3.4-0.5-4.7-1.6
				c-1.4-1.1-2.1-2.9-2.1-5.3c0-2.3,0.6-4.1,1.9-5.3c1.2-1.2,2.8-1.8,4.8-1.8C724.2,179.1,725.3,179.3,726.2,179.7L726.2,179.7
				L726.2,179.7z M703.9,184.8v4.8h4.4c0.8,0,1.4-0.1,1.8-0.3c0.8-0.4,1.2-1.1,1.2-2.2c0-0.9-0.4-1.6-1.2-1.9
				c-0.4-0.2-1-0.3-1.8-0.3H703.9L703.9,184.8z M703.9,177.9v4h4.4c0.8,0,1.4-0.1,1.9-0.4c0.5-0.3,0.7-0.8,0.7-1.6
				c0-0.8-0.3-1.4-1-1.7c-0.6-0.2-1.3-0.3-2.1-0.3H703.9L703.9,177.9z M713.8,176.7c0.6,0.8,0.8,1.7,0.8,2.7c0,1.1-0.3,2-0.8,2.6
				c-0.3,0.4-0.8,0.7-1.4,1c0.9,0.3,1.6,0.9,2.1,1.6c0.5,0.7,0.7,1.6,0.7,2.6c0,1.1-0.3,2-0.8,2.9c-0.3,0.6-0.8,1-1.3,1.4
				c-0.6,0.4-1.3,0.7-2.1,0.9c-0.8,0.2-1.6,0.2-2.6,0.2h-8.2v-17.9h8.8C711.3,174.8,712.9,175.5,713.8,176.7L713.8,176.7
				L713.8,176.7z"/>
		</g>
	</g>
</g>
</svg>
