<?xml version="1.0" encoding="utf-8"?>
<!-- Generator: Adobe Illustrator 21.1.0, SVG Export Plug-In . SVG Version: 6.00 Build 0)  -->
<svg version="1.1" id="Layer_1" xmlns="http://www.w3.org/2000/svg" xmlns:xlink="http://www.w3.org/1999/xlink" x="0px" y="0px"
	 viewBox="0 0 100 100" style="enable-background:new 0 0 100 100;" xml:space="preserve">
<style type="text/css">
	.st0{fill:#333333;}
	.st1{fill:url(#SVGID_1_);}
</style>
<g>
	<g>
		<g>
			<path class="st0" d="M0,50C0,22.4,22.4,0,50,0s50,22.4,50,50s-22.4,50-50,50S0,77.6,0,50z"/>
		</g>
		
			<linearGradient id="SVGID_1_" gradientUnits="userSpaceOnUse" x1="2.001490e-05" y1="50" x2="100" y2="50" gradientTransform="matrix(6.123234e-17 1 -1 6.123234e-17 100 0)">
			<stop  offset="0" style="stop-color:#FF00FF"/>
			<stop  offset="1" style="stop-color:#00FFFF"/>
		</linearGradient>
		<path class="st1" d="M100,50c0-27.6-22.4-50-50-50S0,22.4,0,50c0,27.6,22.4,50,50,50S100,77.6,100,50z"/>
	</g>
	<path class="st0" d="M50,5C25.2,5,5,25.2,5,50s20.2,45,45,45c24.8,0,45-20.2,45-45S74.8,5,50,5z M57.8,65.6L35.3,50l22.5-15.6V65.6
		z"/>
</g>
</svg>
