<?xml version="1.0" encoding="utf-8"?>
<!-- Generator: Adobe Illustrator 22.0.1, SVG Export Plug-In . SVG Version: 6.00 Build 0)  -->
<svg version="1.1" id="Layer_1" xmlns="http://www.w3.org/2000/svg" xmlns:xlink="http://www.w3.org/1999/xlink" x="0px" y="0px"
	 viewBox="0 0 30 30" style="enable-background:new 0 0 30 30;" xml:space="preserve">
<style type="text/css">
	.st0{fill:#FFFFFF;}
</style>
<g id="Icons_128_">
	<g>
		<g id="Black_8_" transform="translate(-200.000000, -160.000000)">
			<path id="Facebook_8_" class="st0" d="M215.7,189l-13,0c-0.8,0-1.5-0.7-1.5-1.5l0-24.8c0-0.8,0.7-1.5,1.5-1.5l24.1,0
				c0.8,0,1.5,0.7,1.5,1.5l0,24.8c0,0.8-0.7,1.5-1.5,1.5l-6.9,0l0-10.8l3.5,0l0.5-4.2l-4,0v-2.7c0-1.2,0.3-2,2-2l2.2,0v-3.8
				c-0.4-0.1-1.7-0.2-3.1-0.2c-3.1,0-5.2,2-5.2,5.6v3.1l-3.5,0l0,4.2l3.5,0V189L215.7,189z"/>
		</g>
	</g>
</g>
</svg>
