<?xml version="1.0" encoding="utf-8"?>
<!-- Generator: Adobe Illustrator 22.0.1, SVG Export Plug-In . SVG Version: 6.00 Build 0)  -->
<svg version="1.1" id="Layer_1" xmlns="http://www.w3.org/2000/svg" xmlns:xlink="http://www.w3.org/1999/xlink" x="0px" y="0px"
	 viewBox="0 0 30 30" style="enable-background:new 0 0 30 30;" xml:space="preserve">
<style type="text/css">
	.st0{fill:#FFFFFF;}
</style>
<g id="Icons_111_">
	<g>
		<g id="Black_8_" transform="translate(-504.000000, -860.000000)">
			<path id="Hanghout_8_" class="st0" d="M531.7,870.6c-0.5-2.5-1.5-4.7-3.2-6.5c-0.7-0.8-1.5-1.5-2.4-2c-1.7-1.1-3.5-1.7-5.4-2
				c-0.2,0-0.5,0-0.7-0.1h-1.7c0,0-0.1,0-0.1,0c-0.4,0-0.9,0.1-1.3,0.2c-3.1,0.6-5.7,2.2-7.7,4.7c-1.6,2.1-2.6,4.4-2.7,7.1
				c-0.1,1.3,0,2.5,0.3,3.8c0.2,0.9,0.5,1.8,0.9,2.7c0,0.1,0.1,0.1,0.1,0.2c0.7,1.4,1.6,2.6,2.7,3.6c0.6,0.5,1.2,1,1.9,1.5
				c2.1,1.3,4.3,2,6.7,2c0.1,0,0.2,0,0.2,0.2c0,1.3,0,2.6,0,3.9c0,0.1,0,0.1,0,0.2c0,0,0.1,0,0.1,0c2.5-1.2,4.7-2.6,6.7-4.4
				c0.4-0.4,0.8-0.7,1.1-1.1c0.2-0.2,0.3-0.3,0.5-0.5c0.2-0.3,0.5-0.6,0.7-0.8c0.3-0.3,0.5-0.7,0.7-1c0.5-0.8,1-1.5,1.4-2.4
				c0.2-0.4,0.4-0.8,0.6-1.3c0,0,0,0,0,0c0.5-1.2,0.7-2.4,0.9-3.7c0.1-0.4,0.1-0.9,0.1-1.3C532,872.5,531.9,871.5,531.7,870.6
				L531.7,870.6z M514.6,878.6c-0.2,0-0.3-0.1-0.4-0.2c0-0.5,0-1,0-1.5c0-0.1,0-0.3,0.1-0.4c0.1-0.1,0.1-0.1,0.2-0.1
				c0.3-0.1,0.5-0.1,0.7-0.3c0.4-0.3,0.7-0.6,0.8-1.1c0-0.1,0-0.2,0.1-0.2c-1,0-2,0-3,0c-0.1,0-0.2,0-0.3,0
				c-0.3-0.1-0.5-0.3-0.5-0.6c0-1.5,0-3.1,0-4.6c0-0.2,0-0.5,0.2-0.7c0.1-0.1,0.2-0.2,0.4-0.2c1.5,0,3,0,4.5,0
				c0.4,0,0.6,0.1,0.6,0.8c0,0.1,0,3.6,0,5.3c0,1.1-0.4,2.1-1.3,2.8c0,0-0.1,0.1-0.1,0.1c-0.4,0.3-0.9,0.6-1.4,0.7
				C515,878.5,514.8,878.6,514.6,878.6z M523.4,878.4C523.4,878.4,523.4,878.4,523.4,878.4c-0.3,0.1-0.6,0.2-0.9,0.2
				c-0.2,0-0.4-0.1-0.4-0.3c0-0.2,0-0.3,0-0.5c0-0.3,0-0.6,0-0.9c0-0.1,0-0.1,0-0.2c0-0.2,0.1-0.3,0.4-0.4c0.3-0.1,0.7-0.2,0.9-0.4
				c0.3-0.3,0.5-0.7,0.6-1.1c-0.9,0-1.9,0-2.8,0c-0.1,0-0.2,0-0.3,0c-0.4,0-0.6-0.3-0.6-0.7c0-1.5,0-3,0-4.6c0,0,0,0,0,0
				c0-0.3,0.1-0.5,0.3-0.7c0.1-0.1,0.2-0.1,0.3-0.1c1.5,0,3,0,4.5,0c0.4,0,0.6,0.4,0.6,0.8c0,0.2,0,3.6,0,5.3c0,1.5-0.9,2.9-2.3,3.5
				C523.6,878.3,523.5,878.3,523.4,878.4c0.1,0,0.1,0,0.1,0C523.6,878.4,523.5,878.4,523.4,878.4
				C523.5,878.4,523.5,878.4,523.4,878.4z"/>
		</g>
	</g>
</g>
</svg>
