<?xml version="1.0" encoding="utf-8"?>
<!-- Generator: Adobe Illustrator 22.0.1, SVG Export Plug-In . SVG Version: 6.00 Build 0)  -->
<svg version="1.1" id="Layer_1" xmlns="http://www.w3.org/2000/svg" xmlns:xlink="http://www.w3.org/1999/xlink" x="0px" y="0px"
	 viewBox="0 0 100 100" style="enable-background:new 0 0 100 100;" xml:space="preserve">
<style type="text/css">
	.st0{fill:#FFFFFF;}
</style>
<g>
	<g>
		<path class="st0" d="M50,93C26.4,93,7.2,73.8,7.2,50.2S26.4,7.4,50,7.4s42.8,19.2,42.8,42.8S73.6,93,50,93z M50,9.6
			C27.6,9.6,9.4,27.8,9.4,50.2S27.6,90.8,50,90.8s40.6-18.2,40.6-40.6S72.4,9.6,50,9.6z"/>
	</g>
	<g>
		<g>
			<path class="st0" d="M49.1,44.1c0-0.8-0.3-1.2-1-1.2c-0.7,0-1.3,0.4-1.9,1.1c-0.6,0.7-1.2,1.9-1.8,3.5l-1.2,3h-1.1l1.6-4.4
				c1.4-4,4.1-6,8.1-6c1.8,0,3.1,0.4,3.9,1.3c0.8,0.9,1.2,2,1.2,3.4c0,1.1-0.2,2.3-0.6,3.4L50.2,66c-0.2,0.7-0.3,1.3-0.3,1.7
				c0,0.8,0.4,1.2,1.2,1.2c0.6,0,1.2-0.3,1.8-1c0.6-0.7,1.2-1.9,1.9-3.6l1-2.8h1.1l-1.5,4.2c-1.4,4-4,6-7.8,6
				c-3.5,0-5.3-1.6-5.3-4.8c0-1.3,0.3-2.7,0.9-4.4l5.7-16.6C49,45,49.1,44.4,49.1,44.1z M52.7,27.5c1.1-0.9,2.5-1.4,4.2-1.4
				c1.4,0,2.4,0.3,3.2,1c0.8,0.6,1.1,1.5,1.1,2.6c0,1.5-0.6,2.8-1.7,3.8c-1.2,1-2.6,1.5-4.3,1.5c-1.4,0-2.5-0.3-3.2-1
				c-0.7-0.7-1.1-1.6-1-2.8C51,29.6,51.5,28.4,52.7,27.5z"/>
		</g>
	</g>
</g>
</svg>
