<?xml version="1.0" encoding="utf-8"?>
<!-- Generator: Adobe Illustrator 22.0.1, SVG Export Plug-In . SVG Version: 6.00 Build 0)  -->
<svg version="1.1" id="Layer_1" xmlns="http://www.w3.org/2000/svg" xmlns:xlink="http://www.w3.org/1999/xlink" x="0px" y="0px"
	 viewBox="0 0 30 30" style="enable-background:new 0 0 30 30;" xml:space="preserve">
<style type="text/css">
	.st0{fill:#FFFFFF;}
</style>
<g id="Icons_126_">
	<g>
		<g id="Black_8_" transform="translate(-500.000000, -160.000000)">
			<path id="Instagram_8_" class="st0" d="M515,161c-3.8,0-4.3,0-5.8,0.1c-1.5,0.1-2.5,0.3-3.4,0.7c-0.9,0.4-1.7,0.8-2.5,1.6
				c-0.8,0.8-1.3,1.6-1.6,2.5c-0.3,0.9-0.6,1.9-0.7,3.4c-0.1,1.5-0.1,2-0.1,5.8c0,3.8,0,4.3,0.1,5.8c0.1,1.5,0.3,2.5,0.7,3.4
				c0.4,0.9,0.8,1.7,1.6,2.5c0.8,0.8,1.6,1.3,2.5,1.6c0.9,0.3,1.9,0.6,3.4,0.7c1.5,0.1,2,0.1,5.8,0.1c3.8,0,4.3,0,5.8-0.1
				c1.5-0.1,2.5-0.3,3.4-0.7c0.9-0.4,1.7-0.8,2.5-1.6c0.8-0.8,1.3-1.6,1.6-2.5c0.3-0.9,0.6-1.9,0.7-3.4c0.1-1.5,0.1-2,0.1-5.8
				c0-3.8,0-4.3-0.1-5.8c-0.1-1.5-0.3-2.5-0.7-3.4c-0.4-0.9-0.8-1.7-1.6-2.5c-0.8-0.8-1.6-1.3-2.5-1.6c-0.9-0.3-1.9-0.6-3.4-0.7
				C519.3,161,518.8,161,515,161z M515,163.5c3.7,0,4.2,0,5.7,0.1c1.4,0.1,2.1,0.3,2.6,0.5c0.7,0.3,1.1,0.6,1.6,1
				c0.5,0.5,0.8,1,1,1.6c0.2,0.5,0.4,1.2,0.5,2.6c0.1,1.5,0.1,1.9,0.1,5.7c0,3.7,0,4.2-0.1,5.7c-0.1,1.4-0.3,2.1-0.5,2.6
				c-0.3,0.7-0.6,1.1-1,1.6c-0.5,0.5-1,0.8-1.6,1c-0.5,0.2-1.2,0.4-2.6,0.5c-1.5,0.1-1.9,0.1-5.7,0.1c-3.7,0-4.2,0-5.7-0.1
				c-1.4-0.1-2.1-0.3-2.6-0.5c-0.7-0.3-1.1-0.6-1.6-1c-0.5-0.5-0.8-1-1-1.6c-0.2-0.5-0.4-1.2-0.5-2.6c-0.1-1.5-0.1-1.9-0.1-5.7
				c0-3.7,0-4.2,0.1-5.7c0.1-1.4,0.3-2.1,0.5-2.6c0.3-0.7,0.6-1.1,1-1.6c0.5-0.5,1-0.8,1.6-1c0.5-0.2,1.2-0.4,2.6-0.5
				C510.8,163.5,511.3,163.5,515,163.5z M515,167.8c-4,0-7.2,3.2-7.2,7.2c0,4,3.2,7.2,7.2,7.2c4,0,7.2-3.2,7.2-7.2
				C522.2,171,519,167.8,515,167.8z M515,179.7c-2.6,0-4.7-2.1-4.7-4.7c0-2.6,2.1-4.7,4.7-4.7c2.6,0,4.7,2.1,4.7,4.7
				C519.7,177.6,517.6,179.7,515,179.7z M524.2,167.5c0,0.9-0.8,1.7-1.7,1.7c-0.9,0-1.7-0.8-1.7-1.7c0-0.9,0.8-1.7,1.7-1.7
				C523.4,165.8,524.2,166.6,524.2,167.5z"/>
		</g>
	</g>
</g>
</svg>
