<?xml version="1.0" encoding="utf-8"?>
<!-- Generator: Adobe Illustrator 22.0.1, SVG Export Plug-In . SVG Version: 6.00 Build 0)  -->
<svg version="1.1" id="Layer_1" xmlns="http://www.w3.org/2000/svg" xmlns:xlink="http://www.w3.org/1999/xlink" x="0px" y="0px"
	 viewBox="0 0 100 100" style="enable-background:new 0 0 100 100;" xml:space="preserve">
<style type="text/css">
	.st0{fill:#FFFFFF;}
</style>
<g>
	<g>
		<path class="st0" d="M50,22.5C64.6,22.5,77,33.1,77,49.6c0,16.4-12.4,27-26.9,27c-14.6,0-27-10.6-27-27C23,33.1,35.4,22.5,50,22.5
			z M50,65.2c7.2,0,14.9-4.8,14.9-15.7S57.2,33.8,50,33.8c-7.3,0-15,4.9-15,15.7S42.8,65.2,50,65.2z"/>
	</g>
	<g>
		<path class="st0" d="M94,94H6V6H94V94z M8.7,91.3h82.6V8.7H8.7V91.3z"/>
	</g>
</g>
</svg>
