<?xml version="1.0" encoding="utf-8"?>
<!-- Generator: Adobe Illustrator 22.0.1, SVG Export Plug-In . SVG Version: 6.00 Build 0)  -->
<svg version="1.1" id="Layer_1" xmlns="http://www.w3.org/2000/svg" xmlns:xlink="http://www.w3.org/1999/xlink" x="0px" y="0px"
	 viewBox="0 0 100 100" style="enable-background:new 0 0 100 100;" xml:space="preserve">
<style type="text/css">
	.st0{fill:#FFFFFF;}
</style>
<g>
	<g>
		<path class="st0" d="M50,7.6c23.4,0,42.4,19,42.4,42.4S73.4,92.4,50,92.4S7.6,73.4,7.6,50S26.6,7.6,50,7.6 M50,3.9
			C24.5,3.9,3.9,24.5,3.9,50c0,25.5,20.6,46.1,46.1,46.1c25.5,0,46.1-20.6,46.1-46.1C96.1,24.5,75.5,3.9,50,3.9L50,3.9z"/>
	</g>
	<path class="st0" d="M63.2,57.5c-6.1,7.8-11.2,11.6-15.4,11.6c-2.5,0-4.7-2.3-6.5-7c-1.2-4.4-2.4-8.7-3.6-13
		c-1.3-4.7-2.8-7.2-4.2-7.2c-0.4,0-1.5,0.7-3.5,2.1l-2.1-2.7c2.2-1.9,4.4-3.8,6.4-5.7c2.9-2.5,5.1-3.8,6.5-4c3.4-0.4,5.6,2.1,6.4,7
		c0.8,5.3,1.5,8.7,1.8,10.1c1,4.5,2.1,6.7,3.3,6.7c1,0,2.3-1.5,4.2-4.4c1.8-2.9,2.9-5.1,3-6.7c0.2-2.5-0.7-3.8-3-3.8
		c-1.1,0-2.2,0.2-3.3,0.7c2.2-7,6.4-10.4,12.6-10.3c4.6,0.1,6.8,3,6.4,8.7C72.1,44.3,69,50.1,63.2,57.5z"/>
</g>
</svg>
