<?xml version="1.0" encoding="utf-8"?>
<!-- Generator: Adobe Illustrator 22.0.1, SVG Export Plug-In . SVG Version: 6.00 Build 0)  -->
<svg version="1.1" id="Layer_1" xmlns="http://www.w3.org/2000/svg" xmlns:xlink="http://www.w3.org/1999/xlink" x="0px" y="0px"
	 viewBox="0 0 100 100" style="enable-background:new 0 0 100 100;" xml:space="preserve">
<style type="text/css">
	.st0{fill:#FFFFFF;}
</style>
<g>
	<g>
		<g>
			<path class="st0" d="M50,96.1c-6.3,0-12.3-1.2-17.9-3.6c-5.5-2.4-10.4-5.7-14.6-9.9c-4.2-4.2-7.5-9.1-9.9-14.7
				C5.1,62.3,3.9,56.3,3.9,50c0-6.3,1.2-12.3,3.6-17.9c2.4-5.5,5.7-10.5,9.9-14.7c4.2-4.2,9.2-7.5,14.7-9.9
				C37.7,5.1,43.7,3.9,50,3.9c6.3,0,12.3,1.2,17.9,3.6c5.5,2.4,10.5,5.7,14.7,9.9c4.2,4.2,7.5,9.1,9.9,14.7
				c2.4,5.6,3.6,11.6,3.6,17.9c0,6.3-1.2,12.3-3.6,17.9c-2.4,5.5-5.7,10.4-9.9,14.6c-4.2,4.2-9.1,7.5-14.7,9.9
				C62.3,94.9,56.3,96.1,50,96.1z M50,8.1c-5.7,0-11.2,1.1-16.3,3.3c-5,2.2-9.5,5.2-13.4,9c-3.8,3.8-6.9,8.3-9,13.3
				C9.2,38.8,8.1,44.3,8.1,50c0,5.8,1.1,11.2,3.3,16.3c2.2,5,5.2,9.5,9,13.4c3.8,3.8,8.3,6.9,13.4,9c5,2.2,10.5,3.3,16.3,3.3
				c5.7,0,11.2-1.1,16.3-3.3c5.1-2.2,9.6-5.2,13.3-9c3.8-3.9,6.8-8.4,9-13.4c2.2-5,3.3-10.5,3.3-16.3c0-5.7-1.1-11.2-3.3-16.3
				c-2.2-5.1-5.2-9.5-9-13.4c-3.8-3.8-8.3-6.8-13.4-9C61.2,9.2,55.7,8.1,50,8.1z"/>
		</g>
	</g>
	<g>
		<path class="st0" d="M60.2,42.2h-7v-4.5c0-0.9,0.2-1.5,0.7-1.8c0.4-0.3,0.9-0.4,1.4-0.4h4.9V28h-6.8c-1.9,0-3.4,0.3-4.7,1
			c-1.2,0.6-2.2,1.4-2.9,2.4c-0.7,1-1.1,1.9-1.4,3c-0.2,1.1-0.4,2-0.4,2.9v5h-4.3v7.8h4.3V72h9.1V50.1h6.3L60.2,42.2z"/>
	</g>
</g>
</svg>
