<?xml version="1.0" encoding="utf-8"?>
<!-- Generator: Adobe Illustrator 22.0.1, SVG Export Plug-In . SVG Version: 6.00 Build 0)  -->
<svg version="1.1" id="Layer_1" xmlns="http://www.w3.org/2000/svg" xmlns:xlink="http://www.w3.org/1999/xlink" x="0px" y="0px"
	 viewBox="0 0 100 100" style="enable-background:new 0 0 100 100;" xml:space="preserve">
<style type="text/css">
	.st0{fill:#FFFFFF;}
</style>
<g>
	<g>
		<g>
			<path class="st0" d="M50.1,7.8c23.4,0,42.3,19,42.3,42.3s-19,42.3-42.3,42.3S7.7,73.5,7.7,50.1C7.7,26.8,26.7,7.8,50.1,7.8
				 M50.1,4.1c-25.4,0-46,20.6-46,46c0,25.4,20.6,46,46,46c25.4,0,46-20.6,46-46C96.1,24.7,75.5,4.1,50.1,4.1L50.1,4.1z"/>
		</g>
	</g>
	<g>
		<path class="st0" d="M61.3,35.5L61.3,35.5c-1.3,0-2.3,1-2.3,2.3c0,1.3,0.8,2.3,2.3,2.4l0,0c1.3,0,2.3-1,2.3-2.3
			C63.6,36.4,62.7,35.5,61.3,35.5z"/>
		<path class="st0" d="M70.8,39.6c0-2.4-0.8-4.7-2.3-6.7c-2.2-3-5.3-4.4-9-4.5c-3.1-0.1-6.3-0.1-9.4-0.1c-3.3,0-6.4,0-9.7,0.1
			c-3.5,0.1-6.7,1.6-8.8,4.5c-1.6,2.1-2.3,4.5-2.4,7c-0.2,3,0,6,0,10.3c0.2,2.8-0.7,6.9,0.6,10.8c0.5,1.5,1,2.9,1.8,4.2
			c2.2,3.1,5.4,4.5,9,4.6c2.9,0.1,5.8,0.1,8.8,0.1c3.3,0,6.7,0,9.9-0.1c2.4,0,4.8-0.8,6.8-2.3c3-2.3,4.4-5.4,4.5-9.1
			C71,52,70.9,45.7,70.8,39.6z M66.9,59.7c-0.2,3-2.9,5.7-5.9,5.9c-3.6,0.4-7.3,0.6-10.8,0.6c-3.6,0-7.3-0.2-10.9-0.6
			c-3-0.4-5.6-2.9-5.9-5.9c-0.7-7.3-0.7-14.4,0-21.7c0.4-2.9,2.9-5.6,5.9-5.9c3.6-0.4,7.3-0.6,10.9-0.6c3.6,0,7.3,0.2,10.9,0.6
			C64,32.4,66.7,35,67,38c0.4,3.6,0.5,7.3,0.7,10.9C67.4,52.5,67.3,56.1,66.9,59.7z"/>
	</g>
	<path class="st0" d="M50.6,38.4h-0.4h-0.4c-5.6,0-10.2,5-10.2,10.6s4.8,10.5,10.5,10.5l0,0c5.7,0,10.6-4.8,10.6-10.5
		C60.7,43.3,56.1,38.4,50.6,38.4z M50.1,55.9L50.1,55.9c-3.9,0-7-3.3-6.9-7.1c0-3.9,3.1-6.9,7-6.9l0,0c3.9,0,6.9,3.1,6.9,7
		C57.1,52.9,54,55.9,50.1,55.9z"/>
</g>
</svg>
