<?xml version="1.0" encoding="utf-8"?>
<!-- Generator: Adobe Illustrator 22.0.1, SVG Export Plug-In . SVG Version: 6.00 Build 0)  -->
<svg version="1.1" id="Layer_1" xmlns="http://www.w3.org/2000/svg" xmlns:xlink="http://www.w3.org/1999/xlink" x="0px" y="0px"
	 viewBox="0 0 100 100" style="enable-background:new 0 0 100 100;" xml:space="preserve">
<style type="text/css">
	.st0{fill:#FFFFFF;}
</style>
<g>
	<g>
		<g>
			<path class="st0" d="M50.1,8.5c23.4,0,42.3,19,42.3,42.3s-19,42.3-42.3,42.3S7.7,74.2,7.7,50.9S26.7,8.5,50.1,8.5 M50.1,4.9
				c-25.4,0-46,20.6-46,46c0,25.4,20.6,46,46,46c25.4,0,46-20.6,46-46C96.1,25.5,75.5,4.9,50.1,4.9L50.1,4.9z"/>
		</g>
	</g>
	<path class="st0" d="M72.7,51.6c-0.2-1.6-0.7-2.9-1.6-4.1c-1-1.3-2.1-2.3-3.5-2.9s-3-1-4.7-1c-3,0-5.3,1-7.3,2.8
		c-1.8,1.8-2.8,4.5-2.8,8c0,3.8,1,6.4,3.1,8c2.1,1.7,4.5,2.4,7.1,2.4c3.3,0,5.8-1,7.6-2.9c1.2-1.2,1.8-2.4,1.9-3.6h-5.4
		c-0.4,0.6-0.7,1.1-1.1,1.3c-0.7,0.6-1.7,1-2.9,1c-1.1,0-2.1-0.2-2.9-0.7c-1.3-0.8-2.1-2.2-2.2-4.2h14.8
		C73,53.9,72.8,52.6,72.7,51.6z M58.3,52.2c0.2-1.3,0.6-2.3,1.5-3.1c0.7-0.7,1.8-1.1,3.1-1.1c1.2,0,2.3,0.4,3.1,1.1
		c0.8,0.7,1.3,1.8,1.5,3.1H58.3z"/>
	<path class="st0" d="M50,52.1c-0.7-1.1-1.8-1.9-3.1-2.4c1-0.5,1.6-1,2.1-1.6c0.8-1,1.2-2.3,1.2-4c0-1.6-0.4-3-1.2-4.1
		c-1.5-1.8-3.8-2.8-7.1-2.9H28.5v27h12.3c1.5,0,2.7-0.1,3.9-0.4c1.2-0.2,2.2-0.7,3.1-1.3c0.7-0.6,1.5-1.3,1.9-2.2
		c0.8-1.2,1.2-2.7,1.2-4.4C51.1,54.4,50.7,53.2,50,52.1z M34,41.8h5.9c1.3,0,2.4,0.1,3.3,0.4c1,0.4,1.5,1.2,1.5,2.5
		c0,1.1-0.4,1.9-1.1,2.4c-0.7,0.5-1.7,0.7-2.9,0.7H34L34,41.8L34,41.8z M43.4,59c-0.6,0.4-1.6,0.5-2.8,0.5H34v-7.3h6.8
		c1.2,0,2.1,0.1,2.8,0.5c1.2,0.5,1.7,1.5,1.7,2.9C45.2,57.3,44.6,58.4,43.4,59z"/>
	<rect x="56.9" y="38.4" class="st0" width="11.7" height="3.4"/>
</g>
</svg>
