<?xml version="1.0" encoding="utf-8"?>
<!-- Generator: Adobe Illustrator 22.0.1, SVG Export Plug-In . SVG Version: 6.00 Build 0)  -->
<svg version="1.1" id="Layer_1" xmlns="http://www.w3.org/2000/svg" xmlns:xlink="http://www.w3.org/1999/xlink" x="0px" y="0px"
	 viewBox="0 0 100 100" style="enable-background:new 0 0 100 100;" xml:space="preserve">
<style type="text/css">
	.st0{fill:#FFFFFF;}
</style>
<g>
	<g>
		<path class="st0" d="M50,96.1c-6.3,0-12.3-1.2-17.9-3.6c-5.5-2.4-10.4-5.7-14.6-9.9c-4.2-4.2-7.5-9.1-9.9-14.6
			C5.2,62.3,3.9,56.3,3.9,50c0-6.2,1.2-12.2,3.6-17.9c2.3-5.5,5.7-10.4,9.9-14.7c4.4-4.3,9.2-7.5,14.7-9.9C37.7,5.2,43.7,3.9,50,3.9
			s12.3,1.2,17.9,3.6c5.5,2.4,10.5,5.7,14.6,9.9c4.2,4.2,7.5,9.1,9.9,14.6c2.4,5.5,3.6,11.5,3.6,17.9c0,6.3-1.2,12.3-3.6,17.9
			c-2.4,5.5-5.7,10.4-9.9,14.6c-4.2,4.2-9.1,7.5-14.7,9.9C62.3,94.8,56.3,96.1,50,96.1z M50,8.1c-5.8,0-11.2,1.1-16.3,3.3
			c-5,2.1-9.4,5.1-13.4,9c-3.8,3.9-6.9,8.4-9,13.3C9.2,38.9,8.1,44.4,8.1,50c0,5.8,1.1,11.2,3.3,16.3c2.2,5,5.2,9.5,9,13.4
			c3.8,3.8,8.3,6.9,13.4,9c5,2.2,10.5,3.3,16.3,3.3c5.7,0,11.2-1.1,16.3-3.3c5.1-2.2,9.6-5.2,13.3-9c3.8-3.9,6.8-8.4,9-13.4
			c2.2-5,3.3-10.5,3.3-16.3c0-5.8-1.1-11.3-3.3-16.3l0,0c-2.2-5.1-5.2-9.5-9-13.4c-3.8-3.8-8.3-6.8-13.4-9C61.3,9.2,55.8,8.1,50,8.1
			z"/>
	</g>
	<polygon class="st0" points="69.9,36.6 30.4,36.6 50.1,53.3 	"/>
	<polygon class="st0" points="42.4,50.6 27.8,38.2 27.8,61.9 	"/>
	<polygon class="st0" points="55.4,52.4 50,57.1 44.6,52.4 28.5,65.2 71.5,65.2 	"/>
	<polygon class="st0" points="57.7,50.6 72.2,61.9 72.2,38.2 	"/>
</g>
</svg>
