<?xml version="1.0" encoding="utf-8"?>
<!-- Generator: Adobe Illustrator 22.0.1, SVG Export Plug-In . SVG Version: 6.00 Build 0)  -->
<svg version="1.1" id="Layer_1" xmlns="http://www.w3.org/2000/svg" xmlns:xlink="http://www.w3.org/1999/xlink" x="0px" y="0px"
	 viewBox="0 0 30 30" style="enable-background:new 0 0 30 30;" xml:space="preserve">
<style type="text/css">
	.st0{fill:#FFFFFF;}
</style>
<g id="Icons_124_">
	<g>
		<g id="Black_8_" transform="translate(-400.000000, -660.000000)">
			<path id="Skype_8_" class="st0" d="M428.2,678.1c0.2-0.9,0.3-1.9,0.3-2.8c0-7.3-6-13.2-13.4-13.2c-0.8,0-1.5,0.1-2.3,0.2
				c-1.2-0.7-2.6-1.2-4.1-1.2c-4.3,0-7.7,3.4-7.7,7.6c0,1.4,0.4,2.7,1.1,3.9c-0.2,0.9-0.3,1.7-0.3,2.6c0,7.3,6,13.2,13.4,13.2
				c0.8,0,1.7-0.1,2.4-0.2c1.1,0.6,2.3,0.9,3.7,0.9c4.3,0,7.7-3.4,7.7-7.6C429,680.2,428.7,679.1,428.2,678.1z M422,681.5
				c-0.6,0.9-1.5,1.5-2.7,2c-1.2,0.5-2.6,0.7-4.2,0.7c-1.9,0-3.5-0.3-4.8-1c-0.9-0.5-1.6-1.1-2.2-1.9c-0.6-0.8-0.9-1.6-0.9-2.4
				c0-0.5,0.2-0.9,0.6-1.2c0.4-0.3,0.8-0.5,1.4-0.5c0.5,0,0.9,0.1,1.2,0.4c0.3,0.3,0.6,0.6,0.8,1.1c0.2,0.5,0.5,1,0.8,1.3
				c0.3,0.3,0.6,0.6,1.1,0.9c0.5,0.2,1.1,0.3,1.9,0.3c1.1,0,2-0.2,2.7-0.7c0.7-0.4,1-1,1-1.6c0-0.5-0.2-0.9-0.5-1.2
				c-0.4-0.3-0.8-0.6-1.4-0.8c-0.6-0.2-1.4-0.4-2.4-0.6c-1.4-0.3-2.6-0.6-3.5-1c-1-0.4-1.7-1-2.3-1.7c-0.6-0.7-0.9-1.6-0.9-2.6
				c0-1,0.3-1.9,0.9-2.7c0.6-0.8,1.5-1.4,2.6-1.8c1.1-0.4,2.4-0.6,3.9-0.6c1.2,0,2.2,0.1,3.1,0.4c0.9,0.3,1.6,0.6,2.2,1.1
				c0.6,0.5,1,0.9,1.3,1.4c0.3,0.5,0.4,1,0.4,1.5c0,0.5-0.2,0.9-0.5,1.3c-0.4,0.4-0.8,0.6-1.4,0.6c-0.5,0-0.9-0.1-1.1-0.4
				c-0.3-0.2-0.5-0.6-0.8-1c-0.3-0.6-0.7-1.1-1.2-1.5c-0.4-0.3-1.2-0.5-2.2-0.5c-1,0-1.7,0.2-2.3,0.6c-0.6,0.4-0.8,0.8-0.8,1.3
				c0,0.3,0.1,0.6,0.3,0.8c0.2,0.2,0.5,0.4,0.8,0.6c0.4,0.2,0.7,0.3,1.1,0.4c0.4,0.1,1,0.3,1.8,0.4c1.1,0.2,2.1,0.5,3,0.8
				c0.9,0.3,1.7,0.6,2.3,1c0.6,0.4,1.1,0.9,1.5,1.6c0.4,0.6,0.5,1.4,0.5,2.3C422.9,679.7,422.6,680.7,422,681.5z"/>
		</g>
	</g>
</g>
</svg>
