<?xml version="1.0" encoding="utf-8"?>
<!-- Generator: Adobe Illustrator 22.0.1, SVG Export Plug-In . SVG Version: 6.00 Build 0)  -->
<svg version="1.1" id="Layer_1" xmlns="http://www.w3.org/2000/svg" xmlns:xlink="http://www.w3.org/1999/xlink" x="0px" y="0px"
	 viewBox="0 0 30 30" style="enable-background:new 0 0 30 30;" xml:space="preserve">
<style type="text/css">
	.st0{fill:#FFFFFF;}
</style>
<g id="Icons_132_">
	<g>
		<g id="Black_8_" transform="translate(-300.000000, -365.000000)">
			<path id="Vimeo_8_" class="st0" d="M330,373.1c-0.1,2.9-2.2,6.8-6.1,11.8c-4.1,5.2-7.5,7.9-10.4,7.9c-1.7,0-3.2-1.6-4.4-4.8
				c-0.8-2.9-1.6-5.9-2.4-8.8c-0.9-3.2-1.9-4.8-2.9-4.8c-0.2,0-1,0.5-2.4,1.4L300,374c1.5-1.3,2.9-2.6,4.4-3.9
				c2-1.7,3.4-2.6,4.4-2.7c2.3-0.2,3.8,1.4,4.3,4.7c0.6,3.6,1,5.9,1.2,6.8c0.7,3,1.4,4.5,2.2,4.5c0.6,0,1.6-1,2.8-2.9
				c1.3-2,1.9-3.4,2-4.5c0.2-1.7-0.5-2.5-2-2.5c-0.7,0-1.5,0.2-2.2,0.5c1.5-4.7,4.3-7.1,8.5-6.9C328.7,367.3,330.2,369.3,330,373.1"
				/>
		</g>
	</g>
</g>
</svg>
