<?xml version="1.0" encoding="utf-8"?>
<!-- Generator: Adobe Illustrator 22.0.1, SVG Export Plug-In . SVG Version: 6.00 Build 0)  -->
<svg version="1.1" id="Layer_1" xmlns="http://www.w3.org/2000/svg" xmlns:xlink="http://www.w3.org/1999/xlink" x="0px" y="0px"
	 viewBox="0 0 30 30" style="enable-background:new 0 0 30 30;" xml:space="preserve">
<style type="text/css">
	.st0{fill:#FFFFFF;}
</style>
<path class="st0" d="M15.2,0.6L15.2,0.6L15.2,0.6C7.3,0.6,1,7,1,14.8c0,3.1,1,6,2.7,8.3l-1.8,5.3l5.5-1.7c2.2,1.5,4.9,2.3,7.8,2.3
	c7.8,0,14.2-6.4,14.2-14.2C29.4,7,23,0.6,15.2,0.6z M23.4,20.7c-0.3,1-1.7,1.8-2.8,2c-0.7,0.2-1.7,0.3-5-1.1c-4.2-1.7-6.9-6-7.1-6.2
	c-0.2-0.3-1.7-2.2-1.7-4.3s1-3,1.5-3.5c0.3-0.4,0.9-0.5,1.5-0.5c0.2,0,0.3,0,0.5,0c0.4,0,0.6,0,0.9,0.7c0.3,0.8,1.2,2.9,1.3,3.1
	c0.1,0.2,0.2,0.5,0.1,0.8c-0.1,0.3-0.3,0.4-0.5,0.7c-0.2,0.2-0.4,0.4-0.6,0.7c-0.2,0.2-0.4,0.5-0.2,0.9c0.2,0.4,1.1,1.8,2.3,2.9
	c1.6,1.4,2.9,1.9,3.3,2.1c0.3,0.1,0.8,0.1,1-0.2c0.3-0.3,0.7-0.9,1.1-1.5c0.3-0.4,0.6-0.5,1-0.3c0.4,0.1,2.4,1.1,2.8,1.3
	c0.4,0.2,0.7,0.3,0.8,0.5C23.8,18.9,23.8,19.7,23.4,20.7z"/>
</svg>
