<?xml version="1.0" encoding="utf-8"?>
<!-- Generator: Adobe Illustrator 21.1.0, SVG Export Plug-In . SVG Version: 6.00 Build 0)  -->
<svg version="1.1" id="Layer_4" xmlns="http://www.w3.org/2000/svg" xmlns:xlink="http://www.w3.org/1999/xlink" x="0px" y="0px"
	 viewBox="0 0 123 487.7" style="enable-background:new 0 0 123 487.7;" xml:space="preserve">
<style type="text/css">
	.st0{fill:url(#SVGID_1_);}
</style>
<linearGradient id="SVGID_1_" gradientUnits="userSpaceOnUse" x1="61.5" y1="497.8055" x2="61.5" y2="23.7201" gradientTransform="matrix(1 0 0 -1 0 490)">
	<stop  offset="0" style="stop-color:#FF00FF"/>
	<stop  offset="1" style="stop-color:#00FFFF"/>
</linearGradient>
<path class="st0" d="M113.1,0c0,8.8-0.3,10.3-0.3,15s0.4,13.2,0.4,16.8c0,12.9-3.6,27.2-17.7,27.2c-9.4,0-15.1-8.5-16.6-17.7h-0.2
	c-0.4,9.1-6.2,22.9-19,22.9c-14.3,0-20.4-11.6-20.4-28.5c0-5.4,0.6-13.4,0.6-19.4c0-5.2-0.3-7.5-0.3-16.3h2c0,4.7,1.1,8.8,7.1,8.8
	H104c6,0,7.2-4.1,7.2-8.8C111.2,0,113.1,0,113.1,0z M53.9,24.4c-7.5,0-11.4,0.9-11.4,10.2c0,8.8,7.2,12.9,15.8,12.9
	c12.2,0,18.3-5.1,18.3-16.2v-6.9H53.9z M79.5,24.4v5.8c0,10.3,8,13,15.8,13c7.9,0,14.7-4.1,14.7-13.7c0-2.8-0.1-5.1-3.6-5.1
	L79.5,24.4z M41.5,97.8h-2c0-7.1,0.3-9.4,0.3-13.3c0-4.1-0.3-6.4-0.3-13.4h2c0,4.3,0.5,7.4,6.3,7.4h28.3c5.7,0,6.7-3.1,6.7-7.4h2
	c0.5,5.1,2,12.5,4.1,17.3c-3.2,0.9-7.3,1.4-11.1,1.5c7.2,3.5,11.1,8.9,11.1,15.1c0,3-1,8.6-6.3,8.6c-2.1,0-4-1.7-4-4.3
	c0-4.4,5.2-4.6,5.6-5.3c0.4-0.5,0.7-1.2,0.7-2.2c0-6.2-10.8-11.3-17.4-11.3H47.8C42,90.4,41.5,93.5,41.5,97.8z M82.2,129
	c-0.3,0-2.1,0.8-4.2,0.8c-2.4,0-4.6-1.4-4.6-4.2c0-2.5,1.9-4.5,5.4-4.5c7.9,0,9.6,12.8,9.6,19.6c0,10.1-3.3,19.9-15.4,19.9H49
	c-2.3,0-6.1,0.2-6.1,3.6c0,1.6,1.4,2.5,2.6,3.2l-0.8,1.4c-1.3-0.7-6.4-3.4-6.4-9.7c0-5.5,2.3-8.6,6.7-10.1
	c-4.3-5.1-6.7-9.7-6.7-16.5c0-6.4,3.4-12.5,11.1-12.5c10.7,0,14.5,15.1,17.8,22.4c1.8,4,2.8,6.2,4.1,6.2h3.2
	c3.4,0,11.3-0.1,11.3-9.2C85.8,135.1,84.5,129,82.2,129z M67.2,148.6c-4.4-8.4-5.8-16.6-16.1-16.6c-3.7,0-7.9,2-7.9,6.2
	c0,4.1,2.2,7.8,4.9,10.5L67.2,148.6z M82.8,173.5h2c0.5,5.1,2,12.5,4.1,17.3c-3.6,0.8-6.5,1.1-8.9,1.2c5.9,3.7,8.5,9.9,8.5,16.4
	c0,14.9-12,16.4-18.4,16.4H47.8c-5.7,0-6.3,3.1-6.3,7.4h-2c0-7.1,0.3-9,0.3-13c0-4.1-0.3-6.7-0.3-13.8h2c0,4.3,0.5,7.4,6.3,7.4h21.7
	c3.5,0,15-0.1,15-8.9c0-6.8-6.5-11-13.8-11H47.8c-5.7,0-6.3,3.1-6.3,7.4h-2c0-7.1,0.3-10,0.3-14c0-4.1-0.3-5.7-0.3-12.8h2
	c0,4.3,0.5,7.4,6.3,7.4h28.7C82.2,180.8,82.8,177.8,82.8,173.5z M109,269.2h2c0.4,5.4,2,14,3.8,19.4H53.3c-7.1,0-9.1,2.9-9.1,7.8h-2
	c-0.8-3.8-2.3-12.1-3.6-16.5c1.9-0.8,4.2-1.3,7.4-1.9c-4.5-3.2-7.7-7.6-7.7-14.5c0-14.7,10.9-24,25.7-24c12.8,0,24.1,10.2,24.1,24.5
	c0,5.8-2.6,10.1-5.9,12.5h20.7C108.4,276.5,109,273.5,109,269.2z M41.2,264.4c0,7.3,4.6,12.1,15.5,12.1h16.1c5.9,0,12-3.5,12-11
	c0-8.9-11.6-12.9-21.6-12.9C57.2,252.7,41.2,254.2,41.2,264.4z M82.6,301.8h2c0.4,5.4,1.9,14,3.8,19.4H47.8c-5.7,0-6.3,3.1-6.3,7.4
	h-2c0-7.2,0.3-9.7,0.3-13.6c0-4.1-0.3-6-0.3-13.1h2c0,4.3,0.5,7.4,6.3,7.4h28.6C82.1,309.2,82.6,306.1,82.6,301.8z M105.6,320.5
	c-3.6,0-6.6-3.1-6.6-6.7s3-6.6,6.6-6.6s6.7,3,6.7,6.6S109.2,320.5,105.6,320.5z M82.8,335.1h2c0.5,5.1,2,12.5,4.1,17.3
	c-3.6,0.8-6.5,1.1-8.9,1.2c5.9,3.7,8.5,9.9,8.5,16.4c0,14.8-12,16.4-18.4,16.4H47.8c-5.7,0-6.3,3.1-6.3,7.4h-2c0-7.2,0.3-9,0.3-13
	c0-4.1-0.3-6.7-0.3-13.8h2c0,4.3,0.5,7.4,6.3,7.4h21.7c3.5,0,15-0.1,15-8.9c0-6.8-6.5-11-13.8-11H47.8c-5.7,0-6.3,3.1-6.3,7.4h-2
	c0-7.1,0.3-10,0.3-14c0-4.1-0.3-5.7-0.3-12.8h2c0,4.3,0.5,7.4,6.3,7.4h28.7C82.2,342.4,82.8,339.3,82.8,335.1z M70.6,441.9
	c-7.2,0-16.5-3.6-17.6-19.6c-0.2-3.3-0.1-12.2-4.2-12.2c-4.3,0-3.3,8.9-3.6,16.7c-0.4,11.1-3.9,21.1-17.6,21.1
	c-11.4,0-19.5-10.2-19.5-24.4c0-19.5,9.6-23.3,15.4-23.3c4.7,0,8.7,3.9,8.7,8.3c0,2.5-1.1,4.9-2,5.6c-1.1-3.7-4.2-5.5-7.9-5.5
	c-4.1,0-11.5,1.9-11.5,15.1c0,10.8,5.8,16.8,11.9,16.8c9.8,0,10.5-9,10.8-20.6c0.2-6.3,1.2-16.3,11.2-16.3c5.2,0,9.1,4.2,10,10.1
	c2.5-7,8.4-12.5,16-12.5c9.7,0,17.5,8.4,17.5,20.6c0,8.4-4,12.9-5.6,14.5c2.4,2.9,5.1,6.3,5.1,11c0,2.9-1.1,7-5.3,7
	c-2.2,0-4.1-1.8-4.1-4.1c0-3.8,3.9-4.6,4.2-5s0.5-0.8,0.5-1.6c0-1.5-1.4-4.1-2.6-5.4C78,440,74.2,441.9,70.6,441.9z M55.5,421.5
	c0,4.5,3,8.1,15,8.1s15-4,15-8c0-4.2-3-8.2-15-8.2S55.5,417.6,55.5,421.5z"/>
</svg>
