<?xml version="1.0" encoding="utf-8"?>
<!-- Generator: Adobe Illustrator 21.1.0, SVG Export Plug-In . SVG Version: 6.00 Build 0)  -->
<svg version="1.1" id="Layer_1" xmlns="http://www.w3.org/2000/svg" xmlns:xlink="http://www.w3.org/1999/xlink" x="0px" y="0px"
	 viewBox="0 0 123 487.7" style="enable-background:new 0 0 123 487.7;" xml:space="preserve">
<style type="text/css">
	.st0{fill:url(#SVGID_1_);}
</style>
<linearGradient id="SVGID_1_" gradientUnits="userSpaceOnUse" x1="61" y1="4.8" x2="61" y2="481.5">
	<stop  offset="0" style="stop-color:#FF00FF"/>
	<stop  offset="1" style="stop-color:#00FFFF"/>
</linearGradient>
<path class="st0" d="M60.2,69.9v2.8L35.4,71V4.8h2.7v1.7c0,4,0.5,6.5,1.6,7.7s2.4,1.9,4,2.2c1.6,0.3,5.8,0.5,12.5,0.5h39.2
	c6.1,0,10.1-0.2,12-0.5s3.3-1.1,4-2.3c0.8-1.2,1.1-3.7,1.1-7.6h2.7v57.1l-19.9,1.9v-2.8c5.6-1.3,9.5-2.8,11.9-4.6
	c2.3-1.8,3.8-4,4.4-6.5s0.9-6.6,0.9-12.1V28.4H79v8.5c0,3.9,0.3,6.6,1,8.2c0.7,1.6,1.7,2.6,3,3.1c1.4,0.5,4,0.7,7.9,0.7v2.8H63.5
	v-2.8c4.4,0,7.4-0.4,8.9-1.1c1.5-0.7,2.5-1.8,2.9-3.3c0.5-1.4,0.7-3.9,0.7-7.3v-8.8H57.3c-9.5,0-15,0.6-16.7,1.8
	c-1.7,1.2-2.5,4.5-2.5,9.8v6c0,4.2,0.5,7.7,1.6,10.4c1.1,2.7,3.3,5.3,6.7,7.8C49.7,66.6,54.3,68.5,60.2,69.9z M33.8,81.3h15.9v2.3
	C40.5,86.3,36,91,36,97.9c0,3,0.9,5.2,2.7,6.7s3.8,2.2,6,2.2c2.5,0,4.6-0.8,6.2-2.4c1.6-1.6,3.6-4.7,5.8-9.4
	c2.4-4.9,4.8-8.4,7.1-10.5c2.3-2.1,5.1-3.2,8.4-3.2c3.2,0,6.2,1.1,9.1,3.4s4.3,5.5,4.3,9.6c0,4.2-1.7,7.7-5.1,10.4
	c0.6,0.6,2,1.4,4.3,2.3v2.2H69.9V107c3.6-0.8,6.7-2.3,9.2-4.6c2.6-2.3,3.9-4.9,3.9-8c0-2.4-0.7-4.3-2.2-5.7
	c-1.5-1.5-3.1-2.2-5.1-2.2c-2.1,0-3.9,0.8-5.5,2.4s-3.4,4.6-5.4,9c-3,6.7-6,10.8-8.8,12.3c-2.9,1.5-5.7,2.2-8.4,2.2
	c-4.2,0-7.6-1.4-10.3-4.2c-2.6-2.8-4-6.3-4-10.5c0-4.4,1.8-8.4,5.5-11.8c-1.2-1.1-2.9-1.9-5.1-2.6L33.8,81.3L33.8,81.3z M80.9,149.8
	v-14.6H51.7c-4.5,0-7.5,0.2-9,0.6c-1.6,0.4-2.8,1.2-3.7,2.5s-1.4,2.6-1.4,4.1c0,2.8,1.6,5.3,4.8,7.4l-1.1,1.9
	c-2.6-1.2-4.5-3-5.9-5.4c-1.3-2.4-2-4.8-2-7.2c0-2.8,0.8-5.3,2.5-7.5c1.7-2.1,3.6-3.5,5.9-4c2.2-0.5,6.2-0.8,11.8-0.8H81v-7h2.7
	c0.1,3.2,1.4,6.1,4.1,8.7c2.6,2.6,6.3,4.2,11.1,4.9v1.9H83.6v14.6L80.9,149.8L80.9,149.8z M73.3,172c3.5,1.3,6.4,3.5,8.8,6.5
	s3.5,5.9,3.5,8.8c0,2.6-0.8,4.6-2.4,6.1s-3.3,2.2-5,2.2c-1.1,0-2.1-0.4-2.9-1.1c-0.8-0.8-1.2-1.7-1.2-2.8c0-2,1.5-3.5,4.4-4.5
	c2-0.7,2.9-1.8,2.9-3.2c0-1.7-1.1-3.7-3.4-6.1c-2.3-2.4-4.7-3.9-7.2-4.5c-2.5-0.7-5.9-1-10.2-1H52c-5.1,0-8.4,0.1-9.7,0.2
	c-1.3,0.1-2.4,0.7-3.1,1.7c-0.7,1-1.1,2.7-1.1,5.2v1.7h-2.7v-25.6h2.7v1.2c0,2.4,0.3,4,1,5c0.6,1,1.6,1.6,2.7,1.8
	c1.2,0.2,4.6,0.3,10.1,0.3h13.6c5.2,0,8.4-0.1,9.8-0.2c1.3-0.1,2.3-0.7,3.1-1.7c0.7-1,1.1-2.7,1.1-5.2v-1.2h2.7
	c0.4,3.7,1.6,8.5,3.5,14.5C82.5,171.3,78.4,171.9,73.3,172z M44.2,249.1v2.2c-6.7-0.4-10.1-3.7-10.1-9.9c0-2.7,0.7-4.8,2.1-6.3
	c1.4-1.6,3.5-2.6,6.3-3c-2.8-3.9-4.9-7.5-6.3-10.8c-1.4-3.2-2.1-6.1-2.1-8.7c0-3.3,0.9-6.1,2.8-8.4c1.9-2.4,4.4-3.5,7.5-3.5
	c4,0,7.6,2,10.6,5.9c3,3.9,6,9.4,8.8,16.4l3.7,9.1H70c3.3,0,5.8-0.2,7.3-0.6c1.5-0.4,2.8-1.6,4-3.4c1.2-1.8,1.8-4.2,1.8-7.1
	c0-5.9-2-9.2-5.9-9.8c-4-0.6-6-2.3-6-5c0-2.4,1.1-3.6,3.4-3.6c2.2,0,4.6,1.6,7.2,4.8s3.9,8.1,3.9,14.9c0,5-0.8,8.9-2.4,11.6
	c-1.6,2.8-3.4,4.6-5.4,5.5s-5.1,1.3-9.2,1.3H49.2c-4.6,0-7.5,0.2-8.8,0.7s-1.9,1.5-1.9,3.1C38.4,246.9,40.3,248.5,44.2,249.1z
	 M64.8,232l-2.6-6.4c-4.1-10.1-9.3-15.2-15.6-15.2c-2.5,0-4.5,0.6-6,1.9c-1.5,1.3-2.3,3-2.3,5.1c0,1.8,0.6,4,1.8,6.4s3,5.2,5.5,8.2
	H64.8z M80.9,284.5v-14.6H51.7c-4.5,0-7.5,0.2-9,0.6c-1.6,0.4-2.8,1.2-3.7,2.5s-1.4,2.6-1.4,4.1c0,2.8,1.6,5.3,4.8,7.4l-1.1,1.9
	c-2.6-1.2-4.5-3-5.9-5.4c-1.3-2.4-2-4.8-2-7.2c0-2.8,0.8-5.3,2.5-7.5c1.7-2.1,3.6-3.5,5.9-4c2.2-0.5,6.2-0.8,11.8-0.8H81v-7h2.7
	c0.1,3.2,1.4,6.1,4.1,8.7c2.6,2.6,6.3,4.2,11.1,4.9v1.9H83.6v14.6h-2.7V284.5z M67.3,334.8v-33.7c-2.3-0.2-4-0.2-5.2-0.2
	c-8.5,0-14.9,1.3-19.1,4c-4.3,2.7-6.4,6.6-6.4,11.9c0,7.2,3.2,12.2,9.6,15.2v2.8c-4-1.3-7.1-3.8-9.4-7.5c-2.3-3.7-3.4-7.8-3.4-12.2
	c0-4.1,1-7.9,3.1-11.6c2.1-3.6,5-6.6,8.8-8.9s8.4-3.5,13.7-3.5c7.6,0,14,2.2,19,6.7s7.6,10.1,7.6,16.8c0,6.3-1.9,11.2-5.8,14.7
	C75.9,332.7,71.8,334.6,67.3,334.8z M69.7,324.5c0.9,0.1,1.7,0.2,2.4,0.2c3.5,0,6.1-1,8-3s2.9-4.5,2.9-7.5c0-7.2-4.4-11.4-13.3-12.8
	V324.5z M79.4,380.8c3.8,3.3,5.7,6.7,5.7,10.1c0,1.9-0.5,3.4-1.5,4.4s-2.1,1.6-3.4,1.6c-2.6,0-3.9-1.2-3.9-3.5
	c0-1.3,0.8-2.4,2.4-3.4c1.5-0.9,2.2-1.8,2.2-2.7c0-1.5-1-3.1-3.1-5c-3.2,2-6.6,3.1-10.3,3.1c-4.7,0-8.9-1.7-12.5-5.1
	c-3.7-3.4-5.6-9.1-5.9-17.1c-0.3-8.3-2-12.5-5.1-12.5c-1.5,0-2.5,0.9-3.1,2.8c-0.6,1.8-1.1,5.7-1.4,11.7c-0.3,6.5-0.9,11.5-1.8,15
	s-2.7,6.3-5.3,8.4c-2.7,2.1-5.9,3.1-9.5,3.1c-5.2,0-9.4-2.1-12.6-6.4S5.6,374.9,5.6,367c0-7.3,1.4-13.2,4.2-17.6s6.4-6.6,10.7-6.6
	c2.4,0,4.4,0.6,5.9,1.9s2.3,3,2.3,5.4c0,0.6-0.1,1.2-0.3,1.7c-2.7-2.4-5.5-3.7-8.5-3.7c-3.5,0-6.3,1.6-8.6,4.9s-3.4,8.1-3.4,14.5
	c0,5.7,1.1,10.2,3.4,13.4c2.3,3.2,5.2,4.8,8.8,4.8c3.9,0,6.7-1.4,8.3-4.3c1.6-2.9,2.5-8,2.8-15.3c0.4-8.5,1.4-13.9,3.1-16.4
	c1.7-2.5,3.9-3.8,6.5-3.8c5.1,0,8.4,3.6,9.7,10.8c2.2-3.7,4.7-6.5,7.5-8.4s6-2.8,9.5-2.8c4.9,0,9.1,1.9,12.5,5.8s5.2,8.5,5.2,13.8
	C85.6,371.5,83.5,376.8,79.4,380.8z M66.5,354.2c-5.1,0-8.8,1-11.1,3.1c-2.4,2.1-3.5,4.7-3.5,8c0,3,1.2,5.6,3.5,7.7
	s6.4,3.2,12.2,3.2c5.8,0,9.8-1.1,12-3.4s3.3-4.9,3.3-7.7c0-3.6-1.4-6.3-4.1-8.1C76.1,355.1,72,354.2,66.5,354.2z M85.6,415.4H51.9
	c-5.1,0-8.4,0.1-9.7,0.2c-1.3,0.2-2.4,0.7-3.1,1.7c-0.7,1-1.1,2.7-1.1,5.2v1.2h-2.7v-26H38v2c0,2.8,0.4,4.6,1.2,5.5
	c0.8,0.8,1.8,1.3,2.9,1.5c1.1,0.1,4.4,0.2,9.8,0.2h14.6c5.7,0,9.1-0.3,10.4-0.8s2-1.2,2.4-2.1c0.3-0.9,0.5-2.4,0.5-4.6v-1.6h2.7
	c0.7,7,1.7,12.4,3.1,16.3C85.6,414.1,85.6,415.4,85.6,415.4z M110.2,404c1.7,0,3.1,0.6,4.4,1.8c1.2,1.2,1.8,2.6,1.8,4.3
	c0,1.7-0.6,3.1-1.8,4.3c-1.2,1.2-2.7,1.8-4.4,1.8c-1.7,0-3.2-0.6-4.4-1.8c-1.2-1.2-1.8-2.6-1.8-4.3c0-1.7,0.6-3.1,1.8-4.3
	S108.5,404,110.2,404z M44.2,479.3v2.2c-6.7-0.4-10.1-3.7-10.1-9.9c0-2.7,0.7-4.8,2.1-6.3c1.4-1.6,3.5-2.6,6.3-3
	c-2.8-3.9-4.9-7.5-6.3-10.8c-1.4-3.2-2.1-6.1-2.1-8.7c0-3.3,0.9-6.1,2.8-8.4c1.9-2.4,4.4-3.5,7.5-3.5c4,0,7.6,2,10.6,5.9
	c3,4,6,9.4,8.8,16.4l3.7,9.1H70c3.3,0,5.8-0.2,7.3-0.6s2.8-1.6,4-3.4s1.8-4.2,1.8-7.1c0-5.9-2-9.2-5.9-9.8c-4-0.6-6-2.3-6-5
	c0-2.4,1.1-3.6,3.4-3.6c2.2,0,4.6,1.6,7.2,4.8c2.6,3.2,3.9,8.1,3.9,14.9c0,5-0.8,8.9-2.4,11.6c-1.6,2.8-3.4,4.6-5.4,5.5
	s-5.1,1.3-9.2,1.3H49.1c-4.6,0-7.5,0.2-8.8,0.7s-1.9,1.5-1.9,3.1C38.4,477.1,40.3,478.7,44.2,479.3z M64.8,462.2l-2.6-6.4
	c-4.1-10.1-9.3-15.2-15.6-15.2c-2.5,0-4.5,0.6-6,1.9s-2.3,3-2.3,5.1c0,1.8,0.6,4,1.8,6.4s3,5.2,5.5,8.2H64.8z"/>
</svg>
