<?xml version="1.0" encoding="utf-8"?>
<!-- Generator: Adobe Illustrator 21.1.0, SVG Export Plug-In . SVG Version: 6.00 Build 0)  -->
<svg version="1.1" id="Layer_1" xmlns="http://www.w3.org/2000/svg" xmlns:xlink="http://www.w3.org/1999/xlink" x="0px" y="0px"
	 viewBox="0 0 123 487.7" style="enable-background:new 0 0 123 487.7;" xml:space="preserve">
<style type="text/css">
	.st0{fill:url(#SVGID_1_);}
</style>
<linearGradient id="SVGID_1_" gradientUnits="userSpaceOnUse" x1="61.5" y1="497.834" x2="61.5" y2="23.7487" gradientTransform="matrix(1 0 0 -1 0 490)">
	<stop  offset="0" style="stop-color:#FF00FF"/>
	<stop  offset="1" style="stop-color:#00FFFF"/>
</linearGradient>
<path class="st0" d="M79.9,30.8c0,6.6,3.6,9.2,9.6,9.2v2c-6.8,0-8.9-0.3-11.2-0.3c-2.2,0-4.2,0.3-10.9,0.3v-2c5.7,0,9.4-2.6,9.4-9.2
	v-6.4H54.7C44,24.4,43,26.8,43,38.8c0,10.4,1.9,18.5,14.7,19.6v2.1l-17.5-0.9C40.1,53.1,40,48,40,42c0-12.4,0.6-20.8,0.6-25.4
	c0-4.7-0.3-7.8-0.3-16.6h2c0,4.7,1.1,8.8,7.1,8.8h55.3c6,0,7.1-4.1,7.1-8.8h2c0,8.8-0.3,11.6-0.3,16.3c0,5,0.7,13.4,0.7,22.1
	c0,5.7-0.2,10.2-0.3,16.1l-16.4,0.7v-2c11.2-0.9,13.8-7.6,13.7-17.8c0-2.5-0.2-6.4-0.5-8.4c-0.2-1.5-1.1-2.5-3-2.5H80L79.9,30.8
	L79.9,30.8z M89.1,96.6c-2.8,0-4.2-0.1-6.3-0.1c-2,0-5.6,0.1-8.6,0.1v-2.2c5.6-0.1,12.3-3.6,12.3-11.3c0-4.6-2.3-7.3-5.7-7.3
	c-5.4,0-8.5,8.2-11.9,14.2c-3.7,6.5-7.7,11.3-15.6,11.3c-9.9,0-14.4-9.4-14.4-16.8c0-4.3,1.3-8.9,3.7-12.3l-2.8-1.8v-2
	c3.2,0,5.1,0.1,7.6,0.1c2.4,0,5.1-0.2,7.9-0.2v2.2c-7.3,0-13.9,5.2-13.9,13.4c0,4.3,2.4,8.6,7.6,8.6c5.1,0,7.3-5.5,10.1-10.8
	c3.4-6.3,7.4-13.2,16.8-13.2c8,0,13,7.3,13,14.2c0,4.9-1.4,7.7-2.5,9.9l2.5,2.1v1.9H89.1z M52.9,115.3h32.2V109h2.2
	c2.2,6.2,7.3,12.9,13.4,15.4v2.9H87.8v11.4H85v-11.4H56.4c-6.7,0-13.9,0-13.9,7.1c0,3.9,2,5.6,4.4,7.3l-1.2,1.4
	c-3.4-1.8-6.9-5.7-6.9-12C38.9,120.3,44.2,115.3,52.9,115.3z M42.2,173.4h-2c0-7.1,0.3-9.4,0.3-13.3c0-4.1-0.3-6.4-0.3-13.4h2
	c0,4.3,0.5,7.4,6.3,7.4h28.3c5.7,0,6.7-3.1,6.7-7.4h2c0.5,5.1,2,12.5,4.1,17.3c-3.2,0.9-7.3,1.4-11.1,1.5
	c7.1,3.5,11.1,8.9,11.1,15.1c0,3-1,8.6-6.3,8.6c-2.1,0-4-1.7-4-4.3c0-4.4,5.2-4.6,5.6-5.3c0.4-0.5,0.7-1.2,0.7-2.2
	c0-6.2-10.8-11.3-17.4-11.3H48.5C42.7,166,42.2,169.1,42.2,173.4z M82.9,204.6c-0.3,0-2.1,0.8-4.2,0.8c-2.4,0-4.6-1.4-4.6-4.2
	c0-2.5,1.9-4.5,5.4-4.5c7.9,0,9.6,12.8,9.6,19.6c0,10.1-3.3,19.9-15.4,19.9H49.6c-2.3,0-6.1,0.2-6.1,3.6c0,1.7,1.4,2.5,2.6,3.2
	l-0.8,1.4c-1.3-0.7-6.4-3.4-6.4-9.7c0-5.5,2.3-8.6,6.7-10.1c-4.3-5.1-6.7-9.7-6.7-16.5c0-6.4,3.4-12.5,11.1-12.5
	c10.7,0,14.5,15.1,17.8,22.4c1.8,4,2.8,6.2,4.1,6.2h3.2c3.4,0,11.3-0.1,11.3-9.2C86.5,210.7,85.2,204.6,82.9,204.6z M67.9,224.2
	c-4.4-8.4-5.8-16.6-16.1-16.6c-3.7,0-7.9,2-7.9,6.2c0,4.1,2.2,7.8,4.9,10.5L67.9,224.2z M52.9,253.4h32.2v-6.3h2.2
	c2.2,6.2,7.3,12.9,13.4,15.4v2.9H87.8v11.4H85v-11.4H56.5c-6.7,0-13.9,0-13.9,7.1c0,3.8,2,5.6,4.4,7.3l-1.2,1.4
	c-3.4-1.8-6.9-5.7-6.9-12C38.9,258.5,44.2,253.4,52.9,253.4z M48.2,328.2c-4.3-3.6-9.4-9.5-9.4-18.9c0-12.2,8.7-24.8,24.3-24.7
	c14,0,25.6,11.2,25.6,25.3c0,10.3-7.1,19.8-17.8,20.7c-0.9,0-1.8,0-1.8-0.7v-32.2c-2.4-0.3-4-0.3-5.9-0.3
	c-12.4,0-21.1,5.6-21.1,14.7c0,7.8,4.5,12.4,7.1,15L48.2,328.2z M71.9,316.3c0,1.1,0.5,1.8,1.8,1.8c5.6,0,12.8-1.9,12.8-8.4
	c0-8.1-8.5-10.6-14.5-11.7v18.3H71.9z M71.3,379.8c-7.2,0-16.5-3.6-17.6-19.6c-0.2-3.3-0.1-12.2-4.2-12.2c-4.3,0-3.3,8.9-3.6,16.7
	c-0.4,11.1-3.9,21.1-17.6,21.1c-11.4,0-19.5-10.2-19.5-24.4c0-19.5,9.6-23.3,15.4-23.3c4.7,0,8.7,3.8,8.7,8.2c0,2.5-1.1,4.9-2,5.6
	c-1.1-3.7-4.2-5.5-7.9-5.5c-4.1,0-11.5,1.9-11.5,15.1c0,10.8,5.8,16.8,11.9,16.8c9.8,0,10.5-9,10.8-20.6c0.2-6.3,1.2-16.3,11.2-16.3
	c5.2,0,9.1,4.2,10,10.1c2.5-7,8.4-12.5,16-12.5c9.7,0,17.5,8.4,17.5,20.6c0,8.4-4,12.9-5.6,14.5c2.4,2.9,5.1,6.3,5.1,11
	c0,2.9-1.1,7-5.3,7c-2.2,0-4.1-1.8-4.1-4.1c0-3.8,3.8-4.6,4.2-5s0.5-0.8,0.5-1.6c0-1.5-1.4-4.1-2.6-5.4
	C78.7,378,75,379.8,71.3,379.8z M56.3,359.5c0,4.5,3,8.1,15,8.1s15-4,15-8c0-4.2-3-8.2-15-8.2C59.2,351.3,56.3,355.5,56.3,359.5z
	 M83.3,398.5h2c0.4,5.4,1.9,14,3.9,19.4H48.5c-5.7,0-6.3,3.1-6.3,7.4h-2c0-7.2,0.3-9.7,0.3-13.6c0-4.1-0.3-6-0.3-13.1h2
	c0,4.3,0.5,7.4,6.3,7.4h28.6C82.8,405.9,83.3,402.8,83.3,398.5z M106.3,417.2c-3.6,0-6.6-3.1-6.6-6.7s3-6.6,6.6-6.6s6.7,3,6.7,6.6
	S110,417.2,106.3,417.2z M82.9,441.9c-0.3,0-2.1,0.8-4.2,0.8c-2.4,0-4.6-1.4-4.6-4.2c0-2.5,1.9-4.5,5.4-4.5c7.9,0,9.6,12.8,9.6,19.6
	c0,10.1-3.3,19.9-15.4,19.9H49.6c-2.3,0-6.1,0.2-6.1,3.6c0,1.7,1.4,2.5,2.6,3.2l-0.8,1.4c-1.3-0.7-6.4-3.4-6.4-9.7
	c0-5.5,2.3-8.6,6.7-10.1c-4.3-5.1-6.7-9.7-6.7-16.5c0-6.4,3.4-12.5,11.1-12.5c10.7,0,14.5,15.1,17.8,22.4c1.8,4,2.8,6.2,4.1,6.2h3.2
	c3.4,0,11.3-0.1,11.3-9.2C86.5,447.9,85.2,441.9,82.9,441.9z M67.9,461.5c-4.4-8.4-5.8-16.6-16.1-16.6c-3.7,0-7.9,2-7.9,6.2
	c0,4.1,2.2,7.8,4.9,10.4H67.9z"/>
</svg>
