<?xml version="1.0" encoding="utf-8"?>
<!-- Generator: Adobe Illustrator 21.1.0, SVG Export Plug-In . SVG Version: 6.00 Build 0)  -->
<svg version="1.1" id="Layer_2" xmlns="http://www.w3.org/2000/svg" xmlns:xlink="http://www.w3.org/1999/xlink" x="0px" y="0px"
	 viewBox="0 0 123 487.7" style="enable-background:new 0 0 123 487.7;" xml:space="preserve">
<style type="text/css">
	.st0{fill:url(#SVGID_1_);}
</style>
<linearGradient id="SVGID_1_" gradientUnits="userSpaceOnUse" x1="61.5" y1="497.2168" x2="61.5" y2="146.1102" gradientTransform="matrix(1 0 0 -1 0 490)">
	<stop  offset="0" style="stop-color:#FF00FF"/>
	<stop  offset="1" style="stop-color:#00FFFF"/>
</linearGradient>
<path class="st0" d="M34.6,8.8h55.3c6,0,7.1-4.1,7.1-8.8h2c0,8.2-0.3,10.2-0.3,13.3c0,3,0.3,7.5,0.3,10.9L45.2,45.9l53.8,22
	c0,2.9-0.3,5.2-0.3,8.6c0,3.9,0.3,6.6,0.3,15.1h-2c0-4.7-1.1-8.8-7.1-8.8H34.6c-6,0-7.1,4.1-7.2,8.8h-2c0-8.8,0.4-11.8,0.4-16.6
	c0-4.8-0.4-7.8-0.4-16.6h2c0,4.7,1.1,8.8,7.1,8.8h54.1l-63.3-26v-3.4l62.9-25.7H34.5c-6,0-7.1,4.1-7.1,8.8h-2
	c0-5.9,0.3-7.4,0.3-10.7S25.4,5.8,25.4,0h2C27.4,4.7,28.5,8.8,34.6,8.8z M24,123c0-14.5,10.8-26.3,25.2-26.3
	c15.2,0,25.1,11.9,25.1,26.3c0,13.8-9.9,25.9-25,25.9C34.8,148.8,24,137.5,24,123z M49.2,109.9c-12.3,0-22.7,4.1-22.7,13.1
	c0,8.8,10.3,12.7,22.8,12.7c12.3,0,22.4-3.8,22.4-12.6C71.7,114,61.6,109.9,49.2,109.9z M38.1,162.2h32.2V156h2.2
	c2.2,6.2,7.3,12.9,13.4,15.4v2.9H73v11.4h-2.8v-11.4H41.6c-6.7,0-13.9,0-13.9,7.1c0,3.9,2,5.6,4.4,7.3l-1.2,1.4
	c-3.4-1.8-6.9-5.7-6.9-12C24.1,167.3,29.4,162.2,38.1,162.2z M68.5,193.4h2c0.4,5.4,1.9,14,3.8,19.4H33.6c-5.7,0-6.3,3.1-6.3,7.4h-2
	c0-7.1,0.3-9.7,0.3-13.6c0-4.1-0.3-6.1-0.3-13.1h2c0,4.3,0.5,7.4,6.3,7.4h28.6C68,200.7,68.5,197.7,68.5,193.4z M91.5,212.1
	c-3.6,0-6.6-3.1-6.6-6.7s3-6.6,6.6-6.6s6.7,3,6.7,6.6S95.2,212.1,91.5,212.1z M24,253.8c0-14.5,10.8-26.3,25.2-26.3
	c15.2,0,25.1,11.9,25.1,26.3c0,13.8-9.9,25.8-25,25.8C34.8,279.6,24,268.3,24,253.8z M49.2,240.7c-12.3,0-22.7,4.1-22.7,13.1
	c0,8.8,10.3,12.6,22.8,12.7c12.3,0,22.4-3.8,22.4-12.6C71.7,244.7,61.6,240.7,49.2,240.7z M68.6,287.5h2c0.5,5.1,2,12.5,4.1,17.3
	c-3.6,0.8-6.5,1.1-8.9,1.2c5.9,3.7,8.5,9.9,8.5,16.4c0,14.8-12,16.4-18.4,16.4H33.7c-5.7,0-6.3,3.1-6.3,7.4h-2c0-7.2,0.3-9,0.3-13
	c0-4.1-0.3-6.7-0.3-13.8h2c0,4.3,0.5,7.4,6.3,7.4h21.7c3.5,0,15-0.1,15-8.9c0-6.8-6.5-11-13.8-11H33.7c-5.7,0-6.3,3.1-6.3,7.4h-2
	c0-7.1,0.3-10,0.3-14c0-4.1-0.3-5.7-0.3-12.8h2c0,4.3,0.5,7.4,6.3,7.4h28.7C68.1,294.9,68.6,291.8,68.6,287.5z"/>
</svg>
