<?xml version="1.0" encoding="utf-8"?>
<!-- Generator: Adobe Illustrator 21.0.0, SVG Export Plug-In . SVG Version: 6.00 Build 0)  -->
<svg version="1.1" id="Layer_3" xmlns="http://www.w3.org/2000/svg" xmlns:xlink="http://www.w3.org/1999/xlink" x="0px" y="0px"
	 viewBox="0 0 123 487.7" style="enable-background:new 0 0 123 487.7;" xml:space="preserve">
<style type="text/css">
	.st0{opacity:0.2;fill:#FFFFFF;}
</style>
<path class="st0" d="M98.3,0c0,10.2-0.4,13.8-0.4,18.4c0,4.4,0.4,6.2,0.4,16.2h-2c0-3.9-0.4-9-5.8-9c-1.4,0-3.1,0.4-4.4,0.9
	L44.9,40.2L83.7,54c10.1-3.3,12.5-5.3,12.5-11.3h2c0,10.7-0.4,12.2-0.4,16.3c0,4,0.4,7.3,0.4,18.6h-2c0-5.4-0.8-9.8-7.3-9.8
	c-2.9,0-6,1-9.7,2.2L44.7,81.4l39.8,13c2,0.7,3.5,1,5,1c5.3,0,6.6-3.2,6.8-9.6h2c0,7.1-0.3,7.8-0.3,11.5c0,3.6,0.3,5.2,0.3,12h-2
	c0-6.8-2.9-8.7-9.5-10.9L22.9,77.7v-4l55.8-18.2L22.9,36.1v-4L88.6,10c5.9-2,7.7-5.3,7.7-10H98.3z M32.7,149.2
	c-4.3-3.6-9.4-9.5-9.4-18.9c0-12.2,8.7-24.8,24.3-24.8c14,0,25.6,11.2,25.6,25.3c0,10.3-7.1,19.8-17.8,20.7c-0.9,0-1.8,0-1.8-0.7
	v-32.2c-2.4-0.3-4-0.3-5.9-0.3c-12.4,0-21.1,5.6-21.1,14.7c0,7.8,4.5,12.4,7.1,15L32.7,149.2z M56.4,137.2c0,1.1,0.6,1.8,1.8,1.8
	c5.6,0,12.8-1.9,12.8-8.4c0-8.1-8.5-10.6-14.5-11.7L56.4,137.2L56.4,137.2z M94.2,154.4h2c0.4,5.4,1.9,14.2,3.9,19.4H67.9
	c3.8,3.6,5.4,8.2,5.4,13c0,11.6-8.2,23.7-24,23.7c-17.6,0-26-12.3-26-24.8c0-5.3,2.1-9.8,7.3-14.4l-6.6-7.7v-1.8h64
	C93.7,161.8,94.2,158.7,94.2,154.4z M70.2,185.2c0-8-5.7-11.4-12.2-11.4H39.9c-10.8,0-13.6,6.3-13.6,11.1
	c0,10.8,13.4,12.3,22.1,12.3C58,197.2,70.2,194.4,70.2,185.2z"/>
</svg>
