<?xml version="1.0" encoding="utf-8"?>
<!-- Generator: Adobe Illustrator 21.0.0, SVG Export Plug-In . SVG Version: 6.00 Build 0)  -->
<svg version="1.1" id="Layer_1" xmlns="http://www.w3.org/2000/svg" xmlns:xlink="http://www.w3.org/1999/xlink" x="0px" y="0px"
	 viewBox="0 0 91.8 10.7" style="enable-background:new 0 0 91.8 10.7;" xml:space="preserve">
<style type="text/css">
	.st0{opacity:0.5;fill:#FFFFFF;}
	.st1{fill:#FFFFFF;}
	.st2{opacity:0.5;}
</style>
<path class="st0" d="M4.8,9.9C4.8,9.9,4.8,9.9,4.8,9.9c-2.6,0-4.6-2.1-4.6-4.6C0.1,4,0.6,2.9,1.5,2c0.9-0.9,2-1.3,3.2-1.3
	c0,0,0,0,0,0c2.5,0,4.6,2.1,4.6,4.6c0,1.2-0.5,2.4-1.3,3.2C7.1,9.4,6,9.9,4.8,9.9z M0.4,5.3c0,2.4,2,4.4,4.4,4.4c0,0,0,0,0,0
	c1.2,0,2.2-0.4,3.1-1.3c0.8-0.8,1.3-1.9,1.3-3.1c0-2.4-2-4.4-4.4-4.4c0,0,0,0,0,0c-1.2,0-2.2,0.4-3.1,1.3C0.8,3,0.4,4.1,0.4,5.3z
	 M5.8,4.6c0.4,0,0.7,0.3,0.7,0.7S6.2,6,5.8,6c0,0,0,0,0,0c0,0,0,0,0,0c0,0-0.1,0-0.1,0C5.5,6,5.4,5.9,5.3,5.8
	C5.1,5.6,4.8,5.4,4.7,5.4C4.5,5.4,4.2,5.6,4,5.8C3.9,5.9,3.7,6,3.6,6c0,0-0.1,0-0.1,0c0,0,0,0,0,0c0,0,0,0,0,0
	C3.1,6,2.8,5.7,2.8,5.3s0.3-0.7,0.7-0.7c0,0,0,0,0,0c0,0,0,0,0,0c0,0,0.1,0,0.1,0c0.1,0,0.3,0.1,0.3,0.2C4.2,5,4.5,5.2,4.7,5.2
	c0.2,0,0.4-0.2,0.6-0.4c0.1-0.1,0.2-0.2,0.4-0.2C5.7,4.6,5.7,4.6,5.8,4.6C5.8,4.6,5.8,4.6,5.8,4.6C5.8,4.6,5.8,4.6,5.8,4.6 M5.8,4.4
	L5.8,4.4L5.8,4.4L5.8,4.4c-0.1,0-0.2,0-0.2,0c-0.2,0-0.3,0.1-0.5,0.3L5.1,4.7C4.9,4.8,4.7,5,4.7,5C4.6,5,4.4,4.8,4.2,4.7L4.1,4.6
	C4,4.5,3.8,4.4,3.7,4.4c0,0-0.1,0-0.2,0H3.5c-0.5,0-0.9,0.4-0.9,0.9c0,0.5,0.4,0.9,0.9,0.9h0.1c0.1,0,0.1,0,0.2,0
	C3.8,6.2,4,6.1,4.1,6l0.1-0.1c0.1-0.1,0.3-0.2,0.4-0.3c0.1,0,0.3,0.2,0.4,0.3L5.1,6c0.1,0.1,0.3,0.2,0.5,0.3c0,0,0.1,0,0.1,0h0l0,0
	l0,0c0.5,0,0.9-0.4,0.9-0.9C6.8,4.8,6.3,4.4,5.8,4.4L5.8,4.4z"/>
<g>
	<g>
		<path class="st1" d="M18.5,9.9C18.5,9.9,18.5,9.9,18.5,9.9c-2.6,0-4.6-2.1-4.6-4.6c0-1.2,0.5-2.4,1.3-3.2c0.9-0.9,2-1.3,3.3-1.3
			c2.5,0,4.6,2.1,4.6,4.6c0,1.2-0.5,2.4-1.3,3.2C20.9,9.4,19.7,9.9,18.5,9.9z M14.1,5.3c0,2.4,2,4.4,4.4,4.4c0,0,0,0,0,0
			c1.2,0,2.2-0.4,3.1-1.3c0.8-0.8,1.3-1.9,1.3-3.1c0-2.4-2-4.4-4.4-4.4c0,0,0,0,0,0c-1.2,0-2.2,0.4-3.1,1.3
			C14.6,3,14.1,4.1,14.1,5.3z"/>
	</g>
	<g>
		<path class="st1" d="M18,7.5c-0.1,0-0.1,0-0.2,0c-0.2-0.1-0.4-0.2-0.5-0.4s-0.1-0.4-0.1-0.6c0,0,0-0.1,0.1-0.2
			c0.1-0.1,0.2-0.3,0.3-0.4c0.1-0.1,0.1-0.1,0.2-0.2c0.1-0.1,0.4-0.3,0.4-0.4c-0.1,0-0.4,0.2-0.5,0.3c-0.1,0-0.1,0.1-0.2,0.1
			C17.4,5.9,17.3,6,17.1,6c0,0-0.2,0-0.2,0c-0.4,0-0.8-0.3-0.8-0.8s0.3-0.8,0.8-0.8c0,0,0.1,0,0.2,0c0.1,0,0.3,0.1,0.4,0.2
			c0.1,0,0.1,0.1,0.2,0.1c0.1,0.1,0.4,0.3,0.5,0.3c0-0.1-0.3-0.3-0.4-0.4c-0.1-0.1-0.1-0.1-0.2-0.2c-0.1-0.1-0.2-0.2-0.3-0.3
			c0,0-0.1-0.2-0.1-0.2c-0.1-0.4,0.1-0.8,0.5-1c0.2-0.1,0.4-0.1,0.6,0c0.2,0.1,0.3,0.2,0.4,0.4c0,0,0,0.1,0,0.2c0,0.1,0,0.3,0,0.5
			c0,0.1,0,0.2-0.1,0.2c0,0.2-0.1,0.5-0.1,0.5c0.1,0,0.2-0.3,0.2-0.5c0-0.1,0.1-0.2,0.1-0.2C18.9,4.1,19,4,19.1,3.9
			c0,0,0.1-0.1,0.1-0.1c0.2-0.1,0.4-0.2,0.6-0.1c0.2,0,0.4,0.1,0.5,0.3c0.1,0.2,0.2,0.4,0.1,0.6S20.3,4.8,20.1,5
			c0,0-0.1,0.1-0.2,0.1c-0.1,0.1-0.3,0.1-0.4,0.1c-0.1,0-0.2,0-0.3,0c-0.1,0-0.5,0-0.5,0.1c0,0.1,0.4,0.1,0.6,0.1c0.1,0,0.2,0,0.2,0
			c0.1,0,0.3,0,0.5,0.1c0,0,0.2,0.1,0.2,0.1l0,0c0.2,0.1,0.3,0.3,0.3,0.5c0,0.2,0,0.4-0.1,0.6c-0.1,0.2-0.3,0.3-0.5,0.3
			c-0.2,0-0.4,0-0.6-0.1c0,0-0.1-0.1-0.1-0.1c-0.1-0.1-0.2-0.3-0.2-0.4c0-0.1-0.1-0.2-0.1-0.2c-0.1-0.2-0.2-0.5-0.3-0.5
			c0,0.1,0.1,0.4,0.1,0.5c0,0.1,0.1,0.2,0.1,0.2c0,0.1,0.1,0.3,0.1,0.5c0,0,0,0.2,0,0.2C18.7,7.3,18.4,7.5,18,7.5z M18.3,5.8
			C18.2,5.9,18.1,5.9,18,6c-0.1,0.1-0.1,0.1-0.2,0.2c-0.1,0.1-0.2,0.2-0.3,0.3c0,0,0,0.1,0,0.1c0,0.1,0,0.3,0,0.4s0.2,0.2,0.3,0.2
			c0.3,0.1,0.6-0.1,0.6-0.4c0,0,0-0.1,0-0.1c0-0.1,0-0.3-0.1-0.4c0-0.1,0-0.1-0.1-0.2C18.4,6,18.3,5.9,18.3,5.8z M18.9,5.6
			C18.9,5.7,19,5.8,19,5.9c0,0.1,0.1,0.2,0.1,0.2c0.1,0.1,0.1,0.2,0.2,0.3c0,0,0.1,0.1,0.1,0.1c0.1,0.1,0.3,0.1,0.4,0.1
			c0.1,0,0.3-0.1,0.3-0.2c0.1-0.1,0.1-0.3,0.1-0.4c0-0.1-0.1-0.3-0.2-0.3c0,0-0.1,0-0.1-0.1c-0.1,0-0.3-0.1-0.4-0.1
			c-0.1,0-0.2,0-0.2,0C19.1,5.6,19,5.6,18.9,5.6z M16.9,4.7c-0.3,0-0.5,0.2-0.5,0.5c0,0.3,0.2,0.5,0.5,0.5c0,0,0.1,0,0.1,0
			c0.1,0,0.3-0.1,0.4-0.2c0.1,0,0.1-0.1,0.2-0.1c0.1-0.1,0.2-0.2,0.3-0.2c-0.1-0.1-0.2-0.1-0.3-0.2c-0.1,0-0.1-0.1-0.2-0.1
			c-0.1-0.1-0.2-0.1-0.4-0.2C17,4.8,17,4.7,16.9,4.7z M18.4,5.3C18.4,5.3,18.4,5.3,18.4,5.3C18.4,5.3,18.4,5.3,18.4,5.3
			C18.4,5.3,18.4,5.3,18.4,5.3C18.5,5.3,18.5,5.3,18.4,5.3C18.5,5.3,18.5,5.3,18.4,5.3C18.5,5.3,18.5,5.3,18.4,5.3
			C18.5,5.2,18.4,5.2,18.4,5.3C18.4,5.2,18.4,5.2,18.4,5.3C18.4,5.2,18.4,5.3,18.4,5.3C18.4,5.3,18.4,5.3,18.4,5.3z M19.6,3.8
			c-0.1,0-0.2,0-0.3,0.1c0,0-0.1,0.1-0.1,0.1c-0.1,0.1-0.1,0.2-0.2,0.4C19,4.4,19,4.5,19,4.6c0,0.1-0.1,0.2-0.1,0.4
			c0.1,0,0.3,0,0.4,0c0.1,0,0.2,0,0.2,0c0.1,0,0.3,0,0.4-0.1c0,0,0.1,0,0.1-0.1c0.1-0.1,0.2-0.2,0.2-0.3c0-0.1,0-0.3-0.1-0.4
			C20,3.9,19.8,3.9,19.6,3.8C19.7,3.8,19.7,3.8,19.6,3.8z M18,3.3c-0.1,0-0.1,0-0.2,0c-0.3,0.1-0.4,0.4-0.3,0.7c0,0,0,0.1,0,0.1
			c0.1,0.1,0.2,0.2,0.3,0.3c0.1,0,0.1,0.1,0.2,0.1c0.1,0.1,0.2,0.2,0.3,0.2c0-0.1,0.1-0.3,0.1-0.4c0-0.1,0-0.2,0.1-0.2
			c0-0.1,0.1-0.3,0-0.4c0,0,0-0.1,0-0.1c0-0.1-0.1-0.2-0.3-0.3C18.1,3.3,18,3.3,18,3.3z"/>
	</g>
</g>
<g class="st2">
	<g>
		<path class="st1" d="M32.2,9.9C32.2,9.9,32.2,9.9,32.2,9.9c-2.6,0-4.6-2.1-4.6-4.6c0-1.2,0.5-2.4,1.3-3.2c0.9-0.9,2-1.3,3.3-1.3
			c2.5,0,4.6,2.1,4.6,4.6c0,1.2-0.5,2.4-1.3,3.2C34.6,9.4,33.5,9.9,32.2,9.9z M27.8,5.3c0,2.4,2,4.4,4.4,4.4c0,0,0,0,0,0
			c1.2,0,2.2-0.4,3.1-1.3c0.8-0.8,1.3-1.9,1.3-3.1c0-2.4-2-4.4-4.4-4.4c-1.2,0-2.3,0.4-3.1,1.3C28.3,3,27.8,4.1,27.8,5.3z"/>
	</g>
	<g>
		<path class="st1" d="M32.2,7.1C32.2,7.1,32.2,7.1,32.2,7.1c-1,0-1.9-0.8-1.9-1.8c0-0.5,0.2-1,0.5-1.3c0.3-0.3,0.8-0.5,1.3-0.5
			c0,0,0,0,0,0c1,0,1.8,0.8,1.9,1.8c0,0.5-0.2,1-0.5,1.3C33.2,6.9,32.7,7.1,32.2,7.1z M32.2,3.7c-0.4,0-0.8,0.2-1.1,0.5
			c-0.3,0.3-0.5,0.7-0.5,1.1c0,0.9,0.7,1.6,1.6,1.6c0,0,0,0,0,0c0.4,0,0.8-0.2,1.1-0.5c0.3-0.3,0.5-0.7,0.5-1.1
			C33.8,4.4,33.1,3.7,32.2,3.7C32.2,3.7,32.2,3.7,32.2,3.7z"/>
	</g>
</g>
<g class="st2">
	<g>
		<path class="st1" d="M46,9.9C46,9.9,46,9.9,46,9.9c-2.6,0-4.6-2.1-4.6-4.6l0,0c0-1.2,0.5-2.4,1.3-3.2c0.9-0.9,2-1.3,3.2-1.3
			c0,0,0,0,0,0c2.5,0,4.6,2.1,4.6,4.6c0,1.2-0.5,2.4-1.3,3.2C48.3,9.4,47.2,9.9,46,9.9z M41.6,5.3c0,2.4,2,4.4,4.4,4.4c0,0,0,0,0,0
			c1.2,0,2.2-0.4,3.1-1.3c0.8-0.8,1.3-1.9,1.3-3.1c0-2.4-2-4.4-4.4-4.4c0,0,0,0,0,0c-1.2,0-2.2,0.4-3.1,1.3C42,3,41.6,4.1,41.6,5.3
			L41.6,5.3z"/>
	</g>
	<g>
		<path class="st1" d="M45.9,7.1C45.9,7.1,45.9,7.1,45.9,7.1c-1,0-1.9-0.8-1.9-1.8c0-0.5,0.2-1,0.5-1.3c0.3-0.3,0.8-0.5,1.3-0.5
			c1,0,1.8,0.8,1.9,1.8c0,0.5-0.2,1-0.5,1.3C46.9,6.9,46.4,7.1,45.9,7.1z M45.9,3.7c-0.4,0-0.8,0.2-1.1,0.5
			c-0.3,0.3-0.5,0.7-0.5,1.1c0,0.9,0.7,1.6,1.6,1.6c0,0,0,0,0,0c0.4,0,0.8-0.2,1.1-0.5c0.3-0.3,0.5-0.7,0.5-1.1
			C47.5,4.4,46.8,3.7,45.9,3.7C45.9,3.7,45.9,3.7,45.9,3.7z"/>
	</g>
	<g>
		<path class="st1" d="M45.9,7.1c-1,0-1.8-0.8-1.8-1.8c0-0.1,0-0.3,0-0.4l0-0.1l0.1,0.1c0.3,0.1,0.8,0.3,1.7,0.1
			c1.1-0.3,1.5,0.1,1.6,0.2l0,0l0,0c0,0,0,0.1,0,0.1C47.8,6.3,47,7.1,45.9,7.1z M44.4,5.1c0,0.1,0,0.1,0,0.2c0,0.9,0.7,1.6,1.6,1.6
			c0.9,0,1.6-0.7,1.6-1.6c0,0,0,0,0-0.1c-0.1-0.1-0.5-0.3-1.4-0.1C45.3,5.4,44.7,5.2,44.4,5.1z"/>
	</g>
</g>
<g class="st2">
	<g>
		<path class="st1" d="M59.7,9.9C59.7,9.9,59.7,9.9,59.7,9.9c-2.6,0-4.6-2.1-4.6-4.6c0-1.2,0.5-2.4,1.3-3.2c0.9-0.9,2-1.3,3.3-1.3
			c2.5,0,4.6,2.1,4.6,4.6c0,1.2-0.5,2.4-1.3,3.2C62.1,9.4,60.9,9.9,59.7,9.9z M55.3,5.3c0,2.4,2,4.4,4.4,4.4c0,0,0,0,0,0
			c1.2,0,2.2-0.4,3.1-1.3C63.6,7.5,64,6.5,64,5.3c0-2.4-2-4.4-4.4-4.4c0,0,0,0,0,0c-1.2,0-2.2,0.4-3.1,1.3C55.8,3,55.3,4.1,55.3,5.3
			z"/>
	</g>
	<g>
		<g>
			<path class="st1" d="M59.7,7.1c-1,0-1.8-0.8-1.8-1.8c0-1,0.8-1.8,1.8-1.9c0.5,0,1,0.2,1.3,0.5c0.3,0.3,0.5,0.8,0.5,1.3
				c0,0.5-0.2,1-0.5,1.3C60.6,6.9,60.2,7.1,59.7,7.1L59.7,7.1C59.7,7.1,59.7,7.1,59.7,7.1z M59.7,3.7C59.7,3.7,59.6,3.7,59.7,3.7
				c-0.9,0-1.6,0.7-1.6,1.6c0,0.4,0.2,0.8,0.5,1.1c0.3,0.3,0.7,0.5,1.1,0.5c0,0,0,0,0,0l0,0c0.4,0,0.8-0.2,1.1-0.5
				c0.3-0.3,0.5-0.7,0.5-1.1C61.2,4.4,60.5,3.7,59.7,3.7z"/>
		</g>
		<g>
			<path class="st1" d="M59.7,7.1c-0.6,0-1.1-0.3-1.5-0.8l-0.1-0.1l0.1-0.1c0.1-0.1,0.6-0.4,1.4-0.2c0.8,0.2,1.3,0,1.5-0.1l0.3-0.1
				l-0.2,0.3C60.9,6.8,60.3,7.1,59.7,7.1z M58.5,6.3c0.3,0.3,0.7,0.6,1.2,0.6c0.5,0,0.9-0.2,1.2-0.5c-0.3,0.1-0.7,0.1-1.3,0
				C59,6.1,58.6,6.2,58.5,6.3z"/>
		</g>
		<g>
			<path class="st1" d="M59.7,7.1c-1,0-1.8-0.8-1.8-1.8c0-0.4,0.1-0.8,0.4-1.1l0,0c0.2-0.1,0.6-0.2,1.3-0.1c0.7,0.2,1.1,0.1,1.4,0
				L61,4l0.1,0.1c0.3,0.3,0.4,0.7,0.4,1.2C61.5,6.3,60.7,7.1,59.7,7.1z M58.4,4.4c-0.2,0.3-0.3,0.6-0.3,0.9c0,0.9,0.7,1.6,1.6,1.6
				s1.6-0.7,1.6-1.6c0-0.3-0.1-0.7-0.3-0.9c-0.3,0.1-0.8,0.2-1.5,0C58.9,4.2,58.5,4.3,58.4,4.4z"/>
		</g>
		<g>
			<path class="st1" d="M59.7,7.1c-1,0-1.8-0.8-1.8-1.8c0-0.1,0-0.3,0-0.4l0-0.1L58,4.8c0.3,0.1,0.8,0.3,1.8,0.1
				c1.1-0.3,1.5,0.1,1.7,0.2l0,0l0,0c0,0,0,0.1,0,0.1c0,0.5-0.2,1-0.5,1.3C60.6,6.9,60.2,7.1,59.7,7.1L59.7,7.1
				C59.7,7.1,59.7,7.1,59.7,7.1z M58.1,5.1c0,0.1,0,0.1,0,0.2c0,0.4,0.2,0.8,0.5,1.1c0.3,0.3,0.7,0.5,1.1,0.5c0,0,0,0,0,0l0,0
				c0.4,0,0.8-0.2,1.1-0.5c0.3-0.3,0.5-0.7,0.5-1.1c0,0,0,0,0-0.1c-0.1-0.1-0.5-0.3-1.4-0.1C59,5.3,58.4,5.2,58.1,5.1z"/>
		</g>
	</g>
</g>
<g class="st2">
	<g>
		<path class="st1" d="M73.4,9.9C73.4,9.9,73.4,9.9,73.4,9.9c-2.6,0-4.6-2.1-4.6-4.6c0-1.2,0.5-2.4,1.3-3.2c0.9-0.9,2-1.3,3.2-1.3
			c0,0,0,0,0,0c2.5,0,4.6,2.1,4.6,4.6c0,1.2-0.5,2.4-1.3,3.2C75.8,9.4,74.7,9.9,73.4,9.9z M69,5.3c0,2.4,2,4.4,4.4,4.4c0,0,0,0,0,0
			c1.2,0,2.2-0.4,3.1-1.3c0.8-0.8,1.3-1.9,1.3-3.1c0-2.4-2-4.4-4.4-4.4c0,0,0,0,0,0c-1.2,0-2.2,0.4-3.1,1.3C69.5,3,69,4.1,69,5.3z"
			/>
	</g>
	<g>
		<path class="st1" d="M73.4,7.1C73.4,7.1,73.4,7.1,73.4,7.1c-1,0-1.9-0.8-1.9-1.8c0-0.5,0.2-1,0.5-1.3c0.3-0.3,0.8-0.5,1.3-0.5
			c0,0,0,0,0,0c1,0,1.8,0.8,1.9,1.8c0,0.5-0.2,1-0.5,1.3C74.4,6.9,73.9,7.1,73.4,7.1z M73.4,3.7c-0.4,0-0.8,0.2-1.1,0.5
			c-0.3,0.3-0.5,0.7-0.5,1.1c0,0.9,0.7,1.6,1.6,1.6c0,0,0,0,0,0c0.4,0,0.8-0.2,1.1-0.5C74.8,6.1,75,5.7,75,5.3
			C75,4.4,74.3,3.7,73.4,3.7C73.4,3.7,73.4,3.7,73.4,3.7z"/>
	</g>
	<g>
		<path class="st1" d="M73.4,7.1c-1,0-1.8-0.8-1.8-1.8c0-0.4,0.1-0.8,0.4-1.1l0,0c0.2-0.1,0.6-0.2,1.3-0.1c0.7,0.2,1.1,0.1,1.4,0
			l0.1,0l0.1,0.1c0.3,0.3,0.4,0.7,0.4,1.2C75.2,6.3,74.4,7.1,73.4,7.1z M72.1,4.4c-0.2,0.3-0.3,0.6-0.3,0.9c0,0.9,0.7,1.6,1.6,1.6
			S75,6.2,75,5.3c0-0.3-0.1-0.7-0.3-0.9c-0.3,0.1-0.8,0.2-1.5,0C72.6,4.2,72.3,4.3,72.1,4.4z"/>
	</g>
</g>
<g class="st2">
	<g>
		<path class="st1" d="M87.1,8.7c-1.9,0-3.4-1.5-3.4-3.4s1.5-3.4,3.4-3.4s3.4,1.5,3.4,3.4S89,8.7,87.1,8.7z M87.1,2.1
			c-1.8,0-3.2,1.4-3.2,3.2s1.4,3.2,3.2,3.2c1.8,0,3.2-1.4,3.2-3.2S88.9,2.1,87.1,2.1z"/>
	</g>
	<g>
		<path class="st1" d="M87.1,7.9c-1.4,0-2.6-1.2-2.6-2.6s1.2-2.6,2.6-2.6c1.4,0,2.6,1.2,2.6,2.6S88.6,7.9,87.1,7.9z M87.1,2.9
			c-1.3,0-2.3,1.1-2.3,2.3c0,1.3,1.1,2.3,2.3,2.3c1.3,0,2.3-1.1,2.3-2.3C89.5,4,88.4,2.9,87.1,2.9z"/>
	</g>
	<g>
		<path class="st1" d="M87.1,7.2c-1.1,0-1.9-0.9-1.9-1.9s0.9-1.9,1.9-1.9S89,4.2,89,5.3S88.2,7.2,87.1,7.2z M87.1,3.6
			c-0.9,0-1.7,0.7-1.7,1.7s0.7,1.7,1.7,1.7s1.7-0.7,1.7-1.7S88.1,3.6,87.1,3.6z"/>
	</g>
	<g>
		<path class="st1" d="M87.2,9.9C87.2,9.9,87.2,9.9,87.2,9.9c-2.6,0-4.6-2.1-4.6-4.6C82.5,4,83,2.9,83.9,2c0.9-0.9,2-1.3,3.2-1.3
			c0,0,0,0,0,0c2.5,0,4.6,2.1,4.6,4.6c0,1.2-0.5,2.4-1.3,3.2C89.5,9.4,88.4,9.9,87.2,9.9z M82.8,5.3c0,2.4,2,4.4,4.4,4.4
			c0,0,0,0,0,0c1.2,0,2.2-0.4,3.1-1.3c0.8-0.8,1.3-1.9,1.3-3.1c0-2.4-2-4.4-4.4-4.4c0,0,0,0,0,0c-1.2,0-2.2,0.4-3.1,1.3
			C83.2,3,82.8,4.1,82.8,5.3z"/>
	</g>
</g>
</svg>
