<?xml version="1.0" encoding="utf-8"?>
<!-- Generator: Adobe Illustrator 21.0.0, SVG Export Plug-In . SVG Version: 6.00 Build 0)  -->
<svg version="1.1" id="Layer_1" xmlns="http://www.w3.org/2000/svg" xmlns:xlink="http://www.w3.org/1999/xlink" x="0px" y="0px"
	 viewBox="0 0 1920 1528" style="enable-background:new 0 0 1920 1528;" xml:space="preserve">
<style type="text/css">
	.st0{fill:#FCF8E3;}
</style>
<path class="st0" d="M283.9,1189.1c10.4,0,36.3,2,43.8,2c32.6,0,77.6-1.2,94.3-1.2c15.9,0,23.1-0.9,26.2-0.9c1.7,0,4.6,4,4.9,6.6
	l4.6,34.3c0,2.6-0.9,6.3-2,6.3c-2,0-4-1.2-5.8-5.5c-5.5-14.7-17.6-28.3-25.1-30c-4.9-0.9-32.9-1.2-60.9-1.2c-2.9,0-4.6,1.2-4.9,19
	v89.4c0,0.9,1.2,3.5,2.9,3.5H401c12.1,0,22.5-0.9,26.8-3.5c4-2.6,6.6-7.2,11.2-19c0.3-1.2,2-4.9,4.6-4.9c1.7,0,2,4,2,4.9
	c0,2.9-1.7,21.6-2,26.2c-0.3,4.6,0.9,22.5,0.9,25.4c0,5.8-1.2,7.5-2.6,7.5c-1.2,0-2.6-1.2-4.6-6.6c-2-4.9-5.5-16.2-13-16.7
	c-11.2-0.9-19.6-1.7-62.9-1.7c-0.9,0-2,2.6-2,3.5c0,21.3,1.2,85.7,1.2,93.2c0,4.6,4,15.9,10.4,17c4.9,0.9,13.8,2.6,35.8,2.6
	c17,0,31.7,1.2,42.1-10.1c6.6-5.8,13.8-16.7,17.9-21.6c2.9-4,4.9-6.6,7.2-6.6c1.7,0,2,3.7,0.9,8.4c-0.9,3.5-8.4,30-10.4,33.7
	c-1.7,4-5.8,6.6-9.5,6.6c-44.1,0-90.6-1.7-124-1.7c-14.1,0-44.1,2-48.7,2c-5.5,0-7.8-1.2-7.8-2.9c0-2.6,2.9-3.5,7.5-4.6
	c11.8-2,20.5-5.5,21.3-24.5c2-63.4,1.7-126.3,1.7-190.9c0-22.2-5.5-28-20.8-30c-4.6-0.9-7.5-2.6-7.5-4.6
	C275.8,1190.2,279.2,1189.1,283.9,1189.1z M598.8,1314.2c-2.9,7.5-8.4,24.2-15.6,42.1c-2.6,5.8-1.2,6.3,2.6,1.7
	c23.6-32.6,49.3-66.3,81.6-66.3c11,0,19.3,11,19.3,20.5c0,4.9,0,12.1-5.8,25.4l-28,70.1c-2.6,6.3-0.9,7.8,1.7,7.8
	c6.3,0,19.9-9.5,32.9-22.2c3.5-3.5,3.7,2.6,1.7,5.8c-27.1,39.5-63.7,54.2-81,54.2c-7.2,0-11.2-12.4-9.5-16.7
	c2-4.9,42.1-93.4,49.3-113.9c2.9-11,0.9-14.7-4.6-14.7c-7.5,0-20.8,13.3-33.5,31.7c-25.4,38.9-45.9,81.3-59.7,104.4
	c-1.7,2.9-7.5,6.6-19.3,6.6c-4.6,0-12.4-4.9-12.1-9.5c0-2.6,1.2-10.1,3.7-15.3c13-32,32.9-82.2,39.2-96.3c3.7-8.4-0.9-11-4.9-11
	c-8.4,0-17.9,9.5-24.5,18.5c-2.6,3.5-4.6-1.7-2.9-5.5c5.8-13,18.5-40.1,50.5-40.1C593.6,1291.7,601.7,1305.3,598.8,1314.2z
	 M880.3,1340.8c0,42.7-25.4,77.9-46.4,93.7c-21.3,17-39.5,18.7-51.3,18.7c-15.6,0-41-11.2-41-47c0-21.3,8.4-53.1,28.3-77.6
	c19.3-24.2,45-37.2,68.1-37.2C865.9,1291.7,880.3,1316.6,880.3,1340.8z M816.5,1318.9c-20.8,29.7-38.9,84.2-38.9,112.8
	c0,11.5,3.5,15.3,7.5,15.3c3.7,0,11-5.5,16.7-13.3c19.3-24.2,44.7-94.3,44.7-120.8c0-11-3.5-15-7.2-15
	C834.4,1297.5,827.2,1303.6,816.5,1318.9z M1017.6,1306.7c-1.7,0-3.5,3.7-4,5.8c-7.5,21.6-21.3,60.6-32.6,96
	c-1.2,3.7-0.9,6.6,2.6,6.6c3.7,0,16.7-4.9,31.1-19.9c7.2-7.5,3.7,3.7,1.7,7.5c-20.8,29.1-56.2,50.8-71.2,50.8
	c-7.2,0-13.8-6.3-13.8-13.8c0-6.3,4-19.6,5.5-23.4c4.9-15.6,20.8-62.9,35.5-104.7c0.3-1.2-0.9-3.7-1.7-3.7h-16.2
	c-3.7,0-5.5-3.7-5.5-4.6c0-2,5.5-2.9,7.5-3.5c2-0.3,11.2-1.7,19.3-2c1.2-0.3,2.6-2.6,2.9-3.5c4.9-12.4,12.4-24.5,15.9-29.7
	c4.9-5.8,18.7-15,30.9-15c4.9,0,3.7,11.2,2.9,14.1c-2.9,12.1-7.2,25.4-9.2,30.9c-0.3,1.7,0,2,1.2,2c7.8,0,15.3-0.3,27.1-0.3
	c2,0,4.9,1.2,4.9,2.9c0,0.9-2.6,4.6-9.5,5.5C1034,1305.9,1021,1306.7,1017.6,1306.7z M1198.4,1315.4c-0.3,10.4-2.6,20.5-17.9,31.7
	c-12.4,9.5-42.1,17.9-59.1,20.5c-1.7,0.3-3.5,3.7-3.7,4.9c-2.6,9.2-3.7,19.6-3.7,33.5c0,11.2,4.9,20.5,17,20.5
	c10.1,0,23.6-5.5,36.3-19.3c2.6-3.5,4.3-4.9,5.8-4.9c2.6,0,0.6,6.3-1.2,9.2c-15,28.3-38.1,42.1-63.4,42.1c-16.2,0-34.9-15-34.9-43.8
	c0-31.1,13-59.1,26-76.7c19.3-26.8,47-41.2,70.1-41.2C1190.9,1291.7,1198.4,1306.7,1198.4,1315.4z M1121.4,1358.7
	c-0.6,1.2,0.3,2.6,0.9,2.6c23.1-7.8,51.3-33.7,51.3-54.2c0-6.6-2-9.5-7.2-9.5C1153.1,1297.5,1133.2,1322.6,1121.4,1358.7z
	 M1350.7,1174.4c-11,29.7-62,206.2-71.8,238.5c-1.2,3.7-1.2,10.1,2.6,10.1c5.5,0,15.9-7.5,28.8-20.5c5.5-5.8,5.5,0.9,0.9,7.5
	c-15.9,23.1-41,43.3-66,43.3c-9.5,0-12.4-10.1-12.4-13.3c0-8.4,3.5-19.3,5.5-28.3c13-50.5,53.4-185.7,59.7-210
	c4.3-15.3,1.2-18.7-9.5-23.4c-3.5-1.2-4-4.6,2.9-4.9c14.1-0.9,40.1-4.6,52.5-7.2c2-0.3,4.6-1.2,6.6-1.2
	C1352.7,1165.1,1352.1,1169.8,1350.7,1174.4z M1448.7,1300.7c0.6,3.7-2,17-4.9,25.1c-11.2,32.9-25.4,67.5-35.8,92.3
	c-2,5.8,0.3,5.8,2.6,5.8c4,0,16.2-8.7,26.2-18.7c3.5-3.5,4.6,0,1.7,4.6c-17.9,26.2-46.7,43.8-66,43.8c-4.6,0-11-8.1-11-13
	c-0.6-4.6,0.3-11.8,7.2-28.8c8.1-20.5,19.6-50.8,32-82.2c0.9-2.9,0.6-6.3-2-6.3c-3.7,0-11.2,3.5-21.3,12.4c-4.6,4.6-7.5,1.2-3.7-3.7
	c17-21.6,43.8-40.4,65.5-40.4C1443.5,1291.7,1447.3,1295.8,1448.7,1300.7z M1464.9,1239c-0.6,15.9-13.8,23.6-23.1,23.6
	c-9.2,0-17-8.1-17-19.6c0-13.8,11-24.5,22.2-24.5C1460.6,1218.5,1465.2,1230.6,1464.9,1239z M1606.8,1307
	c10.4,12.4,12.4,30.6,12.4,43c0,22.2-0.6,55.1-0.6,66c0,4.9,4.6,12.4,12.4,12.4c3.5,0,7.5-0.9,11.5-3.5c1.2-0.9,2.9,2,1.7,4.6
	c-8.7,17-26.2,23.4-40.4,23.4c-18.7,0-26.8-13.3-29.7-19.9c0-0.3-1.2-1.2-2-0.3c-12.4,14.1-26,19.3-40.1,19.3
	c-15,0-34.3-13.8-34.3-38.4c0-14.1,8.7-23.1,15.6-26.2c11.8-5.5,44.7-13.8,57.1-18.7c2.6-0.9,4.3-2.9,4.9-6.3
	c0.9-4.9,0.6-17.6,0.6-19.9c0-16.7-3.5-23.1-8.7-28.3c-4.6-4.6-11-7.2-15.9-7.2s-11,1.7-13.8,2.9c-1.7,0.9-2.9,3.5-2.9,5.8
	c0,2.6,0.9,9.5,0.3,13.8c0,0.3-1.2,2.9-2.6,3.7c-4.9,3.5-20.8,12.1-28.3,14.7c-2.6,0.9-5.5-2.6-5.5-4.9c0-5.5,6.6-13.8,12.4-19.6
	c7.5-6.6,12.4-12.1,31.7-22.2c9.2-4.9,22.5-9.2,28.8-9.2C1591.8,1291.7,1602.2,1301.6,1606.8,1307z M1570.7,1426.7
	c0.9-0.9,2.6-4.9,2.9-7.5c0.9-6.3,2-23.6,2-42.7c0-0.9-0.9-3.5-2.9-2.9c-3.7,1.2-13.8,4.6-21.6,8.7c-8.4,4.6-12.4,12.4-12.4,22.5
	c0,17,11.2,26.2,21.3,26.2C1564.7,1431.3,1568.4,1429.6,1570.7,1426.7z M1411.5,599.3c0.9-10.4,9.5-18.2,19.6-18.2l0,0
	c11.5,0,20.8,9.8,19.9,21.6c-9.2,111.9-56.2,221.2-141.6,306.6C1105,1113.8,763.8,1099.7,578,867.5
	c-138.4-173.3-141.9-423.4-7.8-600.2C659.7,149.7,788,85.3,919.8,73.8c11.5-0.9,21.6,8.1,21.6,19.9l0,0c0,10.4-7.8,18.7-18.2,19.6
	c-102.1,8.7-201.9,52.2-280,130.1C483.4,403.2,469,654.1,599.7,830.3c15,20.2,42.7,21.9,60.6,4l214.9-214.9h43c4.9,0,7.5,6.1,4,9.5
	L688.5,862.6c-17.9,17.9-16.4,45.3,3.7,60.6c176.5,132.4,428.6,118.5,588.9-42.1C1359.6,802.6,1403.2,702.2,1411.5,599.3z
	 M981.5,93.4L981.5,93.4c0,10.1,7.8,19,17.9,19.6c103,8.4,203.3,51.9,281.8,130.4c78.2,78.2,121.4,177.9,130.1,280
	c0.9,10.1,9.5,17.9,19.6,17.9l0,0c11.8,0,20.8-10.1,19.9-21.6c-9.5-111-56.5-219.5-141.3-304.3c-85.4-85.4-194.7-132.7-306.3-141.9
	C991.3,72.6,981.5,81.6,981.5,93.4z M1046.4,618h-43c-4.9,0-7.5,6.1-4,9.5l63.2,63.2c7.8,7.8,20.5,7.8,28,0l0,0
	c7.8-7.8,7.8-20.5,0-28L1046.4,618z M1183.4,783.3L1183.4,783.3c-7.8,7.8-7.8,20.5,0,28l44.4,44.4c7.8,7.8,20.5,7.8,28,0l0,0
	c7.8-7.8,7.8-20.5,0-28l-44.4-44.4C1203.9,775.5,1191.2,775.5,1183.4,783.3z M1048.7,445.8l-44.4,44.4c-3.5,3.5-1.2,9.5,4,9.5h43
	l25.7-25.7c7.8-7.8,7.8-20.5,0-28l0,0C1069.2,438.1,1056.5,438.1,1048.7,445.8z M1327.9,581.1c9.2,0,16.7-7.2,17-16.4
	c0.6-98.6-36.6-197.8-111.9-272.8c-64.3-64.3-145.6-100.7-229.6-109.6c-11.8-1.2-21.9,8.1-21.9,19.9l0,0c0,10.1,7.5,18.7,17.6,19.6
	c75.3,8.1,148.5,40.7,205.9,98.3c56.8,56.8,89.4,128.6,97.8,202.8c1.2,10.1-6.6,19-16.7,19h-0.6c-9.2,0-17,7.5-17,17v5.8
	c0,9.2,7.5,17,17,17L1327.9,581.1z M755.1,683.2L755.1,683.2c5.8-5.8,7.5-14.7,4-22.2c-8.7-18.2-14.7-36.9-18.5-56.2
	c-2.3-12.1,7.2-23.4,19.6-23.4h358.2c11,0,19.9-8.9,19.9-19.9l0,0c0-11-8.9-19.9-19.9-19.9H606.6v0.3H600c-11,0-19.9,8.9-19.9,20.2
	c0,70.9,19.3,141.9,58.3,204.2c6.6,10.7,21.9,12.4,30.9,3.5l0,0c6.3-6.3,7.8-16.7,2.9-24.2c-27.4-43.3-43.8-91.4-49.9-140.7
	c-1.4-12.1,7.5-22.8,19.6-22.8h37.8c9.8,0,18.2,6.9,19.6,16.7c3.7,27.4,11.5,54.2,23.6,79.9C728.9,690.1,745.3,693,755.1,683.2z
	 M1150.5,750.1c131.2-131.2,96.3-366.3-104.1-442.1c-52.5-19.9-111.3-20.2-164.1-1.2c-89.7,32.6-145.9,96-170.7,168.4
	c-4.6,13,4.9,26.8,18.7,26.8l0,0c8.4,0,15.9-5.2,18.7-13.3c13.6-39.5,37.8-75.9,73.8-104.1c81.6-64.6,200.2-64,281.2,1.2
	c106.4,85.7,112.5,242.6,18.5,336.6c-70.4,70.4-176.2,84.5-261,42.4c-7.5-3.7-16.7-2-22.5,3.7l0,0c-9.8,9.8-6.6,26,5.5,32
	C943.7,849.6,1067.8,832.9,1150.5,750.1z M756.6,884.8c50.2,32,90.8,48.7,148,55.1c11.8,1.4,21.9-8.1,21.9-19.9l0,0
	c0-10.1-7.5-18.5-17.6-19.6c-51.3-5.8-85.9-20.5-130.9-49c-7.8-4.9-17.9-3.7-24.5,2.9l0,0C744.4,862.9,745.9,877.9,756.6,884.8z
	 M746.2,346.1l0.6-0.6c7.5-7.5,7.5-19.6,0-27.1l0,0c-6.6-6.6-6.1-17.6,1.4-23.4c51.9-41.8,113.3-66,176.2-73
	c10.1-1.2,17.6-9.5,17.6-19.6l0,0c0-11.8-10.4-21.1-22.2-19.9c-83.3,9.2-164.1,45.9-227.8,109.6c-53.4,53.4-87.7,118.8-102.7,187.5
	c-2.6,11.8,6.3,22.8,18.5,22.8h2.3c8.9,0,16.4-6.3,18.5-15c11.2-49.6,33.5-97.5,66.9-139c5.8-7.2,16.7-8.1,23.4-1.4l0,0
	c7.5,7.5,19.6,7.5,27.1,0L746.2,346.1z M831.8,431.7L831.8,431.7c-7.8,7.8-7.8,20.5,0,28.3l45.9,45.9h43c4.9,0,7.5-6.1,4-9.5
	l-64.9-64.9C852,423.6,839.6,423.6,831.8,431.7L831.8,431.7z M988.7,901.8c-1.4,0,0.3,0-1.2,0c-9.2,0.6-16.4,7.8-17.3,17l0,0
	c-1.2,13,9.5,23.6,22.2,22.8c1.2,0-1.4,0.3-0.3,0c11-0.9,19.3-10.7,18.5-21.6l0,0C1009.8,908.7,999.7,901,988.7,901.8z
	 M1141.9,851.6c-1.4,0.9,0.3-0.3-1.2,0.6c-7.8,4.6-11.2,14.4-7.8,23.1l0,0c4.9,11.8,19.3,16.7,30.3,10.1c0.9-0.6-1.2,0.9-0.3,0
	c9.5-6.1,12.4-18.2,6.3-27.7l0,0C1163.5,848.5,1151.1,845.9,1141.9,851.6z M1066.6,886.5c-1.4,0.6,0.3-0.3-1.2,0.3
	c-8.7,2.6-14.4,11.2-13,20.5l0,0c1.7,12.7,14.7,20.8,26.8,17c1.2-0.3-1.2,0.6-0.3,0c10.7-3.5,16.4-14.7,13-25.4l0,0
	C1088.5,888.6,1077,883.1,1066.6,886.5z M1259.5,731.1c-0.9,1.4,0.3-0.3-0.6,0.9c-4.6,7.8-2.9,17.9,4,23.9l0,0
	c9.8,8.4,24.8,5.5,31.4-5.5c0.6-0.9-0.6,1.2,0,0.3c5.5-9.8,2.3-21.9-7.5-27.4l0,0C1277.1,717.8,1265,721.3,1259.5,731.1z
	 M1292.4,652.6c-0.3,1.4,0-0.3-0.3,1.2c-2.6,8.9,1.4,18.2,9.8,22.2l0,0c11.5,5.5,25.4-0.6,29.1-13c0.3-1.2-0.3,1.2,0,0.3
	c2.9-10.7-3.2-21.9-13.8-24.8l0,0C1306.3,635.6,1295.3,642,1292.4,652.6z"/>
</svg>
