<?xml version="1.0" encoding="utf-8"?>
<!-- Generator: Adobe Illustrator 21.0.0, SVG Export Plug-In . SVG Version: 6.00 Build 0)  -->
<svg version="1.1" id="Layer_1" xmlns="http://www.w3.org/2000/svg" xmlns:xlink="http://www.w3.org/1999/xlink" x="0px" y="0px"
	 viewBox="0 0 277.6 495.2" style="enable-background:new 0 0 277.6 495.2;" xml:space="preserve">
<style type="text/css">
	.st0{fill:url(#SVGID_1_);}
	.st1{fill:url(#SVGID_2_);}
	.st2{fill:url(#SVGID_3_);}
	.st3{fill:url(#SVGID_4_);}
	.st4{fill:url(#SVGID_5_);}
	.st5{fill:url(#SVGID_6_);}
	.st6{fill:url(#SVGID_7_);}
	.st7{fill:url(#SVGID_8_);}
	.st8{fill:url(#SVGID_9_);}
	.st9{fill:url(#SVGID_10_);}
	.st10{fill:url(#SVGID_11_);}
	.st11{fill:url(#SVGID_12_);}
	.st12{fill:url(#SVGID_13_);}
	.st13{fill:url(#SVGID_14_);}
	.st14{fill:url(#SVGID_15_);}
	.st15{fill:url(#SVGID_16_);}
	.st16{fill:url(#SVGID_17_);}
	.st17{fill:url(#SVGID_18_);}
	.st18{fill:url(#SVGID_19_);}
	.st19{fill:url(#SVGID_20_);}
	.st20{fill:url(#SVGID_21_);}
	.st21{fill:url(#SVGID_22_);}
	.st22{fill:url(#SVGID_23_);}
	.st23{fill:url(#SVGID_24_);}
	.st24{fill:url(#SVGID_25_);}
	.st25{fill:url(#SVGID_26_);}
	.st26{fill:url(#SVGID_27_);}
</style>
<linearGradient id="SVGID_1_" gradientUnits="userSpaceOnUse" x1="-349.565" y1="751.9144" x2="-337.4432" y2="751.9144" gradientTransform="matrix(6.123234e-17 1 1 -6.123234e-17 -541.6693 542.9693)">
	<stop  offset="0" style="stop-color:#B9539F"/>
	<stop  offset="1" style="stop-color:#70CDDD"/>
</linearGradient>
<path class="st0" d="M210.2,205c-7.1-0.4-7.2-11.1,0-11.1C217.4,193.9,217.4,204.6,210.2,205c-0.5,0-0.5,0.8,0,0.8
	c3.4-0.2,6.3-2.7,6.3-6.3c0-3.4-2.9-6.3-6.3-6.3c-3.3,0-6.1,2.7-6.3,6c-0.2,3.7,2.7,6.4,6.3,6.6C210.8,205.8,210.8,205,210.2,205z"
	/>
<linearGradient id="SVGID_2_" gradientUnits="userSpaceOnUse" x1="-379.1497" y1="597.1193" x2="-367.0279" y2="597.1193" gradientTransform="matrix(6.123234e-17 1 1 -6.123234e-17 -541.6693 542.9693)">
	<stop  offset="0" style="stop-color:#B9539F"/>
	<stop  offset="1" style="stop-color:#70CDDD"/>
</linearGradient>
<path class="st1" d="M61.8,169.9c-0.2-3.4-2.7-6.3-6.3-6.3c-3.4,0-6.3,2.9-6.3,6.3c0,3.3,2.7,6.1,6,6.3
	C58.8,176.3,61.6,173.4,61.8,169.9c0-0.5-0.7-0.5-0.8,0c-0.4,7.1-11.1,7.2-11.1,0s10.7-7.1,11.1,0C61.1,170.3,61.8,170.3,61.8,169.9
	z"/>
<linearGradient id="SVGID_3_" gradientUnits="userSpaceOnUse" x1="-517.9286" y1="663.4236" x2="-505.8068" y2="663.4236" gradientTransform="matrix(6.123234e-17 1 1 -6.123234e-17 -541.6693 542.9693)">
	<stop  offset="0" style="stop-color:#B9539F"/>
	<stop  offset="1" style="stop-color:#70CDDD"/>
</linearGradient>
<path class="st2" d="M128.1,31.1c-0.2-3.4-2.7-6.3-6.3-6.3c-3.4,0-6.3,2.9-6.3,6.3c0,3.3,2.7,6.1,6,6.3
	C125.2,37.6,127.8,34.6,128.1,31.1c0-0.5-0.7-0.5-0.8,0c-0.4,7.1-11.1,7.2-11.1,0s10.7-7.1,11.1,0C127.3,31.6,128.1,31.6,128.1,31.1
	z"/>
<linearGradient id="SVGID_4_" gradientUnits="userSpaceOnUse" x1="-82.9893" y1="746.0193" x2="-70.8676" y2="746.0193" gradientTransform="matrix(6.123234e-17 1 1 -6.123234e-17 -541.6693 542.9693)">
	<stop  offset="0" style="stop-color:#B9539F"/>
	<stop  offset="1" style="stop-color:#70CDDD"/>
</linearGradient>
<path class="st3" d="M210.6,466c-0.2-3.4-2.7-6.3-6.3-6.3c-3.4,0-6.3,2.9-6.3,6.3c0,3.3,2.7,6.1,6,6.3
	C207.8,472.5,210.4,469.6,210.6,466c0-0.5-0.7-0.5-0.8,0c-0.4,7.1-11.1,7.2-11.1,0s10.7-7.1,11.1,0
	C209.9,466.5,210.6,466.5,210.6,466z"/>
<linearGradient id="SVGID_5_" gradientUnits="userSpaceOnUse" x1="-174.6047" y1="702.6236" x2="-162.4829" y2="702.6236" gradientTransform="matrix(6.123234e-17 1 1 -6.123234e-17 -541.6693 542.9693)">
	<stop  offset="0" style="stop-color:#B9539F"/>
	<stop  offset="1" style="stop-color:#70CDDD"/>
</linearGradient>
<path class="st4" d="M167.2,374.4c-0.2-3.4-2.7-6.3-6.3-6.3c-3.4,0-6.3,2.9-6.3,6.3c0,3.3,2.7,6.1,6,6.3
	C164.4,380.9,167.1,378,167.2,374.4c0-0.5-0.7-0.5-0.8,0c-0.4,7.1-11.1,7.2-11.1,0s10.7-7.1,11.1,0
	C166.6,374.9,167.4,374.9,167.2,374.4z"/>
<g>
	
		<linearGradient id="SVGID_6_" gradientUnits="userSpaceOnUse" x1="-468.5214" y1="741.3896" x2="-459.7711" y2="741.3896" gradientTransform="matrix(6.123234e-17 1 1 -6.123234e-17 -541.6693 542.9693)">
		<stop  offset="0" style="stop-color:#B9539F"/>
		<stop  offset="1" style="stop-color:#70CDDD"/>
	</linearGradient>
	<path class="st5" d="M195.1,74.8c2.9,2.9,5.7,5.7,8.6,8.6c0.3,0.3,0.9-0.2,0.5-0.5c-2.9-2.9-5.7-5.7-8.6-8.6
		C195.4,73.9,194.9,74.4,195.1,74.8L195.1,74.8z"/>
	
		<linearGradient id="SVGID_7_" gradientUnits="userSpaceOnUse" x1="-468.5197" y1="741.442" x2="-459.7707" y2="741.442" gradientTransform="matrix(6.123234e-17 1 1 -6.123234e-17 -541.6693 542.9693)">
		<stop  offset="0" style="stop-color:#B9539F"/>
		<stop  offset="1" style="stop-color:#70CDDD"/>
	</linearGradient>
	<path class="st6" d="M195.8,83.4c2.9-2.9,5.7-5.7,8.6-8.6c0.3-0.3-0.2-0.9-0.5-0.5c-2.9,2.9-5.7,5.7-8.6,8.6
		C194.9,83.2,195.4,83.7,195.8,83.4L195.8,83.4z"/>
</g>
<g>
	
		<linearGradient id="SVGID_8_" gradientUnits="userSpaceOnUse" x1="-168.489" y1="775.3896" x2="-159.7385" y2="775.3896" gradientTransform="matrix(6.123234e-17 1 1 -6.123234e-17 -541.6693 542.9693)">
		<stop  offset="0" style="stop-color:#B9539F"/>
		<stop  offset="1" style="stop-color:#70CDDD"/>
	</linearGradient>
	<path class="st7" d="M229.2,374.8c2.9,2.9,5.7,5.7,8.6,8.6c0.3,0.3,0.9-0.2,0.5-0.5c-2.9-2.9-5.7-5.7-8.6-8.6
		C229.4,373.9,228.9,374.5,229.2,374.8L229.2,374.8z"/>
	
		<linearGradient id="SVGID_9_" gradientUnits="userSpaceOnUse" x1="-168.4872" y1="775.3693" x2="-159.7381" y2="775.3693" gradientTransform="matrix(6.123234e-17 1 1 -6.123234e-17 -541.6693 542.9693)">
		<stop  offset="0" style="stop-color:#B9539F"/>
		<stop  offset="1" style="stop-color:#70CDDD"/>
	</linearGradient>
	<path class="st8" d="M229.7,383.4c2.9-2.9,5.7-5.7,8.6-8.6c0.3-0.3-0.2-0.9-0.5-0.5c-2.9,2.9-5.7,5.7-8.6,8.6
		C228.9,383.2,229.4,383.7,229.7,383.4L229.7,383.4z"/>
</g>
<g>
	
		<linearGradient id="SVGID_10_" gradientUnits="userSpaceOnUse" x1="-97.0291" y1="616.8896" x2="-88.2787" y2="616.8896" gradientTransform="matrix(6.123234e-17 1 1 -6.123234e-17 -541.6693 542.9693)">
		<stop  offset="0" style="stop-color:#B9539F"/>
		<stop  offset="1" style="stop-color:#70CDDD"/>
	</linearGradient>
	<path class="st9" d="M70.7,446.3c2.9,2.9,5.7,5.7,8.6,8.6c0.3,0.3,0.9-0.2,0.5-0.5c-2.9-2.9-5.7-5.7-8.6-8.6
		C70.8,445.4,70.3,445.9,70.7,446.3L70.7,446.3z"/>
	
		<linearGradient id="SVGID_11_" gradientUnits="userSpaceOnUse" x1="-97.0273" y1="616.942" x2="-88.2784" y2="616.942" gradientTransform="matrix(6.123234e-17 1 1 -6.123234e-17 -541.6693 542.9693)">
		<stop  offset="0" style="stop-color:#B9539F"/>
		<stop  offset="1" style="stop-color:#70CDDD"/>
	</linearGradient>
	<path class="st10" d="M71.3,454.8c2.9-2.9,5.7-5.7,8.6-8.6c0.3-0.3-0.2-0.9-0.5-0.5c-2.9,2.9-5.7,5.7-8.6,8.6
		C70.3,454.7,70.8,455.2,71.3,454.8L71.3,454.8z"/>
</g>
<g>
	
		<linearGradient id="SVGID_12_" gradientUnits="userSpaceOnUse" x1="-181.4399" y1="601.0897" x2="-172.6896" y2="601.0897" gradientTransform="matrix(6.123234e-17 1 1 -6.123234e-17 -541.6693 542.9693)">
		<stop  offset="0" style="stop-color:#B9539F"/>
		<stop  offset="1" style="stop-color:#70CDDD"/>
	</linearGradient>
	<path class="st11" d="M54.8,361.9c2.9,2.9,5.7,5.7,8.6,8.6c0.3,0.3,0.9-0.2,0.5-0.5c-2.9-2.9-5.7-5.7-8.6-8.6
		C55.1,361,54.6,361.5,54.8,361.9L54.8,361.9z"/>
	
		<linearGradient id="SVGID_13_" gradientUnits="userSpaceOnUse" x1="-181.4381" y1="601.0693" x2="-172.6891" y2="601.0693" gradientTransform="matrix(6.123234e-17 1 1 -6.123234e-17 -541.6693 542.9693)">
		<stop  offset="0" style="stop-color:#B9539F"/>
		<stop  offset="1" style="stop-color:#70CDDD"/>
	</linearGradient>
	<path class="st12" d="M55.3,370.4c2.9-2.9,5.7-5.7,8.6-8.6c0.3-0.3-0.2-0.9-0.5-0.5c-2.9,2.9-5.7,5.7-8.6,8.6
		C54.6,370.2,55.1,370.8,55.3,370.4L55.3,370.4z"/>
</g>
<g>
	<g>
		
			<linearGradient id="SVGID_14_" gradientUnits="userSpaceOnUse" x1="-398.6385" y1="727.9193" x2="-397.914" y2="727.9193" gradientTransform="matrix(6.123234e-17 1 1 -6.123234e-17 -541.6693 542.9693)">
			<stop  offset="0" style="stop-color:#B9539F"/>
			<stop  offset="1" style="stop-color:#70CDDD"/>
		</linearGradient>
		<path class="st13" d="M185.9,144.7c0,0.5,0.8,0.5,0.8,0C186.6,144.2,185.9,144.2,185.9,144.7L185.9,144.7z"/>
	</g>
</g>
<g>
	<g>
		
			<linearGradient id="SVGID_15_" gradientUnits="userSpaceOnUse" x1="-227.5768" y1="773.8193" x2="-226.8523" y2="773.8193" gradientTransform="matrix(6.123234e-17 1 1 -6.123234e-17 -541.6693 542.9693)">
			<stop  offset="0" style="stop-color:#B9539F"/>
			<stop  offset="1" style="stop-color:#70CDDD"/>
		</linearGradient>
		<path class="st14" d="M231.8,315.7c0,0.5,0.8,0.5,0.8,0C232.6,315.3,231.8,315.2,231.8,315.7L231.8,315.7z"/>
	</g>
</g>
<g>
	<g>
		
			<linearGradient id="SVGID_16_" gradientUnits="userSpaceOnUse" x1="-120.191" y1="743.0193" x2="-119.4666" y2="743.0193" gradientTransform="matrix(6.123234e-17 1 1 -6.123234e-17 -541.6693 542.9693)">
			<stop  offset="0" style="stop-color:#B9539F"/>
			<stop  offset="1" style="stop-color:#70CDDD"/>
		</linearGradient>
		<path class="st15" d="M200.9,423.1c0,0.5,0.8,0.5,0.8,0S200.9,422.6,200.9,423.1L200.9,423.1z"/>
	</g>
</g>
<g>
	<g>
		
			<linearGradient id="SVGID_17_" gradientUnits="userSpaceOnUse" x1="-163.3612" y1="740.3193" x2="-162.6367" y2="740.3193" gradientTransform="matrix(6.123234e-17 1 1 -6.123234e-17 -541.6693 542.9693)">
			<stop  offset="0" style="stop-color:#B9539F"/>
			<stop  offset="1" style="stop-color:#70CDDD"/>
		</linearGradient>
		<path class="st16" d="M198.2,379.9c0,0.5,0.8,0.5,0.8,0C199.1,379.5,198.2,379.5,198.2,379.9L198.2,379.9z"/>
	</g>
</g>
<g>
	<g>
		
			<linearGradient id="SVGID_18_" gradientUnits="userSpaceOnUse" x1="-156.8857" y1="669.7193" x2="-156.1612" y2="669.7193" gradientTransform="matrix(6.123234e-17 1 1 -6.123234e-17 -541.6693 542.9693)">
			<stop  offset="0" style="stop-color:#B9539F"/>
			<stop  offset="1" style="stop-color:#70CDDD"/>
		</linearGradient>
		<path class="st17" d="M127.7,386.4c0,0.5,0.8,0.5,0.8,0C128.3,385.9,127.7,385.9,127.7,386.4L127.7,386.4z"/>
	</g>
</g>
<g>
	<g>
		
			<linearGradient id="SVGID_19_" gradientUnits="userSpaceOnUse" x1="-55.9754" y1="669.7193" x2="-55.2509" y2="669.7193" gradientTransform="matrix(6.123234e-17 1 1 -6.123234e-17 -541.6693 542.9693)">
			<stop  offset="0" style="stop-color:#B9539F"/>
			<stop  offset="1" style="stop-color:#70CDDD"/>
		</linearGradient>
		<path class="st18" d="M127.7,487.3c0,0.5,0.8,0.5,0.8,0C128.3,486.9,127.7,486.9,127.7,487.3L127.7,487.3z"/>
	</g>
</g>
<g>
	<g>
		
			<linearGradient id="SVGID_20_" gradientUnits="userSpaceOnUse" x1="-86.1945" y1="565.5193" x2="-85.47" y2="565.5193" gradientTransform="matrix(6.123234e-17 1 1 -6.123234e-17 -541.6693 542.9693)">
			<stop  offset="0" style="stop-color:#B9539F"/>
			<stop  offset="1" style="stop-color:#70CDDD"/>
		</linearGradient>
		<path class="st19" d="M23.5,457.1c0,0.5,0.8,0.5,0.8,0S23.5,456.6,23.5,457.1L23.5,457.1z"/>
	</g>
</g>
<g>
	<g>
		
			<linearGradient id="SVGID_21_" gradientUnits="userSpaceOnUse" x1="-236.7504" y1="574.7193" x2="-236.0259" y2="574.7193" gradientTransform="matrix(6.123234e-17 1 1 -6.123234e-17 -541.6693 542.9693)">
			<stop  offset="0" style="stop-color:#B9539F"/>
			<stop  offset="1" style="stop-color:#70CDDD"/>
		</linearGradient>
		<path class="st20" d="M32.7,306.6c0,0.5,0.8,0.5,0.8,0C33.3,306.1,32.7,306.1,32.7,306.6L32.7,306.6z"/>
	</g>
</g>
<g>
	<g>
		
			<linearGradient id="SVGID_22_" gradientUnits="userSpaceOnUse" x1="-389.4648" y1="614.6193" x2="-388.7404" y2="614.6193" gradientTransform="matrix(6.123234e-17 1 1 -6.123234e-17 -541.6693 542.9693)">
			<stop  offset="0" style="stop-color:#B9539F"/>
			<stop  offset="1" style="stop-color:#70CDDD"/>
		</linearGradient>
		<path class="st21" d="M72.6,153.8c0,0.5,0.8,0.5,0.8,0C73.3,153.4,72.6,153.4,72.6,153.8L72.6,153.8z"/>
	</g>
</g>
<g>
	<g>
		
			<linearGradient id="SVGID_23_" gradientUnits="userSpaceOnUse" x1="-361.9439" y1="697.2193" x2="-361.2194" y2="697.2193" gradientTransform="matrix(6.123234e-17 1 1 -6.123234e-17 -541.6693 542.9693)">
			<stop  offset="0" style="stop-color:#B9539F"/>
			<stop  offset="1" style="stop-color:#70CDDD"/>
		</linearGradient>
		<path class="st22" d="M155.1,181.4c0,0.5,0.8,0.5,0.8,0C155.9,180.9,155.1,180.9,155.1,181.4L155.1,181.4z"/>
	</g>
</g>
<g>
	<g>
		
			<linearGradient id="SVGID_24_" gradientUnits="userSpaceOnUse" x1="-258.3355" y1="795.4193" x2="-257.6111" y2="795.4193" gradientTransform="matrix(6.123234e-17 1 1 -6.123234e-17 -541.6693 542.9693)">
			<stop  offset="0" style="stop-color:#B9539F"/>
			<stop  offset="1" style="stop-color:#70CDDD"/>
		</linearGradient>
		<path class="st23" d="M253.4,285c0,0.5,0.8,0.5,0.8,0C254.1,284.5,253.4,284.5,253.4,285L253.4,285z"/>
	</g>
</g>
<g>
	<g>
		
			<linearGradient id="SVGID_25_" gradientUnits="userSpaceOnUse" x1="-490.3751" y1="629.7193" x2="-489.6506" y2="629.7193" gradientTransform="matrix(6.123234e-17 1 1 -6.123234e-17 -541.6693 542.9693)">
			<stop  offset="0" style="stop-color:#B9539F"/>
			<stop  offset="1" style="stop-color:#70CDDD"/>
		</linearGradient>
		<path class="st24" d="M87.7,52.9c0,0.5,0.8,0.5,0.8,0C88.5,52.5,87.7,52.5,87.7,52.9L87.7,52.9z"/>
	</g>
</g>
<g>
	<g>
		
			<linearGradient id="SVGID_26_" gradientUnits="userSpaceOnUse" x1="-460.156" y1="697.2193" x2="-459.4315" y2="697.2193" gradientTransform="matrix(6.123234e-17 1 1 -6.123234e-17 -541.6693 542.9693)">
			<stop  offset="0" style="stop-color:#B9539F"/>
			<stop  offset="1" style="stop-color:#70CDDD"/>
		</linearGradient>
		<path class="st25" d="M155.1,83.2c0,0.5,0.8,0.5,0.8,0C155.9,82.7,155.1,82.7,155.1,83.2L155.1,83.2z"/>
	</g>
</g>
<g>
	<g>
		
			<linearGradient id="SVGID_27_" gradientUnits="userSpaceOnUse" x1="-261.0336" y1="703.1193" x2="-260.3091" y2="703.1193" gradientTransform="matrix(6.123234e-17 1 1 -6.123234e-17 -541.6693 542.9693)">
			<stop  offset="0" style="stop-color:#B9539F"/>
			<stop  offset="1" style="stop-color:#70CDDD"/>
		</linearGradient>
		<path class="st26" d="M161.1,282.3c0,0.5,0.8,0.5,0.8,0S161.1,281.8,161.1,282.3L161.1,282.3z"/>
	</g>
</g>
</svg>
