<?xml version="1.0" encoding="utf-8"?>
<!-- Generator: Adobe Illustrator 21.1.0, SVG Export Plug-In . SVG Version: 6.00 Build 0)  -->
<svg version="1.1" id="Layer_1" xmlns="http://www.w3.org/2000/svg" xmlns:xlink="http://www.w3.org/1999/xlink" x="0px" y="0px"
	 viewBox="0 0 495.2 277.6" style="enable-background:new 0 0 495.2 277.6;" xml:space="preserve">
<style type="text/css">
	.st0{fill:url(#SVGID_1_);}
	.st1{fill:url(#SVGID_2_);}
	.st2{fill:url(#SVGID_3_);}
	.st3{fill:url(#SVGID_4_);}
	.st4{fill:url(#SVGID_5_);}
	.st5{fill:url(#SVGID_6_);}
	.st6{fill:url(#SVGID_7_);}
	.st7{fill:url(#SVGID_8_);}
	.st8{fill:url(#SVGID_9_);}
	.st9{fill:url(#SVGID_10_);}
	.st10{fill:url(#SVGID_11_);}
	.st11{fill:url(#SVGID_12_);}
	.st12{fill:url(#SVGID_13_);}
	.st13{fill:url(#SVGID_14_);}
	.st14{fill:url(#SVGID_15_);}
	.st15{fill:url(#SVGID_16_);}
	.st16{fill:url(#SVGID_17_);}
	.st17{fill:url(#SVGID_18_);}
	.st18{fill:url(#SVGID_19_);}
	.st19{fill:url(#SVGID_20_);}
	.st20{fill:url(#SVGID_21_);}
	.st21{fill:url(#SVGID_22_);}
	.st22{fill:url(#SVGID_23_);}
	.st23{fill:url(#SVGID_24_);}
	.st24{fill:url(#SVGID_25_);}
	.st25{fill:url(#SVGID_26_);}
	.st26{fill:url(#SVGID_27_);}
</style>
<linearGradient id="SVGID_1_" gradientUnits="userSpaceOnUse" x1="190.0823" y1="69.1706" x2="202.2041" y2="69.1706">
	<stop  offset="0" style="stop-color:#B9539F"/>
	<stop  offset="1" style="stop-color:#70CDDD"/>
</linearGradient>
<path class="st0" d="M201.7,69.2c-0.4,7.1-11.1,7.2-11.1,0C190.6,62,201.3,62.1,201.7,69.2c0,0.5,0.8,0.5,0.8,0
	c-0.2-3.4-2.7-6.3-6.3-6.3c-3.4,0-6.3,2.9-6.3,6.3c0,3.3,2.7,6.1,6,6.3c3.7,0.2,6.4-2.7,6.6-6.3C202.5,68.7,201.7,68.7,201.7,69.2z"
	/>
<linearGradient id="SVGID_2_" gradientUnits="userSpaceOnUse" x1="160.4976" y1="224.0014" x2="172.6194" y2="224.0014">
	<stop  offset="0" style="stop-color:#B9539F"/>
	<stop  offset="1" style="stop-color:#70CDDD"/>
</linearGradient>
<path class="st1" d="M166.6,217.7c-3.4,0.2-6.3,2.7-6.3,6.3c0,3.4,2.9,6.3,6.3,6.3c3.3,0,6.1-2.7,6.3-6
	C173,220.6,170.1,217.9,166.6,217.7c-0.5,0-0.5,0.7,0,0.8c7.1,0.4,7.2,11.1,0,11.1c-7.2,0-7.1-10.7,0-11.1
	C167,218.4,167,217.7,166.6,217.7z"/>
<linearGradient id="SVGID_3_" gradientUnits="userSpaceOnUse" x1="21.7187" y1="157.6736" x2="33.8405" y2="157.6736">
	<stop  offset="0" style="stop-color:#B9539F"/>
	<stop  offset="1" style="stop-color:#70CDDD"/>
</linearGradient>
<path class="st2" d="M27.8,151.4c-3.4,0.2-6.3,2.7-6.3,6.3c0,3.4,2.9,6.3,6.3,6.3c3.3,0,6.1-2.7,6.3-6
	C34.3,154.3,31.3,151.6,27.8,151.4c-0.5,0-0.5,0.7,0,0.8c7.1,0.4,7.2,11.1,0,11.1c-7.2,0-7.1-10.7,0-11.1
	C28.3,152.1,28.3,151.3,27.8,151.4z"/>
<linearGradient id="SVGID_4_" gradientUnits="userSpaceOnUse" x1="456.658" y1="75.1107" x2="468.7798" y2="75.1107">
	<stop  offset="0" style="stop-color:#B9539F"/>
	<stop  offset="1" style="stop-color:#70CDDD"/>
</linearGradient>
<path class="st3" d="M462.7,68.8c-3.4,0.2-6.3,2.7-6.3,6.3c0,3.4,2.9,6.3,6.3,6.3c3.3,0,6.1-2.7,6.3-6
	C469.2,71.7,466.3,69,462.7,68.8c-0.5,0-0.5,0.7,0,0.8c7.1,0.4,7.2,11.1,0,11.1c-7.2,0-7.1-10.7,0-11.1
	C463.2,69.5,463.2,68.8,462.7,68.8z"/>
<linearGradient id="SVGID_5_" gradientUnits="userSpaceOnUse" x1="365.0426" y1="118.4665" x2="377.1644" y2="118.4665">
	<stop  offset="0" style="stop-color:#B9539F"/>
	<stop  offset="1" style="stop-color:#70CDDD"/>
</linearGradient>
<path class="st4" d="M371.1,112.2c-3.4,0.2-6.3,2.7-6.3,6.3c0,3.4,2.9,6.3,6.3,6.3c3.3,0,6.1-2.7,6.3-6
	C377.6,115.1,374.7,112.3,371.1,112.2c-0.5,0-0.5,0.7,0,0.8c7.1,0.4,7.2,11.1,0,11.1c-7.2,0-7.1-10.7,0-11.1
	C371.6,112.9,371.6,112.1,371.1,112.2z"/>
<g>
	<linearGradient id="SVGID_6_" gradientUnits="userSpaceOnUse" x1="71.1259" y1="79.728" x2="79.8762" y2="79.728">
		<stop  offset="0" style="stop-color:#B9539F"/>
		<stop  offset="1" style="stop-color:#70CDDD"/>
	</linearGradient>
	<path class="st5" d="M71.5,84.3c2.9-2.9,5.7-5.7,8.6-8.6c0.3-0.3-0.2-0.9-0.5-0.5c-2.9,2.9-5.7,5.7-8.6,8.6
		C70.6,84.1,71.1,84.6,71.5,84.3L71.5,84.3z"/>
	<linearGradient id="SVGID_7_" gradientUnits="userSpaceOnUse" x1="71.1276" y1="79.7272" x2="79.8766" y2="79.7272">
		<stop  offset="0" style="stop-color:#B9539F"/>
		<stop  offset="1" style="stop-color:#70CDDD"/>
	</linearGradient>
	<path class="st6" d="M80.1,83.7c-2.9-2.9-5.7-5.7-8.6-8.6c-0.3-0.3-0.9,0.2-0.5,0.5c2.9,2.9,5.7,5.7,8.6,8.6
		C79.9,84.6,80.4,84.1,80.1,83.7L80.1,83.7z"/>
</g>
<g>
	<linearGradient id="SVGID_8_" gradientUnits="userSpaceOnUse" x1="371.1584" y1="45.7315" x2="379.9088" y2="45.7315">
		<stop  offset="0" style="stop-color:#B9539F"/>
		<stop  offset="1" style="stop-color:#70CDDD"/>
	</linearGradient>
	<path class="st7" d="M371.5,50.3c2.9-2.9,5.7-5.7,8.6-8.6c0.3-0.3-0.2-0.9-0.5-0.5c-2.9,2.9-5.7,5.7-8.6,8.6
		C370.6,50.1,371.2,50.6,371.5,50.3L371.5,50.3z"/>
	<linearGradient id="SVGID_9_" gradientUnits="userSpaceOnUse" x1="371.1602" y1="45.7307" x2="379.9092" y2="45.7307">
		<stop  offset="0" style="stop-color:#B9539F"/>
		<stop  offset="1" style="stop-color:#70CDDD"/>
	</linearGradient>
	<path class="st8" d="M380.1,49.8c-2.9-2.9-5.7-5.7-8.6-8.6c-0.3-0.3-0.9,0.2-0.5,0.5c2.9,2.9,5.7,5.7,8.6,8.6
		C379.9,50.6,380.4,50.1,380.1,49.8L380.1,49.8z"/>
</g>
<g>
	<linearGradient id="SVGID_10_" gradientUnits="userSpaceOnUse" x1="442.6183" y1="204.2061" x2="451.3686" y2="204.2061">
		<stop  offset="0" style="stop-color:#B9539F"/>
		<stop  offset="1" style="stop-color:#70CDDD"/>
	</linearGradient>
	<path class="st9" d="M443,208.8c2.9-2.9,5.7-5.7,8.6-8.6c0.3-0.3-0.2-0.9-0.5-0.5c-2.9,2.9-5.7,5.7-8.6,8.6
		C442.1,208.6,442.6,209.1,443,208.8L443,208.8z"/>
	<linearGradient id="SVGID_11_" gradientUnits="userSpaceOnUse" x1="442.62" y1="204.2052" x2="451.369" y2="204.2052">
		<stop  offset="0" style="stop-color:#B9539F"/>
		<stop  offset="1" style="stop-color:#70CDDD"/>
	</linearGradient>
	<path class="st10" d="M451.5,208.2c-2.9-2.9-5.7-5.7-8.6-8.6c-0.3-0.3-0.9,0.2-0.5,0.5c2.9,2.9,5.7,5.7,8.6,8.6
		C451.4,209.1,451.9,208.6,451.5,208.2L451.5,208.2z"/>
</g>
<g>
	<linearGradient id="SVGID_12_" gradientUnits="userSpaceOnUse" x1="358.2074" y1="220.031" x2="366.9577" y2="220.031">
		<stop  offset="0" style="stop-color:#B9539F"/>
		<stop  offset="1" style="stop-color:#70CDDD"/>
	</linearGradient>
	<path class="st11" d="M358.6,224.6c2.9-2.9,5.7-5.7,8.6-8.6c0.3-0.3-0.2-0.9-0.5-0.5c-2.9,2.9-5.7,5.7-8.6,8.6
		C357.7,224.4,358.2,224.9,358.6,224.6L358.6,224.6z"/>
	<linearGradient id="SVGID_13_" gradientUnits="userSpaceOnUse" x1="358.2092" y1="220.0302" x2="366.9582" y2="220.0302">
		<stop  offset="0" style="stop-color:#B9539F"/>
		<stop  offset="1" style="stop-color:#70CDDD"/>
	</linearGradient>
	<path class="st12" d="M367.1,224.1c-2.9-2.9-5.7-5.7-8.6-8.6c-0.3-0.3-0.9,0.2-0.5,0.5c2.9,2.9,5.7,5.7,8.6,8.6
		C366.9,224.9,367.5,224.4,367.1,224.1L367.1,224.1z"/>
</g>
<g>
	<g>
		<linearGradient id="SVGID_14_" gradientUnits="userSpaceOnUse" x1="141.0088" y1="93.1885" x2="141.7333" y2="93.1885">
			<stop  offset="0" style="stop-color:#B9539F"/>
			<stop  offset="1" style="stop-color:#70CDDD"/>
		</linearGradient>
		<path class="st13" d="M141.4,93.6c0.5,0,0.5-0.8,0-0.8C140.9,92.8,140.9,93.6,141.4,93.6L141.4,93.6z"/>
	</g>
</g>
<g>
	<g>
		<linearGradient id="SVGID_15_" gradientUnits="userSpaceOnUse" x1="312.0705" y1="47.3202" x2="312.795" y2="47.3202">
			<stop  offset="0" style="stop-color:#B9539F"/>
			<stop  offset="1" style="stop-color:#70CDDD"/>
		</linearGradient>
		<path class="st14" d="M312.4,47.7c0.5,0,0.5-0.8,0-0.8C312,46.9,311.9,47.7,312.4,47.7L312.4,47.7z"/>
	</g>
</g>
<g>
	<g>
		<linearGradient id="SVGID_16_" gradientUnits="userSpaceOnUse" x1="419.4563" y1="78.0789" x2="420.1808" y2="78.0789">
			<stop  offset="0" style="stop-color:#B9539F"/>
			<stop  offset="1" style="stop-color:#70CDDD"/>
		</linearGradient>
		<path class="st15" d="M419.8,78.5c0.5,0,0.5-0.8,0-0.8C419.3,77.7,419.3,78.5,419.8,78.5L419.8,78.5z"/>
	</g>
</g>
<g>
	<g>
		<linearGradient id="SVGID_17_" gradientUnits="userSpaceOnUse" x1="376.2861" y1="80.7771" x2="377.0106" y2="80.7771">
			<stop  offset="0" style="stop-color:#B9539F"/>
			<stop  offset="1" style="stop-color:#70CDDD"/>
		</linearGradient>
		<path class="st16" d="M376.6,81.2c0.5,0,0.5-0.8,0-0.8C376.2,80.4,376.2,81.2,376.6,81.2L376.6,81.2z"/>
	</g>
</g>
<g>
	<g>
		<linearGradient id="SVGID_18_" gradientUnits="userSpaceOnUse" x1="382.7617" y1="151.4682" x2="383.4861" y2="151.4682">
			<stop  offset="0" style="stop-color:#B9539F"/>
			<stop  offset="1" style="stop-color:#70CDDD"/>
		</linearGradient>
		<path class="st17" d="M383.1,151.8c0.5,0,0.5-0.8,0-0.8C382.6,151.1,382.6,151.8,383.1,151.8L383.1,151.8z"/>
	</g>
</g>
<g>
	<g>
		<linearGradient id="SVGID_19_" gradientUnits="userSpaceOnUse" x1="483.6719" y1="151.4682" x2="484.3964" y2="151.4682">
			<stop  offset="0" style="stop-color:#B9539F"/>
			<stop  offset="1" style="stop-color:#70CDDD"/>
		</linearGradient>
		<path class="st18" d="M484,151.8c0.5,0,0.5-0.8,0-0.8C483.6,151.1,483.6,151.8,484,151.8L484,151.8z"/>
	</g>
</g>
<g>
	<g>
		<linearGradient id="SVGID_20_" gradientUnits="userSpaceOnUse" x1="453.4528" y1="255.6162" x2="454.1773" y2="255.6162">
			<stop  offset="0" style="stop-color:#B9539F"/>
			<stop  offset="1" style="stop-color:#70CDDD"/>
		</linearGradient>
		<path class="st19" d="M453.8,256c0.5,0,0.5-0.8,0-0.8C453.3,255.2,453.3,256,453.8,256L453.8,256z"/>
	</g>
</g>
<g>
	<g>
		<linearGradient id="SVGID_21_" gradientUnits="userSpaceOnUse" x1="302.8969" y1="246.4425" x2="303.6214" y2="246.4425">
			<stop  offset="0" style="stop-color:#B9539F"/>
			<stop  offset="1" style="stop-color:#70CDDD"/>
		</linearGradient>
		<path class="st20" d="M303.3,246.8c0.5,0,0.5-0.8,0-0.8C302.8,246.1,302.8,246.8,303.3,246.8L303.3,246.8z"/>
	</g>
</g>
<g>
	<g>
		<linearGradient id="SVGID_22_" gradientUnits="userSpaceOnUse" x1="150.1825" y1="206.5101" x2="150.9069" y2="206.5101">
			<stop  offset="0" style="stop-color:#B9539F"/>
			<stop  offset="1" style="stop-color:#70CDDD"/>
		</linearGradient>
		<path class="st21" d="M150.5,206.9c0.5,0,0.5-0.8,0-0.8C150.1,206.1,150.1,206.9,150.5,206.9L150.5,206.9z"/>
	</g>
</g>
<g>
	<g>
		<linearGradient id="SVGID_23_" gradientUnits="userSpaceOnUse" x1="177.7034" y1="123.9472" x2="178.4279" y2="123.9472">
			<stop  offset="0" style="stop-color:#B9539F"/>
			<stop  offset="1" style="stop-color:#70CDDD"/>
		</linearGradient>
		<path class="st22" d="M178.1,124.3c0.5,0,0.5-0.8,0-0.8C177.6,123.6,177.6,124.3,178.1,124.3L178.1,124.3z"/>
	</g>
</g>
<g>
	<g>
		<linearGradient id="SVGID_24_" gradientUnits="userSpaceOnUse" x1="281.3118" y1="25.7351" x2="282.0363" y2="25.7351">
			<stop  offset="0" style="stop-color:#B9539F"/>
			<stop  offset="1" style="stop-color:#70CDDD"/>
		</linearGradient>
		<path class="st23" d="M281.7,26.1c0.5,0,0.5-0.8,0-0.8C281.2,25.4,281.2,26.1,281.7,26.1L281.7,26.1z"/>
	</g>
</g>
<g>
	<g>
		<linearGradient id="SVGID_25_" gradientUnits="userSpaceOnUse" x1="49.2722" y1="191.4006" x2="49.9967" y2="191.4006">
			<stop  offset="0" style="stop-color:#B9539F"/>
			<stop  offset="1" style="stop-color:#70CDDD"/>
		</linearGradient>
		<path class="st24" d="M49.6,191.8c0.5,0,0.5-0.8,0-0.8C49.2,191,49.2,191.8,49.6,191.8L49.6,191.8z"/>
	</g>
</g>
<g>
	<g>
		<linearGradient id="SVGID_26_" gradientUnits="userSpaceOnUse" x1="79.4913" y1="123.9472" x2="80.2158" y2="123.9472">
			<stop  offset="0" style="stop-color:#B9539F"/>
			<stop  offset="1" style="stop-color:#70CDDD"/>
		</linearGradient>
		<path class="st25" d="M79.9,124.3c0.5,0,0.5-0.8,0-0.8C79.4,123.6,79.4,124.3,79.9,124.3L79.9,124.3z"/>
	</g>
</g>
<g>
	<g>
		<linearGradient id="SVGID_27_" gradientUnits="userSpaceOnUse" x1="278.6137" y1="118.0113" x2="279.3382" y2="118.0113">
			<stop  offset="0" style="stop-color:#B9539F"/>
			<stop  offset="1" style="stop-color:#70CDDD"/>
		</linearGradient>
		<path class="st26" d="M279,118.4c0.5,0,0.5-0.8,0-0.8C278.5,117.6,278.5,118.4,279,118.4L279,118.4z"/>
	</g>
</g>
</svg>
