<?xml version="1.0" encoding="utf-8"?>
<!-- Generator: Adobe Illustrator 21.1.0, SVG Export Plug-In . SVG Version: 6.00 Build 0)  -->
<svg version="1.1" id="Layer_4" xmlns="http://www.w3.org/2000/svg" xmlns:xlink="http://www.w3.org/1999/xlink" x="0px" y="0px"
	 viewBox="0 0 123 487.7" style="enable-background:new 0 0 123 487.7;" xml:space="preserve">
<style type="text/css">
	.st0{fill:#FFFFFF;}
</style>
<g>
	<path class="st0" d="M78.4,44.5c-0.7,9.1-2.9,15.8-6.8,20.2c-3.9,4.4-8.7,6.6-14.4,6.6c-5,0-9.4-1.5-13-4.5c-3.6-3-6-6.8-7.1-11.5
		c-1.1-4.7-1.7-10.9-1.7-18.7l0-31.4h2.7v3.1c0,3.4,0.4,5.8,1.3,7.1c0.9,1.3,2.2,2.2,4,2.5c1.8,0.4,6.1,0.5,12.8,0.5l38.9,0
		c6.5,0,10.7-0.2,12.6-0.6c1.9-0.4,3.2-1.2,3.9-2.4c0.7-1.2,1.1-3.8,1.1-7.9V6.2h2.7l0.4,13.1l0.5,15c0,21.9-6.3,32.8-18.9,32.8
		c-5.2,0-9.4-1.9-12.5-5.6C81.6,57.7,79.5,52.1,78.4,44.5z M76.6,30.1H58.8c-7.6,0-12.4,0.1-14.4,0.4c-2,0.3-3.6,1-4.7,2.2
		c-1.1,1.2-1.6,3.6-1.6,7.1c0,6.3,1.6,11,4.8,14.1c3.2,3.1,8.1,4.7,14.5,4.7c6.6,0,11.5-1.8,14.6-5.3c3.1-3.6,4.7-9.8,4.7-18.8
		C76.7,33.1,76.7,31.6,76.6,30.1z M79.5,30.1c0,1-0.1,1.8-0.1,2.5c0,8.5,1.3,14.3,4,17.4c2.7,3.1,7,4.7,13,4.7
		c4.2,0,7.4-0.6,9.7-1.8c2.3-1.2,4-3,5.3-5.5c1.2-2.4,1.9-6.6,1.9-12.5c0-1.5-0.1-3.1-0.2-4.7L79.5,30.1z"/>
	<path class="st0" d="M73.3,96.8c3.5,1.3,6.4,3.5,8.8,6.5s3.5,5.9,3.5,8.8c0,2.6-0.8,4.6-2.4,6.1c-1.6,1.5-3.3,2.2-5,2.2
		c-1.1,0-2.1-0.4-2.9-1.1c-0.8-0.8-1.2-1.7-1.2-2.8c0-2,1.5-3.5,4.4-4.5c2-0.7,2.9-1.8,2.9-3.2c0-1.7-1.1-3.7-3.4-6.1
		c-2.3-2.4-4.7-3.9-7.2-4.5c-2.5-0.7-5.9-1-10.2-1l-8.6,0c-5.1,0-8.4,0.1-9.7,0.2c-1.3,0.1-2.4,0.7-3.1,1.7c-0.7,1-1.1,2.7-1.1,5.2
		v1.7h-2.7V80.4h2.7v1.2c0,2.4,0.3,4,1,5c0.6,1,1.6,1.6,2.7,1.8c1.2,0.2,4.6,0.3,10.1,0.3l13.6,0c5.2,0,8.4-0.1,9.8-0.2
		c1.3-0.1,2.3-0.7,3.1-1.7c0.7-1,1.1-2.7,1.1-5.2v-1.2h2.7c0.4,3.7,1.6,8.5,3.5,14.5C82.5,96,78.4,96.7,73.3,96.8z"/>
	<path class="st0" d="M44.2,173.9v2.2c-6.7-0.4-10.1-3.7-10.1-9.9c0-2.7,0.7-4.8,2.1-6.3c1.4-1.6,3.5-2.6,6.3-3
		c-2.8-3.9-4.9-7.5-6.3-10.8c-1.4-3.2-2.1-6.1-2.1-8.7c0-3.3,0.9-6.1,2.8-8.4c1.9-2.4,4.4-3.5,7.5-3.5c4,0,7.6,2,10.6,5.9
		c3,3.9,6,9.4,8.8,16.4l3.7,9.1H70c3.3,0,5.8-0.2,7.3-0.6c1.5-0.4,2.8-1.6,4-3.4c1.2-1.8,1.8-4.2,1.8-7.1c0-5.9-2-9.2-5.9-9.8
		c-4-0.6-6-2.3-6-5c0-2.4,1.1-3.6,3.4-3.6c2.2,0,4.6,1.6,7.2,4.8c2.6,3.2,3.9,8.1,3.9,14.9c0,5-0.8,8.9-2.4,11.6
		c-1.6,2.8-3.4,4.6-5.4,5.5c-2,0.9-5.1,1.3-9.2,1.3l-19.5,0c-4.6,0-7.5,0.2-8.8,0.7c-1.3,0.5-1.9,1.5-1.9,3.1
		C38.4,171.7,40.3,173.3,44.2,173.9z M64.8,156.8l-2.6-6.4c-4.1-10.1-9.3-15.2-15.6-15.2c-2.5,0-4.5,0.6-6,1.9
		c-1.5,1.3-2.3,3-2.3,5.1c0,1.8,0.6,4,1.8,6.4c1.2,2.4,3,5.2,5.5,8.2L64.8,156.8z"/>
	<path class="st0" d="M85.6,193.9v1.6c-2.4,0.9-5.8,1.4-10,1.5c3.3,2.8,5.8,5.8,7.5,8.9c1.7,3.1,2.5,6.3,2.5,9.7
		c0,3.9-0.8,7-2.4,9.5c-1.6,2.5-3.6,4-5.9,4.7c-2.3,0.7-5.7,1.1-10.2,1.1l-15.1,0c-5.6,0-9,0.1-10.2,0.3c-1.2,0.2-2.1,0.8-2.7,1.9
		c-0.6,1-0.9,3-0.9,5.7h-2.7v-24.7h2.7v1.1c0,2.8,0.4,4.7,1.2,5.5c0.8,0.9,1.8,1.4,2.9,1.5c1.1,0.1,4.3,0.2,9.7,0.2l15.6,0
		c3.8,0,6.5-0.2,8.2-0.6c1.6-0.4,3.1-1.4,4.3-3c1.3-1.6,1.9-3.7,1.9-6.2c0-2.9-0.9-5.6-2.6-8.2c-1.7-2.6-4.3-5.1-7.7-7.4l-19.7,0
		c-5.6,0-9,0.1-10.2,0.3c-1.2,0.2-2.1,0.8-2.7,1.9c-0.6,1-0.9,3-0.9,5.8h-2.7l0-24.4h2.7c0,2.7,0.3,4.6,0.8,5.7
		c0.5,1.1,1.4,1.7,2.5,2c1.1,0.3,4.6,0.4,10.5,0.4l14.4,0c5.6,0,9-0.1,10.2-0.3c1.2-0.2,2.1-0.8,2.7-1.9c0.6-1,0.9-3,0.9-5.8h2.7
		C83.3,185,84.2,189.4,85.6,193.9z"/>
	<path class="st0" d="M78.5,286.8l18.9,0c5.1,0,8.4-0.1,9.7-0.2c1.3-0.1,2.4-0.7,3.1-1.7c0.7-1,1.1-2.7,1.1-5.2v-1.2h2.7
		c0.1,4.8,0.9,10,2.5,15.6v1.2l-64.9,0c-5.6,0-9,0.1-10.3,0.3c-1.2,0.2-2.1,0.8-2.7,1.9c-0.6,1-0.9,3-0.9,5.8h-2.7
		c-0.1-5.7-0.6-10.8-1.5-15.2c1.8-0.5,4.8-0.7,8.7-0.7c-2.9-2.9-5.1-5.9-6.5-9c-1.5-3.1-2.2-6.3-2.2-9.6c0-6.2,2.5-11.6,7.5-16.2
		s11.1-6.8,18.3-6.8c7.9,0,14.2,2.3,19.1,7c4.9,4.6,7.3,10.2,7.3,16.6c0,3.3-0.6,6.3-1.8,9.3C82.6,281.4,80.9,284.2,78.5,286.8z
		 M75.1,286.8c2.2-2.6,3.9-5.2,5-7.8c1.1-2.6,1.7-5.2,1.7-7.9c0-4.4-1.7-8.1-5.1-11.1c-3.4-3-9-4.5-16.7-4.5
		c-7.9,0-13.7,1.5-17.4,4.6c-3.7,3-5.6,6.8-5.6,11.3c0,3,0.7,5.8,2.1,8.3c1.4,2.6,3.5,4.9,6.4,7.1L75.1,286.8z"/>
	<path class="st0" d="M85.6,323.8l-33.7,0c-5.1,0-8.4,0.1-9.7,0.2c-1.3,0.2-2.4,0.7-3.1,1.7c-0.7,1-1.1,2.7-1.1,5.2v1.2h-2.7v-26
		h2.7v2c0,2.8,0.4,4.6,1.2,5.5c0.8,0.8,1.8,1.3,2.9,1.5c1.1,0.1,4.4,0.2,9.8,0.2l14.6,0c5.7,0,9.1-0.3,10.4-0.8
		c1.3-0.5,2-1.2,2.4-2.1c0.3-0.9,0.5-2.4,0.5-4.6v-1.6h2.7c0.7,7,1.7,12.4,3.1,16.3V323.8z M110.2,312.4c1.7,0,3.1,0.6,4.4,1.8
		c1.2,1.2,1.8,2.6,1.8,4.3c0,1.7-0.6,3.1-1.8,4.3c-1.2,1.2-2.7,1.8-4.4,1.8c-1.7,0-3.2-0.6-4.4-1.8c-1.2-1.2-1.8-2.6-1.8-4.3
		c0-1.7,0.6-3.1,1.8-4.3C107,313,108.5,312.4,110.2,312.4z"/>
	<path class="st0" d="M85.6,351.2l0,1.6c-2.4,0.9-5.8,1.4-10,1.5c3.3,2.8,5.8,5.8,7.5,8.9s2.5,6.3,2.5,9.7c0,3.9-0.8,7-2.4,9.5
		c-1.6,2.5-3.6,4-5.9,4.7c-2.3,0.7-5.7,1.1-10.2,1.1H51.9c-5.6,0-9,0.1-10.2,0.3c-1.2,0.2-2.1,0.8-2.7,1.9c-0.6,1-0.9,3-0.9,5.7
		h-2.7v-24.7h2.7v1.1c0,2.8,0.4,4.7,1.2,5.5c0.8,0.9,1.8,1.4,2.9,1.5c1.1,0.1,4.3,0.2,9.7,0.2h15.6c3.8,0,6.5-0.2,8.2-0.6
		c1.6-0.4,3.1-1.4,4.3-3c1.3-1.6,1.9-3.7,1.9-6.2c0-2.9-0.9-5.6-2.6-8.2c-1.7-2.6-4.3-5.1-7.7-7.4l-19.7,0c-5.6,0-9,0.1-10.2,0.3
		c-1.2,0.2-2.1,0.8-2.7,1.9c-0.6,1-0.9,3-0.9,5.8h-2.7l0-24.4h2.7c0,2.7,0.3,4.6,0.8,5.7c0.5,1.1,1.4,1.7,2.5,2
		c1.1,0.3,4.6,0.4,10.5,0.4l14.4,0c5.6,0,9-0.1,10.2-0.3c1.2-0.2,2.1-0.8,2.7-1.9c0.6-1,0.9-3,0.9-5.8h2.7
		C83.3,342.2,84.2,346.6,85.6,351.2z"/>
	<path class="st0" d="M79.4,440.1c3.8,3.3,5.7,6.7,5.7,10.1c0,1.9-0.5,3.4-1.5,4.4c-1,1-2.1,1.6-3.4,1.6c-2.6,0-3.9-1.2-3.9-3.5
		c0-1.3,0.8-2.4,2.4-3.4c1.5-0.9,2.2-1.8,2.2-2.7c0-1.5-1-3.1-3.1-5c-3.2,2-6.6,3.1-10.3,3.1c-4.7,0-8.9-1.7-12.5-5.1
		c-3.7-3.4-5.6-9.1-5.9-17.1c-0.3-8.3-2-12.5-5.1-12.5c-1.5,0-2.5,0.9-3.1,2.8c-0.6,1.8-1.1,5.7-1.4,11.7c-0.3,6.5-0.9,11.5-1.8,15
		c-0.9,3.5-2.7,6.3-5.3,8.4c-2.7,2.1-5.9,3.1-9.5,3.1c-5.2,0-9.4-2.1-12.6-6.4c-3.2-4.2-4.8-10.4-4.8-18.3c0-7.3,1.4-13.2,4.2-17.6
		c2.8-4.4,6.4-6.6,10.7-6.6c2.4,0,4.4,0.6,5.9,1.9c1.5,1.3,2.3,3,2.3,5.4c0,0.6-0.1,1.2-0.3,1.7c-2.7-2.4-5.5-3.7-8.5-3.7
		c-3.5,0-6.3,1.6-8.6,4.9c-2.3,3.2-3.4,8.1-3.4,14.5c0,5.7,1.1,10.2,3.4,13.4c2.3,3.2,5.2,4.8,8.8,4.8c3.9,0,6.7-1.4,8.3-4.3
		c1.6-2.9,2.5-8,2.8-15.3c0.4-8.5,1.4-13.9,3.1-16.4c1.7-2.5,3.9-3.8,6.5-3.8c5.1,0,8.4,3.6,9.7,10.8c2.2-3.7,4.7-6.5,7.5-8.4
		c2.8-1.9,6-2.8,9.5-2.8c4.9,0,9.1,1.9,12.5,5.8c3.4,3.9,5.2,8.5,5.2,13.8C85.6,430.8,83.5,436.1,79.4,440.1z M66.5,413.5
		c-5.1,0-8.8,1-11.1,3.1s-3.5,4.7-3.5,8c0,3,1.2,5.6,3.5,7.7c2.3,2.1,6.4,3.2,12.2,3.2c5.8,0,9.8-1.1,12-3.4
		c2.2-2.3,3.3-4.9,3.3-7.7c0-3.6-1.4-6.3-4.1-8.1C76.1,414.4,72,413.5,66.5,413.5z"/>
</g>
</svg>
