<?xml version="1.0" encoding="utf-8"?>
<!-- Generator: Adobe Illustrator 22.0.1, SVG Export Plug-In . SVG Version: 6.00 Build 0)  -->
<svg version="1.1" id="Layer_1" xmlns="http://www.w3.org/2000/svg" xmlns:xlink="http://www.w3.org/1999/xlink" x="0px" y="0px"
	 viewBox="0 0 86 571" style="enable-background:new 0 0 86 571;" xml:space="preserve">
<style type="text/css">
	.st0{opacity:0.4;}
	.st1{fill:#FFFFFF;}
</style>
<g id="Layer_2_1_">
</g>
<g id="Layer_3">
</g>
<g id="Layer_6">
</g>
<g id="Layer_5">
</g>
<g id="points">
</g>
<g id="Layer_1_1_" class="st0">
	<g>
		<path class="st1" d="M51.8,504.3v-1.9h21v1.9c-2.4,0.5-4.5,1.5-6.3,2.9c6,5.3,8.9,12,8.9,20.2c0,8.7-2.7,15.8-8.2,21.3
			s-12.7,8.2-21.8,8.2c-5.9,0-11.5-1.3-16.7-3.8S19.6,547,17,542.5c-2.5-4.5-3.8-9.5-3.8-15c0-4.5,0.9-8.5,2.8-12.2
			c1.8-3.6,3.9-6.4,6.1-8.2c-2.5-1.3-5.1-2-7.8-2.3V503l22.7-0.5v1.9c-8.1,1.3-13.7,4-16.9,8.1c-3.2,4.1-4.7,8.7-4.7,13.8
			c0,6.3,2.6,11.3,7.7,15s12.4,5.6,21.9,5.6c9,0,15.9-2,20.7-6.1c4.8-4,7.2-9.1,7.2-15.1c0-3.2-0.8-6.5-2.3-9.9
			c-1.6-3.4-4.2-6-7.9-8C58.9,505.8,55.3,504.7,51.8,504.3z"/>
		<path class="st1" d="M56.1,491.8c-5.5,0-10.2-1.9-13.9-5.6s-5.6-8.3-5.6-13.7c0-5.5,1.9-10,5.6-13.8c3.7-3.7,8.4-5.6,13.9-5.6
			c6.1,0,10.9,1.9,14.4,5.7c3.5,3.8,5.2,8.3,5.2,13.7s-1.8,9.9-5.3,13.6C66.9,490,62.1,491.8,56.1,491.8z M56.4,484.5
			c6.4,0,10.9-1,13.5-3.1s3.9-5,3.9-8.8c0-3.9-1.3-6.8-3.9-8.9c-2.6-2-7.1-3.1-13.5-3.1s-10.9,1-13.6,3.1c-2.7,2-4.1,5-4.1,8.9
			s1.3,6.8,4,8.9C45.4,483.5,50,484.5,56.4,484.5z"/>
		<path class="st1" d="M13.5,434.7h48.4c3.9,0,6.3-0.1,7.3-0.2s1.8-0.5,2.3-1.3c0.5-0.7,0.8-2,0.8-3.9v-1.1h2v19.4h-2v-1.2
			c0-1.8-0.2-3-0.7-3.8s-1.2-1.2-2.1-1.3s-3.4-0.2-7.6-0.2H26.1c-3.8,0-6.2,0.3-7.2,1s-1.5,2.3-1.5,5h-2c0-1.8-0.2-3.9-0.6-6.3
			c-0.4-2.4-0.8-4.1-1.2-5v-1.1H13.5z"/>
		<path class="st1" d="M67.7,385.7v-1.6c5,0.3,7.6,2.7,7.6,7.4c0,2-0.5,3.6-1.6,4.8s-2.6,1.9-4.7,2.3c2.1,2.9,3.7,5.6,4.7,8.1
			c1.1,2.4,1.6,4.6,1.6,6.5c0,2.4-0.7,4.6-2.1,6.3c-1.4,1.8-3.3,2.7-5.6,2.7c-3,0-5.7-1.5-8-4.4c-2.3-3-4.5-7.1-6.6-12.3l-2.8-6.9
			h-1.8c-2.5,0-4.3,0.2-5.4,0.5c-1.1,0.3-2.1,1.2-3,2.5s-1.3,3.1-1.3,5.4c0,4.4,1.5,6.9,4.4,7.4c3,0.5,4.5,1.7,4.5,3.7
			c0,1.8-0.9,2.7-2.6,2.7c-1.7,0-3.5-1.2-5.4-3.6s-2.9-6.1-2.9-11.1c0-3.7,0.6-6.7,1.8-8.7c1.2-2.1,2.5-3.4,4-4.1s3.8-1,6.9-1H64
			c3.4,0,5.6-0.2,6.6-0.5c1-0.4,1.5-1.1,1.5-2.3C72,387.4,70.6,386.2,67.7,385.7z M52.2,398.6l1.9,4.8c3.1,7.6,7,11.4,11.7,11.4
			c1.9,0,3.4-0.5,4.5-1.5s1.7-2.2,1.7-3.8c0-1.4-0.5-3-1.4-4.8s-2.3-3.9-4.1-6.1H52.2z"/>
		<path class="st1" d="M75.8,373.2v1.7H27.3c-3.5,0-5.8,0.1-6.9,0.3c-1,0.2-1.8,0.7-2.3,1.5s-0.8,2.1-0.8,4.1h-2
			c0-1.7-0.2-3.8-0.6-6.3c-0.4-2.4-0.8-4.1-1.2-5v-0.9h28.7c-1.9-2.1-3.2-4.2-4.2-6.3c-0.9-2.1-1.4-4.3-1.4-6.5
			c0-5.2,1.8-9.5,5.4-12.8c3.6-3.3,8.3-5,13.9-5c5.7,0,10.4,1.7,14.2,5.1c3.8,3.4,5.7,7.9,5.7,13.3c0,2.7-0.6,5-1.7,7.1
			c-1.1,2-2.8,3.7-5,5.1C71,370.5,73.2,372,75.8,373.2z M44.8,368.5H59c3.7,0,6.3-0.2,7.9-0.7s3.1-1.7,4.6-3.5
			c1.5-1.9,2.2-4,2.2-6.5c0-3.8-1.6-6.8-4.7-9.1c-3.1-2.3-7.6-3.4-13.5-3.4c-5.4,0-9.5,1.1-12.3,3.2s-4.2,4.9-4.2,8.4
			c0,2,0.5,4,1.4,5.9C41.4,364.7,42.8,366.7,44.8,368.5z"/>
		<path class="st1" d="M56.1,330.1c-5.5,0-10.2-1.9-13.9-5.6s-5.6-8.3-5.6-13.7c0-5.5,1.9-10,5.6-13.8c3.7-3.7,8.4-5.6,13.9-5.6
			c6.1,0,10.9,1.9,14.4,5.7c3.5,3.8,5.2,8.3,5.2,13.7s-1.8,9.9-5.3,13.6C66.9,328.2,62.1,330.1,56.1,330.1z M56.4,322.7
			c6.4,0,10.9-1,13.5-3.1s3.9-5,3.9-8.8c0-3.9-1.3-6.8-3.9-8.9c-2.6-2-7.1-3.1-13.5-3.1s-10.9,1-13.6,3.1c-2.7,2-4.1,5-4.1,8.9
			s1.3,6.8,4,8.9C45.4,321.7,50,322.7,56.4,322.7z"/>
		<path class="st1" d="M45.9,271.8c-2.6-1-4.8-2.6-6.6-4.9s-2.7-4.5-2.7-6.6c0-1.9,0.6-3.5,1.8-4.6s2.4-1.7,3.7-1.7
			c0.9,0,1.6,0.3,2.2,0.9c0.6,0.6,0.9,1.3,0.9,2.1c0,1.5-1.1,2.6-3.3,3.4c-1.5,0.5-2.2,1.3-2.2,2.4c0,1.3,0.9,2.8,2.6,4.6
			s3.5,2.9,5.4,3.4s4.4,0.8,7.7,0.8h6.5c3.9,0,6.3-0.1,7.3-0.2s1.8-0.5,2.3-1.3c0.5-0.7,0.8-2,0.8-3.9V265h2v19.2h-2v-0.9
			c0-1.8-0.2-3-0.7-3.8s-1.2-1.2-2.1-1.3c-0.9-0.1-3.4-0.2-7.6-0.2H51.7c-3.9,0-6.3,0.1-7.3,0.2s-1.8,0.5-2.3,1.3
			c-0.5,0.7-0.8,2-0.8,3.9v0.9h-2c-0.3-2.8-1.2-6.4-2.6-10.9C39,272.3,42,271.9,45.9,271.8z"/>
		<path class="st1" d="M67.7,212.7V211c5,0.3,7.6,2.7,7.6,7.4c0,2-0.5,3.6-1.6,4.8s-2.6,1.9-4.7,2.3c2.1,2.9,3.7,5.6,4.7,8.1
			c1.1,2.4,1.6,4.6,1.6,6.5c0,2.4-0.7,4.6-2.1,6.3c-1.4,1.8-3.3,2.7-5.6,2.7c-3,0-5.7-1.5-8-4.4c-2.3-3-4.5-7.1-6.6-12.3l-2.8-6.9
			h-1.8c-2.5,0-4.3,0.2-5.4,0.5c-1.1,0.3-2.1,1.2-3,2.5s-1.3,3.1-1.3,5.4c0,4.4,1.5,6.9,4.4,7.4c3,0.5,4.5,1.7,4.5,3.7
			c0,1.8-0.9,2.7-2.6,2.7c-1.7,0-3.5-1.2-5.4-3.6c-1.9-2.4-2.9-6.1-2.9-11.1c0-3.7,0.6-6.7,1.8-8.7c1.2-2.1,2.5-3.4,4-4.1
			c1.5-0.7,3.8-1,6.9-1H64c3.4,0,5.6-0.2,6.6-0.5c1-0.4,1.5-1.1,1.5-2.3C72,214.3,70.6,213.1,67.7,212.7z M52.2,225.5l1.9,4.8
			c3.1,7.6,7,11.4,11.7,11.4c1.9,0,3.4-0.5,4.5-1.5s1.7-2.2,1.7-3.8c0-1.4-0.5-3-1.4-4.8s-2.3-3.9-4.1-6.1L52.2,225.5L52.2,225.5z"
			/>
		<path class="st1" d="M41.9,174.8H27.8c-3.9,0-6.3,0.1-7.3,0.2c-1,0.1-1.8,0.5-2.3,1.3c-0.5,0.7-0.8,2-0.8,3.9v0.9h-2
			c-0.1-3.6-0.7-7.5-1.9-11.7v-0.9h48.7c4.2,0,6.8-0.1,7.7-0.2c0.9-0.1,1.6-0.6,2-1.4s0.7-2.2,0.7-4.4h2c0.1,4.3,0.5,8.1,1.2,11.4
			c-1.4,0.4-3.6,0.5-6.5,0.5c2.2,2.2,3.8,4.4,4.9,6.7s1.6,4.7,1.6,7.2c0,4.7-1.9,8.7-5.7,12.1c-3.8,3.4-8.3,5.1-13.7,5.1
			c-5.9,0-10.7-1.7-14.3-5.2s-5.5-7.6-5.5-12.4c0-2.4,0.4-4.8,1.3-6.9S40.2,176.8,41.9,174.8z M44.5,174.8c-1.7,1.9-2.9,3.9-3.8,5.9
			c-0.8,2-1.3,3.9-1.3,5.9c0,3.3,1.3,6.1,3.8,8.3c2.6,2.2,6.8,3.3,12.6,3.3c5.9,0,10.2-1.1,13-3.4c2.8-2.3,4.2-5.1,4.2-8.5
			c0-2.2-0.5-4.3-1.6-6.2s-2.7-3.7-4.8-5.3H44.5z"/>
		<path class="st1" d="M56.1,157c-5.5,0-10.2-1.9-13.9-5.6c-3.7-3.7-5.6-8.3-5.6-13.7c0-5.5,1.9-10,5.6-13.8
			c3.7-3.7,8.4-5.6,13.9-5.6c6.1,0,10.9,1.9,14.4,5.7c3.5,3.8,5.2,8.3,5.2,13.7s-1.8,9.9-5.3,13.6C66.9,155.1,62.1,157,56.1,157z
			 M56.4,149.7c6.4,0,10.9-1,13.5-3.1s3.9-5,3.9-8.8c0-3.9-1.3-6.8-3.9-8.9c-2.6-2-7.1-3.1-13.5-3.1s-10.9,1-13.6,3.1
			c-2.7,2-4.1,5-4.1,8.9s1.3,6.8,4,8.9C45.4,148.6,50,149.7,56.4,149.7z"/>
		<path class="st1" d="M45.9,98.7c-2.6-1-4.8-2.6-6.6-4.9s-2.7-4.5-2.7-6.6c0-1.9,0.6-3.5,1.8-4.6s2.4-1.7,3.7-1.7
			c0.9,0,1.6,0.3,2.2,0.9c0.6,0.6,0.9,1.3,0.9,2.1c0,1.5-1.1,2.6-3.3,3.4c-1.5,0.5-2.2,1.3-2.2,2.4c0,1.3,0.9,2.8,2.6,4.6
			s3.5,2.9,5.4,3.4s4.4,0.8,7.7,0.8h6.5c3.9,0,6.3-0.1,7.3-0.2s1.8-0.5,2.3-1.3c0.5-0.7,0.8-2,0.8-3.9v-1.2h2V111h-2v-0.9
			c0-1.8-0.2-3-0.7-3.8s-1.2-1.2-2.1-1.3c-0.9-0.1-3.4-0.2-7.6-0.2H51.7c-3.9,0-6.3,0.1-7.3,0.2s-1.8,0.5-2.3,1.3
			c-0.5,0.7-0.8,2-0.8,3.9v0.9h-2c-0.3-2.8-1.2-6.4-2.6-10.9C39,99.3,42,98.8,45.9,98.7z"/>
		<path class="st1" d="M50.3,44.2v25.3c1.7,0.1,3,0.2,3.9,0.2c6.4,0,11.2-1,14.4-3s4.8-5,4.8-8.9c0-5.4-2.4-9.2-7.2-11.4v-2.1
			c3,0.9,5.4,2.8,7.1,5.6s2.5,5.9,2.5,9.2c0,3.1-0.8,6-2.3,8.7c-1.5,2.7-3.7,5-6.6,6.7c-2.8,1.7-6.3,2.6-10.3,2.6
			c-5.7,0-10.5-1.7-14.3-5c-3.8-3.4-5.7-7.6-5.7-12.6c0-4.7,1.4-8.4,4.3-11C43.9,45.7,47,44.3,50.3,44.2z M48.6,51.9
			c-0.7-0.1-1.3-0.1-1.8-0.1c-2.6,0-4.6,0.8-6,2.3s-2.1,3.4-2.1,5.6c0,5.4,3.3,8.6,10,9.6V51.9H48.6z"/>
		<path class="st1" d="M75.5,35.8H63.6v-1.7c6.9-2,10.3-5.6,10.3-10.8c0-2.2-0.7-3.9-2-5c-1.4-1.1-2.8-1.7-4.5-1.7
			c-1.9,0-3.4,0.6-4.6,1.8c-1.2,1.2-2.7,3.6-4.4,7c-1.8,3.7-3.6,6.3-5.3,7.9c-1.7,1.6-3.8,2.4-6.3,2.4c-2.4,0-4.7-0.9-6.8-2.6
			c-2.2-1.7-3.3-4.1-3.3-7.2c0-3.2,1.3-5.8,3.8-7.8c-0.4-0.4-1.5-1-3.2-1.7v-1.6h11.2v1.6c-2.7,0.6-5,1.7-6.9,3.4
			c-1.9,1.7-2.9,3.7-2.9,6c0,1.8,0.5,3.2,1.6,4.3s2.4,1.6,3.8,1.6c1.6,0,3-0.6,4.1-1.8c1.2-1.2,2.5-3.4,4-6.8c2.3-5,4.5-8.1,6.6-9.2
			c2.2-1.1,4.3-1.7,6.3-1.7c3.2,0,5.7,1,7.7,3.1s3,4.7,3,7.9c0,3.3-1.4,6.3-4.1,8.9c0.9,0.8,2.2,1.4,3.8,1.9V35.8z"/>
	</g>
</g>
<g id="Layer_8">
</g>
<g id="Layer_4" class="st0">
</g>
</svg>
