<?xml version="1.0" encoding="utf-8"?>
<!-- Generator: Adobe Illustrator 22.0.1, SVG Export Plug-In . SVG Version: 6.00 Build 0)  -->
<svg version="1.1" id="Layer_1" xmlns="http://www.w3.org/2000/svg" xmlns:xlink="http://www.w3.org/1999/xlink" x="0px" y="0px"
	 viewBox="0 0 543 571" style="enable-background:new 0 0 543 571;" xml:space="preserve">
<style type="text/css">
	.st0{opacity:0.4;}
	.st1{fill:#FFFFFF;}
</style>
<g id="Layer_2_1_">
</g>
<g id="Layer_3">
</g>
<g id="Layer_6">
</g>
<g id="Layer_5">
</g>
<g id="points">
</g>
<g id="Layer_1_1_" class="st0">
	<g>
		<path class="st1" d="M51.8,504.3v-1.9h21v1.9c-2.4,0.5-4.5,1.5-6.3,2.9c6,5.3,8.9,12,8.9,20.2c0,8.7-2.7,15.8-8.2,21.3
			s-12.7,8.2-21.8,8.2c-5.9,0-11.5-1.3-16.7-3.8S19.6,547,17,542.5c-2.5-4.5-3.8-9.5-3.8-15c0-4.5,0.9-8.5,2.8-12.2
			c1.8-3.6,3.9-6.4,6.1-8.2c-2.5-1.3-5.1-2-7.8-2.3V503l22.7-0.5v1.9c-8.1,1.3-13.7,4-16.9,8.1c-3.2,4.1-4.7,8.7-4.7,13.8
			c0,6.3,2.6,11.3,7.7,15s12.4,5.6,21.9,5.6c9,0,15.9-2,20.7-6.1c4.8-4,7.2-9.1,7.2-15.1c0-3.2-0.8-6.5-2.3-9.9
			c-1.6-3.4-4.2-6-7.9-8C58.9,505.8,55.3,504.7,51.8,504.3z"/>
		<path class="st1" d="M56.1,491.8c-5.5,0-10.2-1.9-13.9-5.6s-5.6-8.3-5.6-13.7c0-5.5,1.9-10,5.6-13.8c3.7-3.7,8.4-5.6,13.9-5.6
			c6.1,0,10.9,1.9,14.4,5.7c3.5,3.8,5.2,8.3,5.2,13.7s-1.8,9.9-5.3,13.6C66.9,490,62.1,491.8,56.1,491.8z M56.4,484.5
			c6.4,0,10.9-1,13.5-3.1s3.9-5,3.9-8.8c0-3.9-1.3-6.8-3.9-8.9c-2.6-2-7.1-3.1-13.5-3.1s-10.9,1-13.6,3.1c-2.7,2-4.1,5-4.1,8.9
			s1.3,6.8,4,8.9C45.4,483.5,50,484.5,56.4,484.5z"/>
		<path class="st1" d="M13.5,434.7h48.4c3.9,0,6.3-0.1,7.3-0.2s1.8-0.5,2.3-1.3c0.5-0.7,0.8-2,0.8-3.9v-1.1h2v19.4h-2v-1.2
			c0-1.8-0.2-3-0.7-3.8s-1.2-1.2-2.1-1.3s-3.4-0.2-7.6-0.2H26.1c-3.8,0-6.2,0.3-7.2,1s-1.5,2.3-1.5,5h-2c0-1.8-0.2-3.9-0.6-6.3
			c-0.4-2.4-0.8-4.1-1.2-5v-1.1H13.5z"/>
		<path class="st1" d="M67.7,385.7v-1.6c5,0.3,7.6,2.7,7.6,7.4c0,2-0.5,3.6-1.6,4.8s-2.6,1.9-4.7,2.3c2.1,2.9,3.7,5.6,4.7,8.1
			c1.1,2.4,1.6,4.6,1.6,6.5c0,2.4-0.7,4.6-2.1,6.3c-1.4,1.8-3.3,2.7-5.6,2.7c-3,0-5.7-1.5-8-4.4c-2.3-3-4.5-7.1-6.6-12.3l-2.8-6.9
			h-1.8c-2.5,0-4.3,0.2-5.4,0.5c-1.1,0.3-2.1,1.2-3,2.5s-1.3,3.1-1.3,5.4c0,4.4,1.5,6.9,4.4,7.4c3,0.5,4.5,1.7,4.5,3.7
			c0,1.8-0.9,2.7-2.6,2.7c-1.7,0-3.5-1.2-5.4-3.6s-2.9-6.1-2.9-11.1c0-3.7,0.6-6.7,1.8-8.7c1.2-2.1,2.5-3.4,4-4.1s3.8-1,6.9-1H64
			c3.4,0,5.6-0.2,6.6-0.5c1-0.4,1.5-1.1,1.5-2.3C72,387.4,70.6,386.2,67.7,385.7z M52.2,398.6l1.9,4.8c3.1,7.6,7,11.4,11.7,11.4
			c1.9,0,3.4-0.5,4.5-1.5s1.7-2.2,1.7-3.8c0-1.4-0.5-3-1.4-4.8s-2.3-3.9-4.1-6.1H52.2z"/>
		<path class="st1" d="M75.8,373.2v1.7H27.3c-3.5,0-5.8,0.1-6.9,0.3c-1,0.2-1.8,0.7-2.3,1.5s-0.8,2.1-0.8,4.1h-2
			c0-1.7-0.2-3.8-0.6-6.3c-0.4-2.4-0.8-4.1-1.2-5v-0.9h28.7c-1.9-2.1-3.2-4.2-4.2-6.3c-0.9-2.1-1.4-4.3-1.4-6.5
			c0-5.2,1.8-9.5,5.4-12.8c3.6-3.3,8.3-5,13.9-5c5.7,0,10.4,1.7,14.2,5.1c3.8,3.4,5.7,7.9,5.7,13.3c0,2.7-0.6,5-1.7,7.1
			c-1.1,2-2.8,3.7-5,5.1C71,370.5,73.2,372,75.8,373.2z M44.8,368.5H59c3.7,0,6.3-0.2,7.9-0.7s3.1-1.7,4.6-3.5
			c1.5-1.9,2.2-4,2.2-6.5c0-3.8-1.6-6.8-4.7-9.1c-3.1-2.3-7.6-3.4-13.5-3.4c-5.4,0-9.5,1.1-12.3,3.2s-4.2,4.9-4.2,8.4
			c0,2,0.5,4,1.4,5.9C41.4,364.7,42.8,366.7,44.8,368.5z"/>
		<path class="st1" d="M56.1,330.1c-5.5,0-10.2-1.9-13.9-5.6s-5.6-8.3-5.6-13.7c0-5.5,1.9-10,5.6-13.8c3.7-3.7,8.4-5.6,13.9-5.6
			c6.1,0,10.9,1.9,14.4,5.7c3.5,3.8,5.2,8.3,5.2,13.7s-1.8,9.9-5.3,13.6C66.9,328.2,62.1,330.1,56.1,330.1z M56.4,322.7
			c6.4,0,10.9-1,13.5-3.1s3.9-5,3.9-8.8c0-3.9-1.3-6.8-3.9-8.9c-2.6-2-7.1-3.1-13.5-3.1s-10.9,1-13.6,3.1c-2.7,2-4.1,5-4.1,8.9
			s1.3,6.8,4,8.9C45.4,321.7,50,322.7,56.4,322.7z"/>
		<path class="st1" d="M45.9,271.8c-2.6-1-4.8-2.6-6.6-4.9s-2.7-4.5-2.7-6.6c0-1.9,0.6-3.5,1.8-4.6s2.4-1.7,3.7-1.7
			c0.9,0,1.6,0.3,2.2,0.9c0.6,0.6,0.9,1.3,0.9,2.1c0,1.5-1.1,2.6-3.3,3.4c-1.5,0.5-2.2,1.3-2.2,2.4c0,1.3,0.9,2.8,2.6,4.6
			s3.5,2.9,5.4,3.4s4.4,0.8,7.7,0.8h6.5c3.9,0,6.3-0.1,7.3-0.2s1.8-0.5,2.3-1.3c0.5-0.7,0.8-2,0.8-3.9V265h2v19.2h-2v-0.9
			c0-1.8-0.2-3-0.7-3.8s-1.2-1.2-2.1-1.3c-0.9-0.1-3.4-0.2-7.6-0.2H51.7c-3.9,0-6.3,0.1-7.3,0.2s-1.8,0.5-2.3,1.3
			c-0.5,0.7-0.8,2-0.8,3.9v0.9h-2c-0.3-2.8-1.2-6.4-2.6-10.9C39,272.3,42,271.9,45.9,271.8z"/>
		<path class="st1" d="M67.7,212.7V211c5,0.3,7.6,2.7,7.6,7.4c0,2-0.5,3.6-1.6,4.8s-2.6,1.9-4.7,2.3c2.1,2.9,3.7,5.6,4.7,8.1
			c1.1,2.4,1.6,4.6,1.6,6.5c0,2.4-0.7,4.6-2.1,6.3c-1.4,1.8-3.3,2.7-5.6,2.7c-3,0-5.7-1.5-8-4.4c-2.3-3-4.5-7.1-6.6-12.3l-2.8-6.9
			h-1.8c-2.5,0-4.3,0.2-5.4,0.5c-1.1,0.3-2.1,1.2-3,2.5s-1.3,3.1-1.3,5.4c0,4.4,1.5,6.9,4.4,7.4c3,0.5,4.5,1.7,4.5,3.7
			c0,1.8-0.9,2.7-2.6,2.7c-1.7,0-3.5-1.2-5.4-3.6c-1.9-2.4-2.9-6.1-2.9-11.1c0-3.7,0.6-6.7,1.8-8.7c1.2-2.1,2.5-3.4,4-4.1
			c1.5-0.7,3.8-1,6.9-1H64c3.4,0,5.6-0.2,6.6-0.5c1-0.4,1.5-1.1,1.5-2.3C72,214.3,70.6,213.1,67.7,212.7z M52.2,225.5l1.9,4.8
			c3.1,7.6,7,11.4,11.7,11.4c1.9,0,3.4-0.5,4.5-1.5s1.7-2.2,1.7-3.8c0-1.4-0.5-3-1.4-4.8s-2.3-3.9-4.1-6.1L52.2,225.5L52.2,225.5z"
			/>
		<path class="st1" d="M41.9,174.8H27.8c-3.9,0-6.3,0.1-7.3,0.2c-1,0.1-1.8,0.5-2.3,1.3c-0.5,0.7-0.8,2-0.8,3.9v0.9h-2
			c-0.1-3.6-0.7-7.5-1.9-11.7v-0.9h48.7c4.2,0,6.8-0.1,7.7-0.2c0.9-0.1,1.6-0.6,2-1.4s0.7-2.2,0.7-4.4h2c0.1,4.3,0.5,8.1,1.2,11.4
			c-1.4,0.4-3.6,0.5-6.5,0.5c2.2,2.2,3.8,4.4,4.9,6.7s1.6,4.7,1.6,7.2c0,4.7-1.9,8.7-5.7,12.1c-3.8,3.4-8.3,5.1-13.7,5.1
			c-5.9,0-10.7-1.7-14.3-5.2s-5.5-7.6-5.5-12.4c0-2.4,0.4-4.8,1.3-6.9S40.2,176.8,41.9,174.8z M44.5,174.8c-1.7,1.9-2.9,3.9-3.8,5.9
			c-0.8,2-1.3,3.9-1.3,5.9c0,3.3,1.3,6.1,3.8,8.3c2.6,2.2,6.8,3.3,12.6,3.3c5.9,0,10.2-1.1,13-3.4c2.8-2.3,4.2-5.1,4.2-8.5
			c0-2.2-0.5-4.3-1.6-6.2s-2.7-3.7-4.8-5.3H44.5z"/>
		<path class="st1" d="M56.1,157c-5.5,0-10.2-1.9-13.9-5.6c-3.7-3.7-5.6-8.3-5.6-13.7c0-5.5,1.9-10,5.6-13.8
			c3.7-3.7,8.4-5.6,13.9-5.6c6.1,0,10.9,1.9,14.4,5.7c3.5,3.8,5.2,8.3,5.2,13.7s-1.8,9.9-5.3,13.6C66.9,155.1,62.1,157,56.1,157z
			 M56.4,149.7c6.4,0,10.9-1,13.5-3.1s3.9-5,3.9-8.8c0-3.9-1.3-6.8-3.9-8.9c-2.6-2-7.1-3.1-13.5-3.1s-10.9,1-13.6,3.1
			c-2.7,2-4.1,5-4.1,8.9s1.3,6.8,4,8.9C45.4,148.6,50,149.7,56.4,149.7z"/>
		<path class="st1" d="M45.9,98.7c-2.6-1-4.8-2.6-6.6-4.9s-2.7-4.5-2.7-6.6c0-1.9,0.6-3.5,1.8-4.6s2.4-1.7,3.7-1.7
			c0.9,0,1.6,0.3,2.2,0.9c0.6,0.6,0.9,1.3,0.9,2.1c0,1.5-1.1,2.6-3.3,3.4c-1.5,0.5-2.2,1.3-2.2,2.4c0,1.3,0.9,2.8,2.6,4.6
			s3.5,2.9,5.4,3.4s4.4,0.8,7.7,0.8h6.5c3.9,0,6.3-0.1,7.3-0.2s1.8-0.5,2.3-1.3c0.5-0.7,0.8-2,0.8-3.9v-1.2h2V111h-2v-0.9
			c0-1.8-0.2-3-0.7-3.8s-1.2-1.2-2.1-1.3c-0.9-0.1-3.4-0.2-7.6-0.2H51.7c-3.9,0-6.3,0.1-7.3,0.2s-1.8,0.5-2.3,1.3
			c-0.5,0.7-0.8,2-0.8,3.9v0.9h-2c-0.3-2.8-1.2-6.4-2.6-10.9C39,99.3,42,98.8,45.9,98.7z"/>
		<path class="st1" d="M50.3,44.2v25.3c1.7,0.1,3,0.2,3.9,0.2c6.4,0,11.2-1,14.4-3s4.8-5,4.8-8.9c0-5.4-2.4-9.2-7.2-11.4v-2.1
			c3,0.9,5.4,2.8,7.1,5.6s2.5,5.9,2.5,9.2c0,3.1-0.8,6-2.3,8.7c-1.5,2.7-3.7,5-6.6,6.7c-2.8,1.7-6.3,2.6-10.3,2.6
			c-5.7,0-10.5-1.7-14.3-5c-3.8-3.4-5.7-7.6-5.7-12.6c0-4.7,1.4-8.4,4.3-11C43.9,45.7,47,44.3,50.3,44.2z M48.6,51.9
			c-0.7-0.1-1.3-0.1-1.8-0.1c-2.6,0-4.6,0.8-6,2.3s-2.1,3.4-2.1,5.6c0,5.4,3.3,8.6,10,9.6V51.9H48.6z"/>
		<path class="st1" d="M75.5,35.8H63.6v-1.7c6.9-2,10.3-5.6,10.3-10.8c0-2.2-0.7-3.9-2-5c-1.4-1.1-2.8-1.7-4.5-1.7
			c-1.9,0-3.4,0.6-4.6,1.8c-1.2,1.2-2.7,3.6-4.4,7c-1.8,3.7-3.6,6.3-5.3,7.9c-1.7,1.6-3.8,2.4-6.3,2.4c-2.4,0-4.7-0.9-6.8-2.6
			c-2.2-1.7-3.3-4.1-3.3-7.2c0-3.2,1.3-5.8,3.8-7.8c-0.4-0.4-1.5-1-3.2-1.7v-1.6h11.2v1.6c-2.7,0.6-5,1.7-6.9,3.4
			c-1.9,1.7-2.9,3.7-2.9,6c0,1.8,0.5,3.2,1.6,4.3s2.4,1.6,3.8,1.6c1.6,0,3-0.6,4.1-1.8c1.2-1.2,2.5-3.4,4-6.8c2.3-5,4.5-8.1,6.6-9.2
			c2.2-1.1,4.3-1.7,6.3-1.7c3.2,0,5.7,1,7.7,3.1s3,4.7,3,7.9c0,3.3-1.4,6.3-4.1,8.9c0.9,0.8,2.2,1.4,3.8,1.9V35.8z"/>
	</g>
</g>
<g id="Layer_8">
</g>
<g id="Layer_4" class="st0">
</g>
<g>
	<g>
		<path class="st1" d="M72.3,61.2h10.6v1.1c-1.4,0.1-2.5,0.4-3.2,0.9s-1.1,1.1-1.3,1.8s-0.2,2-0.2,3.9v10.6c0,2.7-0.1,4.7-0.3,6
			s-0.8,2.6-1.8,3.9s-2.4,2.3-4.3,3s-3.9,1.1-6.3,1.1c-2.8,0-5.2-0.5-7.2-1.4s-3.4-2.2-4.2-3.7s-1.3-3.6-1.3-6.1l0-3.3v-9.9
			c0-2.5-0.1-4.2-0.2-4.9s-0.5-1.2-0.9-1.5s-1.5-0.4-3.1-0.4h-0.7v-1.1h14.5v1.1h-0.6c-1.6,0-2.6,0.1-3.1,0.4s-0.8,0.7-1,1.4
			s-0.2,2.4-0.2,5v10c0,3.5,0.2,5.9,0.5,7.4s1.2,2.7,2.7,3.8s3.5,1.6,5.9,1.6c1.9,0,3.7-0.4,5.3-1.1s2.8-1.6,3.5-2.7
			s1.2-2.2,1.4-3.4s0.3-3,0.3-5.4V68.5c0-1.8-0.1-3.1-0.3-3.8s-0.6-1.3-1.3-1.7s-1.7-0.7-3.2-0.8V61.2z"/>
		<path class="st1" d="M90.5,73h0.6c0.4,1,0.6,2.3,0.6,4c1.1-1.3,2.3-2.3,3.5-3s2.5-1,3.9-1c1.5,0,2.8,0.3,3.8,1s1.6,1.4,1.9,2.4
			s0.4,2.3,0.4,4.1v6c0,2.2,0,3.6,0.1,4.1s0.3,0.8,0.7,1.1s1.2,0.4,2.3,0.4v1.1h-9.8v-1.1H99c1.1,0,1.9-0.2,2.2-0.5s0.5-0.7,0.6-1.1
			s0.1-1.7,0.1-3.9v-6.2c0-1.5-0.1-2.6-0.2-3.2s-0.5-1.2-1.2-1.7S99,74.5,98,74.5c-1.1,0-2.2,0.3-3.3,1s-2,1.7-2.9,3.1v7.8
			c0,2.2,0,3.6,0.1,4.1s0.3,0.8,0.8,1.1s1.2,0.4,2.3,0.4v1.1h-9.7v-1.1c1.1,0,1.8-0.1,2.2-0.3s0.7-0.6,0.8-1s0.2-1.8,0.2-4.2v-5.7
			c0-2.2,0-3.6-0.1-4.1s-0.3-0.8-0.8-1.1s-1.2-0.4-2.3-0.4v-1.1C87,73.9,88.7,73.5,90.5,73z"/>
		<path class="st1" d="M117.1,73v13.4c0,2,0,3.3,0.1,3.9s0.3,0.9,0.7,1.2s1.1,0.4,2.1,0.4h0.5v1.1h-10.3v-1.1h0.8
			c1.1,0,1.8-0.2,2.2-0.5s0.5-0.7,0.6-1.1s0.1-1.7,0.1-3.9v-5.8c0-2.2-0.1-3.6-0.3-4.1s-0.5-0.8-0.8-0.9s-1-0.2-1.8-0.2h-0.6v-1.1
			c2.8-0.3,4.9-0.7,6.5-1.2H117.1z M112.6,63.2c0-0.7,0.2-1.2,0.7-1.7s1.1-0.7,1.7-0.7s1.2,0.2,1.7,0.7s0.7,1.1,0.7,1.7
			c0,0.7-0.2,1.3-0.7,1.8s-1,0.7-1.7,0.7s-1.2-0.2-1.7-0.7S112.6,63.9,112.6,63.2z"/>
		<path class="st1" d="M128.1,73h0.2c0.5,1,0.7,2.4,0.7,4c1-1.3,2.2-2.4,3.4-3s2.5-1,3.9-1c1.6,0,2.9,0.4,3.8,1.1s1.7,1.8,2.1,3.2
			c1.2-1.4,2.4-2.5,3.7-3.2s2.5-1.1,3.8-1.1c1.5,0,2.7,0.3,3.8,1s1.7,1.5,1.9,2.3s0.3,2.3,0.3,4.2v5.8c0,2.2,0,3.6,0.1,4.1
			s0.3,0.8,0.8,1.1s1.2,0.4,2.3,0.4v1.1h-9.6v-1.1c1,0,1.7-0.1,2.1-0.3s0.7-0.6,0.8-1s0.1-1.8,0.1-4.1V80c0-1.3-0.1-2.3-0.2-2.9
			s-0.5-1.2-1.2-1.7s-1.4-0.7-2.4-0.7c-1,0-2,0.3-3.1,1s-2.1,1.7-3.1,3.1v7.6c0,2,0,3.3,0.1,3.9s0.3,0.9,0.7,1.2s1.1,0.4,2.1,0.4
			v1.1h-9.3v-1.1c1,0,1.8-0.1,2.2-0.3s0.7-0.6,0.8-1s0.2-1.8,0.2-4.2V81c0-1.7-0.1-2.9-0.2-3.7s-0.5-1.4-1.2-1.9s-1.5-0.8-2.5-0.8
			c-1,0-2,0.3-3,0.9s-2,1.6-3.1,2.8v8c0,2.1,0,3.4,0.1,3.9s0.3,0.9,0.7,1.2s1.1,0.4,2.2,0.4v1.1h-9.4v-1.1c1,0,1.8-0.1,2.2-0.3
			s0.7-0.6,0.8-1s0.1-1.8,0.1-4.1v-5.7c0-2.2,0-3.5-0.1-4s-0.3-0.9-0.7-1.1s-1.2-0.4-2.2-0.4V74C124.8,73.8,126.7,73.5,128.1,73z"/>
		<path class="st1" d="M161.7,83.3c0-2.9,1-5.4,3-7.4s4.4-3,7.3-3c2.9,0,5.3,1,7.3,3s3,4.4,3,7.4c0,3.2-1,5.8-3,7.6
			s-4.4,2.8-7.2,2.8s-5.2-0.9-7.2-2.8S161.7,86.5,161.7,83.3z M165.6,83.4c0,3.4,0.6,5.8,1.7,7.2s2.7,2.1,4.7,2.1
			c2,0,3.6-0.7,4.7-2.1s1.6-3.8,1.6-7.2c0-3.4-0.5-5.8-1.6-7.2s-2.6-2.2-4.7-2.2c-2,0-3.6,0.7-4.7,2.1S165.6,80,165.6,83.4z"/>
		<path class="st1" d="M185.9,93.6v-6.3h0.9c1.1,3.6,3,5.5,5.7,5.5c1.2,0,2.1-0.4,2.7-1.1s0.9-1.5,0.9-2.4c0-1-0.3-1.8-0.9-2.5
			c-0.6-0.6-1.9-1.4-3.7-2.3c-1.9-1-3.3-1.9-4.2-2.8c-0.8-0.9-1.3-2-1.3-3.4c0-1.3,0.5-2.5,1.4-3.6s2.2-1.7,3.8-1.7
			c1.7,0,3.1,0.7,4.1,2c0.2-0.2,0.5-0.8,0.9-1.7h0.9v5.9h-0.9c-0.3-1.4-0.9-2.6-1.8-3.7s-2-1.5-3.2-1.5c-0.9,0-1.7,0.3-2.3,0.9
			s-0.9,1.2-0.9,2c0,0.8,0.3,1.6,1,2.2c0.6,0.6,1.8,1.3,3.6,2.1c2.7,1.2,4.3,2.4,4.9,3.5c0.6,1.2,0.9,2.3,0.9,3.3
			c0,1.7-0.6,3-1.7,4.1s-2.5,1.6-4.2,1.6c-1.8,0-3.3-0.7-4.7-2.2c-0.4,0.5-0.8,1.1-1,2H185.9z"/>
		<path class="st1" d="M223.6,73.8v1.1h-4v11.5c0,2,0,3.3,0.1,3.9s0.3,0.9,0.7,1.2s1.1,0.4,2.1,0.4h1v1.1h-10.4v-1.1
			c1.1,0,1.8-0.1,2.2-0.3s0.7-0.6,0.8-1s0.2-1.8,0.2-4.2V74.8h-3.6v-1.1h3.6V72c0-1.9,0.1-3.4,0.2-4.5s0.6-2.2,1.3-3.3
			s1.6-2,2.7-2.6s2.4-0.9,3.9-0.9c1.8,0,3.3,0.4,4.4,1.1s1.7,1.5,1.7,2.3c0,0.5-0.2,0.8-0.5,1.1s-0.7,0.4-1.1,0.4
			c-0.8,0-1.6-0.6-2.3-1.9c-0.8-1.4-1.8-2.1-3-2.1c-1,0-1.8,0.4-2.6,1.1s-1.2,1.6-1.3,2.7s-0.2,3.3-0.2,6.8v1.5H223.6z"/>
		<path class="st1" d="M245.8,73.8v12.6c0,2.1,0,3.4,0.1,3.9s0.3,0.9,0.7,1.2s1.1,0.4,2.1,0.4v1.1c-2.4,0-4.1,0.3-5.2,0.8h-0.3
			c-0.5-0.9-0.8-2.3-0.8-4.5c-1,1.5-2,2.6-3.3,3.4s-2.6,1.1-4.1,1.1c-1.3,0-2.4-0.3-3.4-0.9s-1.7-1.3-2-2.1s-0.6-2.1-0.6-3.8v-6.5
			c0-2.2,0-3.6-0.1-4.1s-0.3-0.9-0.7-1.1s-1.2-0.4-2.3-0.4v-1.1h6.5v13.3c0,1.3,0.1,2.3,0.2,2.9s0.6,1.1,1.2,1.6s1.4,0.7,2.2,0.7
			c1.2,0,2.4-0.4,3.4-1.2s1.8-1.6,2.2-2.5s0.6-2.1,0.6-3.8v-4.3c0-2.1,0-3.4-0.1-3.8s-0.2-0.8-0.6-1.2s-1.1-0.5-2.2-0.5h-0.5v-1.1
			H245.8z"/>
		<path class="st1" d="M269.1,80.2h-13.4c-0.1,0.9-0.1,1.6-0.1,2.1c0,3.4,0.5,5.9,1.6,7.6s2.6,2.5,4.7,2.5c2.8,0,4.9-1.3,6-3.8h1.1
			c-0.5,1.6-1.5,2.8-3,3.7s-3.1,1.3-4.9,1.3c-1.6,0-3.2-0.4-4.6-1.2s-2.6-2-3.6-3.5s-1.4-3.3-1.4-5.5c0-3,0.9-5.6,2.7-7.6s4-3,6.7-3
			c2.5,0,4.5,0.8,5.8,2.3S269,78.5,269.1,80.2z M265,79.3c0-0.4,0.1-0.7,0.1-1c0-1.4-0.4-2.4-1.2-3.2s-1.8-1.1-3-1.1
			c-2.8,0-4.5,1.8-5.1,5.3H265z"/>
		<path class="st1" d="M278.9,77.9c0.5-1.4,1.4-2.6,2.6-3.5s2.4-1.4,3.5-1.4c1,0,1.8,0.3,2.4,1s0.9,1.3,0.9,2c0,0.5-0.2,0.8-0.5,1.2
			s-0.7,0.5-1.1,0.5c-0.8,0-1.4-0.6-1.8-1.7c-0.3-0.8-0.7-1.2-1.3-1.2c-0.7,0-1.5,0.5-2.4,1.4s-1.5,1.9-1.8,2.8s-0.4,2.3-0.4,4.1
			v3.4c0,2,0,3.3,0.1,3.9s0.3,0.9,0.7,1.2s1.1,0.4,2.1,0.4h0.7v1.1h-10.2v-1.1h0.5c0.9,0,1.6-0.1,2-0.4s0.6-0.6,0.7-1.1
			s0.1-1.8,0.1-4v-5.4c0-2.1,0-3.4-0.1-3.9s-0.3-0.9-0.7-1.2s-1.1-0.4-2.1-0.4h-0.5v-1.1c1.5-0.2,3.4-0.6,5.8-1.4
			C278.6,74.2,278.9,75.8,278.9,77.9z"/>
		<path class="st1" d="M289.7,92.9v-0.7l12.7-17.4h-7c-0.9,0-1.5,0.1-1.8,0.2s-0.7,0.5-1.1,1.1s-0.9,1.6-1.3,2.9h-0.9l0.3-5.3h16.1
			v0.8L294,91.9h5.2c1.7,0,2.8-0.1,3.4-0.3s1.1-0.7,1.7-1.4s1.1-1.9,1.7-3.4h0.9l-0.6,6.1H289.7z"/>
		<path class="st1" d="M330.1,89.4h0.9c-0.1,2.7-1.5,4-3.9,4c-1.1,0-1.9-0.3-2.5-0.8s-1-1.4-1.2-2.5c-1.6,1.1-3,1.9-4.3,2.5
			s-2.4,0.8-3.5,0.8c-1.3,0-2.4-0.4-3.4-1.1s-1.4-1.7-1.4-3c0-1.6,0.8-3,2.4-4.2s3.7-2.4,6.5-3.5l3.6-1.5v-0.9
			c0-1.3-0.1-2.3-0.3-2.9s-0.6-1.1-1.3-1.6S320,74,318.9,74c-2.3,0-3.6,0.8-3.9,2.3c-0.2,1.6-0.9,2.4-2,2.4c-1,0-1.4-0.5-1.4-1.4
			c0-0.9,0.6-1.8,1.9-2.9s3.2-1.5,5.9-1.5c2,0,3.5,0.3,4.6,0.9s1.8,1.3,2.2,2.1s0.5,2,0.5,3.7v7.8c0,1.8,0.1,3,0.3,3.5
			s0.6,0.8,1.2,0.8C329.2,91.7,329.8,91,330.1,89.4z M323.3,81.2l-2.6,1c-4,1.6-6,3.7-6,6.2c0,1,0.3,1.8,0.8,2.4s1.2,0.9,2,0.9
			c0.7,0,1.6-0.2,2.6-0.7s2.1-1.2,3.3-2.2V81.2z"/>
		<path class="st1" d="M333.4,93.6v-6.3h0.9c1.1,3.6,3,5.5,5.7,5.5c1.2,0,2.1-0.4,2.7-1.1s0.9-1.5,0.9-2.4c0-1-0.3-1.8-0.9-2.5
			c-0.6-0.6-1.9-1.4-3.7-2.3c-1.9-1-3.3-1.9-4.2-2.8c-0.8-0.9-1.3-2-1.3-3.4c0-1.3,0.5-2.5,1.4-3.6s2.2-1.7,3.8-1.7
			c1.7,0,3.1,0.7,4.1,2c0.2-0.2,0.5-0.8,0.9-1.7h0.9v5.9h-0.9c-0.3-1.4-0.9-2.6-1.8-3.7s-2-1.5-3.2-1.5c-0.9,0-1.7,0.3-2.3,0.9
			s-0.9,1.2-0.9,2c0,0.8,0.3,1.6,1,2.2c0.6,0.6,1.8,1.3,3.6,2.1c2.7,1.2,4.3,2.4,4.9,3.5c0.6,1.2,0.9,2.3,0.9,3.3
			c0,1.7-0.6,3-1.7,4.1s-2.5,1.6-4.2,1.6c-1.8,0-3.3-0.7-4.7-2.2c-0.4,0.5-0.8,1.1-1,2H333.4z"/>
		<path class="st1" d="M377.8,88.3h1c-1.1,3.6-3.7,5.5-8,5.5c-2.7,0-5-0.9-6.9-2.8s-2.8-4.3-2.8-7.4c0-3.1,1-5.7,3-7.6
			s4.4-2.9,7.1-2.9c1.7,0,3.2,0.4,4.6,1.1s2.1,1.6,2.1,2.7c0,0.4-0.1,0.8-0.4,1.1s-0.6,0.5-1.1,0.5c-1,0-1.7-0.6-1.9-1.8
			c-0.2-0.9-0.5-1.5-0.9-1.9c-0.4-0.4-1.2-0.5-2.4-0.5c-2.1,0-3.7,0.7-4.7,2.2s-1.6,3.6-1.6,6.6c0,3,0.6,5.4,1.7,7.1
			s2.8,2.6,5.1,2.6C375,92.5,377,91.1,377.8,88.3z"/>
		<path class="st1" d="M381.8,83.3c0-2.9,1-5.4,3-7.4s4.4-3,7.3-3c2.9,0,5.3,1,7.3,3s3,4.4,3,7.4c0,3.2-1,5.8-3,7.6
			s-4.4,2.8-7.2,2.8s-5.2-0.9-7.2-2.8S381.8,86.5,381.8,83.3z M385.6,83.4c0,3.4,0.6,5.8,1.7,7.2s2.7,2.1,4.7,2.1
			c2,0,3.6-0.7,4.7-2.1s1.6-3.8,1.6-7.2c0-3.4-0.5-5.8-1.6-7.2s-2.6-2.2-4.7-2.2c-2,0-3.6,0.7-4.7,2.1S385.6,80,385.6,83.4z"/>
		<path class="st1" d="M410.6,73h0.6c0.4,1,0.6,2.3,0.6,4c1.1-1.3,2.3-2.3,3.5-3s2.5-1,3.9-1c1.5,0,2.8,0.3,3.8,1s1.6,1.4,1.9,2.4
			s0.4,2.3,0.4,4.1v6c0,2.2,0,3.6,0.1,4.1s0.3,0.8,0.7,1.1s1.2,0.4,2.3,0.4v1.1h-9.8v-1.1h0.4c1.1,0,1.9-0.2,2.2-0.5
			s0.5-0.7,0.6-1.1s0.1-1.7,0.1-3.9v-6.2c0-1.5-0.1-2.6-0.2-3.2s-0.5-1.2-1.2-1.7s-1.5-0.8-2.5-0.8c-1.1,0-2.2,0.3-3.3,1
			s-2,1.7-2.9,3.1v7.8c0,2.2,0,3.6,0.1,4.1s0.3,0.8,0.8,1.1s1.2,0.4,2.3,0.4v1.1h-9.7v-1.1c1.1,0,1.8-0.1,2.2-0.3s0.7-0.6,0.8-1
			s0.2-1.8,0.2-4.2v-5.7c0-2.2,0-3.6-0.1-4.1s-0.3-0.8-0.8-1.1s-1.2-0.4-2.3-0.4v-1.1C407,73.9,408.8,73.5,410.6,73z"/>
		<path class="st1" d="M64.7,137.8H51.3c-0.1,0.9-0.1,1.6-0.1,2.1c0,3.4,0.5,5.9,1.6,7.6s2.6,2.5,4.7,2.5c2.8,0,4.9-1.3,6-3.8h1.1
			c-0.5,1.6-1.5,2.8-3,3.7s-3.1,1.3-4.9,1.3c-1.6,0-3.2-0.4-4.6-1.2s-2.6-2-3.6-3.5s-1.4-3.3-1.4-5.5c0-3,0.9-5.6,2.7-7.6s4-3,6.7-3
			c2.5,0,4.5,0.8,5.8,2.3S64.6,136.1,64.7,137.8z M60.6,136.9c0-0.4,0.1-0.7,0.1-1c0-1.4-0.4-2.4-1.2-3.2s-1.8-1.1-3-1.1
			c-2.8,0-4.5,1.8-5.1,5.3H60.6z"/>
		<path class="st1" d="M78.9,139.6l5.4,6.8c0.9,1.2,1.7,2,2.3,2.4s1.4,0.6,2.2,0.7v1.1h-9.6v-1.1c1.6,0,2.4-0.3,2.4-0.9
			c0-0.2-0.4-0.8-1.1-1.6l-3.8-4.7l-3.5,4.2c-0.9,1-1.3,1.6-1.3,1.9c0,0.8,0.9,1.2,2.6,1.2v1.1h-7.9v-1.1c0.7,0,1.4-0.2,2.3-0.5
			s1.9-1.3,3.2-2.9l4-4.7l-4.2-5.4c-1.2-1.5-2.1-2.5-2.7-2.9s-1.4-0.6-2.2-0.6v-1.1h9v1.1c-1.3,0-1.9,0.3-1.9,0.9
			c0,0.3,0.3,0.7,0.9,1.4l3.4,4.2l3.1-3.7c0.7-0.8,1.1-1.4,1.1-1.6c0-0.8-0.9-1.2-2.6-1.2v-1.1h7.6v1.1c-1.5,0-3.1,1-4.8,2.9
			L78.9,139.6z"/>
		<path class="st1" d="M94.9,130.6h0.6c0.3,0.9,0.4,1.9,0.4,3.2c1-1.1,2.1-1.9,3.2-2.4s2.4-0.8,3.6-0.8c2.7,0,4.9,0.9,6.6,2.8
			s2.6,4.3,2.6,7.4c0,3-0.9,5.5-2.7,7.5s-4.1,3-7,3c-1.2,0-2.3-0.2-3.4-0.7s-2.1-1.2-3.1-2.1v7.3c0,2.2,0,3.6,0.1,4.1
			s0.3,0.8,0.7,1.1s1.2,0.4,2.3,0.4v1.1h-10v-1.1h0.7c1.1,0,1.8-0.2,2.2-0.5s0.5-0.7,0.6-1.1s0.1-1.7,0.1-3.9v-17.4
			c0-2,0-3.3-0.1-3.9s-0.3-0.9-0.7-1.2s-1.1-0.4-2.1-0.4h-0.7v-1.1C90.6,131.6,92.6,131.2,94.9,130.6z M96,146.9
			c0.8,1,1.7,1.8,2.7,2.3s1.9,0.8,3,0.8c1.8,0,3.3-0.8,4.6-2.3s2-3.9,2-7.2c0-2.9-0.6-5-1.9-6.4s-2.8-2.1-4.5-2.1
			c-1.1,0-2.1,0.3-3.1,0.8s-1.9,1.4-2.8,2.5V146.9z"/>
		<path class="st1" d="M133.2,137.8h-13.4c-0.1,0.9-0.1,1.6-0.1,2.1c0,3.4,0.5,5.9,1.6,7.6s2.6,2.5,4.7,2.5c2.8,0,4.9-1.3,6-3.8h1.1
			c-0.5,1.6-1.5,2.8-3,3.7s-3.1,1.3-4.9,1.3c-1.6,0-3.2-0.4-4.6-1.2s-2.6-2-3.6-3.5s-1.4-3.3-1.4-5.5c0-3,0.9-5.6,2.7-7.6s4-3,6.7-3
			c2.5,0,4.5,0.8,5.8,2.3S133.1,136.1,133.2,137.8z M129.1,136.9c0-0.4,0.1-0.7,0.1-1c0-1.4-0.4-2.4-1.2-3.2s-1.8-1.1-3-1.1
			c-2.8,0-4.5,1.8-5.1,5.3H129.1z"/>
		<path class="st1" d="M143,135.5c0.5-1.4,1.4-2.6,2.6-3.5s2.4-1.4,3.5-1.4c1,0,1.8,0.3,2.4,1s0.9,1.3,0.9,2c0,0.5-0.2,0.8-0.5,1.2
			s-0.7,0.5-1.1,0.5c-0.8,0-1.4-0.6-1.8-1.7c-0.3-0.8-0.7-1.2-1.3-1.2c-0.7,0-1.5,0.5-2.4,1.4s-1.5,1.9-1.8,2.8s-0.4,2.3-0.4,4.1
			v3.4c0,2,0,3.3,0.1,3.9s0.3,0.9,0.7,1.2s1.1,0.4,2.1,0.4h0.7v1.1h-10.2v-1.1h0.5c0.9,0,1.6-0.1,2-0.4s0.6-0.6,0.7-1.1
			s0.1-1.8,0.1-4v-5.4c0-2.1,0-3.4-0.1-3.9s-0.3-0.9-0.7-1.2S138,133,137,133h-0.5V132c1.5-0.2,3.4-0.6,5.8-1.4
			C142.7,131.8,143,133.4,143,135.5z"/>
		<path class="st1" d="M165.7,132.4h-5.8V144c0,1.8,0.1,3,0.2,3.6s0.5,1.1,1,1.5s1.1,0.6,1.6,0.6c1.1,0,2.1-0.6,2.9-1.9l0.8,0.4
			c-0.5,1-1.2,1.8-2.1,2.3s-1.9,0.8-2.9,0.8c-1.1,0-2.1-0.3-3-1s-1.4-1.4-1.6-2.3s-0.3-2.5-0.3-4.7v-10.9h-2.8v-1.1
			c1.3,0,2.4-0.6,3.4-1.6s1.7-2.5,1.9-4.4h0.8v6h5.8V132.4z"/>
		<path class="st1" d="M168.3,140.9c0-2.9,1-5.4,3-7.4s4.4-3,7.3-3c2.9,0,5.3,1,7.3,3s3,4.4,3,7.4c0,3.2-1,5.8-3,7.6
			s-4.4,2.8-7.2,2.8s-5.2-0.9-7.2-2.8S168.3,144.1,168.3,140.9z M172.2,141c0,3.4,0.6,5.8,1.7,7.2s2.7,2.1,4.7,2.1
			c2,0,3.6-0.7,4.7-2.1s1.6-3.8,1.6-7.2c0-3.4-0.5-5.8-1.6-7.2s-2.6-2.2-4.7-2.2c-2,0-3.6,0.7-4.7,2.1S172.2,137.6,172.2,141z"/>
		<path class="st1" d="M192.5,151.2v-6.3h0.9c1.1,3.6,3,5.5,5.7,5.5c1.2,0,2.1-0.4,2.7-1.1s0.9-1.5,0.9-2.4c0-1-0.3-1.8-0.9-2.5
			c-0.6-0.6-1.9-1.4-3.7-2.3c-1.9-1-3.3-1.9-4.2-2.8c-0.8-0.9-1.3-2-1.3-3.4c0-1.3,0.5-2.5,1.4-3.6s2.2-1.7,3.8-1.7
			c1.7,0,3.1,0.7,4.1,2c0.2-0.2,0.5-0.8,0.9-1.7h0.9v5.9h-0.9c-0.3-1.4-0.9-2.6-1.8-3.7s-2-1.5-3.2-1.5c-0.9,0-1.7,0.3-2.3,0.9
			s-0.9,1.2-0.9,2c0,0.8,0.3,1.6,1,2.2c0.6,0.6,1.8,1.3,3.6,2.1c2.7,1.2,4.3,2.4,4.9,3.5c0.6,1.2,0.9,2.3,0.9,3.3
			c0,1.7-0.6,3-1.7,4.1s-2.5,1.6-4.2,1.6c-1.8,0-3.3-0.7-4.7-2.2c-0.4,0.5-0.8,1.1-1,2H192.5z"/>
		<path class="st1" d="M237.7,137.8h-13.4c-0.1,0.9-0.1,1.6-0.1,2.1c0,3.4,0.5,5.9,1.6,7.6s2.6,2.5,4.7,2.5c2.8,0,4.9-1.3,6-3.8h1.1
			c-0.5,1.6-1.5,2.8-3,3.7s-3.1,1.3-4.9,1.3c-1.6,0-3.2-0.4-4.6-1.2s-2.6-2-3.6-3.5s-1.4-3.3-1.4-5.5c0-3,0.9-5.6,2.7-7.6s4-3,6.7-3
			c2.5,0,4.5,0.8,5.8,2.3S237.6,136.1,237.7,137.8z M233.6,136.9c0-0.4,0.1-0.7,0.1-1c0-1.4-0.4-2.4-1.2-3.2s-1.8-1.1-3-1.1
			c-2.8,0-4.5,1.8-5.1,5.3H233.6z"/>
		<path class="st1" d="M246.1,130.6h0.6c0.4,1,0.6,2.3,0.6,4c1.1-1.3,2.3-2.3,3.5-3s2.5-1,3.9-1c1.5,0,2.8,0.3,3.8,1
			s1.6,1.4,1.9,2.4s0.4,2.3,0.4,4.1v6c0,2.2,0,3.6,0.1,4.1s0.3,0.8,0.7,1.1s1.2,0.4,2.3,0.4v1.1h-9.8v-1.1h0.4
			c1.1,0,1.9-0.2,2.2-0.5s0.5-0.7,0.6-1.1s0.1-1.7,0.1-3.9v-6.2c0-1.5-0.1-2.6-0.2-3.2s-0.5-1.2-1.2-1.7s-1.5-0.8-2.5-0.8
			c-1.1,0-2.2,0.3-3.3,1s-2,1.7-2.9,3.1v7.8c0,2.2,0,3.6,0.1,4.1s0.3,0.8,0.8,1.1s1.2,0.4,2.3,0.4v1.1h-9.7v-1.1
			c1.1,0,1.8-0.1,2.2-0.3s0.7-0.6,0.8-1s0.2-1.8,0.2-4.2v-5.7c0-2.2,0-3.6-0.1-4.1s-0.3-0.8-0.8-1.1s-1.2-0.4-2.3-0.4v-1.1
			C242.6,131.5,244.3,131.1,246.1,130.6z"/>
		<path class="st1" d="M295,133.4v-7.5c0-2,0-3.3-0.1-3.9s-0.3-0.9-0.7-1.2s-1.1-0.4-2.1-0.4h-0.5v-1.1c1.9,0,4-0.4,6.2-1h0.5v25.8
			c0,2.2,0,3.6,0.1,4.1s0.3,0.8,0.7,1.1s1.2,0.4,2.3,0.4v1.1c-2.3,0-4.3,0.2-6,0.6c-0.2-0.7-0.3-1.9-0.3-3.5c-1.2,1.2-2.3,2-3.6,2.6
			s-2.5,0.9-3.8,0.9c-2.5,0-4.6-1-6.4-3s-2.7-4.4-2.7-7.3c0-3.1,0.9-5.7,2.8-7.6s4-2.9,6.6-2.9c1.3,0,2.5,0.2,3.7,0.7
			S294,132.5,295,133.4z M295,134.7c-1-0.9-2.1-1.6-3.1-2s-2.1-0.7-3.1-0.7c-1.8,0-3.2,0.7-4.4,2s-1.8,3.6-1.8,6.7
			c0,3.1,0.6,5.4,1.8,6.9s2.7,2.2,4.5,2.2c1.2,0,2.3-0.3,3.3-0.8s2-1.4,2.8-2.5V134.7z"/>
		<path class="st1" d="M309.8,130.6V144c0,2,0,3.3,0.1,3.9s0.3,0.9,0.7,1.2s1.1,0.4,2.1,0.4h0.5v1.1h-10.3v-1.1h0.8
			c1.1,0,1.8-0.2,2.2-0.5s0.5-0.7,0.6-1.1s0.1-1.7,0.1-3.9v-5.8c0-2.2-0.1-3.6-0.3-4.1s-0.5-0.8-0.8-0.9s-1-0.2-1.8-0.2h-0.6v-1.1
			c2.8-0.3,4.9-0.7,6.5-1.2H309.8z M305.2,120.8c0-0.7,0.2-1.2,0.7-1.7s1.1-0.7,1.7-0.7s1.2,0.2,1.7,0.7s0.7,1.1,0.7,1.7
			c0,0.7-0.2,1.3-0.7,1.8s-1,0.7-1.7,0.7s-1.2-0.2-1.7-0.7S305.2,121.5,305.2,120.8z"/>
		<path class="st1" d="M316,151.2v-6.3h0.9c1.1,3.6,3,5.5,5.7,5.5c1.2,0,2.1-0.4,2.7-1.1s0.9-1.5,0.9-2.4c0-1-0.3-1.8-0.9-2.5
			c-0.6-0.6-1.9-1.4-3.7-2.3c-1.9-1-3.3-1.9-4.2-2.8c-0.8-0.9-1.3-2-1.3-3.4c0-1.3,0.5-2.5,1.4-3.6s2.2-1.7,3.8-1.7
			c1.7,0,3.1,0.7,4.1,2c0.2-0.2,0.5-0.8,0.9-1.7h0.9v5.9h-0.9c-0.3-1.4-0.9-2.6-1.8-3.7s-2-1.5-3.2-1.5c-0.9,0-1.7,0.3-2.3,0.9
			s-0.9,1.2-0.9,2c0,0.8,0.3,1.6,1,2.2c0.6,0.6,1.8,1.3,3.6,2.1c2.7,1.2,4.3,2.4,4.9,3.5c0.6,1.2,0.9,2.3,0.9,3.3
			c0,1.7-0.6,3-1.7,4.1s-2.5,1.6-4.2,1.6c-1.8,0-3.3-0.7-4.7-2.2c-0.4,0.5-0.8,1.1-1,2H316z"/>
		<path class="st1" d="M343.2,132.4h-5.8V144c0,1.8,0.1,3,0.2,3.6s0.5,1.1,1,1.5s1.1,0.6,1.6,0.6c1.1,0,2.1-0.6,2.9-1.9l0.8,0.4
			c-0.5,1-1.2,1.8-2.1,2.3s-1.9,0.8-2.9,0.8c-1.1,0-2.1-0.3-3-1s-1.4-1.4-1.6-2.3s-0.3-2.5-0.3-4.7v-10.9h-2.8v-1.1
			c1.3,0,2.4-0.6,3.4-1.6s1.7-2.5,1.9-4.4h0.8v6h5.8V132.4z"/>
		<path class="st1" d="M351.8,130.6V144c0,2,0,3.3,0.1,3.9s0.3,0.9,0.7,1.2s1.1,0.4,2.1,0.4h0.5v1.1h-10.3v-1.1h0.8
			c1.1,0,1.8-0.2,2.2-0.5s0.5-0.7,0.6-1.1s0.1-1.7,0.1-3.9v-5.8c0-2.2-0.1-3.6-0.3-4.1s-0.5-0.8-0.8-0.9s-1-0.2-1.8-0.2h-0.6v-1.1
			c2.8-0.3,4.9-0.7,6.5-1.2H351.8z M347.2,120.8c0-0.7,0.2-1.2,0.7-1.7s1.1-0.7,1.7-0.7s1.2,0.2,1.7,0.7s0.7,1.1,0.7,1.7
			c0,0.7-0.2,1.3-0.7,1.8s-1,0.7-1.7,0.7s-1.2-0.2-1.7-0.7S347.2,121.5,347.2,120.8z"/>
		<path class="st1" d="M362.6,130.6h0.6c0.4,1,0.6,2.3,0.6,4c1.1-1.3,2.3-2.3,3.5-3s2.5-1,3.9-1c1.5,0,2.8,0.3,3.8,1
			s1.6,1.4,1.9,2.4s0.4,2.3,0.4,4.1v6c0,2.2,0,3.6,0.1,4.1s0.3,0.8,0.7,1.1s1.2,0.4,2.3,0.4v1.1h-9.8v-1.1h0.4
			c1.1,0,1.9-0.2,2.2-0.5s0.5-0.7,0.6-1.1s0.1-1.7,0.1-3.9v-6.2c0-1.5-0.1-2.6-0.2-3.2s-0.5-1.2-1.2-1.7s-1.5-0.8-2.5-0.8
			c-1.1,0-2.2,0.3-3.3,1s-2,1.7-2.9,3.1v7.8c0,2.2,0,3.6,0.1,4.1s0.3,0.8,0.8,1.1s1.2,0.4,2.3,0.4v1.1h-9.7v-1.1
			c1.1,0,1.8-0.1,2.2-0.3s0.7-0.6,0.8-1s0.2-1.8,0.2-4.2v-5.7c0-2.2,0-3.6-0.1-4.1s-0.3-0.8-0.8-1.1s-1.2-0.4-2.3-0.4v-1.1
			C359.1,131.5,360.8,131.1,362.6,130.6z"/>
		<path class="st1" d="M394.7,132.4h-5.8V144c0,1.8,0.1,3,0.2,3.6s0.5,1.1,1,1.5s1.1,0.6,1.6,0.6c1.1,0,2.1-0.6,2.9-1.9l0.8,0.4
			c-0.5,1-1.2,1.8-2.1,2.3s-1.9,0.8-2.9,0.8c-1.1,0-2.1-0.3-3-1s-1.4-1.4-1.6-2.3s-0.3-2.5-0.3-4.7v-10.9h-2.8v-1.1
			c1.3,0,2.4-0.6,3.4-1.6s1.7-2.5,1.9-4.4h0.8v6h5.8V132.4z"/>
		<path class="st1" d="M416.7,147h0.9c-0.1,2.7-1.5,4-3.9,4c-1.1,0-1.9-0.3-2.5-0.8s-1-1.4-1.2-2.5c-1.6,1.1-3,1.9-4.3,2.5
			s-2.4,0.8-3.5,0.8c-1.3,0-2.4-0.4-3.4-1.1s-1.4-1.7-1.4-3c0-1.6,0.8-3,2.4-4.2s3.7-2.4,6.5-3.5l3.6-1.5v-0.9
			c0-1.3-0.1-2.3-0.3-2.9s-0.6-1.1-1.3-1.6s-1.7-0.7-2.8-0.7c-2.3,0-3.6,0.8-3.9,2.3c-0.2,1.6-0.9,2.4-2,2.4c-1,0-1.4-0.5-1.4-1.4
			c0-0.9,0.6-1.8,1.9-2.9s3.2-1.5,5.9-1.5c2,0,3.5,0.3,4.6,0.9s1.8,1.3,2.2,2.1s0.5,2,0.5,3.7v7.8c0,1.8,0.1,3,0.3,3.5
			s0.6,0.8,1.2,0.8C415.8,149.3,416.4,148.6,416.7,147z M409.9,138.8l-2.6,1c-4,1.6-6,3.7-6,6.2c0,1,0.3,1.8,0.8,2.4s1.2,0.9,2,0.9
			c0.7,0,1.6-0.2,2.6-0.7s2.1-1.2,3.3-2.2V138.8z"/>
		<path class="st1" d="M420,151.2v-6.3h0.9c1.1,3.6,3,5.5,5.7,5.5c1.2,0,2.1-0.4,2.7-1.1s0.9-1.5,0.9-2.4c0-1-0.3-1.8-0.9-2.5
			c-0.6-0.6-1.9-1.4-3.7-2.3c-1.9-1-3.3-1.9-4.2-2.8c-0.8-0.9-1.3-2-1.3-3.4c0-1.3,0.5-2.5,1.4-3.6s2.2-1.7,3.8-1.7
			c1.7,0,3.1,0.7,4.1,2c0.2-0.2,0.5-0.8,0.9-1.7h0.9v5.9h-0.9c-0.3-1.4-0.9-2.6-1.8-3.7s-2-1.5-3.2-1.5c-0.9,0-1.7,0.3-2.3,0.9
			s-0.9,1.2-0.9,2c0,0.8,0.3,1.6,1,2.2c0.6,0.6,1.8,1.3,3.6,2.1c2.7,1.2,4.3,2.4,4.9,3.5c0.6,1.2,0.9,2.3,0.9,3.3
			c0,1.7-0.6,3-1.7,4.1s-2.5,1.6-4.2,1.6c-1.8,0-3.3-0.7-4.7-2.2c-0.4,0.5-0.8,1.1-1,2H420z"/>
		<path class="st1" d="M62.1,191v-7.5c0-2,0-3.3-0.1-3.9s-0.3-0.9-0.7-1.2s-1.1-0.4-2.1-0.4h-0.5v-1.1c1.9,0,4-0.4,6.2-1h0.5v25.8
			c0,2.2,0,3.6,0.1,4.1s0.3,0.8,0.7,1.1s1.2,0.4,2.3,0.4v1.1c-2.3,0-4.3,0.2-6,0.6c-0.2-0.7-0.3-1.9-0.3-3.5c-1.2,1.2-2.3,2-3.6,2.6
			s-2.5,0.9-3.8,0.9c-2.5,0-4.6-1-6.4-3s-2.7-4.4-2.7-7.3c0-3.1,0.9-5.7,2.8-7.6s4-2.9,6.6-2.9c1.3,0,2.5,0.2,3.7,0.7
			S61.1,190.1,62.1,191z M62.1,192.3c-1-0.9-2.1-1.6-3.1-2s-2.1-0.7-3.1-0.7c-1.8,0-3.2,0.7-4.4,2s-1.8,3.6-1.8,6.7
			c0,3.1,0.6,5.4,1.8,6.9s2.7,2.2,4.5,2.2c1.2,0,2.3-0.3,3.3-0.8s2-1.4,2.8-2.5V192.3z"/>
		<path class="st1" d="M76.8,188.2v13.4c0,2,0,3.3,0.1,3.9s0.3,0.9,0.7,1.2s1.1,0.4,2.1,0.4h0.5v1.1H69.8v-1.1h0.8
			c1.1,0,1.8-0.2,2.2-0.5s0.5-0.7,0.6-1.1s0.1-1.7,0.1-3.9v-5.8c0-2.2-0.1-3.6-0.3-4.1s-0.5-0.8-0.8-0.9s-1-0.2-1.8-0.2h-0.6v-1.1
			c2.8-0.3,4.9-0.7,6.5-1.2H76.8z M72.3,178.4c0-0.7,0.2-1.2,0.7-1.7s1.1-0.7,1.7-0.7s1.2,0.2,1.7,0.7s0.7,1.1,0.7,1.7
			c0,0.7-0.2,1.3-0.7,1.8s-1,0.7-1.7,0.7s-1.2-0.2-1.7-0.7S72.3,179.1,72.3,178.4z"/>
		<path class="st1" d="M83,208.8v-6.3h0.9c1.1,3.6,3,5.5,5.7,5.5c1.2,0,2.1-0.4,2.7-1.1s0.9-1.5,0.9-2.4c0-1-0.3-1.8-0.9-2.5
			c-0.6-0.6-1.9-1.4-3.7-2.3c-1.9-1-3.3-1.9-4.2-2.8c-0.8-0.9-1.3-2-1.3-3.4c0-1.3,0.5-2.5,1.4-3.6s2.2-1.7,3.8-1.7
			c1.7,0,3.1,0.7,4.1,2c0.2-0.2,0.5-0.8,0.9-1.7h0.9v5.9h-0.9c-0.3-1.4-0.9-2.6-1.8-3.7s-2-1.5-3.2-1.5c-0.9,0-1.7,0.3-2.3,0.9
			s-0.9,1.2-0.9,2c0,0.8,0.3,1.6,1,2.2c0.6,0.6,1.8,1.3,3.6,2.1c2.7,1.2,4.3,2.4,4.9,3.5c0.6,1.2,0.9,2.3,0.9,3.3
			c0,1.7-0.6,3-1.7,4.1s-2.5,1.6-4.2,1.6c-1.8,0-3.3-0.7-4.7-2.2c-0.4,0.5-0.8,1.1-1,2H83z"/>
		<path class="st1" d="M115.4,203.5h1c-1.1,3.6-3.7,5.5-8,5.5c-2.7,0-5-0.9-6.9-2.8s-2.8-4.3-2.8-7.4c0-3.1,1-5.7,3-7.6
			s4.4-2.9,7.1-2.9c1.7,0,3.2,0.4,4.6,1.1s2.1,1.6,2.1,2.7c0,0.4-0.1,0.8-0.4,1.1s-0.6,0.5-1.1,0.5c-1,0-1.7-0.6-1.9-1.8
			c-0.2-0.9-0.5-1.5-0.9-1.9c-0.4-0.4-1.2-0.5-2.4-0.5c-2.1,0-3.7,0.7-4.7,2.2s-1.6,3.6-1.6,6.6c0,3,0.6,5.4,1.7,7.1
			s2.8,2.6,5.1,2.6C112.6,207.7,114.6,206.3,115.4,203.5z"/>
		<path class="st1" d="M125.3,188.2v13.4c0,2,0,3.3,0.1,3.9s0.3,0.9,0.7,1.2s1.1,0.4,2.1,0.4h0.5v1.1h-10.3v-1.1h0.8
			c1.1,0,1.8-0.2,2.2-0.5s0.5-0.7,0.6-1.1s0.1-1.7,0.1-3.9v-5.8c0-2.2-0.1-3.6-0.3-4.1s-0.5-0.8-0.8-0.9s-1-0.2-1.8-0.2h-0.6v-1.1
			c2.8-0.3,4.9-0.7,6.5-1.2H125.3z M120.8,178.4c0-0.7,0.2-1.2,0.7-1.7s1.1-0.7,1.7-0.7s1.2,0.2,1.7,0.7s0.7,1.1,0.7,1.7
			c0,0.7-0.2,1.3-0.7,1.8s-1,0.7-1.7,0.7s-1.2-0.2-1.7-0.7S120.8,179.1,120.8,178.4z"/>
		<path class="st1" d="M135.5,188.2h0.6c0.3,0.9,0.4,1.9,0.4,3.2c1-1.1,2.1-1.9,3.2-2.4s2.4-0.8,3.6-0.8c2.7,0,4.9,0.9,6.6,2.8
			s2.6,4.3,2.6,7.4c0,3-0.9,5.5-2.7,7.5s-4.1,3-7,3c-1.2,0-2.3-0.2-3.4-0.7s-2.1-1.2-3.1-2.1v7.3c0,2.2,0,3.6,0.1,4.1
			s0.3,0.8,0.7,1.1s1.2,0.4,2.3,0.4v1.1h-10v-1.1h0.7c1.1,0,1.8-0.2,2.2-0.5s0.5-0.7,0.6-1.1s0.1-1.7,0.1-3.9v-17.4
			c0-2,0-3.3-0.1-3.9s-0.3-0.9-0.7-1.2s-1.1-0.4-2.1-0.4h-0.7v-1.1C131.2,189.2,133.2,188.8,135.5,188.2z M136.6,204.5
			c0.8,1,1.7,1.8,2.7,2.3s1.9,0.8,3,0.8c1.8,0,3.3-0.8,4.6-2.3s2-3.9,2-7.2c0-2.9-0.6-5-1.9-6.4s-2.8-2.1-4.5-2.1
			c-1.1,0-2.1,0.3-3.1,0.8s-1.9,1.4-2.8,2.5V204.5z"/>
		<path class="st1" d="M162,175.9v25.6c0,2,0,3.3,0.1,3.9s0.3,0.9,0.7,1.2s1.1,0.4,2.1,0.4h0.6v1.1h-10.3v-1.1h0.7
			c0.9,0,1.6-0.1,2-0.4s0.6-0.6,0.7-1.1s0.1-1.8,0.1-4v-19c0-2-0.2-3.3-0.5-3.8s-1.2-0.8-2.6-0.8v-1.1c1,0,2.1-0.1,3.4-0.3
			s2.2-0.4,2.7-0.7H162z"/>
		<path class="st1" d="M173.8,188.2v13.4c0,2,0,3.3,0.1,3.9s0.3,0.9,0.7,1.2s1.1,0.4,2.1,0.4h0.5v1.1h-10.3v-1.1h0.8
			c1.1,0,1.8-0.2,2.2-0.5s0.5-0.7,0.6-1.1s0.1-1.7,0.1-3.9v-5.8c0-2.2-0.1-3.6-0.3-4.1s-0.5-0.8-0.8-0.9s-1-0.2-1.8-0.2h-0.6v-1.1
			c2.8-0.3,4.9-0.7,6.5-1.2H173.8z M169.3,178.4c0-0.7,0.2-1.2,0.7-1.7s1.1-0.7,1.7-0.7s1.2,0.2,1.7,0.7s0.7,1.1,0.7,1.7
			c0,0.7-0.2,1.3-0.7,1.8s-1,0.7-1.7,0.7s-1.2-0.2-1.7-0.7S169.3,179.1,169.3,178.4z"/>
		<path class="st1" d="M184.7,188.2h0.6c0.4,1,0.6,2.3,0.6,4c1.1-1.3,2.3-2.3,3.5-3s2.5-1,3.9-1c1.5,0,2.8,0.3,3.8,1
			s1.6,1.4,1.9,2.4s0.4,2.3,0.4,4.1v6c0,2.2,0,3.6,0.1,4.1s0.3,0.8,0.7,1.1s1.2,0.4,2.3,0.4v1.1h-9.8v-1.1h0.4
			c1.1,0,1.9-0.2,2.2-0.5s0.5-0.7,0.6-1.1s0.1-1.7,0.1-3.9v-6.2c0-1.5-0.1-2.6-0.2-3.2s-0.5-1.2-1.2-1.7s-1.5-0.8-2.5-0.8
			c-1.1,0-2.2,0.3-3.3,1s-2,1.7-2.9,3.1v7.8c0,2.2,0,3.6,0.1,4.1s0.3,0.8,0.8,1.1s1.2,0.4,2.3,0.4v1.1h-9.7v-1.1
			c1.1,0,1.8-0.1,2.2-0.3s0.7-0.6,0.8-1s0.2-1.8,0.2-4.2v-5.7c0-2.2,0-3.6-0.1-4.1s-0.3-0.8-0.8-1.1s-1.2-0.4-2.3-0.4v-1.1
			C181.2,189.1,182.9,188.7,184.7,188.2z"/>
		<path class="st1" d="M224.8,204.6h0.9c-0.1,2.7-1.5,4-3.9,4c-1.1,0-1.9-0.3-2.5-0.8s-1-1.4-1.2-2.5c-1.6,1.1-3,1.9-4.3,2.5
			s-2.4,0.8-3.5,0.8c-1.3,0-2.4-0.4-3.4-1.1s-1.4-1.7-1.4-3c0-1.6,0.8-3,2.4-4.2s3.7-2.4,6.5-3.5l3.6-1.5v-0.9
			c0-1.3-0.1-2.3-0.3-2.9s-0.6-1.1-1.3-1.6s-1.7-0.7-2.8-0.7c-2.3,0-3.6,0.8-3.9,2.3c-0.2,1.6-0.9,2.4-2,2.4c-1,0-1.4-0.5-1.4-1.4
			c0-0.9,0.6-1.8,1.9-2.9s3.2-1.5,5.9-1.5c2,0,3.5,0.3,4.6,0.9s1.8,1.3,2.2,2.1s0.5,2,0.5,3.7v7.8c0,1.8,0.1,3,0.3,3.5
			s0.6,0.8,1.2,0.8C223.9,206.9,224.5,206.2,224.8,204.6z M218,196.4l-2.6,1c-4,1.6-6,3.7-6,6.2c0,1,0.3,1.8,0.8,2.4s1.2,0.9,2,0.9
			c0.7,0,1.6-0.2,2.6-0.7s2.1-1.2,3.3-2.2V196.4z"/>
		<path class="st1" d="M228.1,208.8v-6.3h0.9c1.1,3.6,3,5.5,5.7,5.5c1.2,0,2.1-0.4,2.7-1.1s0.9-1.5,0.9-2.4c0-1-0.3-1.8-0.9-2.5
			c-0.6-0.6-1.9-1.4-3.7-2.3c-1.9-1-3.3-1.9-4.2-2.8c-0.8-0.9-1.3-2-1.3-3.4c0-1.3,0.5-2.5,1.4-3.6s2.2-1.7,3.8-1.7
			c1.7,0,3.1,0.7,4.1,2c0.2-0.2,0.5-0.8,0.9-1.7h0.9v5.9h-0.9c-0.3-1.4-0.9-2.6-1.8-3.7s-2-1.5-3.2-1.5c-0.9,0-1.7,0.3-2.3,0.9
			s-0.9,1.2-0.9,2c0,0.8,0.3,1.6,1,2.2c0.6,0.6,1.8,1.3,3.6,2.1c2.7,1.2,4.3,2.4,4.9,3.5c0.6,1.2,0.9,2.3,0.9,3.3
			c0,1.7-0.6,3-1.7,4.1s-2.5,1.6-4.2,1.6c-1.8,0-3.3-0.7-4.7-2.2c-0.4,0.5-0.8,1.1-1,2H228.1z"/>
		<path class="st1" d="M272.5,203.5h1c-1.1,3.6-3.7,5.5-8,5.5c-2.7,0-5-0.9-6.9-2.8s-2.8-4.3-2.8-7.4c0-3.1,1-5.7,3-7.6
			s4.4-2.9,7.1-2.9c1.7,0,3.2,0.4,4.6,1.1s2.1,1.6,2.1,2.7c0,0.4-0.1,0.8-0.4,1.1s-0.6,0.5-1.1,0.5c-1,0-1.7-0.6-1.9-1.8
			c-0.2-0.9-0.5-1.5-0.9-1.9c-0.4-0.4-1.2-0.5-2.4-0.5c-2.1,0-3.7,0.7-4.7,2.2s-1.6,3.6-1.6,6.6c0,3,0.6,5.4,1.7,7.1
			s2.8,2.6,5.1,2.6C269.7,207.7,271.6,206.3,272.5,203.5z"/>
		<path class="st1" d="M276.4,198.5c0-2.9,1-5.4,3-7.4s4.4-3,7.3-3c2.9,0,5.3,1,7.3,3s3,4.4,3,7.4c0,3.2-1,5.8-3,7.6
			s-4.4,2.8-7.2,2.8s-5.2-0.9-7.2-2.8S276.4,201.7,276.4,198.5z M280.3,198.6c0,3.4,0.6,5.8,1.7,7.2s2.7,2.1,4.7,2.1
			c2,0,3.6-0.7,4.7-2.1s1.6-3.8,1.6-7.2c0-3.4-0.5-5.8-1.6-7.2s-2.6-2.2-4.7-2.2c-2,0-3.6,0.7-4.7,2.1S280.3,195.2,280.3,198.6z"/>
		<path class="st1" d="M305.2,188.2h0.6c0.4,1,0.6,2.3,0.6,4c1.1-1.3,2.3-2.3,3.5-3s2.5-1,3.9-1c1.5,0,2.8,0.3,3.8,1
			s1.6,1.4,1.9,2.4s0.4,2.3,0.4,4.1v6c0,2.2,0,3.6,0.1,4.1s0.3,0.8,0.7,1.1s1.2,0.4,2.3,0.4v1.1h-9.8v-1.1h0.4
			c1.1,0,1.9-0.2,2.2-0.5s0.5-0.7,0.6-1.1s0.1-1.7,0.1-3.9v-6.2c0-1.5-0.1-2.6-0.2-3.2s-0.5-1.2-1.2-1.7s-1.5-0.8-2.5-0.8
			c-1.1,0-2.2,0.3-3.3,1s-2,1.7-2.9,3.1v7.8c0,2.2,0,3.6,0.1,4.1s0.3,0.8,0.8,1.1s1.2,0.4,2.3,0.4v1.1H300v-1.1
			c1.1,0,1.8-0.1,2.2-0.3s0.7-0.6,0.8-1s0.2-1.8,0.2-4.2v-5.7c0-2.2,0-3.6-0.1-4.1s-0.3-0.8-0.8-1.1s-1.2-0.4-2.3-0.4v-1.1
			C301.7,189.1,303.4,188.7,305.2,188.2z"/>
		<path class="st1" d="M357,189v12.6c0,2.1,0,3.4,0.1,3.9s0.3,0.9,0.7,1.2s1.1,0.4,2.1,0.4v1.1c-2.4,0-4.1,0.3-5.2,0.8h-0.3
			c-0.5-0.9-0.8-2.3-0.8-4.5c-1,1.5-2,2.6-3.3,3.4s-2.6,1.1-4.1,1.1c-1.3,0-2.4-0.3-3.4-0.9s-1.7-1.3-2-2.1s-0.6-2.1-0.6-3.8v-6.5
			c0-2.2,0-3.6-0.1-4.1s-0.3-0.9-0.7-1.1s-1.2-0.4-2.3-0.4V189h6.5v13.3c0,1.3,0.1,2.3,0.2,2.9s0.6,1.1,1.2,1.6s1.4,0.7,2.2,0.7
			c1.2,0,2.4-0.4,3.4-1.2s1.8-1.6,2.2-2.5s0.6-2.1,0.6-3.8v-4.3c0-2.1,0-3.4-0.1-3.8s-0.2-0.8-0.6-1.2s-1.1-0.5-2.2-0.5h-0.5V189
			H357z"/>
		<path class="st1" d="M367.7,188.2h0.6c0.4,1,0.6,2.3,0.6,4c1.1-1.3,2.3-2.3,3.5-3s2.5-1,3.9-1c1.5,0,2.8,0.3,3.8,1
			s1.6,1.4,1.9,2.4s0.4,2.3,0.4,4.1v6c0,2.2,0,3.6,0.1,4.1s0.3,0.8,0.7,1.1s1.2,0.4,2.3,0.4v1.1h-9.8v-1.1h0.4
			c1.1,0,1.9-0.2,2.2-0.5s0.5-0.7,0.6-1.1s0.1-1.7,0.1-3.9v-6.2c0-1.5-0.1-2.6-0.2-3.2s-0.5-1.2-1.2-1.7s-1.5-0.8-2.5-0.8
			c-1.1,0-2.2,0.3-3.3,1s-2,1.7-2.9,3.1v7.8c0,2.2,0,3.6,0.1,4.1s0.3,0.8,0.8,1.1s1.2,0.4,2.3,0.4v1.1h-9.7v-1.1
			c1.1,0,1.8-0.1,2.2-0.3s0.7-0.6,0.8-1s0.2-1.8,0.2-4.2v-5.7c0-2.2,0-3.6-0.1-4.1s-0.3-0.8-0.8-1.1s-1.2-0.4-2.3-0.4v-1.1
			C364.2,189.1,365.9,188.7,367.7,188.2z"/>
		<path class="st1" d="M407.8,204.6h0.9c-0.1,2.7-1.5,4-3.9,4c-1.1,0-1.9-0.3-2.5-0.8s-1-1.4-1.2-2.5c-1.6,1.1-3,1.9-4.3,2.5
			s-2.4,0.8-3.5,0.8c-1.3,0-2.4-0.4-3.4-1.1s-1.4-1.7-1.4-3c0-1.6,0.8-3,2.4-4.2s3.7-2.4,6.5-3.5l3.6-1.5v-0.9
			c0-1.3-0.1-2.3-0.3-2.9s-0.6-1.1-1.3-1.6s-1.7-0.7-2.8-0.7c-2.3,0-3.6,0.8-3.9,2.3c-0.2,1.6-0.9,2.4-2,2.4c-1,0-1.4-0.5-1.4-1.4
			c0-0.9,0.6-1.8,1.9-2.9s3.2-1.5,5.9-1.5c2,0,3.5,0.3,4.6,0.9s1.8,1.3,2.2,2.1s0.5,2,0.5,3.7v7.8c0,1.8,0.1,3,0.3,3.5
			s0.6,0.8,1.2,0.8C406.9,206.9,407.5,206.2,407.8,204.6z M401,196.4l-2.6,1c-4,1.6-6,3.7-6,6.2c0,1,0.3,1.8,0.8,2.4s1.2,0.9,2,0.9
			c0.7,0,1.6-0.2,2.6-0.7s2.1-1.2,3.3-2.2V196.4z"/>
		<path class="st1" d="M427.9,188.2h0.2c0.5,1,0.7,2.4,0.7,4c1-1.3,2.2-2.4,3.4-3s2.5-1,3.9-1c1.6,0,2.9,0.4,3.8,1.1
			s1.7,1.8,2.1,3.2c1.2-1.4,2.4-2.5,3.7-3.2s2.5-1.1,3.8-1.1c1.5,0,2.7,0.3,3.8,1s1.7,1.5,1.9,2.3s0.3,2.3,0.3,4.2v5.8
			c0,2.2,0,3.6,0.1,4.1s0.3,0.8,0.8,1.1s1.2,0.4,2.3,0.4v1.1H449v-1.1c1,0,1.7-0.1,2.1-0.3s0.7-0.6,0.8-1s0.1-1.8,0.1-4.1v-6.4
			c0-1.3-0.1-2.3-0.2-2.9s-0.5-1.2-1.2-1.7s-1.4-0.7-2.4-0.7c-1,0-2,0.3-3.1,1s-2.1,1.7-3.1,3.1v7.6c0,2,0,3.3,0.1,3.9
			s0.3,0.9,0.7,1.2s1.1,0.4,2.1,0.4v1.1h-9.3v-1.1c1,0,1.8-0.1,2.2-0.3s0.7-0.6,0.8-1s0.2-1.8,0.2-4.2v-5.3c0-1.7-0.1-2.9-0.2-3.7
			s-0.5-1.4-1.2-1.9s-1.5-0.8-2.5-0.8c-1,0-2,0.3-3,0.9s-2,1.6-3.1,2.8v8c0,2.1,0,3.4,0.1,3.9s0.3,0.9,0.7,1.2s1.1,0.4,2.2,0.4v1.1
			h-9.4v-1.1c1,0,1.8-0.1,2.2-0.3s0.7-0.6,0.8-1s0.1-1.8,0.1-4.1v-5.7c0-2.2,0-3.5-0.1-4s-0.3-0.9-0.7-1.1s-1.2-0.4-2.2-0.4v-1.1
			C424.6,189,426.4,188.7,427.9,188.2z"/>
		<path class="st1" d="M478.8,195.4h-13.4c-0.1,0.9-0.1,1.6-0.1,2.1c0,3.4,0.5,5.9,1.6,7.6s2.6,2.5,4.7,2.5c2.8,0,4.9-1.3,6-3.8h1.1
			c-0.5,1.6-1.5,2.8-3,3.7s-3.1,1.3-4.9,1.3c-1.6,0-3.2-0.4-4.6-1.2s-2.6-2-3.6-3.5s-1.4-3.3-1.4-5.5c0-3,0.9-5.6,2.7-7.6s4-3,6.7-3
			c2.5,0,4.5,0.8,5.8,2.3S478.7,193.7,478.8,195.4z M474.7,194.5c0-0.4,0.1-0.7,0.1-1c0-1.4-0.4-2.4-1.2-3.2s-1.8-1.1-3-1.1
			c-2.8,0-4.5,1.8-5.1,5.3H474.7z"/>
		<path class="st1" d="M493.8,190H488v11.6c0,1.8,0.1,3,0.2,3.6s0.5,1.1,1,1.5s1.1,0.6,1.6,0.6c1.1,0,2.1-0.6,2.9-1.9l0.8,0.4
			c-0.5,1-1.2,1.8-2.1,2.3s-1.9,0.8-2.9,0.8c-1.1,0-2.1-0.3-3-1s-1.4-1.4-1.6-2.3s-0.3-2.5-0.3-4.7V190h-2.8V189
			c1.3,0,2.4-0.6,3.4-1.6s1.7-2.5,1.9-4.4h0.8v6h5.8V190z"/>
		<path class="st1" d="M515.8,204.6h0.9c-0.1,2.7-1.5,4-3.9,4c-1.1,0-1.9-0.3-2.5-0.8s-1-1.4-1.2-2.5c-1.6,1.1-3,1.9-4.3,2.5
			s-2.4,0.8-3.5,0.8c-1.3,0-2.4-0.4-3.4-1.1s-1.4-1.7-1.4-3c0-1.6,0.8-3,2.4-4.2s3.7-2.4,6.5-3.5l3.6-1.5v-0.9
			c0-1.3-0.1-2.3-0.3-2.9s-0.6-1.1-1.3-1.6s-1.7-0.7-2.8-0.7c-2.3,0-3.6,0.8-3.9,2.3c-0.2,1.6-0.9,2.4-2,2.4c-1,0-1.4-0.5-1.4-1.4
			c0-0.9,0.6-1.8,1.9-2.9s3.2-1.5,5.9-1.5c2,0,3.5,0.3,4.6,0.9s1.8,1.3,2.2,2.1s0.5,2,0.5,3.7v7.8c0,1.8,0.1,3,0.3,3.5
			s0.6,0.8,1.2,0.8C514.9,206.9,515.5,206.2,515.8,204.6z M509,196.4l-2.6,1c-4,1.6-6,3.7-6,6.2c0,1,0.3,1.8,0.8,2.4s1.2,0.9,2,0.9
			c0.7,0,1.6-0.2,2.6-0.7s2.1-1.2,3.3-2.2V196.4z"/>
		<path class="st1" d="M61,261.1h1c-1.1,3.6-3.7,5.5-8,5.5c-2.7,0-5-0.9-6.9-2.8s-2.8-4.3-2.8-7.4c0-3.1,1-5.7,3-7.6
			s4.4-2.9,7.1-2.9c1.7,0,3.2,0.4,4.6,1.1s2.1,1.6,2.1,2.7c0,0.4-0.1,0.8-0.4,1.1s-0.6,0.5-1.1,0.5c-1,0-1.7-0.6-1.9-1.8
			c-0.2-0.9-0.5-1.5-0.9-1.9c-0.4-0.4-1.2-0.5-2.4-0.5c-2.1,0-3.7,0.7-4.7,2.2s-1.6,3.6-1.6,6.6c0,3,0.6,5.4,1.7,7.1
			s2.8,2.6,5.1,2.6C58.2,265.3,60.2,263.9,61,261.1z"/>
		<path class="st1" d="M70.5,233.5v25.6c0,2,0,3.3,0.1,3.9s0.3,0.9,0.7,1.2s1.1,0.4,2.1,0.4h0.6v1.1H63.7v-1.1h0.7
			c0.9,0,1.6-0.1,2-0.4s0.6-0.6,0.7-1.1s0.1-1.8,0.1-4v-19c0-2-0.2-3.3-0.5-3.8s-1.2-0.8-2.6-0.8v-1.1c1,0,2.1-0.1,3.4-0.3
			s2.2-0.4,2.7-0.7H70.5z"/>
		<path class="st1" d="M95.8,262.2h0.9c-0.1,2.7-1.5,4-3.9,4c-1.1,0-1.9-0.3-2.5-0.8s-1-1.4-1.2-2.5c-1.6,1.1-3,1.9-4.3,2.5
			s-2.4,0.8-3.5,0.8c-1.3,0-2.4-0.4-3.4-1.1s-1.4-1.7-1.4-3c0-1.6,0.8-3,2.4-4.2s3.7-2.4,6.5-3.5l3.6-1.5V252c0-1.3-0.1-2.3-0.3-2.9
			s-0.6-1.1-1.3-1.6s-1.7-0.7-2.8-0.7c-2.3,0-3.6,0.8-3.9,2.3c-0.2,1.6-0.9,2.4-2,2.4c-1,0-1.4-0.5-1.4-1.4c0-0.9,0.6-1.8,1.9-2.9
			s3.2-1.5,5.9-1.5c2,0,3.5,0.3,4.6,0.9s1.8,1.3,2.2,2.1s0.5,2,0.5,3.7v7.8c0,1.8,0.1,3,0.3,3.5s0.6,0.8,1.2,0.8
			C94.9,264.5,95.6,263.8,95.8,262.2z M89,254l-2.6,1c-4,1.6-6,3.7-6,6.2c0,1,0.3,1.8,0.8,2.4s1.2,0.9,2,0.9c0.7,0,1.6-0.2,2.6-0.7
			s2.1-1.2,3.3-2.2V254z"/>
		<path class="st1" d="M105.2,250.7c0.5-1.4,1.4-2.6,2.6-3.5s2.4-1.4,3.5-1.4c1,0,1.8,0.3,2.4,1s0.9,1.3,0.9,2
			c0,0.5-0.2,0.8-0.5,1.2s-0.7,0.5-1.1,0.5c-0.8,0-1.4-0.6-1.8-1.7c-0.3-0.8-0.7-1.2-1.3-1.2c-0.7,0-1.5,0.5-2.4,1.4
			s-1.5,1.9-1.8,2.8s-0.4,2.3-0.4,4.1v3.4c0,2,0,3.3,0.1,3.9s0.3,0.9,0.7,1.2s1.1,0.4,2.1,0.4h0.7v1.1H98.6v-1.1h0.5
			c0.9,0,1.6-0.1,2-0.4s0.6-0.6,0.7-1.1s0.1-1.8,0.1-4v-5.4c0-2.1,0-3.4-0.1-3.9s-0.3-0.9-0.7-1.2s-1.1-0.4-2.1-0.4h-0.5v-1.1
			c1.5-0.2,3.4-0.6,5.8-1.4C104.9,247,105.1,248.6,105.2,250.7z"/>
		<path class="st1" d="M135.8,262.2h0.9c-0.1,2.7-1.5,4-3.9,4c-1.1,0-1.9-0.3-2.5-0.8s-1-1.4-1.2-2.5c-1.6,1.1-3,1.9-4.3,2.5
			s-2.4,0.8-3.5,0.8c-1.3,0-2.4-0.4-3.4-1.1s-1.4-1.7-1.4-3c0-1.6,0.8-3,2.4-4.2s3.7-2.4,6.5-3.5l3.6-1.5V252c0-1.3-0.1-2.3-0.3-2.9
			s-0.6-1.1-1.3-1.6s-1.7-0.7-2.8-0.7c-2.3,0-3.6,0.8-3.9,2.3c-0.2,1.6-0.9,2.4-2,2.4c-1,0-1.4-0.5-1.4-1.4c0-0.9,0.6-1.8,1.9-2.9
			s3.2-1.5,5.9-1.5c2,0,3.5,0.3,4.6,0.9s1.8,1.3,2.2,2.1s0.5,2,0.5,3.7v7.8c0,1.8,0.1,3,0.3,3.5s0.6,0.8,1.2,0.8
			C134.9,264.5,135.6,263.8,135.8,262.2z M129,254l-2.6,1c-4,1.6-6,3.7-6,6.2c0,1,0.3,1.8,0.8,2.4s1.2,0.9,2,0.9
			c0.7,0,1.6-0.2,2.6-0.7s2.1-1.2,3.3-2.2V254z"/>
		<path class="st1" d="M140.7,247.7c0-0.7,0.2-1.3,0.7-1.8s1.1-0.8,1.8-0.8c0.7,0,1.3,0.2,1.8,0.7s0.7,1.1,0.7,1.8
			c0,0.7-0.2,1.3-0.8,1.8s-1.1,0.7-1.8,0.7c-0.7,0-1.3-0.2-1.8-0.8S140.7,248.4,140.7,247.7z M140.7,264c0-0.7,0.2-1.3,0.7-1.8
			s1.1-0.7,1.8-0.7c0.7,0,1.3,0.2,1.8,0.7s0.7,1.1,0.7,1.8c0,0.7-0.2,1.3-0.8,1.8s-1.1,0.7-1.8,0.7c-0.7,0-1.3-0.3-1.8-0.8
			S140.7,264.7,140.7,264z"/>
		<path class="st1" d="M169,249.7c0.9-1.3,2-2.3,3.2-3s2.4-1,3.8-1c1.6,0,2.9,0.3,3.9,1s1.7,1.5,2,2.4s0.5,2.5,0.5,4.7v5.3
			c0,2.2,0,3.6,0.1,4.1s0.3,0.8,0.8,1.1s1.2,0.3,2.3,0.3v1.1h-9.9v-1.1h0.4c1.1,0,1.9-0.2,2.2-0.5s0.5-0.7,0.6-1.2s0.1-1.7,0.1-3.9
			v-5.8c0-1.6-0.1-2.8-0.3-3.5s-0.6-1.4-1.3-1.9s-1.6-0.8-2.6-0.8c-1.2,0-2.3,0.4-3.3,1.1s-1.8,1.8-2.6,3.2v7.7c0,2.2,0,3.5,0.1,4
			s0.3,0.9,0.7,1.1s1.1,0.4,2.2,0.4v1.1h-9.8v-1.1h0.5c1.1,0,1.9-0.2,2.2-0.5s0.5-0.7,0.6-1.1s0.1-1.7,0.1-3.9V240
			c0-1.9-0.2-3.2-0.6-3.7s-1.2-0.8-2.6-0.8v-1.1c2.4,0,4.4-0.3,6-1h0.5V249.7z"/>
		<path class="st1" d="M207.8,262.2h0.9c-0.1,2.7-1.5,4-3.9,4c-1.1,0-1.9-0.3-2.5-0.8s-1-1.4-1.2-2.5c-1.6,1.1-3,1.9-4.3,2.5
			s-2.4,0.8-3.5,0.8c-1.3,0-2.4-0.4-3.4-1.1s-1.4-1.7-1.4-3c0-1.6,0.8-3,2.4-4.2s3.7-2.4,6.5-3.5l3.6-1.5V252c0-1.3-0.1-2.3-0.3-2.9
			s-0.6-1.1-1.3-1.6s-1.7-0.7-2.8-0.7c-2.3,0-3.6,0.8-3.9,2.3c-0.2,1.6-0.9,2.4-2,2.4c-1,0-1.4-0.5-1.4-1.4c0-0.9,0.6-1.8,1.9-2.9
			s3.2-1.5,5.9-1.5c2,0,3.5,0.3,4.6,0.9s1.8,1.3,2.2,2.1s0.5,2,0.5,3.7v7.8c0,1.8,0.1,3,0.3,3.5s0.6,0.8,1.2,0.8
			C206.9,264.5,207.6,263.8,207.8,262.2z M201,254l-2.6,1c-4,1.6-6,3.7-6,6.2c0,1,0.3,1.8,0.8,2.4s1.2,0.9,2,0.9
			c0.7,0,1.6-0.2,2.6-0.7s2.1-1.2,3.3-2.2V254z"/>
		<path class="st1" d="M227.5,261.1h1c-1.1,3.6-3.7,5.5-8,5.5c-2.7,0-5-0.9-6.9-2.8s-2.8-4.3-2.8-7.4c0-3.1,1-5.7,3-7.6
			s4.4-2.9,7.1-2.9c1.7,0,3.2,0.4,4.6,1.1s2.1,1.6,2.1,2.7c0,0.4-0.1,0.8-0.4,1.1s-0.6,0.5-1.1,0.5c-1,0-1.7-0.6-1.9-1.8
			c-0.2-0.9-0.5-1.5-0.9-1.9c-0.4-0.4-1.2-0.5-2.4-0.5c-2.1,0-3.7,0.7-4.7,2.2s-1.6,3.6-1.6,6.6c0,3,0.6,5.4,1.7,7.1
			s2.8,2.6,5.1,2.6C224.7,265.3,226.7,263.9,227.5,261.1z"/>
		<path class="st1" d="M248.9,253h-13.4c-0.1,0.9-0.1,1.6-0.1,2.1c0,3.4,0.5,5.9,1.6,7.6s2.6,2.5,4.7,2.5c2.8,0,4.9-1.3,6-3.8h1.1
			c-0.5,1.6-1.5,2.8-3,3.7s-3.1,1.3-4.9,1.3c-1.6,0-3.2-0.4-4.6-1.2s-2.6-2-3.6-3.5s-1.4-3.3-1.4-5.5c0-3,0.9-5.6,2.7-7.6s4-3,6.7-3
			c2.5,0,4.5,0.8,5.8,2.3S248.8,251.3,248.9,253z M244.8,252.1c0-0.4,0.1-0.7,0.1-1c0-1.4-0.4-2.4-1.2-3.2s-1.8-1.1-3-1.1
			c-2.8,0-4.5,1.8-5.1,5.3H244.8z"/>
		<path class="st1" d="M258.7,250.7c0.5-1.4,1.4-2.6,2.6-3.5s2.4-1.4,3.5-1.4c1,0,1.8,0.3,2.4,1s0.9,1.3,0.9,2
			c0,0.5-0.2,0.8-0.5,1.2s-0.7,0.5-1.1,0.5c-0.8,0-1.4-0.6-1.8-1.7c-0.3-0.8-0.7-1.2-1.3-1.2c-0.7,0-1.5,0.5-2.4,1.4
			s-1.5,1.9-1.8,2.8s-0.4,2.3-0.4,4.1v3.4c0,2,0,3.3,0.1,3.9s0.3,0.9,0.7,1.2s1.1,0.4,2.1,0.4h0.7v1.1h-10.2v-1.1h0.5
			c0.9,0,1.6-0.1,2-0.4s0.6-0.6,0.7-1.1s0.1-1.8,0.1-4v-5.4c0-2.1,0-3.4-0.1-3.9s-0.3-0.9-0.7-1.2s-1.1-0.4-2.1-0.4h-0.5v-1.1
			c1.5-0.2,3.4-0.6,5.8-1.4C258.4,247,258.6,248.6,258.7,250.7z"/>
		<path class="st1" d="M298.2,248.6v-7.5c0-2,0-3.3-0.1-3.9s-0.3-0.9-0.7-1.2s-1.1-0.4-2.1-0.4h-0.5v-1.1c1.9,0,4-0.4,6.2-1h0.5
			v25.8c0,2.2,0,3.6,0.1,4.1s0.3,0.8,0.7,1.1s1.2,0.4,2.3,0.4v1.1c-2.3,0-4.3,0.2-6,0.6c-0.2-0.7-0.3-1.9-0.3-3.5
			c-1.2,1.2-2.3,2-3.6,2.6s-2.5,0.9-3.8,0.9c-2.5,0-4.6-1-6.4-3s-2.7-4.4-2.7-7.3c0-3.1,0.9-5.7,2.8-7.6s4-2.9,6.6-2.9
			c1.3,0,2.5,0.2,3.7,0.7S297.2,247.7,298.2,248.6z M298.2,249.9c-1-0.9-2.1-1.6-3.1-2s-2.1-0.7-3.1-0.7c-1.8,0-3.2,0.7-4.4,2
			s-1.8,3.6-1.8,6.7c0,3.1,0.6,5.4,1.8,6.9s2.7,2.2,4.5,2.2c1.2,0,2.3-0.3,3.3-0.8s2-1.4,2.8-2.5V249.9z"/>
		<path class="st1" d="M324.4,253H311c-0.1,0.9-0.1,1.6-0.1,2.1c0,3.4,0.5,5.9,1.6,7.6s2.6,2.5,4.7,2.5c2.8,0,4.9-1.3,6-3.8h1.1
			c-0.5,1.6-1.5,2.8-3,3.7s-3.1,1.3-4.9,1.3c-1.6,0-3.2-0.4-4.6-1.2s-2.6-2-3.6-3.5s-1.4-3.3-1.4-5.5c0-3,0.9-5.6,2.7-7.6s4-3,6.7-3
			c2.5,0,4.5,0.8,5.8,2.3S324.3,251.3,324.4,253z M320.3,252.1c0-0.4,0.1-0.7,0.1-1c0-1.4-0.4-2.4-1.2-3.2s-1.8-1.1-3-1.1
			c-2.8,0-4.5,1.8-5.1,5.3H320.3z"/>
		<path class="st1" d="M351.4,247.6h-5.8v11.6c0,1.8,0.1,3,0.2,3.6s0.5,1.1,1,1.5s1.1,0.6,1.6,0.6c1.1,0,2.1-0.6,2.9-1.9l0.8,0.4
			c-0.5,1-1.2,1.8-2.1,2.3s-1.9,0.8-2.9,0.8c-1.1,0-2.1-0.3-3-1s-1.4-1.4-1.6-2.3s-0.3-2.5-0.3-4.7v-10.9h-2.8v-1.1
			c1.3,0,2.4-0.6,3.4-1.6s1.7-2.5,1.9-4.4h0.8v6h5.8V247.6z"/>
		<path class="st1" d="M373.1,246.6v12.6c0,2.1,0,3.4,0.1,3.9s0.3,0.9,0.7,1.2s1.1,0.4,2.1,0.4v1.1c-2.4,0-4.1,0.3-5.2,0.8h-0.3
			c-0.5-0.9-0.8-2.3-0.8-4.5c-1,1.5-2,2.6-3.3,3.4s-2.6,1.1-4.1,1.1c-1.3,0-2.4-0.3-3.4-0.9s-1.7-1.3-2-2.1s-0.6-2.1-0.6-3.8v-6.5
			c0-2.2,0-3.6-0.1-4.1s-0.3-0.9-0.7-1.1s-1.2-0.4-2.3-0.4v-1.1h6.5v13.3c0,1.3,0.1,2.3,0.2,2.9s0.6,1.1,1.2,1.6s1.4,0.7,2.2,0.7
			c1.2,0,2.4-0.4,3.4-1.2s1.8-1.6,2.2-2.5s0.6-2.1,0.6-3.8v-4.3c0-2.1,0-3.4-0.1-3.8s-0.2-0.8-0.6-1.2s-1.1-0.5-2.2-0.5h-0.5v-1.1
			H373.1z"/>
		<path class="st1" d="M395.9,245.8h0.2c0.5,1,0.7,2.4,0.7,4c1-1.3,2.2-2.4,3.4-3s2.5-1,3.9-1c1.6,0,2.9,0.4,3.8,1.1
			s1.7,1.8,2.1,3.2c1.2-1.4,2.4-2.5,3.7-3.2s2.5-1.1,3.8-1.1c1.5,0,2.7,0.3,3.8,1s1.7,1.5,1.9,2.3s0.3,2.3,0.3,4.2v5.8
			c0,2.2,0,3.6,0.1,4.1s0.3,0.8,0.8,1.1s1.2,0.4,2.3,0.4v1.1h-9.6v-1.1c1,0,1.7-0.1,2.1-0.3s0.7-0.6,0.8-1s0.1-1.8,0.1-4.1v-6.4
			c0-1.3-0.1-2.3-0.2-2.9s-0.5-1.2-1.2-1.7s-1.4-0.7-2.4-0.7c-1,0-2,0.3-3.1,1s-2.1,1.7-3.1,3.1v7.6c0,2,0,3.3,0.1,3.9
			s0.3,0.9,0.7,1.2s1.1,0.4,2.1,0.4v1.1h-9.3v-1.1c1,0,1.8-0.1,2.2-0.3s0.7-0.6,0.8-1s0.2-1.8,0.2-4.2v-5.3c0-1.7-0.1-2.9-0.2-3.7
			s-0.5-1.4-1.2-1.9s-1.5-0.8-2.5-0.8c-1,0-2,0.3-3,0.9s-2,1.6-3.1,2.8v8c0,2.1,0,3.4,0.1,3.9s0.3,0.9,0.7,1.2s1.1,0.4,2.2,0.4v1.1
			h-9.4v-1.1c1,0,1.8-0.1,2.2-0.3s0.7-0.6,0.8-1s0.1-1.8,0.1-4.1v-5.7c0-2.2,0-3.5-0.1-4s-0.3-0.9-0.7-1.1s-1.2-0.4-2.2-0.4v-1.1
			C392.6,246.6,394.5,246.3,395.9,245.8z"/>
		<path class="st1" d="M448.8,262.2h0.9c-0.1,2.7-1.5,4-3.9,4c-1.1,0-1.9-0.3-2.5-0.8s-1-1.4-1.2-2.5c-1.6,1.1-3,1.9-4.3,2.5
			s-2.4,0.8-3.5,0.8c-1.3,0-2.4-0.4-3.4-1.1s-1.4-1.7-1.4-3c0-1.6,0.8-3,2.4-4.2s3.7-2.4,6.5-3.5l3.6-1.5V252c0-1.3-0.1-2.3-0.3-2.9
			s-0.6-1.1-1.3-1.6s-1.7-0.7-2.8-0.7c-2.3,0-3.6,0.8-3.9,2.3c-0.2,1.6-0.9,2.4-2,2.4c-1,0-1.4-0.5-1.4-1.4c0-0.9,0.6-1.8,1.9-2.9
			s3.2-1.5,5.9-1.5c2,0,3.5,0.3,4.6,0.9s1.8,1.3,2.2,2.1s0.5,2,0.5,3.7v7.8c0,1.8,0.1,3,0.3,3.5s0.6,0.8,1.2,0.8
			C448,264.5,448.6,263.8,448.8,262.2z M442.1,254l-2.6,1c-4,1.6-6,3.7-6,6.2c0,1,0.3,1.8,0.8,2.4s1.2,0.9,2,0.9
			c0.7,0,1.6-0.2,2.6-0.7s2.1-1.2,3.3-2.2V254z"/>
		<path class="st1" d="M458.2,250.7c0.5-1.4,1.4-2.6,2.6-3.5s2.4-1.4,3.5-1.4c1,0,1.8,0.3,2.4,1s0.9,1.3,0.9,2
			c0,0.5-0.2,0.8-0.5,1.2s-0.7,0.5-1.1,0.5c-0.8,0-1.4-0.6-1.8-1.7c-0.3-0.8-0.7-1.2-1.3-1.2c-0.7,0-1.5,0.5-2.4,1.4
			s-1.5,1.9-1.8,2.8s-0.4,2.3-0.4,4.1v3.4c0,2,0,3.3,0.1,3.9s0.3,0.9,0.7,1.2s1.1,0.4,2.1,0.4h0.7v1.1h-10.2v-1.1h0.5
			c0.9,0,1.6-0.1,2-0.4s0.6-0.6,0.7-1.1s0.1-1.8,0.1-4v-5.4c0-2.1,0-3.4-0.1-3.9s-0.3-0.9-0.7-1.2s-1.1-0.4-2.1-0.4h-0.5v-1.1
			c1.5-0.2,3.4-0.6,5.8-1.4C457.9,247,458.2,248.6,458.2,250.7z"/>
		<path class="st1" d="M485.2,261.1h1c-1.1,3.6-3.7,5.5-8,5.5c-2.7,0-5-0.9-6.9-2.8s-2.8-4.3-2.8-7.4c0-3.1,1-5.7,3-7.6
			s4.4-2.9,7.1-2.9c1.7,0,3.2,0.4,4.6,1.1s2.1,1.6,2.1,2.7c0,0.4-0.1,0.8-0.4,1.1s-0.6,0.5-1.1,0.5c-1,0-1.7-0.6-1.9-1.8
			c-0.2-0.9-0.5-1.5-0.9-1.9c-0.4-0.4-1.2-0.5-2.4-0.5c-2.1,0-3.7,0.7-4.7,2.2s-1.6,3.6-1.6,6.6c0,3,0.6,5.4,1.7,7.1
			s2.8,2.6,5.1,2.6C482.3,265.3,484.3,263.9,485.2,261.1z"/>
		<path class="st1" d="M508.5,262.2h0.9c-0.1,2.7-1.5,4-3.9,4c-1.1,0-1.9-0.3-2.5-0.8s-1-1.4-1.2-2.5c-1.6,1.1-3,1.9-4.3,2.5
			s-2.4,0.8-3.5,0.8c-1.3,0-2.4-0.4-3.4-1.1s-1.4-1.7-1.4-3c0-1.6,0.8-3,2.4-4.2s3.7-2.4,6.5-3.5l3.6-1.5V252c0-1.3-0.1-2.3-0.3-2.9
			s-0.6-1.1-1.3-1.6s-1.7-0.7-2.8-0.7c-2.3,0-3.6,0.8-3.9,2.3c-0.2,1.6-0.9,2.4-2,2.4c-1,0-1.4-0.5-1.4-1.4c0-0.9,0.6-1.8,1.9-2.9
			s3.2-1.5,5.9-1.5c2,0,3.5,0.3,4.6,0.9s1.8,1.3,2.2,2.1s0.5,2,0.5,3.7v7.8c0,1.8,0.1,3,0.3,3.5s0.6,0.8,1.2,0.8
			C507.6,264.5,508.2,263.8,508.5,262.2z M501.7,254l-2.6,1c-4,1.6-6,3.7-6,6.2c0,1,0.3,1.8,0.8,2.4s1.2,0.9,2,0.9
			c0.7,0,1.6-0.2,2.6-0.7s2.1-1.2,3.3-2.2V254z"/>
		<path class="st1" d="M62.1,304.2v12.6c0,2.1,0,3.4,0.1,3.9s0.3,0.9,0.7,1.2s1.1,0.4,2.1,0.4v1.1c-2.4,0-4.1,0.3-5.2,0.8h-0.3
			c-0.5-0.9-0.8-2.3-0.8-4.5c-1,1.5-2,2.6-3.3,3.4s-2.6,1.1-4.1,1.1c-1.3,0-2.4-0.3-3.4-0.9s-1.7-1.3-2-2.1s-0.6-2.1-0.6-3.8v-6.5
			c0-2.2,0-3.6-0.1-4.1s-0.3-0.9-0.7-1.1s-1.2-0.4-2.3-0.4v-1.1h6.5v13.3c0,1.3,0.1,2.3,0.2,2.9s0.6,1.1,1.2,1.6s1.4,0.7,2.2,0.7
			c1.2,0,2.4-0.4,3.4-1.2s1.8-1.6,2.2-2.5s0.6-2.1,0.6-3.8v-4.3c0-2.1,0-3.4-0.1-3.8s-0.2-0.8-0.6-1.2s-1.1-0.5-2.2-0.5h-0.5v-1.1
			H62.1z"/>
		<path class="st1" d="M72.9,303.4h0.6c0.4,1,0.6,2.3,0.6,4c1.1-1.3,2.3-2.3,3.5-3s2.5-1,3.9-1c1.5,0,2.8,0.3,3.8,1s1.6,1.4,1.9,2.4
			s0.4,2.3,0.4,4.1v6c0,2.2,0,3.6,0.1,4.1s0.3,0.8,0.7,1.1s1.2,0.4,2.3,0.4v1.1h-9.8v-1.1h0.4c1.1,0,1.9-0.2,2.2-0.5
			s0.5-0.7,0.6-1.1s0.1-1.7,0.1-3.9v-6.2c0-1.5-0.1-2.6-0.2-3.2s-0.5-1.2-1.2-1.7s-1.5-0.8-2.5-0.8c-1.1,0-2.2,0.3-3.3,1
			s-2,1.7-2.9,3.1v7.8c0,2.2,0,3.6,0.1,4.1s0.3,0.8,0.8,1.1s1.2,0.4,2.3,0.4v1.1h-9.7v-1.1c1.1,0,1.8-0.1,2.2-0.3s0.7-0.6,0.8-1
			s0.2-1.8,0.2-4.2V311c0-2.2,0-3.6-0.1-4.1s-0.3-0.8-0.8-1.1s-1.2-0.4-2.3-0.4v-1.1C69.3,304.3,71.1,303.9,72.9,303.4z"/>
		<path class="st1" d="M112.9,319.8h0.9c-0.1,2.7-1.5,4-3.9,4c-1.1,0-1.9-0.3-2.5-0.8s-1-1.4-1.2-2.5c-1.6,1.1-3,1.9-4.3,2.5
			s-2.4,0.8-3.5,0.8c-1.3,0-2.4-0.4-3.4-1.1s-1.4-1.7-1.4-3c0-1.6,0.8-3,2.4-4.2s3.7-2.4,6.5-3.5l3.6-1.5v-0.9
			c0-1.3-0.1-2.3-0.3-2.9s-0.6-1.1-1.3-1.6s-1.7-0.7-2.8-0.7c-2.3,0-3.6,0.8-3.9,2.3c-0.2,1.6-0.9,2.4-2,2.4c-1,0-1.4-0.5-1.4-1.4
			c0-0.9,0.6-1.8,1.9-2.9s3.2-1.5,5.9-1.5c2,0,3.5,0.3,4.6,0.9s1.8,1.3,2.2,2.1s0.5,2,0.5,3.7v7.8c0,1.8,0.1,3,0.3,3.5
			s0.6,0.8,1.2,0.8C112,322.1,112.6,321.4,112.9,319.8z M106.1,311.6l-2.6,1c-4,1.6-6,3.7-6,6.2c0,1,0.3,1.8,0.8,2.4s1.2,0.9,2,0.9
			c0.7,0,1.6-0.2,2.6-0.7s2.1-1.2,3.3-2.2V311.6z"/>
		<path class="st1" d="M145.4,310.6H132c-0.1,0.9-0.1,1.6-0.1,2.1c0,3.4,0.5,5.9,1.6,7.6s2.6,2.5,4.7,2.5c2.8,0,4.9-1.3,6-3.8h1.1
			c-0.5,1.6-1.5,2.8-3,3.7s-3.1,1.3-4.9,1.3c-1.6,0-3.2-0.4-4.6-1.2s-2.6-2-3.6-3.5s-1.4-3.3-1.4-5.5c0-3,0.9-5.6,2.7-7.6s4-3,6.7-3
			c2.5,0,4.5,0.8,5.8,2.3S145.3,308.9,145.4,310.6z M141.3,309.7c0-0.4,0.1-0.7,0.1-1c0-1.4-0.4-2.4-1.2-3.2s-1.8-1.1-3-1.1
			c-2.8,0-4.5,1.8-5.1,5.3H141.3z"/>
		<path class="st1" d="M159.6,312.4l5.4,6.8c0.9,1.2,1.7,2,2.3,2.4s1.4,0.6,2.2,0.7v1.1H160v-1.1c1.6,0,2.4-0.3,2.4-0.9
			c0-0.2-0.4-0.8-1.1-1.6l-3.8-4.7l-3.5,4.2c-0.9,1-1.3,1.6-1.3,1.9c0,0.8,0.9,1.2,2.6,1.2v1.1h-7.9v-1.1c0.7,0,1.4-0.2,2.3-0.5
			s1.9-1.3,3.2-2.9l4-4.7l-4.2-5.4c-1.2-1.5-2.1-2.5-2.7-2.9s-1.4-0.6-2.2-0.6v-1.1h9v1.1c-1.3,0-1.9,0.3-1.9,0.9
			c0,0.3,0.3,0.7,0.9,1.4l3.4,4.2l3.1-3.7c0.7-0.8,1.1-1.4,1.1-1.6c0-0.8-0.9-1.2-2.6-1.2v-1.1h7.6v1.1c-1.5,0-3.1,1-4.8,2.9
			L159.6,312.4z"/>
		<path class="st1" d="M175.7,303.4h0.6c0.3,0.9,0.4,1.9,0.4,3.2c1-1.1,2.1-1.9,3.2-2.4s2.4-0.8,3.6-0.8c2.7,0,4.9,0.9,6.6,2.8
			s2.6,4.3,2.6,7.4c0,3-0.9,5.5-2.7,7.5s-4.1,3-7,3c-1.2,0-2.3-0.2-3.4-0.7s-2.1-1.2-3.1-2.1v7.3c0,2.2,0,3.6,0.1,4.1
			s0.3,0.8,0.7,1.1s1.2,0.4,2.3,0.4v1.1h-10v-1.1h0.7c1.1,0,1.8-0.2,2.2-0.5s0.5-0.7,0.6-1.1s0.1-1.7,0.1-3.9v-17.4
			c0-2,0-3.3-0.1-3.9s-0.3-0.9-0.7-1.2s-1.1-0.4-2.1-0.4h-0.7v-1.1C171.4,304.4,173.3,304,175.7,303.4z M176.7,319.7
			c0.8,1,1.7,1.8,2.7,2.3s1.9,0.8,3,0.8c1.8,0,3.3-0.8,4.6-2.3s2-3.9,2-7.2c0-2.9-0.6-5-1.9-6.4s-2.8-2.1-4.5-2.1
			c-1.1,0-2.1,0.3-3.1,0.8s-1.9,1.4-2.8,2.5V319.7z"/>
		<path class="st1" d="M213.9,310.6h-13.4c-0.1,0.9-0.1,1.6-0.1,2.1c0,3.4,0.5,5.9,1.6,7.6s2.6,2.5,4.7,2.5c2.8,0,4.9-1.3,6-3.8h1.1
			c-0.5,1.6-1.5,2.8-3,3.7s-3.1,1.3-4.9,1.3c-1.6,0-3.2-0.4-4.6-1.2s-2.6-2-3.6-3.5s-1.4-3.3-1.4-5.5c0-3,0.9-5.6,2.7-7.6s4-3,6.7-3
			c2.5,0,4.5,0.8,5.8,2.3S213.9,308.9,213.9,310.6z M209.8,309.7c0-0.4,0.1-0.7,0.1-1c0-1.4-0.4-2.4-1.2-3.2s-1.8-1.1-3-1.1
			c-2.8,0-4.5,1.8-5.1,5.3H209.8z"/>
		<path class="st1" d="M223.8,308.3c0.5-1.4,1.4-2.6,2.6-3.5s2.4-1.4,3.5-1.4c1,0,1.8,0.3,2.4,1s0.9,1.3,0.9,2
			c0,0.5-0.2,0.8-0.5,1.2s-0.7,0.5-1.1,0.5c-0.8,0-1.4-0.6-1.8-1.7c-0.3-0.8-0.7-1.2-1.3-1.2c-0.7,0-1.5,0.5-2.4,1.4
			s-1.5,1.9-1.8,2.8s-0.4,2.3-0.4,4.1v3.4c0,2,0,3.3,0.1,3.9s0.3,0.9,0.7,1.2s1.1,0.4,2.1,0.4h0.7v1.1h-10.2v-1.1h0.5
			c0.9,0,1.6-0.1,2-0.4s0.6-0.6,0.7-1.1s0.1-1.8,0.1-4v-5.4c0-2.1,0-3.4-0.1-3.9s-0.3-0.9-0.7-1.2s-1.1-0.4-2.1-0.4h-0.5v-1.1
			c1.5-0.2,3.4-0.6,5.8-1.4C223.5,304.6,223.7,306.2,223.8,308.3z"/>
		<path class="st1" d="M241,303.4v13.4c0,2,0,3.3,0.1,3.9s0.3,0.9,0.7,1.2s1.1,0.4,2.1,0.4h0.5v1.1H234v-1.1h0.8
			c1.1,0,1.8-0.2,2.2-0.5s0.5-0.7,0.6-1.1s0.1-1.7,0.1-3.9v-5.8c0-2.2-0.1-3.6-0.3-4.1s-0.5-0.8-0.8-0.9s-1-0.2-1.8-0.2H234v-1.1
			c2.8-0.3,4.9-0.7,6.5-1.2H241z M236.5,293.6c0-0.7,0.2-1.2,0.7-1.7s1.1-0.7,1.7-0.7s1.2,0.2,1.7,0.7s0.7,1.1,0.7,1.7
			c0,0.7-0.2,1.3-0.7,1.8s-1,0.7-1.7,0.7s-1.2-0.2-1.7-0.7S236.5,294.3,236.5,293.6z"/>
		<path class="st1" d="M264.5,310.6h-13.4c-0.1,0.9-0.1,1.6-0.1,2.1c0,3.4,0.5,5.9,1.6,7.6s2.6,2.5,4.7,2.5c2.8,0,4.9-1.3,6-3.8h1.1
			c-0.5,1.6-1.5,2.8-3,3.7s-3.1,1.3-4.9,1.3c-1.6,0-3.2-0.4-4.6-1.2s-2.6-2-3.6-3.5s-1.4-3.3-1.4-5.5c0-3,0.9-5.6,2.7-7.6s4-3,6.7-3
			c2.5,0,4.5,0.8,5.8,2.3S264.4,308.9,264.5,310.6z M260.4,309.7c0-0.4,0.1-0.7,0.1-1c0-1.4-0.4-2.4-1.2-3.2s-1.8-1.1-3-1.1
			c-2.8,0-4.5,1.8-5.1,5.3H260.4z"/>
		<path class="st1" d="M272.9,303.4h0.6c0.4,1,0.6,2.3,0.6,4c1.1-1.3,2.3-2.3,3.5-3s2.5-1,3.9-1c1.5,0,2.8,0.3,3.8,1
			s1.6,1.4,1.9,2.4s0.4,2.3,0.4,4.1v6c0,2.2,0,3.6,0.1,4.1s0.3,0.8,0.7,1.1s1.2,0.4,2.3,0.4v1.1h-9.8v-1.1h0.4
			c1.1,0,1.9-0.2,2.2-0.5s0.5-0.7,0.6-1.1s0.1-1.7,0.1-3.9v-6.2c0-1.5-0.1-2.6-0.2-3.2s-0.5-1.2-1.2-1.7s-1.5-0.8-2.5-0.8
			c-1.1,0-2.2,0.3-3.3,1s-2,1.7-2.9,3.1v7.8c0,2.2,0,3.6,0.1,4.1s0.3,0.8,0.8,1.1s1.2,0.4,2.3,0.4v1.1h-9.7v-1.1
			c1.1,0,1.8-0.1,2.2-0.3s0.7-0.6,0.8-1s0.2-1.8,0.2-4.2V311c0-2.2,0-3.6-0.1-4.1s-0.3-0.8-0.8-1.1s-1.2-0.4-2.3-0.4v-1.1
			C269.3,304.3,271.1,303.9,272.9,303.4z"/>
		<path class="st1" d="M310.1,318.7h1c-1.1,3.6-3.7,5.5-8,5.5c-2.7,0-5-0.9-6.9-2.8s-2.8-4.3-2.8-7.4c0-3.1,1-5.7,3-7.6
			s4.4-2.9,7.1-2.9c1.7,0,3.2,0.4,4.6,1.1s2.1,1.6,2.1,2.7c0,0.4-0.1,0.8-0.4,1.1s-0.6,0.5-1.1,0.5c-1,0-1.7-0.6-1.9-1.8
			c-0.2-0.9-0.5-1.5-0.9-1.9c-0.4-0.4-1.2-0.5-2.4-0.5c-2.1,0-3.7,0.7-4.7,2.2s-1.6,3.6-1.6,6.6c0,3,0.6,5.4,1.7,7.1
			s2.8,2.6,5.1,2.6C307.3,322.9,309.3,321.5,310.1,318.7z"/>
		<path class="st1" d="M320,303.4v13.4c0,2,0,3.3,0.1,3.9s0.3,0.9,0.7,1.2s1.1,0.4,2.1,0.4h0.5v1.1H313v-1.1h0.8
			c1.1,0,1.8-0.2,2.2-0.5s0.5-0.7,0.6-1.1s0.1-1.7,0.1-3.9v-5.8c0-2.2-0.1-3.6-0.3-4.1s-0.5-0.8-0.8-0.9s-1-0.2-1.8-0.2H313v-1.1
			c2.8-0.3,4.9-0.7,6.5-1.2H320z M315.5,293.6c0-0.7,0.2-1.2,0.7-1.7s1.1-0.7,1.7-0.7s1.2,0.2,1.7,0.7s0.7,1.1,0.7,1.7
			c0,0.7-0.2,1.3-0.7,1.8s-1,0.7-1.7,0.7s-1.2-0.2-1.7-0.7S315.5,294.3,315.5,293.6z"/>
		<path class="st1" d="M345.4,319.8h0.9c-0.1,2.7-1.5,4-3.9,4c-1.1,0-1.9-0.3-2.5-0.8s-1-1.4-1.2-2.5c-1.6,1.1-3,1.9-4.3,2.5
			s-2.4,0.8-3.5,0.8c-1.3,0-2.4-0.4-3.4-1.1s-1.4-1.7-1.4-3c0-1.6,0.8-3,2.4-4.2s3.7-2.4,6.5-3.5l3.6-1.5v-0.9
			c0-1.3-0.1-2.3-0.3-2.9s-0.6-1.1-1.3-1.6s-1.7-0.7-2.8-0.7c-2.3,0-3.6,0.8-3.9,2.3c-0.2,1.6-0.9,2.4-2,2.4c-1,0-1.4-0.5-1.4-1.4
			c0-0.9,0.6-1.8,1.9-2.9s3.2-1.5,5.9-1.5c2,0,3.5,0.3,4.6,0.9s1.8,1.3,2.2,2.1s0.5,2,0.5,3.7v7.8c0,1.8,0.1,3,0.3,3.5
			s0.6,0.8,1.2,0.8C344.5,322.1,345.2,321.4,345.4,319.8z M338.6,311.6l-2.6,1c-4,1.6-6,3.7-6,6.2c0,1,0.3,1.8,0.8,2.4
			s1.2,0.9,2,0.9c0.7,0,1.6-0.2,2.6-0.7s2.1-1.2,3.3-2.2V311.6z"/>
		<path class="st1" d="M370.4,324.1h-1.4l-6.8-15.4c-0.7-1.5-1.2-2.4-1.6-2.8s-1-0.6-1.9-0.7v-1.1h8.7v1.1c-1,0-1.6,0.1-2,0.2
			s-0.5,0.5-0.5,0.9c0,0.3,0.3,1.2,0.9,2.5l5.2,11.6l4.7-10.4c0.7-1.7,1.1-2.7,1.1-3.2c0-1-0.8-1.6-2.3-1.7v-1.1h6.5v1.1
			c-0.8,0-1.5,0.4-2,1s-1.3,2-2.3,4.2L370.4,324.1z"/>
		<path class="st1" d="M388.5,303.4v13.4c0,2,0,3.3,0.1,3.9s0.3,0.9,0.7,1.2s1.1,0.4,2.1,0.4h0.5v1.1h-10.3v-1.1h0.8
			c1.1,0,1.8-0.2,2.2-0.5s0.5-0.7,0.6-1.1s0.1-1.7,0.1-3.9v-5.8c0-2.2-0.1-3.6-0.3-4.1s-0.5-0.8-0.8-0.9s-1-0.2-1.8-0.2h-0.6v-1.1
			c2.8-0.3,4.9-0.7,6.5-1.2H388.5z M384,293.6c0-0.7,0.2-1.2,0.7-1.7s1.1-0.7,1.7-0.7s1.2,0.2,1.7,0.7s0.7,1.1,0.7,1.7
			c0,0.7-0.2,1.3-0.7,1.8s-1,0.7-1.7,0.7s-1.2-0.2-1.7-0.7S384,294.3,384,293.6z"/>
		<path class="st1" d="M394.7,324v-6.3h0.9c1.1,3.6,3,5.5,5.7,5.5c1.2,0,2.1-0.4,2.7-1.1s0.9-1.5,0.9-2.4c0-1-0.3-1.8-0.9-2.5
			c-0.6-0.6-1.9-1.4-3.7-2.3c-1.9-1-3.3-1.9-4.2-2.8c-0.8-0.9-1.3-2-1.3-3.4c0-1.3,0.5-2.5,1.4-3.6s2.2-1.7,3.8-1.7
			c1.7,0,3.1,0.7,4.1,2c0.2-0.2,0.5-0.8,0.9-1.7h0.9v5.9H405c-0.3-1.4-0.9-2.6-1.8-3.7s-2-1.5-3.2-1.5c-0.9,0-1.7,0.3-2.3,0.9
			s-0.9,1.2-0.9,2c0,0.8,0.3,1.6,1,2.2c0.6,0.6,1.8,1.3,3.6,2.1c2.7,1.2,4.3,2.4,4.9,3.5c0.6,1.2,0.9,2.3,0.9,3.3
			c0,1.7-0.6,3-1.7,4.1s-2.5,1.6-4.2,1.6c-1.8,0-3.3-0.7-4.7-2.2c-0.4,0.5-0.8,1.1-1,2H394.7z"/>
		<path class="st1" d="M429.7,304.2v12.6c0,2.1,0,3.4,0.1,3.9s0.3,0.9,0.7,1.2s1.1,0.4,2.1,0.4v1.1c-2.4,0-4.1,0.3-5.2,0.8h-0.3
			c-0.5-0.9-0.8-2.3-0.8-4.5c-1,1.5-2,2.6-3.3,3.4s-2.6,1.1-4.1,1.1c-1.3,0-2.4-0.3-3.4-0.9s-1.7-1.3-2-2.1s-0.6-2.1-0.6-3.8v-6.5
			c0-2.2,0-3.6-0.1-4.1s-0.3-0.9-0.7-1.1s-1.2-0.4-2.3-0.4v-1.1h6.5v13.3c0,1.3,0.1,2.3,0.2,2.9s0.6,1.1,1.2,1.6s1.4,0.7,2.2,0.7
			c1.2,0,2.4-0.4,3.4-1.2s1.8-1.6,2.2-2.5s0.6-2.1,0.6-3.8v-4.3c0-2.1,0-3.4-0.1-3.8s-0.2-0.8-0.6-1.2s-1.1-0.5-2.2-0.5H423v-1.1
			H429.7z"/>
		<path class="st1" d="M455,319.8h0.9c-0.1,2.7-1.5,4-3.9,4c-1.1,0-1.9-0.3-2.5-0.8s-1-1.4-1.2-2.5c-1.6,1.1-3,1.9-4.3,2.5
			s-2.4,0.8-3.5,0.8c-1.3,0-2.4-0.4-3.4-1.1s-1.4-1.7-1.4-3c0-1.6,0.8-3,2.4-4.2s3.7-2.4,6.5-3.5l3.6-1.5v-0.9
			c0-1.3-0.1-2.3-0.3-2.9s-0.6-1.1-1.3-1.6s-1.7-0.7-2.8-0.7c-2.3,0-3.6,0.8-3.9,2.3c-0.2,1.6-0.9,2.4-2,2.4c-1,0-1.4-0.5-1.4-1.4
			c0-0.9,0.6-1.8,1.9-2.9s3.2-1.5,5.9-1.5c2,0,3.5,0.3,4.6,0.9s1.8,1.3,2.2,2.1s0.5,2,0.5,3.7v7.8c0,1.8,0.1,3,0.3,3.5
			s0.6,0.8,1.2,0.8C454.1,322.1,454.7,321.4,455,319.8z M448.2,311.6l-2.6,1c-4,1.6-6,3.7-6,6.2c0,1,0.3,1.8,0.8,2.4s1.2,0.9,2,0.9
			c0.7,0,1.6-0.2,2.6-0.7s2.1-1.2,3.3-2.2V311.6z"/>
		<path class="st1" d="M463.7,291.1v25.6c0,2,0,3.3,0.1,3.9s0.3,0.9,0.7,1.2s1.1,0.4,2.1,0.4h0.6v1.1h-10.3v-1.1h0.7
			c0.9,0,1.6-0.1,2-0.4s0.6-0.6,0.7-1.1s0.1-1.8,0.1-4v-19c0-2-0.2-3.3-0.5-3.8s-1.2-0.8-2.6-0.8v-1.1c1,0,2.1-0.1,3.4-0.3
			s2.2-0.4,2.7-0.7H463.7z"/>
		<path class="st1" d="M47.6,361v13.4c0,2,0,3.3,0.1,3.9s0.3,0.9,0.7,1.2s1.1,0.4,2.1,0.4h0.5v1.1H40.6v-1.1h0.8
			c1.1,0,1.8-0.2,2.2-0.5s0.5-0.7,0.6-1.1s0.1-1.7,0.1-3.9v-5.8c0-2.2-0.1-3.6-0.3-4.1s-0.5-0.8-0.8-0.9s-1-0.2-1.8-0.2h-0.6v-1.1
			c2.8-0.3,4.9-0.7,6.5-1.2H47.6z M43,351.2c0-0.7,0.2-1.2,0.7-1.7s1.1-0.7,1.7-0.7s1.2,0.2,1.7,0.7s0.7,1.1,0.7,1.7
			c0,0.7-0.2,1.3-0.7,1.8s-1,0.7-1.7,0.7s-1.2-0.2-1.7-0.7S43,351.9,43,351.2z"/>
		<path class="st1" d="M58.4,361h0.6c0.4,1,0.6,2.3,0.6,4c1.1-1.3,2.3-2.3,3.5-3s2.5-1,3.9-1c1.5,0,2.8,0.3,3.8,1s1.6,1.4,1.9,2.4
			s0.4,2.3,0.4,4.1v6c0,2.2,0,3.6,0.1,4.1s0.3,0.8,0.7,1.1s1.2,0.4,2.3,0.4v1.1h-9.8v-1.1h0.4c1.1,0,1.9-0.2,2.2-0.5
			s0.5-0.7,0.6-1.1s0.1-1.7,0.1-3.9v-6.2c0-1.5-0.1-2.6-0.2-3.2s-0.5-1.2-1.2-1.7s-1.5-0.8-2.5-0.8c-1.1,0-2.2,0.3-3.3,1
			s-2,1.7-2.9,3.1v7.8c0,2.2,0,3.6,0.1,4.1s0.3,0.8,0.8,1.1s1.2,0.4,2.3,0.4v1.1h-9.7v-1.1c1.1,0,1.8-0.1,2.2-0.3s0.7-0.6,0.8-1
			s0.2-1.8,0.2-4.2v-5.7c0-2.2,0-3.6-0.1-4.1s-0.3-0.8-0.8-1.1s-1.2-0.4-2.3-0.4v-1.1C54.9,361.9,56.6,361.5,58.4,361z"/>
		<path class="st1" d="M79.1,371.3c0-2.9,1-5.4,3-7.4s4.4-3,7.3-3c2.9,0,5.3,1,7.3,3s3,4.4,3,7.4c0,3.2-1,5.8-3,7.6
			s-4.4,2.8-7.2,2.8s-5.2-0.9-7.2-2.8S79.1,374.5,79.1,371.3z M83,371.4c0,3.4,0.6,5.8,1.7,7.2s2.7,2.1,4.7,2.1c2,0,3.6-0.7,4.7-2.1
			s1.6-3.8,1.6-7.2c0-3.4-0.5-5.8-1.6-7.2s-2.6-2.2-4.7-2.2c-2,0-3.6,0.7-4.7,2.1S83,368,83,371.4z"/>
		<path class="st1" d="M108.7,348.7v25.6c0,2,0,3.3,0.1,3.9s0.3,0.9,0.7,1.2s1.1,0.4,2.1,0.4h0.6v1.1h-10.3v-1.1h0.7
			c0.9,0,1.6-0.1,2-0.4s0.6-0.6,0.7-1.1s0.1-1.8,0.1-4v-19c0-2-0.2-3.3-0.5-3.8s-1.2-0.8-2.6-0.8v-1.1c1,0,2.1-0.1,3.4-0.3
			s2.2-0.4,2.7-0.7H108.7z"/>
		<path class="st1" d="M124.5,381.7h-1.4l-6.8-15.4c-0.7-1.5-1.2-2.4-1.6-2.8s-1-0.6-1.9-0.7v-1.1h8.7v1.1c-1,0-1.6,0.1-2,0.2
			s-0.5,0.5-0.5,0.9c0,0.3,0.3,1.2,0.9,2.5l5.2,11.6l4.7-10.4c0.7-1.7,1.1-2.7,1.1-3.2c0-1-0.8-1.6-2.3-1.7v-1.1h6.5v1.1
			c-0.8,0-1.5,0.4-2,1s-1.3,2-2.3,4.2L124.5,381.7z"/>
		<path class="st1" d="M142.6,361v13.4c0,2,0,3.3,0.1,3.9s0.3,0.9,0.7,1.2s1.1,0.4,2.1,0.4h0.5v1.1h-10.3v-1.1h0.8
			c1.1,0,1.8-0.2,2.2-0.5s0.5-0.7,0.6-1.1s0.1-1.7,0.1-3.9v-5.8c0-2.2-0.1-3.6-0.3-4.1s-0.5-0.8-0.8-0.9s-1-0.2-1.8-0.2h-0.6v-1.1
			c2.8-0.3,4.9-0.7,6.5-1.2H142.6z M138,351.2c0-0.7,0.2-1.2,0.7-1.7s1.1-0.7,1.7-0.7s1.2,0.2,1.7,0.7s0.7,1.1,0.7,1.7
			c0,0.7-0.2,1.3-0.7,1.8s-1,0.7-1.7,0.7s-1.2-0.2-1.7-0.7S138,351.9,138,351.2z"/>
		<path class="st1" d="M164.9,363.8v-7.5c0-2,0-3.3-0.1-3.9s-0.3-0.9-0.7-1.2s-1.1-0.4-2.1-0.4h-0.5v-1.1c1.9,0,4-0.4,6.2-1h0.5
			v25.8c0,2.2,0,3.6,0.1,4.1s0.3,0.8,0.7,1.1s1.2,0.4,2.3,0.4v1.1c-2.3,0-4.3,0.2-6,0.6c-0.2-0.7-0.3-1.9-0.3-3.5
			c-1.2,1.2-2.3,2-3.6,2.6s-2.5,0.9-3.8,0.9c-2.5,0-4.6-1-6.4-3s-2.7-4.4-2.7-7.3c0-3.1,0.9-5.7,2.8-7.6s4-2.9,6.6-2.9
			c1.3,0,2.5,0.2,3.7,0.7S163.8,362.9,164.9,363.8z M164.9,365.1c-1-0.9-2.1-1.6-3.1-2s-2.1-0.7-3.1-0.7c-1.8,0-3.2,0.7-4.4,2
			s-1.8,3.6-1.8,6.7c0,3.1,0.6,5.4,1.8,6.9s2.7,2.2,4.5,2.2c1.2,0,2.3-0.3,3.3-0.8s2-1.4,2.8-2.5V365.1z"/>
		<path class="st1" d="M193,377.4h0.9c-0.1,2.7-1.5,4-3.9,4c-1.1,0-1.9-0.3-2.5-0.8s-1-1.4-1.2-2.5c-1.6,1.1-3,1.9-4.3,2.5
			s-2.4,0.8-3.5,0.8c-1.3,0-2.4-0.4-3.4-1.1s-1.4-1.7-1.4-3c0-1.6,0.8-3,2.4-4.2s3.7-2.4,6.5-3.5l3.6-1.5v-0.9
			c0-1.3-0.1-2.3-0.3-2.9s-0.6-1.1-1.3-1.6s-1.7-0.7-2.8-0.7c-2.3,0-3.6,0.8-3.9,2.3c-0.2,1.6-0.9,2.4-2,2.4c-1,0-1.4-0.5-1.4-1.4
			c0-0.9,0.6-1.8,1.9-2.9s3.2-1.5,5.9-1.5c2,0,3.5,0.3,4.6,0.9s1.8,1.3,2.2,2.1s0.5,2,0.5,3.7v7.8c0,1.8,0.1,3,0.3,3.5
			s0.6,0.8,1.2,0.8C192.1,379.7,192.7,379,193,377.4z M186.2,369.2l-2.6,1c-4,1.6-6,3.7-6,6.2c0,1,0.3,1.8,0.8,2.4s1.2,0.9,2,0.9
			c0.7,0,1.6-0.2,2.6-0.7s2.1-1.2,3.3-2.2V369.2z"/>
		<path class="st1" d="M199,381.7H198V356c0-1.9-0.1-3.1-0.2-3.6s-0.4-1-0.8-1.2s-1.1-0.4-2.2-0.4v-1.1c0.9,0,2-0.1,3.3-0.3
			s2.2-0.4,2.6-0.7h0.5v15.2c1.1-1,2.2-1.7,3.3-2.2s2.3-0.7,3.4-0.7c2.8,0,5,1,6.8,2.9s2.6,4.4,2.6,7.4c0,3-0.9,5.5-2.7,7.5
			s-4.2,3-7.1,3c-1.4,0-2.7-0.3-3.7-0.9s-2-1.5-2.7-2.6C200.4,379.2,199.6,380.4,199,381.7z M201.4,365.3v7.5c0,1.9,0.1,3.3,0.4,4.2
			s0.9,1.7,1.9,2.4s2.1,1.2,3.4,1.2c2,0,3.6-0.8,4.8-2.5s1.8-4,1.8-7.1c0-2.9-0.6-5-1.7-6.5s-2.6-2.2-4.5-2.2
			c-1.1,0-2.1,0.3-3.1,0.8S202.4,364.3,201.4,365.3z"/>
		<path class="st1" d="M226.2,348.7v25.6c0,2,0,3.3,0.1,3.9s0.3,0.9,0.7,1.2s1.1,0.4,2.1,0.4h0.6v1.1h-10.3v-1.1h0.7
			c0.9,0,1.6-0.1,2-0.4s0.6-0.6,0.7-1.1s0.1-1.8,0.1-4v-19c0-2-0.2-3.3-0.5-3.8s-1.2-0.8-2.6-0.8v-1.1c1,0,2.1-0.1,3.4-0.3
			s2.2-0.4,2.7-0.7H226.2z"/>
		<path class="st1" d="M249.6,368.2h-13.4c-0.1,0.9-0.1,1.6-0.1,2.1c0,3.4,0.5,5.9,1.6,7.6s2.6,2.5,4.7,2.5c2.8,0,4.9-1.3,6-3.8h1.1
			c-0.5,1.6-1.5,2.8-3,3.7s-3.1,1.3-4.9,1.3c-1.6,0-3.2-0.4-4.6-1.2s-2.6-2-3.6-3.5s-1.4-3.3-1.4-5.5c0-3,0.9-5.6,2.7-7.6s4-3,6.7-3
			c2.5,0,4.5,0.8,5.8,2.3S249.5,366.5,249.6,368.2z M245.5,367.3c0-0.4,0.1-0.7,0.1-1c0-1.4-0.4-2.4-1.2-3.2s-1.8-1.1-3-1.1
			c-2.8,0-4.5,1.8-5.1,5.3H245.5z"/>
		<path class="st1" d="M253.5,379.2c0-0.7,0.2-1.3,0.7-1.8s1.1-0.7,1.8-0.7c0.7,0,1.3,0.2,1.8,0.7s0.7,1.1,0.7,1.8
			c0,0.7-0.2,1.3-0.8,1.8s-1.1,0.7-1.8,0.7c-0.7,0-1.3-0.3-1.8-0.8S253.5,379.9,253.5,379.2z"/>
	</g>
</g>
</svg>
