<?xml version="1.0" encoding="utf-8"?>
<!-- Generator: Adobe Illustrator 22.0.1, SVG Export Plug-In . SVG Version: 6.00 Build 0)  -->
<svg version="1.1" xmlns="http://www.w3.org/2000/svg" xmlns:xlink="http://www.w3.org/1999/xlink" x="0px" y="0px"
	 viewBox="0 0 80 80" style="enable-background:new 0 0 80 80;" xml:space="preserve">
<style type="text/css">
	.st0{fill:url(#SVGID_1_);}
</style>
<g id="Layer_2">
</g>
<g id="Layer_1">
	<g>
		<g>
			
				<linearGradient id="SVGID_1_" gradientUnits="userSpaceOnUse" x1="1.4015" y1="27.26" x2="76.2926" y2="57.0994" gradientTransform="matrix(1 0 0 -1 0 82)">
				<stop  offset="0" style="stop-color:#FF00FF"/>
				<stop  offset="1" style="stop-color:#00FFFF"/>
			</linearGradient>
			<path class="st0" d="M75.4,54.3c-1.7,0-2.9-1.2-2.9-2.9c0-1.5,1.2-2.9,2.9-2.9c1.5,0,2.9,1.4,2.9,2.9
				C78.2,53,76.8,54.3,75.4,54.3z M71.7,40c-3.4-6-12.9-5.1-16.6-0.7c-3.5,3.9-1.7,8.9-2.4,10.7c-1.1,2.8-3.8,2-3.8,0.4
				c0,0,0-5.3-0.1-11.4c0-4.6-7.2-4.4-7.2,0.2c0,4.4,0.1,9.2,0.1,9.5c0.1,1.4,0.1,1.8-0.4,2.4c-1.6,2-5.1,2-5.1-1.1c0,0,0-7.6,0-11
				c0-4.4-7.5-4.4-7.5,0.1c0.1,9.4,0.4,11.1-1.6,12.3c-1.3,0.7-3.6,0.6-3.6-2.4c0,0-0.1-13.5-0.1-18.4c0-3.4-1.9-5.8-5.3-5.8
				c-4,0-11.6,0.1-14.8,0.1c-0.9,0-1.6,0.7-1.6,1.6c0,4.6,0.1,17.7,0.1,24.6c0,5.6,7.5,5.5,7.5,0c0-6.6-0.1-11-0.1-11l4.9,0v-2.7
				l-4.9,0L9.2,27.1c0,0,2.4,0,3.7,0c1.8,0,3.2,2.3,3.2,5.1c0,4.8,0.1,16.7,0.1,16.7c0,0.1-0.3,4.7,4.7,5.9c2.1,0.6,4.9,0.1,6.8-1.4
				c1.2-1,1.5-1.4,2.1-1.4c0.4,0,0.7,0.6,1.3,1c2.2,2.2,5.8,2.2,7.2,2c3-0.2,3.7-2.2,4.4-2.1c0.7,0.1,2.1,1.9,4.6,1.9
				c2.3,0.1,4-0.8,5.5-2.3c0.4-0.3,0.8-0.6,1.1-0.6c0.1,0.1,0.1,0,0.7,0.6c1.1,1,3.3,2.5,6.7,2.5c1.5,0,5.5,0.5,8.8-2.8
				C72,50.3,74.6,45.2,71.7,40z M63.8,52.3c-3,1.6-3.8-3-4-6.2c-0.3-3.5-0.2-8.8,3.6-7.4c1.3,0.5,2.1,2.9,2.4,6.2
				C66.1,47.9,65.8,51.2,63.8,52.3z"/>
		</g>
	</g>
</g>
</svg>
