<?xml version="1.0" encoding="utf-8"?>
<!-- Generator: Adobe Illustrator 21.1.0, SVG Export Plug-In . SVG Version: 6.00 Build 0)  -->
<svg version="1.1" id="Layer_2" xmlns="http://www.w3.org/2000/svg" xmlns:xlink="http://www.w3.org/1999/xlink" x="0px" y="0px"
	 viewBox="0 0 123 487.7" style="enable-background:new 0 0 123 487.7;" xml:space="preserve">
<style type="text/css">
	.st0{fill:#FFFFFF;}
</style>
<g>
	<path class="st0" d="M49.6,59.2l66.1,29.1l0,24.5H113v-2.9c0-3.9-0.3-6.5-1-7.7c-0.6-1.2-1.9-2-3.6-2.4s-6-0.6-12.6-0.6l-39.2,0
		c-6.3,0-10.4,0.2-12.3,0.5c-1.9,0.3-3.4,1.1-4.3,2.4c-0.9,1.3-1.4,3.7-1.4,7.3v3.5h-2.7l0-38.2h2.7v2.8c0,3.4,0.4,5.7,1.3,7
		c0.9,1.3,2.2,2.2,4,2.5c1.8,0.4,6.1,0.6,12.8,0.6l50.9,0L35.8,56v-2.8l71.7-31.9l-46.8,0c-6.4,0-10.8,0.2-13.1,0.6
		c-2.3,0.4-4.4,1.6-6.1,3.7c-1.7,2-2.7,4.9-3,8.6h-2.7l0-28.6h2.7c0.2,3.4,1.1,6.2,2.8,8.3c1.7,2.1,3.7,3.4,6.2,3.9
		c2.4,0.5,7,0.7,13.6,0.7l34.8,0c6.4,0,10.5-0.2,12.3-0.6c1.8-0.4,3.1-1.2,3.8-2.4c0.7-1.2,1.1-3.8,1.1-7.9V5.6h2.7l0,24.3
		L49.6,59.2z"/>
	<path class="st0" d="M60,119.7c7.4,0,13.6,2.5,18.5,7.4c5,5,7.5,11,7.5,18.3c0,7.3-2.5,13.4-7.5,18.3c-5,5-11.2,7.4-18.5,7.4
		c-8.1,0-14.5-2.5-19.2-7.5c-4.7-5-7-11.1-7-18.2c0-7.1,2.4-13.2,7.1-18.2C45.7,122.2,52,119.7,60,119.7z M59.7,129.4
		c-8.6,0-14.6,1.4-18,4.2c-3.4,2.8-5.2,6.7-5.2,11.7c0,5.1,1.7,9.1,5.2,11.8c3.4,2.7,9.4,4.1,18,4.1c8.5,0,14.5-1.4,18.2-4.1
		c3.6-2.7,5.4-6.7,5.4-11.8c0-5.1-1.8-9.1-5.4-11.8C74.3,130.8,68.2,129.4,59.7,129.4z"/>
	<path class="st0" d="M81.3,208.7l0-14.6l-29.2,0c-4.5,0-7.5,0.2-9,0.6c-1.6,0.4-2.8,1.2-3.7,2.5c-0.9,1.3-1.4,2.6-1.4,4.1
		c0,2.8,1.6,5.3,4.8,7.4l-1.1,1.9c-2.6-1.2-4.5-3-5.9-5.4c-1.3-2.4-2-4.8-2-7.2c0-2.8,0.8-5.3,2.5-7.5c1.7-2.1,3.6-3.5,5.9-4
		c2.2-0.5,6.2-0.8,11.8-0.8l27.4,0v-7H84c0.1,3.2,1.4,6.1,4.1,8.7c2.6,2.6,6.3,4.2,11.1,4.9v1.9H84l0,14.6H81.3z"/>
	<path class="st0" d="M86,230.2l-33.7,0c-5.1,0-8.4,0.1-9.7,0.2c-1.3,0.2-2.4,0.7-3.1,1.7c-0.7,1-1.1,2.7-1.1,5.2v1.2h-2.7v-26h2.7
		v2c0,2.8,0.4,4.6,1.2,5.5c0.8,0.8,1.8,1.3,2.9,1.5c1.1,0.1,4.4,0.2,9.8,0.2l14.6,0c5.7,0,9.1-0.3,10.4-0.8c1.3-0.5,2-1.2,2.4-2.1
		c0.3-0.9,0.5-2.4,0.5-4.6v-1.6h2.7c0.7,7,1.7,12.4,3.1,16.3V230.2z M110.6,218.8c1.7,0,3.1,0.6,4.4,1.8c1.2,1.2,1.8,2.6,1.8,4.3
		c0,1.7-0.6,3.1-1.8,4.3c-1.2,1.2-2.7,1.8-4.4,1.8c-1.7,0-3.2-0.6-4.4-1.8c-1.2-1.2-1.8-2.6-1.8-4.3c0-1.7,0.6-3.1,1.8-4.3
		C107.4,219.4,108.9,218.8,110.6,218.8z"/>
	<path class="st0" d="M60,245.4c7.4,0,13.6,2.5,18.5,7.4c5,5,7.5,11,7.5,18.3c0,7.3-2.5,13.4-7.5,18.3c-5,5-11.2,7.4-18.5,7.4
		c-8.1,0-14.5-2.5-19.2-7.5c-4.7-5-7-11.1-7-18.2c0-7.1,2.4-13.2,7.1-18.2C45.7,247.9,52,245.4,60,245.4z M59.7,255.2
		c-8.6,0-14.6,1.4-18,4.2c-3.4,2.8-5.2,6.7-5.2,11.7c0,5.1,1.7,9.1,5.2,11.8c3.4,2.7,9.4,4.1,18,4.1c8.5,0,14.5-1.4,18.2-4.1
		c3.6-2.7,5.4-6.7,5.4-11.8c0-5.1-1.8-9.1-5.4-11.8C74.3,256.5,68.2,255.2,59.7,255.2z"/>
	<path class="st0" d="M86,317.9v1.6c-2.4,0.9-5.8,1.4-10,1.5c3.3,2.8,5.8,5.8,7.5,8.9c1.7,3.1,2.5,6.3,2.5,9.7c0,3.9-0.8,7-2.4,9.5
		c-1.6,2.5-3.6,4-5.9,4.7c-2.3,0.7-5.7,1.1-10.2,1.1l-15.1,0c-5.6,0-9,0.1-10.2,0.3c-1.2,0.2-2.1,0.8-2.7,1.9c-0.6,1-0.9,3-0.9,5.7
		h-2.7l0-24.7h2.7v1.1c0,2.8,0.4,4.7,1.2,5.5c0.8,0.9,1.8,1.4,2.9,1.5c1.1,0.1,4.3,0.2,9.7,0.2l15.6,0c3.8,0,6.5-0.2,8.2-0.6
		c1.6-0.4,3.1-1.4,4.3-3c1.3-1.6,1.9-3.7,1.9-6.2c0-2.9-0.9-5.6-2.6-8.2s-4.3-5.1-7.7-7.4l-19.7,0c-5.6,0-9,0.1-10.2,0.3
		c-1.2,0.2-2.1,0.8-2.7,1.9c-0.6,1-0.9,3-0.9,5.8h-2.7v-24.4h2.7c0,2.7,0.3,4.6,0.8,5.7c0.5,1.1,1.4,1.7,2.5,2
		c1.1,0.3,4.6,0.4,10.5,0.4l14.4,0c5.6,0,9-0.1,10.2-0.3c1.2-0.2,2.1-0.8,2.7-1.9c0.6-1,0.9-3,0.9-5.8h2.7
		C83.7,309,84.7,313.4,86,317.9z"/>
</g>
</svg>
