<?xml version="1.0" encoding="utf-8"?>
<!-- Generator: Adobe Illustrator 21.0.0, SVG Export Plug-In . SVG Version: 6.00 Build 0)  -->
<svg version="1.1" id="Layer_1" xmlns="http://www.w3.org/2000/svg" xmlns:xlink="http://www.w3.org/1999/xlink" x="0px" y="0px"
	 viewBox="0 0 503.4 457.2" style="enable-background:new 0 0 503.4 457.2;" xml:space="preserve">
<style type="text/css">
	.st0{fill:url(#SVGID_1_);}
	.st1{fill:url(#SVGID_2_);}
	.st2{fill:url(#SVGID_3_);}
	.st3{fill:url(#SVGID_4_);}
	.st4{fill:url(#SVGID_5_);}
	.st5{fill:url(#SVGID_6_);}
	.st6{fill:url(#SVGID_7_);}
	.st7{fill:url(#SVGID_8_);}
	.st8{fill:url(#SVGID_9_);}
	.st9{fill:url(#SVGID_10_);}
	.st10{fill:url(#SVGID_11_);}
	.st11{fill:url(#SVGID_12_);}
	.st12{fill:url(#SVGID_13_);}
	.st13{fill:url(#SVGID_14_);}
	.st14{fill:url(#SVGID_15_);}
	.st15{fill:url(#SVGID_16_);}
	.st16{fill:url(#SVGID_17_);}
	.st17{fill:url(#SVGID_18_);}
	.st18{fill:url(#SVGID_19_);}
</style>
<g>
	<g>
		
			<linearGradient id="SVGID_1_" gradientUnits="userSpaceOnUse" x1="1.006" y1="231.8433" x2="500.9146" y2="231.8433" gradientTransform="matrix(1 0 0 -1 0 460)">
			<stop  offset="0" style="stop-color:#FF00FF"/>
			<stop  offset="1" style="stop-color:#00FFFF"/>
		</linearGradient>
		<path class="st0" d="M3,454.9c1.9-26.2,5-52.3,10.6-78c5.5-25,13.2-50,26.3-72.2c10.6-18,25.4-35.2,45.4-42.7
			c19.3-7.2,40.3-9.4,60.5-12.9c23.4-4.1,47-9.1,68.5-19.3c21.2-10,37.6-25.3,51.5-43.9C296,145.7,314.2,97.8,345,58
			c14.4-18.6,31.9-35.3,53.6-45.2c24.4-11.1,51.7-11.9,77.7-7c8.1,1.5,16,3.6,23.9,6c1.9,0.6,2.6-2.3,0.8-2.9
			c-26.8-8.1-55.5-12.3-83.1-5.8c-22.4,5.3-42.1,17.6-58.4,33.7c-36.2,36-55.8,85-82.7,127.6c-13.1,20.8-28.4,41.3-49.4,54.7
			c-21.1,13.5-45.8,20-70.2,24.8c-21.7,4.2-44,6.4-65.3,12.7c-19.1,5.6-33.9,17.2-45.8,33.1c-14.9,19.8-24.2,43.5-30.8,67.2
			c-7,25.8-11.1,52.5-13.7,79.1C1,442.3,0.5,448.6,0,454.9C-0.1,456.9,2.9,456.9,3,454.9L3,454.9z"/>
	</g>
	
		<linearGradient id="SVGID_2_" gradientUnits="userSpaceOnUse" x1="22.4524" y1="224.3818" x2="501.07" y2="224.3818" gradientTransform="matrix(1 0 0 -1 0 460)">
		<stop  offset="0" style="stop-color:#FF00FF"/>
		<stop  offset="1" style="stop-color:#00FFFF"/>
	</linearGradient>
	<path class="st1" d="M501.2,22.5c-25.7-7.5-53.3-10.9-79.6-4.2c-4.2,1.1-8.3,2.4-12.2,4c-12,4.8-22.9,11.8-32.7,20.2
		c-3.5,3-6.8,6.1-10,9.4c-27.4,28.2-45,64-64.4,98.2c-4.7,8.3-9.5,16.5-14.5,24.5c-12.6,20-27,39.7-46.7,53
		c-13,8.8-27.4,14.9-42.2,19.6c-7.8,2.5-15.8,4.6-23.7,6.4c-10.1,2.3-20.4,4.2-30.7,6.2c-10.6,2-21.1,4.3-31.4,7.4
		c-15.8,4.9-28.7,13.8-39.6,25.7c-1.6,1.8-3.2,3.7-4.7,5.6c-14.3,17.9-23.8,39.2-30.6,61c-0.2,0.7-0.5,1.4-0.7,2.2
		c-7.5,24.5-11.7,50-14.4,75.5c-0.4,3.5-0.7,7-1,10.6c-0.2,2.5-0.3,5.1-0.5,7.6c-0.1,1.6,2.6,1.5,2.7-0.3l0,0
		c2-25.1,5.3-50.2,11.3-74.6c5.3-21.5,12.6-42.8,23.7-62c1.1-2,2.3-3.9,3.5-5.8c10.7-16.8,25.2-32.7,44.3-40
		c3.1-1.2,6.3-2.3,9.5-3.2c15.7-4.7,32.2-7,48.1-10.4c4.2-0.9,8.4-1.8,12.6-2.8c17.8-4.2,35.3-9.5,51.7-18
		c19.8-10.1,35.2-25.1,48.4-43c4.5-6.1,8.7-12.3,12.7-18.6c21.8-34.2,38.3-71.7,62.9-104.1c3.6-4.7,7.3-9.3,11.2-13.6
		c9.7-10.7,20.6-20.4,33.2-27.5c1.9-1.1,3.9-2.1,5.9-3.1c23.1-11,49.3-12.1,74.3-7.7c6.7,1.2,13.4,2.6,19.9,4.4
		c1,0.3,1.9,0.4,2.9,0.6C502.2,25.7,502.9,23,501.2,22.5z"/>
	
		<linearGradient id="SVGID_3_" gradientUnits="userSpaceOnUse" x1="43.915" y1="217.14" x2="501.2108" y2="217.14" gradientTransform="matrix(1 0 0 -1 0 460)">
		<stop  offset="0" style="stop-color:#FF00FF"/>
		<stop  offset="1" style="stop-color:#00FFFF"/>
	</linearGradient>
	<path class="st2" d="M501.3,36c-24.6-6.8-51.2-9.5-76.1-2.6c-4,1.1-7.8,2.4-11.6,4c-11.4,4.8-21.4,11.8-30.6,20.1
		c-3.2,2.9-6.4,6-9.4,9.2c-25.6,27.5-42.6,61.7-61.1,94.4c-4.5,7.9-9.1,15.8-13.9,23.5c-12,19.1-25.7,38-44.1,51.3
		c-12.1,8.7-25.5,15.1-39.3,20.1c-7.3,2.7-14.8,5-22.2,7c-9.5,2.6-19.2,4.7-29,6.8c-10,2.2-20,4.5-29.8,7.7
		c-15,4.8-27.5,13.2-38.1,24.4c-1.6,1.7-3.2,3.4-4.7,5.2c-14.1,16.6-23.9,36.5-31,57.1c-0.2,0.7-0.5,1.4-0.7,2
		c-7.8,23.2-12.2,47.5-14.9,71.9c-0.4,3.4-0.7,6.7-1,10.1c-0.2,2.4-0.3,4.9-0.5,7.3c-0.1,1.3,2.3,1.1,2.4-0.6l0,0
		c2.1-24.1,5.5-48.1,12-71.3c5.6-20.4,13.4-40.3,24.7-58.1c1.1-1.8,2.3-3.6,3.5-5.4c10.7-15.6,24.9-30.3,43.1-37.4
		c3-1.2,6-2.2,9-3.2c15-4.8,30.6-7.4,45.5-11.1c4-1,7.9-2,11.9-3.2c16.6-4.7,33-10.5,48.2-19.1c18.4-10.3,32.9-24.9,45.4-42.1
		c4.2-5.8,8.3-11.8,12.1-17.9c20.8-32.8,36.8-68.5,60-99.7c3.3-4.5,6.9-8.9,10.6-13.2c9-10.4,19.2-20,31-27c1.8-1.1,3.7-2.1,5.6-3.1
		c21.9-11,46.9-12.2,70.8-8.5c6.4,1,12.8,2.2,19.1,3.9c0.8,0.2,1.7,0.2,2.5,0.3C502.2,39,502.8,36.4,501.3,36z"/>
	
		<linearGradient id="SVGID_4_" gradientUnits="userSpaceOnUse" x1="65.1" y1="209.9504" x2="501.0419" y2="209.9504" gradientTransform="matrix(1 0 0 -1 0 460)">
		<stop  offset="0" style="stop-color:#FF00FF"/>
		<stop  offset="1" style="stop-color:#00FFFF"/>
	</linearGradient>
	<path class="st3" d="M501.4,49.6c-23.5-6.2-49-8.1-72.7-1c-3.7,1.1-7.4,2.5-11,4.1c-10.8,4.9-20,11.9-28.5,20.1
		c-3,2.9-5.9,5.9-8.7,9c-23.8,26.7-40.1,59.3-57.8,90.5c-4.3,7.6-8.7,15.1-13.3,22.4C298,213,285.1,231.1,268,244.2
		c-11.3,8.7-23.7,15.2-36.5,20.7c-6.8,2.9-13.8,5.4-20.8,7.6c-8.9,2.8-18,5.2-27.3,7.5c-9.5,2.3-19,4.8-28.3,7.9
		c-14.2,4.8-26.2,12.7-36.6,23c-1.6,1.5-3.1,3.1-4.6,4.8c-13.9,15.4-24.1,33.8-31.4,53.1c-0.2,0.6-0.5,1.3-0.7,1.9
		c-8.1,21.9-12.6,45-15.3,68.3c-0.4,3.2-0.7,6.4-1,9.6c-0.2,2.3-0.2,4.6-0.4,6.9c0,1,2,0.6,2.1-1l0,0c2.1-23,5.8-46,12.7-67.9
		c6-19.2,14.2-37.7,25.6-54.1c1.2-1.7,2.3-3.3,3.6-5c10.8-14.4,24.6-27.8,42-34.8c2.8-1.1,5.7-2.2,8.6-3.1c14.3-4.8,29-7.7,43-11.8
		c3.7-1.1,7.4-2.2,11.1-3.5c15.5-5.2,30.6-11.5,44.7-20.3c17-10.5,30.5-24.7,42.3-41.2c4-5.6,7.8-11.3,11.5-17.1
		c19.7-31.3,35.3-65.3,57-95.3c3.1-4.4,6.4-8.6,9.9-12.7c8.4-10,17.7-19.5,28.9-26.5c1.7-1.1,3.5-2.1,5.3-3
		c20.6-10.9,44.5-12.3,67.4-9.2c6.2,0.8,12.3,1.8,18.3,3.3c0.7,0.2,1.4,0,2.1-0.1C502.1,52.3,502.6,49.9,501.4,49.6z"/>
	
		<linearGradient id="SVGID_5_" gradientUnits="userSpaceOnUse" x1="86.8" y1="202.6359" x2="501.3559" y2="202.6359" gradientTransform="matrix(1 0 0 -1 0 460)">
		<stop  offset="0" style="stop-color:#FF00FF"/>
		<stop  offset="1" style="stop-color:#00FFFF"/>
	</linearGradient>
	<path class="st4" d="M501.5,63.1c-22.5-5.6-46.9-6.7-69.2,0.6c-3.5,1.2-7,2.5-10.3,4.2c-10.1,4.9-18.6,12-26.4,20
		c-2.8,2.8-5.4,5.8-8,8.8c-22.1,26-37.6,56.9-54.6,86.7c-4.1,7.2-8.3,14.4-12.6,21.4c-10.9,17.5-23.1,34.8-38.8,47.8
		c-10.4,8.6-21.8,15.4-33.7,21.2c-6.3,3.1-12.7,5.8-19.3,8.2c-8.3,3.1-16.8,5.7-25.6,8.1c-9,2.5-17.9,5-26.7,8.2
		c-13.4,4.8-25,12.1-35.2,21.6c-1.5,1.4-3,2.9-4.5,4.4c-13.8,14.1-24.2,31-31.9,49.2c-0.3,0.6-0.5,1.2-0.8,1.8
		c-8.4,20.5-13,42.6-15.8,64.8c-0.4,3.1-0.7,6.1-1,9.2c-0.2,2.2-0.1,4.4-0.3,6.6c0,0.6,1.7,0.2,1.9-1.3l0,0
		c2.2-22,6.1-43.9,13.3-64.5c6.3-18.1,15-35.1,26.5-50.2c1.2-1.5,2.4-3,3.6-4.5c10.9-13.1,24.4-25.4,40.8-32.1
		c2.7-1.1,5.4-2.1,8.1-3.1c13.6-4.8,27.4-8,40.5-12.6c3.5-1.2,6.9-2.5,10.3-3.8c14.4-5.7,28.3-12.5,41.2-21.4
		c15.6-10.6,28.2-24.5,39.2-40.2c3.8-5.4,7.4-10.8,10.8-16.4c18.7-29.9,33.8-62.1,54.1-90.9c2.9-4.2,6-8.3,9.2-12.3
		c7.8-9.7,16.3-19.1,26.7-25.9c1.6-1.1,3.3-2.1,4.9-3c19.4-10.8,42.1-12.4,64-10c5.9,0.7,11.8,1.4,17.4,2.7c0.6,0.1,1.2-0.2,1.8-0.4
		C502,65.6,502.5,63.3,501.5,63.1z"/>
	
		<linearGradient id="SVGID_6_" gradientUnits="userSpaceOnUse" x1="108.1" y1="195.3655" x2="501.2412" y2="195.3655" gradientTransform="matrix(1 0 0 -1 0 460)">
		<stop  offset="0" style="stop-color:#FF00FF"/>
		<stop  offset="1" style="stop-color:#00FFFF"/>
	</linearGradient>
	<path class="st5" d="M501.5,76.7c-21.4-5-44.7-5.3-65.7,2.2c-3.3,1.2-6.6,2.6-9.7,4.2c-9.5,5-17.1,12.1-24.3,20
		c-2.5,2.8-5,5.7-7.4,8.6c-20.3,25.2-35.1,54.6-51.3,82.8c-3.9,6.8-7.9,13.6-12,20.3c-10.3,16.7-21.7,33.1-36.2,46.1
		c-9.5,8.6-20,15.6-30.9,21.7c-5.8,3.3-11.7,6.2-17.8,8.8c-7.7,3.4-15.7,6.2-24,8.8c-8.4,2.6-16.9,5.3-25.2,8.5
		c-12.6,4.8-23.7,11.6-33.7,20.2c-1.5,1.3-3,2.6-4.4,4c-13.6,12.9-24.3,28.3-32.3,45.3c-0.3,0.6-0.5,1.1-0.8,1.7
		c-8.7,19.2-13.5,40.1-16.3,61.2c-0.4,2.9-0.7,5.8-1.1,8.7c-0.2,2.1-0.1,4.2-0.3,6.3c0,0.3,1.4-0.2,1.6-1.6l0,0
		c2.3-20.9,6.3-41.8,14-61.1c6.7-17,15.8-32.5,27.5-46.2c1.2-1.4,2.4-2.8,3.6-4.1c10.9-11.9,24.1-22.9,39.6-29.5
		c2.5-1.1,5.1-2.1,7.7-3.1c12.8-4.8,25.8-8.3,37.9-13.3c3.2-1.3,6.4-2.7,9.6-4.2c13.2-6.3,25.9-13.5,37.8-22.6
		c14.2-10.8,25.8-24.3,36.1-39.3c3.5-5.1,6.9-10.4,10.2-15.6c17.7-28.4,32.3-58.9,51.1-86.6c2.7-4,5.6-8,8.5-11.8
		c7.2-9.3,14.9-18.7,24.5-25.4c1.5-1.1,3-2.1,4.6-3c18.1-10.8,39.7-12.6,60.5-10.7c5.6,0.5,11.2,0.9,16.6,2.1
		c0.5,0.1,0.9-0.3,1.4-0.7C502,79,502.4,76.9,501.5,76.7z"/>
	
		<linearGradient id="SVGID_7_" gradientUnits="userSpaceOnUse" x1="129.9" y1="187.8698" x2="501.6025" y2="187.8698" gradientTransform="matrix(1 0 0 -1 0 460)">
		<stop  offset="0" style="stop-color:#FF00FF"/>
		<stop  offset="1" style="stop-color:#00FFFF"/>
	</linearGradient>
	<path class="st6" d="M501.6,90.3c-20.4-4.3-42.6-3.9-62.3,3.8c-3.1,1.2-6.1,2.6-9.1,4.3c-8.8,5-15.7,12.2-22.2,19.9
		c-2.3,2.7-4.5,5.5-6.7,8.4c-18.5,24.5-32.6,52.2-48,79c-3.7,6.5-7.5,12.9-11.4,19.3c-9.7,15.8-20.4,31.5-33.6,44.4
		c-8.7,8.5-18.1,15.8-28,22.3c-5.3,3.5-10.7,6.6-16.3,9.5c-7.1,3.6-14.5,6.7-22.3,9.4c-7.9,2.8-15.8,5.6-23.6,8.7
		c-11.8,4.7-22.5,11.1-32.2,18.9c-1.5,1.2-2.9,2.4-4.4,3.6c-13.4,11.7-24.5,25.6-32.7,41.4c-0.3,0.5-0.5,1.1-0.8,1.6
		c-9,17.9-13.9,37.6-16.8,57.6c-0.4,2.8-0.7,5.5-1.1,8.3c-0.2,2,0,4-0.2,6c0,0,1.1-0.6,1.3-1.9l0,0c2.4-19.9,6.6-39.6,14.7-57.8
		c7-15.8,16.6-30,28.4-42.2c1.2-1.2,2.4-2.5,3.7-3.7c11-10.7,23.9-20.4,38.5-26.8c2.4-1.1,4.8-2.1,7.2-3c12.1-4.9,24.1-8.7,35.4-14
		c3-1.4,5.9-2.9,8.8-4.5c12.1-6.8,23.6-14.5,34.3-23.7c12.8-10.9,23.4-24.1,33-38.4c3.3-4.9,6.5-9.9,9.6-14.9
		c16.7-27,30.7-55.7,48.2-82.2c2.5-3.8,5.1-7.6,7.8-11.4c6.5-9,13.5-18.2,22.4-24.9c1.4-1.1,2.8-2,4.3-3
		c16.8-10.7,37.3-12.7,57.1-11.4c5.3,0.3,10.7,0.5,15.8,1.6c0.4,0.1,0.7-0.5,1.1-1.1C501.9,92.4,502.3,90.4,501.6,90.3z"/>
	
		<linearGradient id="SVGID_8_" gradientUnits="userSpaceOnUse" x1="151.8" y1="180.7037" x2="501.924" y2="180.7037" gradientTransform="matrix(1 0 0 -1 0 460)">
		<stop  offset="0" style="stop-color:#FF00FF"/>
		<stop  offset="1" style="stop-color:#00FFFF"/>
	</linearGradient>
	<path class="st7" d="M501.7,103.8c-19.4-3.7-40.5-2.5-58.8,5.4c-2.9,1.2-5.7,2.7-8.4,4.4c-8.2,5.1-14.2,12.3-20.1,19.9
		c-2.1,2.7-4.1,5.4-6,8.2c-16.7,23.7-30.2,49.9-44.8,75.1c-3.5,6.1-7.1,12.2-10.8,18.2c-9.2,15-19.1,29.9-30.9,42.6
		c-7.8,8.4-16.3,16-25.2,22.8c-4.8,3.7-9.7,7-14.8,10.1c-6.5,3.9-13.3,7.2-20.6,10.1c-7.4,2.9-14.8,5.8-22.1,9
		c-11,4.7-21.2,10.5-30.7,17.5c-1.5,1.1-2.9,2.1-4.3,3.3c-13.3,10.4-24.6,22.8-33.1,37.5c-0.3,0.5-0.6,1-0.8,1.5
		c-9.3,16.6-14.4,35.1-17.3,54c-0.4,2.6-0.8,5.2-1.1,7.8c-0.2,1.9,0.1,3.8-0.1,5.6c0.1-0.3,0.9-1.1,1-2.3l0,0
		c2.5-18.8,6.9-37.5,15.3-54.4c7.3-14.7,17.4-27.4,29.3-38.3c1.2-1.1,2.4-2.2,3.7-3.3c11.1-9.5,23.6-18,37.3-24.2c2.3-1,4.5-2,6.8-3
		c11.4-4.9,22.5-9,32.9-14.7c2.7-1.5,5.4-3.1,8-4.9c11-7.3,21.2-15.5,30.8-24.9c11.4-11.1,21.1-23.9,29.9-37.4
		c3.1-4.7,6-9.4,8.9-14.1c15.7-25.6,29.2-52.5,45.3-77.8c2.3-3.7,4.7-7.3,7.2-10.9c5.9-8.6,12.1-17.8,20.2-24.4c1.3-1,2.6-2,3.9-2.9
		c15.6-10.7,34.9-12.8,53.6-12.2c5.1,0.2,10.1,0.1,15,1c0.3,0,0.4-0.6,0.7-1.4C501.9,105.8,502.1,103.9,501.7,103.8z"/>
	
		<linearGradient id="SVGID_9_" gradientUnits="userSpaceOnUse" x1="173.1" y1="173.3712" x2="501.8936" y2="173.3712" gradientTransform="matrix(1 0 0 -1 0 460)">
		<stop  offset="0" style="stop-color:#FF00FF"/>
		<stop  offset="1" style="stop-color:#00FFFF"/>
	</linearGradient>
	<path class="st8" d="M501.8,117.4c-18.4-3-38.3-1.1-55.4,7c-2.7,1.3-5.3,2.8-7.8,4.5c-7.6,5.1-12.8,12.4-18,19.8
		c-1.8,2.6-3.6,5.3-5.4,8c-15,23-27.7,47.5-41.5,71.3c-3.3,5.7-6.7,11.5-10.2,17.2c-8.6,14.2-17.8,28.3-28.3,40.9
		c-7,8.4-14.4,16.2-22.4,23.4c-4.3,3.9-8.7,7.5-13.3,10.7c-5.9,4.1-12.1,7.7-18.9,10.7c-6.8,3.1-13.7,6.1-20.6,9.2
		c-10.2,4.7-20,10-29.3,16.1c-1.4,0.9-2.8,1.9-4.2,2.9c-13.1,9.2-24.8,20.1-33.6,33.6c-0.3,0.4-0.6,0.9-0.9,1.3
		c-9.6,15.2-14.8,32.7-17.7,50.5c-0.4,2.4-0.8,4.9-1.1,7.4c-0.2,1.7,0.2,3.6-0.1,5.3c0.1-0.6,0.6-1.5,0.7-2.6l0,0
		c2.5-17.8,7.2-35.4,16-51c7.7-13.5,18.2-24.8,30.2-34.3c1.2-1,2.5-1.9,3.7-2.8c11.1-8.3,23.4-15.5,36.1-21.6c2.1-1,4.2-2,6.3-3
		c10.7-4.9,20.9-9.3,30.4-15.5c2.5-1.6,4.9-3.3,7.2-5.2c9.8-7.8,18.9-16.5,27.3-26c10-11.2,18.7-23.7,26.8-36.5
		c2.8-4.4,5.6-8.9,8.3-13.4c14.7-24.1,27.7-49.3,42.3-73.4c2.1-3.5,4.3-7,6.5-10.5c5.3-8.2,10.6-17.4,18-23.9c1.2-1,2.4-2,3.6-2.9
		c14.3-10.6,32.5-12.9,50.2-12.9c4.8,0,9.6-0.3,14.2,0.4c0.1,0,0.2-0.8,0.4-1.8C501.9,119.2,502,117.5,501.8,117.4z"/>
	<g>
		
			<linearGradient id="SVGID_10_" gradientUnits="userSpaceOnUse" x1="194.5376" y1="166.1" x2="501.8525" y2="166.1" gradientTransform="matrix(1 0 0 -1 0 460)">
			<stop  offset="0" style="stop-color:#FF00FF"/>
			<stop  offset="1" style="stop-color:#00FFFF"/>
		</linearGradient>
		<path class="st9" d="M501.9,130.7c-20.4,0-42,0.3-59.1,13.1c-6.9,5.2-11.4,12.5-15.8,19.8c-15.1,24.6-28.4,50.3-42.9,75.2
			c-16.1,27.6-33,55.7-54.8,79.3c-8.5,9.3-17.8,17-29,22.7c-15.7,8-31.6,15.4-46.8,24.2c-14.5,8.4-28.1,18.5-38.1,32.1
			c-11.8,16.1-17.4,35.5-20.2,55c-0.2,1.6,0.2,3.4,0,5c2.5-17.7,7.3-35.4,17.1-50.5c8-12.4,19-22.3,31.2-30.4
			c14.1-9.4,29.5-16.7,44.6-24.3c12.5-6.2,24.1-12,34.3-21.7c22.5-21.4,39.4-49,55.2-75.4c15.6-26,29.8-52.9,45.2-79
			c4.6-7.9,9.2-17,15.9-23.4c16.7-16.3,41.5-16.7,63.4-16.7C501.9,135.7,501.9,130.7,501.9,130.7L501.9,130.7z"/>
	</g>
	
		<linearGradient id="SVGID_11_" gradientUnits="userSpaceOnUse" x1="220.544" y1="158.6947" x2="501.2794" y2="158.6947" gradientTransform="matrix(1 0 0 -1 0 460)">
		<stop  offset="0" style="stop-color:#FF00FF"/>
		<stop  offset="1" style="stop-color:#00FFFF"/>
	</linearGradient>
	<path class="st10" d="M502,145.9c-2.8-0.2-6-0.3-8.9,0l0,0c-15.7,1.2-31.6,3.8-44.5,14.3c-6.2,5.1-10.2,12-14.2,18.9
		C420.8,202.6,409,227,396,250.7c-3.7,6.8-7.5,13.6-11.3,20.3c-11.1,19.4-23.1,38.5-37.7,55.3c-7.7,8.9-16.1,16.4-26.3,22.1
		c-14.2,8-28.9,15.4-43.1,24c-13.5,8.2-26.4,17.6-36.1,30.1c-0.4,0.5-0.8,1-1.2,1.6c-9.8,13.2-15.4,28.5-18.9,43.9
		c-0.3,1.4-0.6,2.8-0.8,4.3s0.2,3.2,0.2,4.6c2.8-13.8,7.1-27.7,14.4-40.1c1.1-1.9,2.3-3.7,3.5-5.5c7.8-11.2,18.1-20.4,29.5-28
		c13.2-8.9,27.5-16.2,41.3-23.7c7.3-3.9,14.2-7.7,20.6-12.3c3.7-2.7,7.2-5.6,10.6-9c20.4-20.6,35.5-46.8,49.7-71.9
		c11.5-20.5,22.1-41.5,33.2-62.1c2.3-4.3,4.7-8.6,7-12.9c4.1-7.5,8.3-16.1,14.2-22.3c15-15.7,37.2-17.2,56.9-18.4
		C502,150.5,502,146,502,145.9z"/>
	
		<linearGradient id="SVGID_12_" gradientUnits="userSpaceOnUse" x1="246.9761" y1="151.3483" x2="501.3395" y2="151.3483" gradientTransform="matrix(1 0 0 -1 0 460)">
		<stop  offset="0" style="stop-color:#FF00FF"/>
		<stop  offset="1" style="stop-color:#00FFFF"/>
	</linearGradient>
	<path class="st11" d="M502.1,161.1c-2.4-0.4-5.5-0.6-8.2-0.1l0,0c-14,2.1-28.1,5.4-39.5,15.6c-5.5,4.9-9.1,11.5-12.6,18.1
		c-12,22.2-22.4,45.3-33.8,67.8c-3.3,6.4-6.6,12.9-10,19.3c-9.8,18.3-20.3,36.5-33.3,52.7c-6.9,8.5-14.3,15.8-23.5,21.5
		c-12.8,8-26.1,15.5-39.3,23.8c-12.5,7.9-24.6,16.7-34,28c-0.4,0.5-0.8,0.9-1.2,1.4c-9.6,11.9-15.4,25.6-19.6,39.2
		c-0.4,1.2-0.7,2.6-0.9,4c-0.2,1.5,0.3,3,0.3,4.2c3.3-12.2,8-24.5,15.3-35.7c1.1-1.7,2.2-3.3,3.5-4.9c7.5-10.1,17.3-18.5,27.9-25.7
		c12.4-8.4,25.4-15.6,38-23c6.6-3.9,12.8-7.7,18.6-12.2c3.3-2.6,6.5-5.5,9.5-8.7c18.3-19.8,31.6-44.6,44.1-68.5
		c10.1-19.4,19.4-39.3,29.1-58.9c2-4.1,4.1-8.2,6.2-12.3c3.7-7.1,7.3-15.2,12.6-21.2c13.2-15.1,32.9-17.7,50.5-20
		C502,165.4,502.1,161.3,502.1,161.1z"/>
	
		<linearGradient id="SVGID_13_" gradientUnits="userSpaceOnUse" x1="273.0325" y1="144.0025" x2="501.2096" y2="144.0025" gradientTransform="matrix(1 0 0 -1 0 460)">
		<stop  offset="0" style="stop-color:#FF00FF"/>
		<stop  offset="1" style="stop-color:#00FFFF"/>
	</linearGradient>
	<path class="st12" d="M502.2,176.3c-2-0.6-5.1-0.9-7.4-0.2l0,0c-12.4,2.9-24.7,7-34.6,16.9c-4.8,4.8-7.9,11-11,17.3
		c-10.5,21-19.4,42.8-29.2,64.1c-2.8,6.1-5.6,12.2-8.6,18.2c-8.4,17.3-17.5,34.6-28.9,50.1c-6,8.2-12.6,15.2-20.8,20.9
		c-11.4,8-23.4,15.5-35.5,23.6c-11.5,7.6-22.9,15.8-32,25.9c-0.4,0.4-0.7,0.8-1.1,1.3c-9.3,10.7-15.4,22.7-20.3,34.5
		c-0.4,1.1-0.8,2.3-0.9,3.6c-0.2,1.4,0.3,2.8,0.5,3.8c3.9-10.6,8.9-21.4,16.2-31.3c1.1-1.5,2.2-2.9,3.4-4.4
		c7.3-9,16.4-16.6,26.2-23.3c11.5-8,23.4-15,34.8-22.4c5.9-3.9,11.5-7.6,16.7-12.1c3-2.6,5.8-5.3,8.5-8.5
		c16.2-19.1,27.8-42.4,38.5-65.1c8.7-18.4,16.6-37.1,25.1-55.6c1.8-3.9,3.5-7.7,5.4-11.6c3.2-6.8,6.3-14.3,10.9-20.1
		c11.5-14.5,28.6-18.2,44.1-21.7C502.1,180.2,502.2,176.6,502.2,176.3z"/>
	
		<linearGradient id="SVGID_14_" gradientUnits="userSpaceOnUse" x1="298.9805" y1="136.5068" x2="501.1547" y2="136.5068" gradientTransform="matrix(1 0 0 -1 0 460)">
		<stop  offset="0" style="stop-color:#FF00FF"/>
		<stop  offset="1" style="stop-color:#00FFFF"/>
	</linearGradient>
	<path class="st13" d="M502.4,191.5c-1.5-0.8-4.6-1.2-6.7-0.3l0,0c-10.7,3.8-21.2,8.5-29.7,18.2c-4.1,4.7-6.8,10.5-9.4,16.4
		c-8.9,19.8-16.4,40.4-24.7,60.4c-2.4,5.7-4.7,11.5-7.2,17.2c-7,16.3-14.7,32.7-24.5,47.6c-5.2,7.8-10.9,14.7-18,20.4
		c-10,8-20.6,15.6-31.7,23.4c-10.5,7.4-21.1,14.9-29.9,23.9c-0.4,0.4-0.7,0.7-1.1,1.1c-9,9.4-15.4,19.8-20.9,29.8
		c-0.5,0.9-0.9,2.1-1,3.3c-0.2,1.3,0.3,2.6,0.6,3.4c4.5-9,9.9-18.2,17.1-26.9c1.1-1.3,2.2-2.6,3.4-3.8c7.1-7.9,15.6-14.7,24.6-21
		c10.7-7.5,21.4-14.5,31.5-21.8c5.2-3.8,10.2-7.6,14.7-12c2.6-2.5,5.1-5.2,7.4-8.2c14.2-18.2,23.9-40.3,32.9-61.6
		c7.3-17.3,13.9-35,21-52.3c1.5-3.6,3-7.3,4.5-10.9c2.7-6.4,5.4-13.4,9.3-19c9.7-13.8,24.3-18.7,37.7-23.3
		C502.2,195,502.3,191.9,502.4,191.5z"/>
	
		<linearGradient id="SVGID_15_" gradientUnits="userSpaceOnUse" x1="324.8202" y1="129.1612" x2="501.1748" y2="129.1612" gradientTransform="matrix(1 0 0 -1 0 460)">
		<stop  offset="0" style="stop-color:#FF00FF"/>
		<stop  offset="1" style="stop-color:#00FFFF"/>
	</linearGradient>
	<path class="st14" d="M502.5,206.7c-1.1-1-4.2-1.5-5.9-0.4l0,0c-9,4.7-17.7,10.1-24.8,19.5c-3.4,4.6-5.6,10.1-7.8,15.6
		c-7.4,18.7-13.4,37.9-20.1,56.7c-1.9,5.4-3.8,10.8-5.8,16.2c-5.7,15.2-11.9,30.8-20.1,45c-4.3,7.4-9.2,14.1-15.2,19.8
		c-8.6,8.1-17.9,15.6-28,23.2c-9.5,7.1-19.3,14-27.9,21.8c-0.4,0.3-0.7,0.6-1,1c-8.8,8.2-15.5,16.9-21.6,25c-0.6,0.8-1,1.8-1.1,2.9
		c-0.1,1.2,0.3,2.4,0.8,3c5-7.4,10.8-15.1,18-22.5c1.1-1.1,2.2-2.2,3.3-3.3c6.8-6.7,14.7-12.8,22.9-18.7c9.8-7,19.4-13.9,28.2-21.2
		c4.6-3.8,8.8-7.6,12.7-11.9c2.2-2.5,4.3-5.1,6.3-7.9c12.1-17.5,20.1-38.1,27.3-58.2c5.9-16.3,11.1-32.8,16.9-49
		c1.2-3.4,2.4-6.8,3.7-10.2c2.2-6,4.4-12.6,7.6-17.9c8-13.2,20-19.2,31.2-25C502.3,209.8,502.4,207.2,502.5,206.7z"/>
	
		<linearGradient id="SVGID_16_" gradientUnits="userSpaceOnUse" x1="350.5515" y1="121.7656" x2="501.2699" y2="121.7656" gradientTransform="matrix(1 0 0 -1 0 460)">
		<stop  offset="0" style="stop-color:#FF00FF"/>
		<stop  offset="1" style="stop-color:#00FFFF"/>
	</linearGradient>
	<path class="st15" d="M502.6,221.9c-0.7-1.2-3.7-1.8-5.1-0.5l0,0c-7.3,5.5-14.3,11.6-19.9,20.8c-2.7,4.4-4.5,9.6-6.2,14.8
		c-5.9,17.5-10.5,35.4-15.5,53c-1.4,5-2.9,10.1-4.4,15.1c-4.3,14.2-9,28.8-15.7,42.4c-3.5,7.1-7.5,13.5-12.5,19.2
		c-7.1,8.1-15.2,15.7-24.2,23c-8.5,6.8-17.6,13.1-25.8,19.8c-0.3,0.3-0.7,0.5-1,0.8c-8.5,6.9-15.6,14-22.3,20.3
		c-0.7,0.6-1.1,1.6-1.2,2.6c-0.1,1.1,0.3,2.2,0.9,2.6c5.6-5.8,11.8-11.9,18.9-18.1c1.1-0.9,2.1-1.8,3.2-2.8
		c6.6-5.6,13.9-11,21.2-16.3c9-6.5,17.4-13.3,24.9-20.6c3.9-3.8,7.5-7.5,10.7-11.7c1.8-2.4,3.6-4.9,5.2-7.6
		c10-16.7,16.2-35.9,21.8-54.7c4.5-15.2,8.4-30.7,12.8-45.8c0.9-3.2,1.9-6.4,2.9-9.5c1.7-5.6,3.4-11.7,6-16.8
		c6.2-12.6,15.7-19.7,24.8-26.6C502.4,224.6,502.5,222.5,502.6,221.9z"/>
	
		<linearGradient id="SVGID_17_" gradientUnits="userSpaceOnUse" x1="376.1744" y1="114.4201" x2="501.44" y2="114.4201" gradientTransform="matrix(1 0 0 -1 0 460)">
		<stop  offset="0" style="stop-color:#FF00FF"/>
		<stop  offset="1" style="stop-color:#00FFFF"/>
	</linearGradient>
	<path class="st16" d="M502.8,237.1c-0.3-1.4-3.3-2.1-4.4-0.6l0,0c-5.7,6.4-10.8,13.2-14.9,22c-2,4.3-3.3,9.1-4.6,13.9
		c-4.3,16.3-7.5,32.9-10.9,49.3c-1,4.7-2,9.4-3,14.1c-3,13.1-6.2,26.9-11.3,39.8c-2.6,6.7-5.7,12.9-9.7,18.6
		c-5.7,8.1-12.4,15.8-20.4,22.8c-7.5,6.6-15.8,12.2-23.8,17.7c-0.3,0.2-0.7,0.5-1,0.7c-8.2,5.7-15.8,11.1-22.9,15.6
		c-0.7,0.5-1.2,1.3-1.3,2.2c-0.1,1,0.4,2,1.1,2.3c6.2-4.2,12.7-8.8,19.8-13.7c1.1-0.7,2.1-1.5,3.2-2.2c6.3-4.5,13-9.1,19.6-14
		c8.1-6.1,15.4-12.7,21.7-19.9c3.2-3.7,6.1-7.5,8.7-11.6c1.5-2.4,2.9-4.8,4.1-7.4c7.9-15.9,12.4-33.7,16.2-51.3
		c3.1-14.2,5.6-28.5,8.8-42.5c0.7-3,1.3-5.9,2-8.9c1.2-5.3,2.5-10.8,4.3-15.7c4.5-11.9,11.4-20.2,18.4-28.3
		C502.4,239.5,502.6,237.7,502.8,237.1z"/>
	
		<linearGradient id="SVGID_18_" gradientUnits="userSpaceOnUse" x1="401.6894" y1="106.9246" x2="501.703" y2="106.9246" gradientTransform="matrix(1 0 0 -1 0 460)">
		<stop  offset="0" style="stop-color:#FF00FF"/>
		<stop  offset="1" style="stop-color:#00FFFF"/>
	</linearGradient>
	<path class="st17" d="M502.9,252.4c0.3-1.6-2.8-2.4-3.6-0.7l0,0c-4,7.2-7.4,14.8-10,23.3c-1.3,4.2-2.2,8.6-3,13.1
		c-2.8,15.1-4.5,30.4-6.4,45.6c-0.5,4.4-1.1,8.7-1.7,13.1c-1.7,12.1-3.5,24.9-6.9,37.2c-1.8,6.3-4,12.4-6.9,18
		c-4.3,8.2-9.7,15.8-16.7,22.6c-6.6,6.3-14.1,11.3-21.7,15.6c-0.3,0.2-0.6,0.4-0.9,0.5c-8,4.4-15.9,8.1-23.6,10.9
		c-0.8,0.3-1.3,1.1-1.3,1.9c-0.1,0.9,0.4,1.8,1.3,1.9c6.7-2.6,13.6-5.6,20.6-9.3c1-0.5,2.1-1.1,3.1-1.7c6.1-3.4,12.2-7.2,17.9-11.6
		c7.3-5.6,13.4-12.1,18.4-19.3c2.6-3.7,4.8-7.5,6.7-11.5c1.1-2.3,2.1-4.7,3.1-7.1c5.8-15.1,8.5-31.6,10.6-47.9
		c1.7-13.1,2.9-26.3,4.7-39.2c0.4-2.7,0.8-5.5,1.2-8.2c0.7-4.9,1.5-9.9,2.7-14.6c2.8-11.3,8.1-20.2,12-29.9
		C502.6,254.3,502.8,253.1,502.9,252.4z"/>
	<g>
		
			<linearGradient id="SVGID_19_" gradientUnits="userSpaceOnUse" x1="427.0966" y1="99.583" x2="502.069" y2="99.583" gradientTransform="matrix(1 0 0 -1 0 460)">
			<stop  offset="0" style="stop-color:#FF00FF"/>
			<stop  offset="1" style="stop-color:#00FFFF"/>
		</linearGradient>
		<path class="st18" d="M500.1,266.8c-8.4,29.5-7.7,60.4-8.6,90.8c-0.7,25-1.5,54.9-19.5,74.4c-5.8,6.3-12.9,10.8-20.6,13.9
			c-7.7,3.2-16,5.1-24.3,6.2c-1.9,0.2-1.9,3.3,0,3c7.3-1,14.6-2.5,21.5-4.9s13.5-5.8,19.4-10.4c9.7-7.7,16.1-18.4,19.8-30.1
			c9-27.7,6.4-58.4,7.6-87.2c0.7-18.5,2.5-37,7.6-54.9C503.6,265.7,500.7,264.9,500.1,266.8L500.1,266.8z"/>
	</g>
</g>
</svg>
