<?xml version="1.0" encoding="utf-8"?>
<!-- Generator: Adobe Illustrator 21.0.0, SVG Export Plug-In . SVG Version: 6.00 Build 0)  -->
<svg version="1.1" id="Layer_1" xmlns="http://www.w3.org/2000/svg" xmlns:xlink="http://www.w3.org/1999/xlink" x="0px" y="0px"
	 viewBox="0 0 1600 198" style="enable-background:new 0 0 1600 198;" xml:space="preserve">
<style type="text/css">
	.st0{fill:none;stroke:url(#SVGID_1_);stroke-width:4;stroke-linecap:round;stroke-miterlimit:10;}
	.st1{fill:none;stroke:url(#SVGID_2_);stroke-width:4;stroke-linecap:round;stroke-miterlimit:10;}
	.st2{fill:none;stroke:url(#SVGID_3_);stroke-width:4;stroke-linecap:round;stroke-miterlimit:10;}
	.st3{fill:none;stroke:url(#SVGID_4_);stroke-width:4;stroke-linecap:round;stroke-miterlimit:10;}
	.st4{fill:none;stroke:url(#SVGID_5_);stroke-width:4;stroke-linecap:round;stroke-miterlimit:10;}
	.st5{fill:none;stroke:url(#SVGID_6_);stroke-width:4;stroke-linecap:round;stroke-miterlimit:10;}
	.st6{fill:none;stroke:url(#SVGID_7_);stroke-width:4;stroke-linecap:round;stroke-miterlimit:10;}
	.st7{fill:none;stroke:url(#SVGID_8_);stroke-width:4;stroke-linecap:round;stroke-miterlimit:10;}
	.st8{fill:none;stroke:url(#SVGID_9_);stroke-width:4;stroke-linecap:round;stroke-miterlimit:10;}
	.st9{fill:none;stroke:url(#SVGID_10_);stroke-width:4;stroke-linecap:round;stroke-miterlimit:10;}
</style>
<linearGradient id="SVGID_1_" gradientUnits="userSpaceOnUse" x1="-6.8" y1="-81.1251" x2="1679.5" y2="-81.1251" gradientTransform="matrix(1 0 0 1 0 150)">
	<stop  offset="0" style="stop-color:#E337FC"/>
	<stop  offset="0.3069" style="stop-color:#5CABFC"/>
	<stop  offset="0.6728" style="stop-color:#57BBC1"/>
	<stop  offset="0.9902" style="stop-color:#E337FC"/>
</linearGradient>
<path class="st0" d="M1677.5,130.8c-327,0-431-123.9-852.7-123.8C404.2,7,299.1,128-4.8,128"/>
<linearGradient id="SVGID_2_" gradientUnits="userSpaceOnUse" x1="-27.2" y1="-62.6001" x2="1659.1" y2="-62.6001" gradientTransform="matrix(1 0 0 1 0 150)">
	<stop  offset="0" style="stop-color:#E337FC"/>
	<stop  offset="0.3069" style="stop-color:#5CABFC"/>
	<stop  offset="0.6728" style="stop-color:#57BBC1"/>
	<stop  offset="0.9902" style="stop-color:#E337FC"/>
</linearGradient>
<path class="st1" d="M1657.1,148.4c-327,0-431-122.2-852.7-122c-420.6,0-525.7,121-829.6,121"/>
<linearGradient id="SVGID_3_" gradientUnits="userSpaceOnUse" x1="-47.6" y1="-43.7001" x2="1638.7" y2="-43.7001" gradientTransform="matrix(1 0 0 1 0 150)">
	<stop  offset="0" style="stop-color:#E337FC"/>
	<stop  offset="0.3069" style="stop-color:#5CABFC"/>
	<stop  offset="0.6728" style="stop-color:#57BBC1"/>
	<stop  offset="0.9902" style="stop-color:#E337FC"/>
</linearGradient>
<path class="st2" d="M1636.7,166.8c-327,0-431-121.2-852.7-121c-420.6,0-525.7,121-829.6,121"/>
<linearGradient id="SVGID_4_" gradientUnits="userSpaceOnUse" x1="-67.9999" y1="-24.3003" x2="1618.3" y2="-24.3003" gradientTransform="matrix(1 0 0 1 0 150)">
	<stop  offset="0" style="stop-color:#E337FC"/>
	<stop  offset="0.3069" style="stop-color:#5CABFC"/>
	<stop  offset="0.6728" style="stop-color:#57BBC1"/>
	<stop  offset="0.9902" style="stop-color:#E337FC"/>
</linearGradient>
<path class="st3" d="M1616.3,184.2c-327,0-431-119.3-852.7-119c-420.6,0-525.7,121-829.6,121"/>
<linearGradient id="SVGID_5_" gradientUnits="userSpaceOnUse" x1="-88.4" y1="-4.9003" x2="1597.9" y2="-4.9003" gradientTransform="matrix(1 0 0 1 0 150)">
	<stop  offset="0" style="stop-color:#E337FC"/>
	<stop  offset="0.3069" style="stop-color:#5CABFC"/>
	<stop  offset="0.6728" style="stop-color:#57BBC1"/>
	<stop  offset="0.9902" style="stop-color:#E337FC"/>
</linearGradient>
<path class="st4" d="M1595.9,205.6c-327,0-431-121.3-852.7-121c-420.6,0-525.7,121-829.6,121"/>
<linearGradient id="SVGID_6_" gradientUnits="userSpaceOnUse" x1="-108.8" y1="14.4997" x2="1577.5" y2="14.4997" gradientTransform="matrix(1 0 0 1 0 150)">
	<stop  offset="0" style="stop-color:#E337FC"/>
	<stop  offset="0.3069" style="stop-color:#5CABFC"/>
	<stop  offset="0.6728" style="stop-color:#57BBC1"/>
	<stop  offset="0.9902" style="stop-color:#E337FC"/>
</linearGradient>
<path class="st5" d="M1575.5,225c-327,0-431-121.3-852.7-121c-420.6,0-525.7,121-829.6,121"/>
<linearGradient id="SVGID_7_" gradientUnits="userSpaceOnUse" x1="-129.1" y1="33.8997" x2="1557.2" y2="33.8997" gradientTransform="matrix(1 0 0 1 0 150)">
	<stop  offset="0" style="stop-color:#E337FC"/>
	<stop  offset="0.3069" style="stop-color:#5CABFC"/>
	<stop  offset="0.6728" style="stop-color:#57BBC1"/>
	<stop  offset="0.9902" style="stop-color:#E337FC"/>
</linearGradient>
<path class="st6" d="M1555.2,244.4c-327,0-431-121.3-852.7-121c-420.6,0-525.7,121-829.6,121"/>
<linearGradient id="SVGID_8_" gradientUnits="userSpaceOnUse" x1="-149.4999" y1="53.2997" x2="1536.8" y2="53.2997" gradientTransform="matrix(1 0 0 1 0 150)">
	<stop  offset="0" style="stop-color:#E337FC"/>
	<stop  offset="0.3069" style="stop-color:#5CABFC"/>
	<stop  offset="0.6728" style="stop-color:#57BBC1"/>
	<stop  offset="0.9902" style="stop-color:#E337FC"/>
</linearGradient>
<path class="st7" d="M1534.8,263.8c-327,0-431-121.3-852.7-121c-420.6,0-525.7,121-829.6,121"/>
<linearGradient id="SVGID_9_" gradientUnits="userSpaceOnUse" x1="-169.9" y1="72.6997" x2="1516.4" y2="72.6997" gradientTransform="matrix(1 0 0 1 0 150)">
	<stop  offset="0" style="stop-color:#E337FC"/>
	<stop  offset="0.3069" style="stop-color:#5CABFC"/>
	<stop  offset="0.6728" style="stop-color:#57BBC1"/>
	<stop  offset="0.9902" style="stop-color:#E337FC"/>
</linearGradient>
<path class="st8" d="M1514.4,283.2c-327,0-431-121.3-852.7-121c-420.6,0-525.7,121-829.6,121"/>
<linearGradient id="SVGID_10_" gradientUnits="userSpaceOnUse" x1="-190.3" y1="92.0997" x2="1496" y2="92.0997" gradientTransform="matrix(1 0 0 1 0 150)">
	<stop  offset="0" style="stop-color:#E337FC"/>
	<stop  offset="0.3069" style="stop-color:#5CABFC"/>
	<stop  offset="0.6728" style="stop-color:#57BBC1"/>
	<stop  offset="0.9902" style="stop-color:#E337FC"/>
</linearGradient>
<path class="st9" d="M1494,302.6c-327,0-431-121.3-852.7-121c-420.6,0-525.7,121-829.6,121"/>
</svg>
