<?xml version="1.0" encoding="utf-8"?>
<!-- Generator: Adobe Illustrator 21.1.0, SVG Export Plug-In . SVG Version: 6.00 Build 0)  -->
<svg version="1.1" id="Layer_1" xmlns="http://www.w3.org/2000/svg" xmlns:xlink="http://www.w3.org/1999/xlink" x="0px" y="0px"
	 viewBox="0 0 61.7 411.6" style="enable-background:new 0 0 61.7 411.6;" xml:space="preserve">
<style type="text/css">
	.st0{fill:url(#SVGID_1_);}
</style>
<linearGradient id="SVGID_1_" gradientUnits="userSpaceOnUse" x1="30.9636" y1="408" x2="30.9636" y2="1.6012">
	<stop  offset="0" style="stop-color:#FF00FF"/>
	<stop  offset="1" style="stop-color:#00FFFF"/>
</linearGradient>
<path class="st0" d="M32.2,273.2c-2.1,4.1-4,8.4-5.1,12.9c-0.6,2.3-0.9,4.7-1.1,7.1c-0.3,3.5-0.2,7,0.1,10.3
	c1.1,12.2,5.1,23.9,10.5,34.7c0.8,1.7,1.7,3.4,2.6,5c6.3,11.6,14,22.4,22.5,32.6v-2.9c-5.9-7.3-11.4-14.9-16.2-23
	c-7.6-12.6-13.9-26.1-16.5-40.6c-0.6-3.4-1-6.8-1.1-10.1c-0.2-7.8,1-15.6,4.4-23c0.7-1.5,1.4-3,2.2-4.5c3.7-7.3,8-14.2,12-21.2
	c0.8-1.4,1.5-2.7,2.3-4.1c3.8-7.1,7.3-14.5,10-22.2c1.2-3.4,2.2-6.8,3-10.2v-5.7c-1.7,11.8-6.4,23-11.9,33.5
	C44.2,252.4,37.6,262.4,32.2,273.2z M60.3,84.8c0.4,2.3,0.9,4.6,1.5,6.9V59.2c-1.1,3.2-1.9,6.5-2.3,9.9C59,74.5,59.3,79.6,60.3,84.8
	z M46.2,265.6c3.3-6.9,7.3-13.5,10.8-20.3c0.7-1.3,1.3-2.6,2-3.9c1-1.9,1.9-3.9,2.8-5.9v-1.7c-0.6,1.3-1.2,2.6-1.9,3.9
	c-5,10.1-11,19.8-15.9,30c-1.9,3.9-3.6,8-4.7,12.3c-0.5,2.2-0.9,4.4-1.1,6.7c-0.3,3.3-0.3,6.6-0.1,9.8c0.7,11.5,4.1,22.6,8.8,33.1
	c0.7,1.6,1.5,3.2,2.3,4.8c3.6,7.1,7.8,14,12.5,20.5v-3.5c-2.5-3.7-4.9-7.6-7-11.5c-6.7-12.1-12.1-25-14-38.7
	c-0.5-3.2-0.7-6.4-0.7-9.6c0-7.4,1.2-14.7,4.3-21.7C44.8,268.4,45.5,267,46.2,265.6z M39.7,245.9c-6.2,11-13.4,21.5-19.3,32.7
	c-2.2,4.3-4.3,8.8-5.5,13.6c-0.6,2.4-1,4.9-1.1,7.5c-0.2,3.6-0.1,7.3,0.3,10.9c1.4,12.8,6.1,25.1,12.1,36.4c0.9,1.8,1.9,3.5,2.9,5.2
	c8.2,14.2,18.3,27.2,29.2,39.4c1.1,1.2,2.2,2.5,3.3,3.7v-2.7c-9.3-10.2-17.9-21-25.4-32.6c-8.5-13.1-15.8-27.2-19-42.5
	c-0.8-3.6-1.3-7.2-1.4-10.7c-0.4-8.3,0.8-16.5,4.5-24.3c0.7-1.6,1.5-3.2,2.4-4.7c4-7.6,8.7-14.8,13.1-22.2c0.9-1.4,1.7-2.9,2.5-4.3
	c4.3-7.4,8.3-15.1,11.5-23.2c1.6-4,2.9-8.1,4-12.3c3.3-13.3,2.5-26.6-0.4-39.9c-2.9-13.6-7.5-26.9-12-40.1
	c-5.4-16-10.8-32.1-13-48.9c-1.8-13.6-1.1-27.6,4-40.2c0.3-0.8,0.7-1.7,1.1-2.5c3.6-7.9,8.5-14.9,14.5-21c4.2-4.3,8.9-8.1,13.8-11.6
	V9.2c-8.4,5.2-16.2,11.4-22.1,19.3c-1,1.3-2,2.5-2.9,3.8C29.8,43,25.6,55.2,24.9,68c-0.3,5.7,0,11.3,0.8,16.9
	c2.4,18.3,8.8,36.1,14.8,53.7c2.6,7.5,5.1,15,7.3,22.5c4.3,14.6,8,30.2,6.2,45.5C52.4,220.7,46.6,233.7,39.7,245.9z M50.2,84.9
	c2.4,13.9,6.9,27.5,11.5,41v-5.2c-2.4-7.7-4.4-15.5-5.9-23.5c-2.1-11.3-2.6-22.9-0.3-33.6c0.1-0.7,0.3-1.4,0.5-2.1
	c1.3-5.4,3.1-10.6,5.7-15.3V38c-6,9.5-11.4,19.4-12.3,30.8C49,74.3,49.3,79.5,50.2,84.9z M25.5,370.2C16.2,356.7,7.8,341.9,4,325.8
	c-3-12.6-2.9-25.1,2.8-36.8c5.5-11.4,13-21.8,19.7-32.6c7.2-11.6,13.8-23.8,17.5-37.1c3.9-13.9,3.1-28,0.1-42
	c-6.8-31.8-22.3-61.3-26.2-93.7c-1.8-15.3-0.4-31,6.6-45c8.1-16,22.1-27.7,37.3-36.8V0.1c-0.2-0.1-0.6-0.2-0.9,0
	C47.5,8.1,35,18.2,26.4,31.5c-7,10.9-10.6,23.4-11.1,36.3c-1.3,32.9,14,64,23,94.8c4.3,14.9,8,30.7,5.8,46.3
	C42,223.6,35.4,237.3,28,250c-6.8,11.5-14.6,22.4-20.9,34.1c-2.4,4.5-4.7,9.2-5.9,14.2c-1.5,6.3-1.4,13-0.6,19.3
	c2,15.6,8.8,30.3,16.9,43.6c9,14.7,19.9,28.3,31.4,41.1c2.8,3.1,5.6,6.1,8.4,9.1c0.8,0.9,2.1-0.4,1.3-1.3
	C46.7,397.6,35.3,384.4,25.5,370.2z M48,30.3c-0.8,1.1-1.8,1.9-2.5,3c-6.9,10.6-11.9,22.3-12.7,35.1c-0.3,5.6,0,11.1,0.8,16.6
	c2.6,18,8.9,35.4,14.8,52.8c2.5,7.4,5,14.8,7.2,22.1c2.6,8.8,5,17.8,6.1,27v-9.3c-0.2-0.9-0.4-1.9-0.6-2.8
	c-2.8-12.9-7.1-25.5-11.4-38c-5.1-15.2-10.2-30.4-12.5-46.3c-1.9-12.9-1.6-26,2.5-38c0.3-0.8,0.6-1.6,0.9-2.4
	c2.9-7.5,7-14.3,12.3-20.2c2.7-3,5.6-5.9,8.8-8.6v-3.5C56.4,21.1,51.7,25.2,48,30.3z M56.4,32c-0.6,0.8-1.6,1.2-2.2,2.1
	c-6.9,10.6-12.5,21.8-13.4,34.5c-0.4,5.5-0.1,10.9,0.8,16.3c2.8,17.6,9,34.7,14.8,51.8c1.8,5.4,3.7,10.8,5.4,16.3v-4.9
	c-1.2-3.5-2.3-7.1-3.5-10.6c-4.8-14.4-9.6-28.7-12-43.7c-2-12.1-2.1-24.4,1.1-35.8c0.2-0.7,0.4-1.5,0.7-2.2
	c2.3-7.1,5.5-13.6,10-19.4c1.2-1.5,2.4-3,3.8-4.4v-5.5C59.7,28,57.9,29.8,56.4,32z M53.1,293c-0.3-3-0.4-6-0.4-9
	c0.2-6.9,1.4-13.8,4.2-20.4c0.6-1.4,1.2-2.7,1.8-4.1c1-2.1,2-4.2,3-6.2v-1.8c-1.8,3.6-3.6,7.2-5.3,10.8c-1.7,3.7-3.3,7.6-4.3,11.6
	c-0.5,2.1-0.9,4.2-1.1,6.3c-0.3,3.1-0.4,6.2-0.3,9.2c0.4,10.9,3.2,21.4,7.2,31.4c0.6,1.5,1.3,3.1,2,4.6c0.5,1.2,1.1,2.4,1.7,3.5
	v-5.2C57.3,313.9,54.2,303.7,53.1,293z"/>
</svg>
