<?xml version="1.0" encoding="utf-8"?>
<!-- Generator: Adobe Illustrator 21.1.0, SVG Export Plug-In . SVG Version: 6.00 Build 0)  -->
<svg version="1.1" id="Layer_3" xmlns="http://www.w3.org/2000/svg" xmlns:xlink="http://www.w3.org/1999/xlink" x="0px" y="0px"
	 viewBox="0 0 123 487.7" style="enable-background:new 0 0 123 487.7;" xml:space="preserve">
<style type="text/css">
	.st0{fill:#FFFFFF;}
</style>
<g>
	<path class="st0" d="M34.8,89.8v-2.7l65.9-24.3L34.8,41.5v-2.8l62.3-19.3c5.7-1.7,9.4-3,11.3-3.7c1.9-0.8,3.2-1.8,4.1-3
		s1.4-3.3,1.5-6.2h2.7l0,30H114c-0.2-3.6-0.8-5.9-1.6-7c-0.8-1-1.9-1.5-3.4-1.5c-1.3,0-4.6,0.8-10,2.5L52.5,44.8l64.2,20.9v3.3
		L52.5,92.4l42.4,12.2c5.7,1.6,9.5,2.4,11.3,2.4c5.2,0,7.8-2.8,7.8-8.3h2.7l0,21.8H114c-0.2-3.2-1.4-5.6-3.6-7.2
		c-2.1-1.6-7.3-3.6-15.4-6L34.8,89.8z"/>
	<path class="st0" d="M68.7,159v-33.7c-2.3-0.2-4-0.2-5.2-0.2c-8.5,0-14.9,1.3-19.1,4c-4.3,2.7-6.4,6.6-6.4,11.9
		c0,7.2,3.2,12.2,9.6,15.2v2.8c-4-1.3-7.1-3.8-9.4-7.5c-2.3-3.7-3.4-7.8-3.4-12.2c0-4.1,1-7.9,3.1-11.6c2.1-3.6,5-6.6,8.8-8.9
		c3.8-2.3,8.4-3.5,13.7-3.5c7.6,0,14,2.2,19,6.7c5,4.5,7.6,10.1,7.6,16.8c0,6.3-1.9,11.2-5.8,14.7C77.4,157,73.2,158.8,68.7,159z
		 M71.1,148.7c0.9,0.1,1.7,0.2,2.4,0.2c3.5,0,6.1-1,8-3c1.9-2,2.9-4.5,2.9-7.5c0-7.2-4.4-11.4-13.3-12.8V148.7z"/>
	<path class="st0" d="M34.8,175.2v-2.3l64.6,0c4.7,0,7.8-0.1,9.1-0.4c1.4-0.3,2.4-0.9,3.1-1.9c0.7-1,1-2.9,1-5.5h2.7
		c0,2.3,0.3,5.1,0.8,8.4c0.5,3.3,1.1,5.5,1.7,6.7v1.2l-38.2,0c2.5,2.8,4.3,5.5,5.5,8.4c1.2,2.8,1.8,5.7,1.8,8.6
		c0,7-2.4,12.7-7.3,17.1c-4.8,4.4-11,6.7-18.5,6.7c-7.5,0-13.8-2.3-18.9-6.8c-5-4.6-7.5-10.5-7.5-17.7c0-3.6,0.7-6.7,2.2-9.4
		c1.5-2.7,3.7-4.9,6.7-6.7C41.2,178.9,38.2,176.8,34.8,175.2z M76.1,181.4H57.2c-4.9,0-8.4,0.3-10.5,1c-2.1,0.6-4.2,2.2-6.2,4.7
		c-2,2.5-2.9,5.4-2.9,8.7c0,5.1,2.1,9.1,6.2,12.1c4.2,3,10.2,4.5,18,4.5c7.2,0,12.7-1.4,16.4-4.2s5.6-6.6,5.6-11.2
		c0-2.7-0.6-5.3-1.9-7.9C80.7,186.5,78.7,183.9,76.1,181.4z"/>
</g>
</svg>
