<?xml version="1.0" encoding="utf-8"?>
<!-- Generator: Adobe Illustrator 21.1.0, SVG Export Plug-In . SVG Version: 6.00 Build 0)  -->
<svg version="1.1" id="Layer_1" xmlns="http://www.w3.org/2000/svg" xmlns:xlink="http://www.w3.org/1999/xlink" x="0px" y="0px"
	 viewBox="0 0 30 30" style="enable-background:new 0 0 30 30;" xml:space="preserve">
<style type="text/css">
	.st0{fill:#FFFFFF;}
</style>
<path class="st0" d="M15.1,28L15.1,28C7.9,28,2,22,1.9,15c0-3.5,1.3-6.8,3.8-9.2C8.1,3.3,11.4,2,14.9,2c0,0,0,0,0.1,0
	c7.1,0,13,5.9,13.1,13c0,3.5-1.3,6.8-3.8,9.2C21.9,26.7,18.6,28,15.1,28z M2.6,14.9c0,6.8,5.6,12.4,12.4,12.4c0,0,0,0,0.1,0
	c3.3,0,6.4-1.3,8.7-3.6s3.6-5.4,3.6-8.7c0-6.8-5.6-12.4-12.4-12.4c0,0,0,0-0.1,0c-3.3,0-6.4,1.3-8.7,3.6C3.9,8.5,2.6,11.7,2.6,14.9z
	 M18.1,13.2c1.1,0,2,0.9,2,2s-0.9,2-2,2H18l0,0c-0.1,0-0.2,0-0.3,0c-0.4-0.1-0.8-0.3-1.1-0.6c-0.7-0.5-1.4-1.1-1.8-1.1
	c-0.5,0-1.3,0.6-2,1.1c-0.3,0.3-0.6,0.5-1,0.6c-0.1,0-0.2,0-0.3,0c0,0,0,0-0.1,0h-0.1c-1.1,0-2-0.9-2-2s0.9-2,2-2h0.1c0,0,0,0,0.1,0
	s0.2,0,0.3,0.1c0.4,0.1,0.7,0.3,1,0.6c0.7,0.5,1.5,1.1,2,1.1s1.2-0.6,1.8-1.1c0.3-0.3,0.6-0.5,1.1-0.6
	C17.8,13.2,17.9,13.2,18.1,13.2L18.1,13.2C18,13.2,18.1,13.2,18.1,13.2 M18.1,12.4L18.1,12.4L18.1,12.4h-0.2c-0.2,0-0.3,0-0.5,0.1
	c-0.5,0.1-0.9,0.4-1.3,0.8l-0.2,0.2c-0.3,0.3-0.9,0.7-1.1,0.7c-0.2,0-0.8-0.5-1.2-0.7l-0.4-0.3c-0.3-0.3-0.7-0.6-1.2-0.7
	c-0.1,0-0.3-0.1-0.4-0.1h-0.2c-1.5,0-2.7,1.2-2.7,2.7s1.2,2.7,2.7,2.7h0.2c0.2,0,0.3,0,0.5-0.1c0.5-0.1,0.9-0.4,1.3-0.7l0.3-0.2
	c0.4-0.3,1-0.7,1.2-0.7s0.8,0.5,1.1,0.7l0.2,0.2c0.4,0.4,0.9,0.7,1.4,0.8c0.1,0,0.3,0.1,0.4,0.1h0l0,0h0.1c1.5,0,2.7-1.2,2.7-2.7
	S19.6,12.4,18.1,12.4L18.1,12.4z"/>
</svg>
