<?xml version="1.0" encoding="utf-8"?>
<!-- Generator: Adobe Illustrator 21.1.0, SVG Export Plug-In . SVG Version: 6.00 Build 0)  -->
<svg version="1.1" id="Layer_1" xmlns="http://www.w3.org/2000/svg" xmlns:xlink="http://www.w3.org/1999/xlink" x="0px" y="0px"
	 viewBox="0 0 30 30" style="enable-background:new 0 0 30 30;" xml:space="preserve">
<style type="text/css">
	.st0{fill:#FFFFFF;}
</style>
<path class="st0" d="M15.1,28.1L15.1,28.1C7.9,28,2,22.1,1.9,15c0-3.5,1.3-6.8,3.8-9.2C8.2,3.3,11.4,2,14.9,2C22.1,2,28,7.9,28,15.1
	c0,3.5-1.3,6.8-3.8,9.2C21.9,26.7,18.6,28.1,15.1,28.1z M2.6,14.9c0,6.8,5.6,12.4,12.4,12.4c0,0,0,0,0.1,0c3.3,0,6.4-1.3,8.7-3.6
	s3.6-5.4,3.6-8.7c0-6.8-5.6-12.4-12.4-12.4c0,0,0,0-0.1,0c-3.3,0-6.4,1.3-8.7,3.6C3.9,8.6,2.6,11.7,2.6,14.9z M13.8,21.3
	c-0.2,0-0.4,0-0.6-0.1c-0.6-0.2-1-0.5-1.3-1s-0.4-1.1-0.2-1.7c0,0,0.1-0.3,0.2-0.5c0.2-0.4,0.6-0.7,0.8-1c0.2-0.1,0.3-0.3,0.5-0.5
	c0.3-0.3,1.1-0.9,1.1-1.2c-0.2-0.1-1.1,0.5-1.4,0.7c-0.2,0.1-0.4,0.3-0.6,0.4c-0.4,0.2-0.8,0.5-1.2,0.6c-0.1,0-0.5,0.1-0.5,0.1
	c-1.2,0-2.2-1-2.2-2.2s1-2.2,2.2-2.2c0,0,0.4,0,0.5,0.1c0.4,0.1,0.8,0.3,1.2,0.5c0.2,0.1,0.4,0.2,0.6,0.4c0.4,0.2,1.2,0.8,1.4,0.7
	c0-0.2-0.8-0.8-1.1-1.1c-0.2-0.2-0.4-0.3-0.6-0.4c-0.3-0.3-0.7-0.6-0.9-1c-0.1-0.1-0.2-0.4-0.2-0.4c-0.4-1.1,0.2-2.4,1.4-2.8
	c0.6-0.2,1.1-0.1,1.7,0.1c0.5,0.3,0.9,0.7,1.1,1.3c0,0,0.1,0.3,0.1,0.5c0,0.4,0,0.9-0.1,1.3c0,0.2-0.1,0.4-0.2,0.7
	c-0.1,0.4-0.4,1.4-0.3,1.5c0.2-0.1,0.5-1,0.6-1.4c0.1-0.2,0.2-0.5,0.2-0.7c0.1-0.4,0.3-0.8,0.6-1.2c0.1-0.1,0.3-0.3,0.4-0.3
	c0.5-0.4,1-0.5,1.6-0.4s1.1,0.4,1.4,0.8c0.4,0.5,0.5,1,0.4,1.6s-0.4,1.1-0.8,1.4c0,0-0.3,0.2-0.4,0.3c-0.4,0.2-0.9,0.2-1.3,0.3
	c-0.2,0-0.5,0-0.7,0c-0.4,0-1.4,0.1-1.5,0.2c0.1,0.2,1.1,0.2,1.6,0.2c0.3,0,0.5,0,0.7,0c0.4,0,0.9,0.1,1.3,0.2
	c0.1,0,0.4,0.2,0.4,0.2l0,0c0.5,0.3,0.8,0.8,0.9,1.4c0.1,0.6,0,1.2-0.3,1.6c-0.3,0.5-0.8,0.8-1.4,0.9c-0.6,0.1-1.2,0-1.6-0.3
	c0,0-0.3-0.2-0.4-0.3c-0.3-0.3-0.5-0.8-0.7-1.1c-0.1-0.2-0.2-0.4-0.3-0.7c-0.2-0.4-0.5-1.3-0.7-1.4c-0.1,0.2,0.2,1.1,0.3,1.5
	c0.1,0.2,0.2,0.5,0.2,0.7c0.1,0.4,0.2,0.9,0.2,1.3c0,0.1-0.1,0.5-0.1,0.5C15.6,20.6,14.7,21.3,13.8,21.3z M14.5,16.4
	c-0.2,0.3-0.5,0.5-0.8,0.7c-0.2,0.2-0.4,0.3-0.5,0.4c-0.3,0.2-0.6,0.5-0.7,0.8c0,0.1-0.1,0.3-0.1,0.3c-0.1,0.4-0.1,0.8,0.1,1.1
	c0.2,0.3,0.5,0.6,0.9,0.7c0.8,0.2,1.6-0.2,1.8-1c0-0.1,0.1-0.3,0.1-0.3c0-0.4-0.1-0.8-0.2-1.1c-0.1-0.2-0.1-0.4-0.2-0.6
	C14.8,17.1,14.6,16.7,14.5,16.4z M16.2,15.8c0.2,0.3,0.3,0.7,0.4,1c0.1,0.2,0.2,0.4,0.3,0.6c0.1,0.3,0.3,0.7,0.6,0.9
	c0.1,0.1,0.2,0.2,0.3,0.2c0.3,0.2,0.7,0.3,1.1,0.2c0.4-0.1,0.7-0.3,0.9-0.6s0.3-0.7,0.2-1.1c-0.1-0.4-0.3-0.7-0.6-0.9
	c-0.1,0-0.2-0.1-0.3-0.1c-0.3-0.1-0.8-0.2-1.1-0.2c-0.2,0-0.4,0-0.7,0C16.9,15.8,16.5,15.8,16.2,15.8z M10.6,13.5
	c-0.8,0-1.5,0.7-1.5,1.5s0.7,1.5,1.5,1.5c0.1,0,0.3,0,0.3,0c0.3-0.1,0.7-0.3,1-0.5c0.2-0.1,0.4-0.2,0.6-0.4c0.3-0.2,0.6-0.4,0.9-0.6
	c-0.3-0.2-0.6-0.4-0.9-0.6c-0.2-0.1-0.4-0.3-0.6-0.4c-0.3-0.2-0.7-0.4-1-0.5C10.9,13.5,10.7,13.5,10.6,13.5z M14.9,15L14.9,15
	L14.9,15C14.9,15,15,15,14.9,15C15,15,15,15,14.9,15C15,15,15,15,14.9,15C15,14.9,15,14.9,14.9,15C15,14.9,15,14.9,14.9,15
	C14.9,14.9,14.9,14.9,14.9,15C14.9,14.9,14.9,14.9,14.9,15C14.9,14.9,14.9,15,14.9,15z M18.3,10.9c-0.3,0-0.6,0.1-0.9,0.3l-0.2,0.2
	c-0.2,0.3-0.4,0.7-0.5,1c-0.1,0.2-0.1,0.4-0.2,0.6c-0.1,0.3-0.2,0.7-0.4,1c0.3-0.1,0.7-0.1,1.1-0.1c0.2,0,0.5,0,0.7,0
	c0.3,0,0.8-0.1,1.1-0.2c0.1,0,0.2-0.1,0.3-0.2c0.3-0.2,0.5-0.6,0.6-1s0-0.8-0.3-1.1c-0.2-0.3-0.6-0.5-1-0.6
	C18.5,10.9,18.4,10.9,18.3,10.9z M13.6,9.4c-0.2,0-0.3,0-0.5,0.1c-0.8,0.3-1.2,1.1-0.9,1.9c0,0,0.1,0.2,0.1,0.3
	c0.2,0.3,0.5,0.6,0.8,0.8c0.2,0.1,0.3,0.3,0.5,0.4c0.3,0.2,0.6,0.4,0.9,0.7c0.1-0.3,0.2-0.7,0.3-1.1c0.1-0.2,0.1-0.5,0.2-0.6
	c0.1-0.3,0.2-0.8,0.1-1.1c0-0.1-0.1-0.3-0.1-0.3c-0.1-0.4-0.4-0.7-0.7-0.8C14,9.5,13.8,9.4,13.6,9.4z"/>
</svg>
