<?xml version="1.0" encoding="utf-8"?>
<!-- Generator: Adobe Illustrator 21.1.0, SVG Export Plug-In . SVG Version: 6.00 Build 0)  -->
<svg version="1.1" id="Layer_1" xmlns="http://www.w3.org/2000/svg" xmlns:xlink="http://www.w3.org/1999/xlink" x="0px" y="0px"
	 viewBox="0 0 30 30" style="enable-background:new 0 0 30 30;" xml:space="preserve">
<style type="text/css">
	.st0{fill:#FFFFFF;}
</style>
<path class="st0" d="M15.1,28.1L15.1,28.1C7.9,28,2,22.1,1.9,15c0-3.5,1.3-6.8,3.8-9.2C8.2,3.3,11.4,2,14.9,2C22.1,2,28,7.9,28,15.1
	c0,3.5-1.3,6.8-3.8,9.2C21.9,26.7,18.6,28.1,15.1,28.1z M2.6,14.9c0,6.8,5.6,12.4,12.4,12.4c0,0,0,0,0.1,0c3.3,0,6.4-1.3,8.7-3.6
	s3.6-5.4,3.6-8.7c0-6.8-5.6-12.4-12.4-12.4c-3.3,0-6.4,1.3-8.7,3.6C3.9,8.6,2.6,11.7,2.6,14.9z M15,20.2L15,20.2
	c-2.9,0-5.3-2.4-5.3-5.2c0-1.4,0.5-2.7,1.5-3.7s2.3-1.5,3.7-1.5l0,0c2.9,0,5.2,2.4,5.3,5.2c0,1.4-0.5,2.7-1.5,3.7S16.4,20.2,15,20.2
	z M15,10.5c-1.2,0-2.3,0.5-3.2,1.3c-0.8,0.8-1.3,2-1.3,3.2c0,2.5,2.1,4.5,4.6,4.5l0,0c1.2,0,2.3-0.5,3.2-1.3c0.8-0.8,1.3-2,1.3-3.2
	C19.5,12.5,17.5,10.5,15,10.5L15,10.5z"/>
</svg>
