<?xml version="1.0" encoding="utf-8"?>
<!-- Generator: Adobe Illustrator 21.1.0, SVG Export Plug-In . SVG Version: 6.00 Build 0)  -->
<svg version="1.1" id="Layer_1" xmlns="http://www.w3.org/2000/svg" xmlns:xlink="http://www.w3.org/1999/xlink" x="0px" y="0px"
	 viewBox="0 0 30 30" style="enable-background:new 0 0 30 30;" xml:space="preserve">
<style type="text/css">
	.st0{fill:#FFFFFF;}
</style>
<path class="st0" d="M15.1,28.1L15.1,28.1C7.9,28,2,22.1,1.9,15c0-3.5,1.3-6.8,3.8-9.2C8.2,3.3,11.5,2,14.9,2C22.1,2,28,7.9,28,15.1
	c0,3.5-1.3,6.8-3.8,9.2C21.9,26.7,18.6,28.1,15.1,28.1z M2.6,14.9c0,6.8,5.6,12.4,12.4,12.4c0,0,0,0,0.1,0c3.3,0,6.4-1.3,8.7-3.6
	s3.6-5.4,3.6-8.7c0-6.8-5.6-12.4-12.4-12.4c0,0,0,0-0.1,0c-3.3,0-6.4,1.3-8.7,3.6C3.9,8.6,2.6,11.7,2.6,14.9z M15,20.2
	c-2.9,0-5.2-2.3-5.2-5.2s2.3-5.2,5.2-5.3c1.3,0,2.7,0.5,3.7,1.5s1.5,2.3,1.6,3.7c0,1.4-0.5,2.7-1.5,3.7C17.7,19.7,16.4,20.2,15,20.2
	L15,20.2L15,20.2z M15,10.5C15,10.5,14.9,10.5,15,10.5c-2.5,0-4.5,2.1-4.5,4.5c0,1.2,0.5,2.3,1.3,3.2c0.9,0.8,2,1.3,3.2,1.3l0,0l0,0
	c1.2,0,2.3-0.5,3.2-1.3c0.8-0.9,1.3-2,1.3-3.2C19.5,12.5,17.4,10.5,15,10.5z M15,20.2c-1.7,0-3.2-0.8-4.2-2.1l-0.2-0.3l0.2-0.2
	c0.4-0.3,1.6-1.1,4.1-0.4c2.3,0.6,3.6,0.1,4.2-0.2l0.9-0.3l-0.5,0.8C18.6,19.2,16.9,20.2,15,20.2z M11.6,18c0.9,1,2.1,1.6,3.4,1.6
	c1.3,0,2.5-0.6,3.4-1.5c-0.8,0.2-2,0.3-3.7-0.1C13,17.4,12,17.7,11.6,18z M15,20.2c-2.9,0-5.2-2.3-5.2-5.2c0-1.1,0.3-2.2,1-3.1
	l0.1-0.1c0.6-0.3,1.8-0.6,3.6-0.2c2,0.5,3.2,0.2,4.1-0.1l0.2-0.1l0.2,0.2c0.8,0.9,1.2,2.1,1.2,3.3C20.2,17.9,17.8,20.2,15,20.2z
	 M11.3,12.4c-0.5,0.8-0.8,1.7-0.8,2.6c0,2.5,2,4.5,4.5,4.5s4.5-2,4.5-4.5c0-1-0.3-1.9-0.9-2.7c-0.9,0.3-2.3,0.5-4.2,0
	C12.7,11.9,11.7,12.2,11.3,12.4z M15,20.2c-2.9,0-5.2-2.3-5.2-5.2c0-0.4,0-0.7,0.1-1.1l0.1-0.4l0.4,0.1c0.8,0.3,2.3,0.9,5,0.2
	c3-0.8,4.4,0.2,4.7,0.5l0.1,0.1v0.1c0,0.1,0,0.3,0,0.4c0,1.4-0.5,2.7-1.5,3.7C17.7,19.7,16.4,20.2,15,20.2L15,20.2L15,20.2z
	 M10.5,14.5c0,0.2,0,0.4,0,0.6c0,1.2,0.5,2.3,1.3,3.2c0.9,0.8,2,1.3,3.2,1.3l0,0l0,0c1.2,0,2.3-0.5,3.2-1.3c0.8-0.9,1.3-2,1.3-3.2
	c0-0.1,0-0.1,0-0.2c-0.4-0.3-1.5-0.9-4-0.3S11.4,14.8,10.5,14.5z"/>
</svg>
