<?xml version="1.0" encoding="utf-8"?>
<!-- Generator: Adobe Illustrator 21.1.0, SVG Export Plug-In . SVG Version: 6.00 Build 0)  -->
<svg version="1.1" id="Layer_1" xmlns="http://www.w3.org/2000/svg" xmlns:xlink="http://www.w3.org/1999/xlink" x="0px" y="0px"
	 viewBox="0 0 30 30" style="enable-background:new 0 0 30 30;" xml:space="preserve">
<style type="text/css">
	.st0{fill:#FFFFFF;}
</style>
<path class="st0" d="M15,24.7c-5.4,0-9.7-4.4-9.7-9.7S9.7,5.3,15,5.3s9.7,4.4,9.7,9.7S20.4,24.7,15,24.7z M15,6c-5,0-9,4-9,9
	s4,9,9,9s9-4,9-9S20,6,15,6z M15,22.4c-4.1,0-7.4-3.3-7.4-7.4s3.3-7.4,7.4-7.4s7.4,3.3,7.4,7.4S19.1,22.4,15,22.4z M15,8.3
	c-3.7,0-6.7,3-6.7,6.7s3,6.7,6.7,6.7s6.7-3,6.7-6.7S18.7,8.3,15,8.3z M15,20.4c-3,0-5.4-2.4-5.4-5.4S12,9.6,15,9.6s5.4,2.4,5.4,5.4
	S18,20.4,15,20.4z M15,10.3c-2.6,0-4.7,2.1-4.7,4.7s2.1,4.7,4.7,4.7c2.6,0,4.7-2.1,4.7-4.7S17.6,10.3,15,10.3z M15.1,28.1L15.1,28.1
	C7.9,28,2,22.1,1.9,15c0-3.5,1.3-6.8,3.8-9.2C8.1,3.4,11.4,2,14.9,2c0,0,0,0,0.1,0c7.1,0,13,5.9,13.1,13c0,3.5-1.3,6.8-3.8,9.2
	C21.9,26.7,18.6,28.1,15.1,28.1z M2.6,14.9c0,6.8,5.6,12.4,12.4,12.4c0,0,0,0,0.1,0c3.3,0,6.4-1.3,8.7-3.6s3.6-5.4,3.6-8.7
	c0-6.8-5.6-12.4-12.4-12.4c0,0,0,0-0.1,0c-3.3,0-6.4,1.3-8.7,3.6C3.9,8.6,2.6,11.7,2.6,14.9z"/>
</svg>
